**ABCDEFGHIJKLMNOPQRSTUVWXYZabcdefghijklmnopqrstuvwxyz**************************
**PARASOLID !"#$%&'()*+,-./:;<=>?@[\]^_`{|}~0123456789**************************
**PART1;
MC=AMD64;
MC_MODEL=Intel64 Family 6 Model 60 Stepping 3, GenuineIntel;
MC_ID=unknown;
OS=Windows_NT;
OS_RELEASE=unknown;
FRU=Parasolid Version 30.0, build 298, 12-15-2017;
APPL=SOLIDWORKS 2018-2018056;
SITE=;
USER=unknown;
FORMAT=text;
GUISE=transmit;
KEY=L bracket‘≤Ω«;
FILE=L bracket‘≤Ω«.x_t;
DATE=Sun Jun 10 16:58:25 2018;
**PART2;
SCH=SCH_3000298_30000;
USFLD_SIZE=0;
**PART3;
**END_OF_HEADER*****************************************************************
T51 : TRANSMIT FILE created by modeller version 300029823 SCH_3000298_30000_1300
6205 0 12 33 CCCCCCI4 mesh1006 0 I8 polyline1008 0 CCCCCCCDI5 owner1040 0 CCCCCC
I13 boundary_mesh1006 0 I17 boundary_polyline1008 0 CCCA16 index_map_offset0 0 1
 dA9 index_map82 0 A17 node_id_index_map82 0 A20 schema_embedding_map82 0 A5 chi
ld12 0 A14 lowest_node_id0 0 1 dZ1 2659 2 3 0 0 0 0 0 0 1e3 1e-8 0 4 0 1 0 1 1 5
 6 7 8 0 0 9 10 11 0 0 0 0 0 0 81 255 2 2 267 12 1 0 0 0 0 13 0 70 11 CI9 list_t
ype0 0 1 uI10 notransmit0 0 1 lCCCDCCDI12 finger_index0 0 1 dI12 finger_block101
2 0 CZ3 0 4 T1 0 0 3 20 1 14 14 13 255 5 134 0 1 0 15 0 0 16 0 51 255 6 249 0 17
 18 0 0 +.02159 .02159 .03175 0 0 1 .00254 1 0 0 31 255 7 230 0 10 19 0 0 +.0215
9 .02159 .03175 0 0 -1 -1 0 0 .00254 29 255 8 215 0 11 20 0 .02159 .01905 .03175
 19 8 CCCCCCCA5 owner12 0 Z9 40 0 1 16 0 21 V0 16 255 10 225 0 ?22 0 23 7 0 0 1
 18 255 11 213 0 24 0 25 8 ?1 17 255 24 0 26 27 28 11 29 30 0 31 +18 25 210 0 32
 11 33 20 ?1 17 32 0 34 35 36 25 37 23 0 28 +18 33 202 0 22 25 38 39 ?1 29 20 21
2 0 25 39 8 .02159 .01905 0 29 39 204 0 33 40 20 .01905 .02159 .03175 29 40 201
 0 38 41 39 .01905 .02159 0 18 38 199 0 37 33 42 40 ?1 29 41 98 0 43 44 40 0 .10
16 0 18 43 85 0 45 46 47 41 ?1 29 44 99 0 47 48 41 .01905 .1016 0 18 47 86 0 49
 43 50 44 ?1 29 48 101 0 50 51 44 .1016 .01905 0 18 50 88 0 52 47 53 48 ?1 29 51
 102 0 53 54 48 .1016 0 0 18 53 89 0 55 50 56 51 ?1 29 54 103 0 56 57 51 0 0 0 1
8 56 90 0 58 53 0 54 ?1 29 57 39 0 42 59 54 0 .1016 .03175 18 42 37 0 60 38 61 5
7 ?1 29 59 36 0 61 62 57 .01905 .1016 .03175 18 61 34 0 63 42 64 59 ?1 29 62 30
 0 64 65 59 .1016 .01905 .03175 18 64 28 0 66 61 67 62 ?1 29 65 27 0 67 68 62 .1
016 0 .03175 18 67 25 0 69 64 46 65 ?1 29 68 24 0 46 0 65 0 0 .03175 18 46 22 0
 70 67 43 68 ?1 17 70 0 71 72 73 46 69 74 0 75 -15 255 71 118 0 55 76 0 17 72 0
 71 55 70 56 77 78 0 79 +17 73 0 71 70 55 67 80 81 0 82 -17 69 0 83 66 75 67 70
 74 0 73 +16 74 7 0 ?69 84 85 86 0 0 1 17 75 0 83 69 60 46 87 85 0 77 +15 83 3 0
 75 88 0 17 60 0 83 75 63 42 89 90 0 91 +17 87 0 92 93 77 42 75 85 0 0 -16 85 4
 0 ?75 74 94 95 0 0 1 17 77 0 92 87 79 46 72 78 0 0 -15 92 120 0 79 15 0 17 79 0
 92 77 93 56 96 97 0 0 +16 78 109 0 ?72 98 81 99 0 0 1 16 98 205 0 ?100 30 78 10
1 0 0 1 16 81 108 0 ?80 78 102 103 0 0 1 30 255 99 127 0 78 103 101 0 +0 0 .0317
5 0 0 -1 30 103 126 0 81 104 99 0 +.1016 0 .03175 0 0 -1 30 101 207 0 98 99 105
 0 +.01905 .02159 0 0 0 -1 30 105 218 0 30 101 19 0 -.02159 .01905 .03175 0 0 -1
 16 30 216 0 ?24 23 98 105 0 0 1 31 19 229 0 23 105 7 0 -.02159 .02159 0 0 0 -1
 -1 0 0 .00254 16 23 221 0 ?32 10 30 19 0 0 1 30 104 125 0 102 106 103 0 +.1016
 .01905 .03175 0 0 -1 16 102 107 0 ?107 81 108 104 0 0 1 30 106 123 0 108 109 10
4 0 +.01905 .1016 .03175 0 0 -1 16 108 105 0 ?110 102 111 106 0 0 1 30 109 122 0
 111 112 106 0 +0 .1016 .03175 0 0 -1 16 111 104 0 ?93 108 90 109 0 0 1 30 112 9
2 0 94 113 109 0 +0 .1016 0 -1 0 0 16 94 61 0 ?45 85 114 112 0 0 1 30 113 93 0 1
14 115 112 0 +.01905 .1016 0 -1260852920152736e-31 1 0 16 114 200 0 ?49 94 116 1
13 0 0 1 30 115 94 0 116 117 113 0 +.01905 .01905 0 -1 0 0 16 116 69 0 ?28 114 1
18 115 0 0 1 30 117 95 0 118 119 115 0 +.1016 0 0 0 1 0 16 118 73 0 ?52 116 120
 117 0 0 1 30 119 96 0 120 121 117 0 +0 0 0 1 0 0 16 120 77 0 ?55 118 97 119 0 0
 1 30 121 97 0 97 122 119 0 +0 0 0 0 -1 0 16 97 81 0 ?79 120 0 121 0 0 1 30 122
 20 0 90 123 121 0 +0 .1016 .03175 -1 0 0 16 90 19 0 ?60 111 124 122 0 0 1 30 12
3 17 0 124 125 122 0 +.01905 .1016 .03175 -1260852920152736e-31 1 0 16 124 203 0
 ?63 90 126 123 0 0 1 30 125 14 0 126 127 123 0 +.01905 .01905 .03175 -1 0 0 16
 126 13 0 ?31 124 84 125 0 0 1 30 127 11 0 84 86 125 0 +.1016 0 .03175 0 1 0 16
 84 10 0 ?66 126 74 127 0 0 1 30 86 8 0 74 95 127 0 +0 0 .03175 1 0 0 30 95 5 0
 85 0 86 0 +0 0 .03175 0 -1 0 17 66 0 83 31 69 64 82 84 0 128 +17 31 0 83 22 66
 11 27 126 0 129 +17 82 0 130 80 128 67 66 84 0 0 -17 128 0 130 82 52 64 107 102
 0 27 -15 130 116 0 52 131 0 17 52 0 130 128 80 50 132 118 0 107 +17 107 0 26 28
 27 50 128 102 0 35 +17 27 0 26 107 24 64 31 126 0 0 -15 26 114 0 28 133 0 17 28
 0 26 24 107 25 35 116 0 29 +14 255 133 115 134 ?135 131 26 5 136 -0 0 135 131 2
1 81 1 134 2651 137 133 138 0 0 139 140 14 135 113 139 ?141 133 142 5 143 -0 0 1
41 133 21 14 131 117 144 ?133 76 130 5 145 -0 0 133 76 21 50 255 136 130 0 133 1
43 145 0 +.01905 .01905 .03175 0 -1 0 0 0 -1 13 21 41 0 0 0 0 0 0 9 15 14 15 121
 146 ?76 0 92 5 18 -0 0 76 0 21 81 1 146 2654 137 15 147 0 144 148 149 14 76 119
 148 ?131 15 71 5 150 -0 0 131 15 21 50 18 133 0 15 150 6 0 +0 0 .03175 1 0 0 0
 0 -1 50 150 132 0 76 145 18 0 +0 0 .03175 0 1 0 0 0 1 50 145 131 0 131 136 150
 0 +.1016 0 .03175 -1 0 0 0 0 1 81 1 148 2655 137 76 151 0 146 152 153 80 255 1
 137 154 155 9000 1 1 1 1 1 1 1 1 0 FFFFTFTFFFFFFF1 81 1 151 2575 156 76 0 148 1
47 157 158 81 1 152 2656 137 159 160 0 148 161 162 82 255 1 153 51511468 14 159
 59 152 ?17 88 34 5 163 +0 0 17 88 21 81 1 160 2581 156 159 0 152 164 165 166 81
 1 161 2657 137 17 165 0 152 167 168 82 1 162 900203368 14 17 237 161 ?0 159 169
 5 6 -0 0 0 159 21 81 1 165 2582 156 17 0 161 160 0 170 81 1 167 2658 137 88 164
 0 161 171 172 82 1 168 905642856 14 88 1 167 ?159 141 83 5 173 -0 0 159 141 21
 81 1 164 2580 156 88 0 167 174 160 175 81 1 171 2659 137 141 174 0 167 0 176 82
 1 172 897516392 14 141 111 171 ?88 135 177 5 178 -0 0 88 135 21 81 1 174 2579 1
56 141 0 171 179 164 180 82 1 176 50462892 80 1 156 0 181 8001 0 0 0 0 3 5 0 0 0
 FFFFTFTFFFFFFF2 81 1 179 2578 156 135 0 139 138 174 182 83 255 3 180 .647058823
529412 .619607843137255 .588235294117647 81 1 139 2652 137 135 179 0 134 144 183
 81 1 138 2577 156 133 0 134 157 179 184 83 3 182 .647058823529412 .619607843137
255 .588235294117647 81 1 157 2576 156 131 0 144 151 138 185 83 3 184 .647058823
529412 .619607843137255 .588235294117647 81 1 144 2653 137 131 157 0 139 146 186
 83 3 185 .647058823529412 .619607843137255 .588235294117647 82 1 186 51249324 8
2 1 183 898564968 79 255 15 181 SDL/TYSA_COLOUR15 177 110 0 45 141 0 50 178 128
 0 141 163 143 0 +0 .1016 .03175 0 -1 0 0 0 -1 50 163 91 0 159 173 178 0 +0 .101
6 0 0 0 -1 -1 0 0 50 143 129 0 135 178 136 0 +.01905 .1016 .03175 -1 -1260852920
152736e-31 0 1260852920152736e-31 -1 0 50 173 2 0 88 0 163 0 +0 .1016 .03175 0 0
 -1 -1 0 0 17 45 0 177 91 110 43 187 94 0 93 +17 91 0 177 89 45 42 93 111 0 87 -
17 110 0 177 45 89 47 188 108 0 187 +17 187 0 34 36 96 47 45 94 0 0 -17 93 0 92
 79 87 43 91 111 0 96 +17 96 0 34 187 58 43 79 97 0 0 -15 34 60 0 96 159 0 17 58
 0 34 96 132 56 55 120 0 72 -17 132 0 34 58 35 53 52 118 0 0 -17 55 0 71 73 72 5
3 58 120 0 80 +17 80 0 130 52 82 53 73 81 0 132 +17 35 0 34 132 32 50 28 116 0 0
 -17 36 0 34 32 187 38 49 114 0 0 -17 49 0 142 188 100 47 36 114 0 110 +15 142 1
12 0 189 135 0 17 188 0 142 189 49 61 110 108 0 89 -17 100 0 142 49 189 38 190 9
8 0 36 +17 189 0 142 100 188 33 63 124 0 190 -17 190 0 169 129 37 33 100 98 0 0
 -15 169 238 0 129 17 0 17 129 0 169 29 190 11 22 10 0 0 -17 37 0 169 190 29 38
 32 23 0 100 -17 29 0 169 37 129 25 24 30 0 0 -17 22 0 83 63 31 33 129 10 0 189
 +17 63 0 83 60 22 61 189 124 0 188 +17 89 0 177 110 91 61 60 90 0 0 -83 3 175 .
647058823529412 .619607843137255 .588235294117647 83 3 170 .647058823529412 .619
607843137255 .588235294117647 83 3 166 .647058823529412 .619607843137255 .588235
294117647 81 1 147 2574 156 15 0 146 0 151 191 83 3 158 .647058823529412 .619607
843137255 .588235294117647 83 3 191 .647058823529412 .619607843137255 .588235294
117647 79 14 155 SWEntUnchanged82 1 149 51773612 82 1 140 898171752 19 16 135 0
 1 0 9 5 S0 74 4 CI16 index_map_offset0 0 1 dCCZ20 14 3 0 0 171 2 165 0 0 0 0 0
 0 0 0 0 0 0 0 0 0 0 0 0 80 2 12 192 193 8004 0 0 0 0 3 5 0 0 0 FFTFFFFFFFFFFF2
 3 83 1 13 1 79 16 193 SDL/TYSA_DENSITY1 0 
