**ABCDEFGHIJKLMNOPQRSTUVWXYZabcdefghijklmnopqrstuvwxyz**************************
**PARASOLID !"#$%&'()*+,-./:;<=>?@[\]^_`{|}~0123456789**************************
**PART1;
MC=AMD64;
MC_MODEL=Intel64 Family 6 Model 60 Stepping 3, GenuineIntel;
MC_ID=unknown;
OS=Windows_NT;
OS_RELEASE=unknown;
FRU=Parasolid Version 30.0, build 310,  6- 8-2018;
APPL=SOLIDWORKS 2018-2018211;
SITE=;
USER=unknown;
FORMAT=text;
GUISE=transmit;
KEY=带孔矩形板二分之一;
FILE=带孔矩形板二分之一.x_t;
DATE=Fri Nov  9 14:39:41 2018;
**PART2;
SCH=SCH_3000310_30000;
USFLD_SIZE=0;
**PART3;
**END_OF_HEADER*****************************************************************
T51 : TRANSMIT FILE created by modeller version 300031023 SCH_3000310_30000_1300
6205 0 12 33 CCCCCCI4 mesh1006 0 I8 polyline1008 0 CCCCCCCDI5 owner1040 0 CCCCCC
I13 boundary_mesh1006 0 I17 boundary_polyline1008 0 CCCA16 index_map_offset0 0 1
 dA9 index_map82 0 A17 node_id_index_map82 0 A20 schema_embedding_map82 0 A5 chi
ld12 0 A14 lowest_node_id0 0 1 dZ1 616 2 3 0 0 0 0 0 0 1e3 1e-8 0 4 0 1 0 1 1 5
 6 7 8 0 0 9 10 11 0 0 0 0 0 0 81 255 2 2 588 12 1 0 0 0 0 13 0 70 11 CI9 list_t
ype0 0 1 uI10 notransmit0 0 1 lCCCDCCDI12 finger_index0 0 1 dI12 finger_block101
2 0 CZ3 0 4 T1 0 0 3 20 1 14 14 13 255 5 94 0 1 0 15 0 0 16 0 50 255 6 92 0 15 1
7 0 0 +.1 -.05 .01 -1 0 0 0 0 1 30 255 7 332 0 10 18 0 0 --.02 0 0 0 0 1 29 255
 8 324 0 11 19 0 .02 0 .01 19 8 CCCCCCCA5 owner12 0 Z9 28 0 1 16 0 20 V0 16 255
 10 330 0 ?21 0 22 7 0 0 1 18 255 11 323 0 23 0 24 8 ?1 17 255 23 0 25 26 27 11
 28 29 0 30 +18 24 320 0 31 11 32 19 ?1 17 31 0 33 34 35 24 36 37 0 21 -18 32 22
 0 38 24 39 40 ?1 29 19 322 0 24 41 8 -.02 0 0 29 41 71 0 42 43 19 -.1 .05 0 18
 42 62 0 44 39 45 41 ?1 29 43 72 0 45 40 41 .1 .05 0 18 45 63 0 46 42 47 43 ?1 2
9 40 24 0 32 48 43 -.1 .05 .01 29 48 21 0 39 49 40 .1 .05 .01 18 39 19 0 50 32 4
2 48 ?1 29 49 539 0 47 51 48 -.1 0 0 18 47 441 0 35 45 52 49 ?1 29 51 541 0 52 5
3 49 .02 0 0 18 52 452 0 26 47 54 51 ?1 29 53 542 0 54 55 51 .1 0 0 18 54 437 0
 56 52 57 53 ?1 29 55 545 0 57 58 53 -.1 0 .01 18 57 439 0 59 54 60 55 ?1 29 58
 546 0 60 61 55 -.02 0 .01 18 60 451 0 34 57 62 58 ?1 29 61 548 0 62 0 58 .1 0 .
01 18 62 443 0 27 60 0 61 ?1 17 27 0 25 23 56 62 63 64 0 28 -15 255 25 460 0 23
 65 0 17 56 0 25 27 26 54 66 67 0 63 -17 63 0 68 46 69 54 27 64 0 70 +16 64 373
 0 ?63 71 72 73 0 0 1 17 28 0 74 50 75 62 23 29 0 69 -15 74 358 0 28 76 0 17 50
 0 74 38 28 39 69 77 0 78 +17 75 0 74 28 79 11 80 71 0 0 -16 29 395 0 ?23 37 81
 82 81 81 1 17 69 0 68 63 78 62 50 77 0 0 -15 68 82 0 69 15 0 17 78 0 68 69 46 3
9 83 84 0 85 -16 77 350 0 ?50 86 87 88 0 0 1 16 86 10 0 ?38 89 77 90 0 0 1 16 87
 45 0 ?91 77 92 93 0 0 1 30 88 8 0 77 94 90 0 +.1 -.05 .01 0 1 0 31 255 94 170 0
 71 95 88 0 +0 0 .01 0 0 1 1 0 0 .02 30 90 11 0 86 88 96 0 +-.1 .05 .01 -1 -2081
66817117217e-30 0 30 96 14 0 89 90 97 0 +-.1 -.05 .01 0 -1 0 16 89 13 0 ?98 99 8
6 96 0 0 1 30 97 68 0 100 96 101 0 +.1 -.05 0 0 1 0 16 100 340 0 ?46 92 102 97 0
 0 1 30 101 67 0 92 97 93 0 +-.1 .05 0 -1 -208166817117217e-30 0 16 92 49 0 ?44
 87 100 101 0 0 1 30 93 66 0 87 101 103 0 +-.1 -.05 0 0 -1 0 30 103 87 0 99 93 1
04 0 +-.1 .05 .01 0 0 -1 16 99 75 0 ?105 84 89 103 0 0 1 30 104 88 0 84 103 18 0
 +.1 .05 .01 0 0 -1 16 84 76 0 ?83 22 99 104 0 0 1 30 18 329 0 22 104 7 0 +.02 0
 0 0 0 1 16 22 328 0 ?30 10 84 18 0 0 1 17 30 0 106 80 107 11 26 22 0 75 +15 106
 157 0 80 108 0 17 80 0 106 21 30 60 75 71 0 0 +17 107 0 106 30 21 52 109 102 0
 0 -17 26 0 25 56 23 52 30 22 0 66 -17 66 0 110 109 70 52 56 67 0 107 +15 110 13
6 0 70 111 0 17 109 0 110 36 66 24 107 102 0 0 +17 70 0 110 66 112 54 46 100 0 0
 -16 67 374 0 ?66 72 37 113 37 37 1 16 72 381 0 ?114 64 67 115 0 0 1 16 37 378 0
 ?36 67 29 113 67 67 1 30 113 533 0 37 0 82 0 +-.110483214960827 0 0 -1 0 0 30 8
2 529 0 81 113 115 0 +-.110483214960827 0 .01 -1 0 0 16 81 399 0 ?59 29 0 82 29
 29 1 30 115 516 0 72 82 73 0 +-.1 0 .01 0 0 1 30 73 515 0 64 115 95 0 +.1 0 .01
 0 0 -1 31 95 171 0 102 73 94 0 +0 0 0 0 0 1 1 0 0 .02 16 102 148 0 ?109 100 71
 95 0 0 1 16 71 151 0 ?80 102 64 94 0 0 1 17 59 0 33 35 34 57 79 81 0 114 +15 33
 464 0 31 116 0 17 35 0 33 31 59 47 114 72 0 36 -17 34 0 33 59 31 60 21 10 0 79
 -17 79 0 74 75 98 60 59 81 0 80 -17 114 0 117 118 91 57 35 72 0 98 +15 117 78 0
 91 119 0 17 118 0 117 105 114 32 98 89 0 0 -17 91 0 117 114 105 47 120 87 0 0 +
17 98 0 74 79 38 57 118 89 0 0 +17 38 0 74 98 50 32 85 86 0 121 +17 85 0 122 83
 121 39 38 86 0 0 -17 121 0 122 85 44 32 105 99 0 118 -15 122 80 0 44 123 0 17 4
4 0 122 121 83 42 112 92 0 105 +17 105 0 117 91 118 42 121 99 0 120 +17 120 0 11
0 112 36 42 91 87 0 0 -17 112 0 110 70 120 45 44 92 0 0 -17 36 0 110 120 109 47
 31 37 0 91 +17 83 0 122 44 85 45 78 84 0 112 +14 255 123 81 124 ?119 15 122 5 1
7 -0 0 119 15 20 81 1 124 609 125 123 126 0 0 127 128 14 119 79 127 ?76 123 117
 5 129 -0 0 76 123 20 14 15 83 130 ?123 0 68 5 6 -0 0 123 0 20 50 17 91 0 123 12
9 6 0 +-.1 .05 .01 208166817117217e-30 -1 0 1 208166817117217e-30 0 13 20 29 0 0
 0 0 0 0 9 15 50 129 90 0 119 131 17 0 +-.1 -.05 .01 1 0 0 0 0 -1 50 131 65 0 11
1 132 129 0 +.1 -.05 0 0 0 1 1 0 0 14 111 43 133 ?108 76 110 5 131 -0 0 108 76 2
0 50 132 2 0 76 134 131 0 +.1 -.05 .01 0 0 1 1 0 0 14 76 1 135 ?111 119 74 5 132
 +0 0 111 119 20 51 255 134 167 0 108 136 132 0 +0 0 0 0 0 1 .02 1 0 0 14 108 15
4 137 ?65 111 106 5 134 -0 0 65 111 20 50 136 512 0 65 0 134 0 +-.11048321496082
7 0 0 0 1 0 0 0 1 14 65 457 138 ?116 108 25 5 136 -116 116 116 108 20 81 1 138 6
15 125 65 139 0 137 140 141 14 116 461 140 ?0 65 33 5 136 -65 65 0 65 20 81 1 14
0 616 125 116 142 0 138 0 143 80 255 1 125 144 145 9000 1 1 1 1 1 1 1 1 0 FFFFTF
TFFFFFFF1 81 1 142 590 146 116 0 140 139 0 147 82 255 1 143 1340539022 80 1 146
 0 148 8001 0 0 0 0 3 5 0 0 0 FFFFTFTFFFFFFF2 81 1 139 589 146 65 0 138 149 142
 150 83 255 3 147 .949019607843137 .737254901960784 .2901960784313725 81 1 149 2
52 146 108 0 137 151 139 152 83 3 150 .949019607843137 .737254901960784 .2901960
784313725 81 1 137 614 125 108 149 0 135 138 153 81 1 151 251 146 111 0 133 154
 149 155 83 3 152 .949019607843137 .737254901960784 .2901960784313725 81 1 133 6
12 125 111 151 0 130 135 156 81 1 154 250 146 76 0 135 157 151 158 83 3 155 .949
019607843137 .737254901960784 .2901960784313725 81 1 135 613 125 76 154 0 133 13
7 159 81 1 157 249 146 119 0 127 126 154 160 83 3 158 .949019607843137 .73725490
1960784 .2901960784313725 81 1 127 610 125 119 157 0 124 130 161 81 1 126 248 14
6 123 0 124 162 157 163 83 3 160 .949019607843137 .737254901960784 .290196078431
3725 81 1 162 247 146 15 0 130 0 126 164 83 3 163 .949019607843137 .737254901960
784 .2901960784313725 81 1 130 611 125 15 162 0 127 133 165 83 3 164 .9490196078
43137 .737254901960784 .2901960784313725 82 1 165 1306329230 82 1 161 1306001550
 82 1 159 1305804942 82 1 156 1305936014 82 1 153 1305477262 79 255 15 148 SDL/T
YSA_COLOUR79 14 145 SWEntUnchanged82 1 141 1341063310 82 1 128 47383039 17 21 0
 106 107 80 24 34 10 0 109 +17 46 0 68 78 63 45 70 100 0 83 +19 16 95 0 1 0 9 5
 S0 74 4 CI16 index_map_offset0 0 1 dCCZ20 14 3 0 0 140 142 2 0 0 0 0 0 0 0 0 0
 0 0 0 0 0 0 0 0 80 2 12 166 167 8004 0 0 0 0 3 5 0 0 0 FFTFFFFFFFFFFF2 3 83 1 1
3 1e3 79 16 167 SDL/TYSA_DENSITY1 0 
