**ABCDEFGHIJKLMNOPQRSTUVWXYZabcdefghijklmnopqrstuvwxyz**************************
**PARASOLID !"#$%&'()*+,-./:;<=>?@[\]^_`{|}~0123456789**************************
**PART1;
MC=AMD64;
MC_MODEL=Intel64 Family 6 Model 60 Stepping 3, GenuineIntel;
MC_ID=unknown;
OS=Windows_NT;
OS_RELEASE=unknown;
FRU=Parasolid Version 30.0, build 298, 12-15-2017;
APPL=SOLIDWORKS 2018-2018056;
SITE=;
USER=unknown;
FORMAT=text;
GUISE=transmit;
KEY=带孔矩形板;
FILE=带孔矩形板.x_t;
DATE=Sat Jun  9 14:40:15 2018;
**PART2;
SCH=SCH_3000298_30000;
USFLD_SIZE=0;
**PART3;
**END_OF_HEADER*****************************************************************
T51 : TRANSMIT FILE created by modeller version 300029823 SCH_3000298_30000_1300
6205 0 12 33 CCCCCCI4 mesh1006 0 I8 polyline1008 0 CCCCCCCDI5 owner1040 0 CCCCCC
I13 boundary_mesh1006 0 I17 boundary_polyline1008 0 CCCA16 index_map_offset0 0 1
 dA9 index_map82 0 A17 node_id_index_map82 0 A20 schema_embedding_map82 0 A5 chi
ld12 0 A14 lowest_node_id0 0 1 dZ1 275 0 2 0 0 0 0 0 0 1e3 1e-8 0 3 0 1 0 1 1 4
 5 6 7 0 0 8 9 10 0 0 0 0 0 0 70 11 CI9 list_type0 0 1 uI10 notransmit0 0 1 lCCC
DCCDI12 finger_index0 0 1 dI12 finger_block1012 0 CZ2 0 4 T1 0 0 2 20 1 11 11 13
 255 4 94 0 1 0 12 0 0 13 0 50 255 5 93 0 12 14 0 0 +-.1 -.05 .01 0 1 0 0 0 1 30
 255 6 89 0 9 15 0 0 +.1 -.05 .01 0 0 -1 29 255 7 70 0 16 17 0 -.1 -.05 0 19 8 C
CCCCCCA5 owner12 0 Z8 28 0 1 13 0 18 V0 16 255 9 77 0 ?19 0 20 6 0 0 1 18 255 10
 25 0 21 0 22 23 ?1 17 255 21 0 24 25 26 10 27 28 0 29 +18 22 22 0 26 10 30 31 ?
1 29 23 27 0 10 31 32 -.1 -.05 .01 29 31 24 0 22 33 23 -.1 .05 .01 29 32 73 0 34
 23 35 .1 -.05 0 18 34 64 0 36 37 0 32 ?1 29 35 72 0 37 32 17 .1 .05 0 18 37 63
 0 38 39 34 35 ?1 29 17 71 0 39 35 7 -.1 .05 0 18 39 62 0 40 16 37 17 ?1 17 40 0
 41 42 43 39 44 45 0 46 +18 16 61 0 47 48 39 7 ?1 17 47 0 49 29 46 16 50 51 0 52
 +18 48 16 0 53 30 16 54 ?1 17 53 0 55 19 56 48 57 58 0 25 -18 30 19 0 57 22 48
 33 ?1 29 54 18 0 48 0 33 .1 -.05 .01 29 33 21 0 30 54 31 .1 .05 .01 17 57 0 24
 26 25 30 53 58 0 56 +15 255 24 3 0 25 59 0 17 26 0 24 21 57 22 60 61 0 42 +17 2
5 0 24 57 21 48 62 63 0 64 +16 58 7 0 ?57 61 63 65 0 0 1 17 56 0 55 53 38 30 43
 20 0 60 -15 55 82 0 38 66 0 17 38 0 55 56 19 37 36 67 0 43 +17 43 0 41 40 60 37
 56 20 0 44 +16 20 76 0 ?43 9 68 15 0 0 1 17 60 0 41 43 42 30 26 61 0 0 -15 41 8
0 0 40 69 0 17 42 0 41 60 40 22 46 68 0 27 -16 61 10 0 ?26 28 58 70 0 0 1 16 28
 13 0 ?21 71 61 72 0 0 1 30 70 11 0 61 65 72 0 +-.1 .05 .01 -1 -208166817117217e
-30 0 30 65 8 0 58 73 70 0 +.1 -.05 .01 0 1 0 30 72 14 0 28 70 74 0 +-.1 -.05 .0
1 0 -1 0 30 74 69 0 75 72 76 0 +-.1 -.05 0 1 0 0 16 75 57 0 ?77 67 78 74 0 0 1 3
0 76 68 0 67 74 79 0 +.1 -.05 0 0 1 0 16 67 53 0 ?38 45 75 76 0 0 1 30 79 67 0 4
5 76 80 0 +-.1 .05 0 -1 -208166817117217e-30 0 16 45 49 0 ?40 51 67 79 0 0 1 30
 80 66 0 51 79 81 0 +-.1 -.05 0 0 -1 0 16 51 45 0 ?47 63 45 80 0 0 1 30 81 86 0
 71 80 82 0 +-.1 -.05 .01 0 0 -1 16 71 74 0 ?52 68 28 81 0 0 1 30 82 87 0 68 81
 15 0 +-.1 .05 .01 0 0 -1 16 68 75 0 ?46 20 71 82 0 0 1 30 15 88 0 20 82 6 0 +.1
 .05 .01 0 0 -1 17 46 0 49 47 27 39 42 68 0 50 +15 49 78 0 47 83 0 17 27 0 49 46
 29 22 21 28 0 0 -17 50 0 84 44 85 39 47 51 0 0 -15 84 44 0 85 86 0 17 44 0 84 3
6 50 37 40 45 0 0 -17 85 0 84 50 36 16 77 75 0 0 -17 36 0 84 85 44 34 38 67 0 19
 -17 77 0 87 64 52 34 85 75 0 0 +15 87 84 0 77 12 0 17 64 0 87 62 77 48 19 9 0 0
 -17 52 0 87 77 62 16 29 71 0 85 +17 62 0 87 52 64 10 25 63 0 0 -17 29 0 49 27 4
7 10 52 71 0 62 -16 63 4 0 ?25 58 51 73 0 0 1 30 73 5 0 63 88 65 0 +-.1 -.05 .01
 1 0 0 31 255 88 170 0 89 90 73 0 +0 0 .01 0 0 1 1 0 0 .02 16 89 151 0 ?91 78 0
 88 0 0 1 31 90 171 0 78 0 88 0 +0 0 0 0 0 1 1 0 0 .02 16 78 148 0 ?92 75 89 90
 0 0 1 17 92 0 93 92 92 0 94 78 0 0 +15 93 136 0 92 86 84 17 94 0 95 94 94 0 92
 78 0 0 -15 95 157 0 94 96 97 14 255 96 154 98 ?0 86 95 4 99 -0 0 0 86 18 15 97
 158 0 91 96 0 17 91 0 97 91 91 0 100 89 0 0 +17 100 0 101 100 100 0 91 89 0 0 -
15 101 143 0 100 59 24 14 59 1 102 ?86 83 101 4 103 +0 0 86 83 18 81 255 1 102 2
70 104 59 105 0 98 106 107 14 86 43 106 ?96 59 93 4 108 -0 0 96 59 18 14 83 79 1
09 ?59 69 49 4 110 -0 0 59 69 18 50 103 2 0 59 99 108 0 +.1 -.05 .01 0 0 1 1 0 0
 13 18 29 0 0 0 0 0 0 8 12 14 12 85 111 ?66 0 87 4 5 -0 0 66 0 18 81 1 111 273 1
04 12 112 0 109 113 114 14 66 83 113 ?69 12 55 4 14 -0 0 69 12 18 81 1 113 274 1
04 66 115 0 111 116 117 14 69 81 116 ?83 66 41 4 118 -0 0 83 66 18 50 14 92 0 66
 118 5 0 +.1 -.05 .01 -1 0 0 0 0 1 50 118 91 0 69 110 14 0 +-.1 .05 .01 20816681
7117217e-30 -1 0 1 208166817117217e-30 0 50 110 90 0 83 108 118 0 +-.1 -.05 .01
 1 0 0 0 0 -1 50 108 65 0 86 103 110 0 +.1 -.05 0 0 0 1 1 0 0 81 1 116 275 104 6
9 119 0 113 0 120 80 255 1 104 121 122 9000 1 1 1 1 1 1 1 1 0 FFFFTFTFFFFFFF1 81
 1 119 248 123 69 0 116 115 124 125 82 255 1 120 47383039 80 1 123 0 126 8001 0
 0 0 0 3 5 0 0 0 FFFFTFTFFFFFFF2 81 1 115 247 123 66 0 113 112 119 127 81 1 124
 249 123 83 0 109 119 105 128 83 255 3 125 .952941176470588 .741176470588235 .29
41176470588235 81 1 109 272 104 83 124 0 106 111 129 81 1 105 250 123 59 0 102 1
24 130 131 83 3 128 .952941176470588 .741176470588235 .2941176470588235 81 1 130
 251 123 86 0 106 105 132 133 83 3 131 .952941176470588 .741176470588235 .294117
6470588235 81 1 106 271 104 86 130 0 102 109 134 81 1 132 252 123 96 0 98 130 0
 135 83 3 133 .952941176470588 .741176470588235 .2941176470588235 81 1 98 269 10
4 96 132 0 0 102 136 83 3 135 .952941176470588 .741176470588235 .294117647058823
5 82 1 136 61211137 82 1 134 44040705 82 1 129 47120895 81 1 112 246 123 12 0 11
1 0 115 137 83 3 127 .952941176470588 .741176470588235 .2941176470588235 83 3 13
7 .952941176470588 .741176470588235 .2941176470588235 79 255 15 126 SDL/TYSA_COL
OUR79 14 122 SWEntUnchanged82 1 117 47645183 82 1 114 47907327 51 255 99 167 0 9
6 0 103 0 +0 0 0 0 0 1 .02 1 0 0 82 1 107 40567297 17 19 0 55 38 53 34 64 9 0 77
 +19 13 95 0 1 0 8 4 S0 74 4 CI16 index_map_offset0 0 1 dCCZ20 11 2 0 0 116 132
 0 0 0 0 0 0 0 0 0 0 0 0 0 0 0 0 0 0 1 0 
