**ABCDEFGHIJKLMNOPQRSTUVWXYZabcdefghijklmnopqrstuvwxyz**************************
**PARASOLID !"#$%&'()*+,-./:;<=>?@[\]^_`{|}~0123456789**************************
**PART1;
MC=AMD64;
MC_MODEL=Intel64 Family 6 Model 60 Stepping 3, GenuineIntel;
MC_ID=unknown;
OS=Windows_NT;
OS_RELEASE=unknown;
FRU=Parasolid Version 30.0, build 310,  6- 8-2018;
APPL=SOLIDWORKS 2018-2018211;
SITE=;
USER=unknown;
FORMAT=text;
GUISE=transmit;
KEY=水杯带桌面;
FILE=水杯带桌面.x_t;
DATE=Thu Oct 11 17:36:08 2018;
**PART2;
SCH=SCH_3000310_30000;
USFLD_SIZE=0;
**PART3;
**END_OF_HEADER*****************************************************************
T51 : TRANSMIT FILE created by modeller version 300031023 SCH_3000310_30000_1300
6205 0 10 19 CCCCCCCI4 mesh1006 0 I8 polyline1008 0 CCCCCCCCCCZ1 5 2 3 0 0 0 0 0
 0 0 1e3 1e-8 0 0 0 1 0 1 4 81 255 2 2 5 5 1 0 0 0 0 0 0 70 11 CI9 list_type0 0
 1 uI10 notransmit0 0 1 lCCCDCCDI12 finger_index0 0 1 dI12 finger_block1012 0 CZ
3 0 4 T1 0 0 1 20 1 6 6 11 255 4 3 0 1 7 8 1 9 0 0 0 12 33 CCCCCCI4 mesh1006 0 I
8 polyline1008 0 CCCCCCCDI5 owner1040 0 CCCCCCI13 boundary_mesh1006 0 I17 bounda
ry_polyline1008 0 CCCA16 index_map_offset0 0 1 dA9 index_map82 0 A17 node_id_ind
ex_map82 0 A20 schema_embedding_map82 0 A5 child12 0 A14 lowest_node_id0 0 1 dZ7
 205 10 11 0 0 0 0 0 0 1e3 1e-8 4 12 0 1 0 1 1 13 14 15 16 0 0 17 18 19 0 0 0 0
 0 0 100 255 8 4 4 0 0 1 0 0 0 1 0 0 0 1 0 0 0 1 0 ?11 9 1 0 1 12 20 1 0 4 0 0 1
2 12 270 21 22 0 0 0 0 0 0 1e3 1e-8 9 23 7 1 0 1 1 24 25 26 0 0 0 27 28 0 0 0 0
 0 0 0 100 20 2 9 0 0 1 0 0 0 1 0 0 0 1 0 0 0 1 0 ?81 1 21 184 29 12 30 0 0 0 0
 70 22 0 4 T12 0 0 4 20 1 31 31 13 255 24 29 0 12 0 32 0 0 33 0 54 255 25 241 0
 34 35 0 0 +0 0 .008 0 0 1 .0552967528871864 .003 1 0 0 31 255 26 224 0 28 36 0
 0 +0 0 .005 0 0 1 1 0 0 .0552967528871864 19 8 CCCCCCCA5 owner12 0 Z27 7 0 12 3
3 0 37 V0 16 255 28 221 0 ?38 0 39 26 0 0 12 17 255 38 0 40 38 38 0 41 28 0 0 +1
6 39 214 0 ?42 28 43 36 0 0 12 17 42 0 44 42 42 0 45 39 0 0 +16 43 18 0 ?46 39 4
7 48 0 0 12 31 36 217 0 39 48 26 0 -0 0 .008 0 0 1 1 0 0 .0582967528871864 31 48
 23 0 43 49 36 0 +0 0 0 0 0 1 1 0 0 .0637197274963361 31 49 97 0 47 50 48 0 +0 0
 .155 0 0 1 1 0 0 .0637197274963361 16 47 60 0 ?51 43 52 49 0 0 12 31 50 99 0 52
 0 49 0 +0 0 .155 0 0 1 1 0 0 .0582967528871864 16 52 69 0 ?53 47 0 50 0 0 12 17
 53 0 54 53 53 0 55 52 0 0 +15 255 54 88 0 53 56 0 17 55 0 57 55 55 0 53 52 0 0
 -15 57 75 0 55 58 0 14 255 58 72 59 ?56 60 61 24 62 +0 0 56 60 37 81 1 59 265 6
3 58 64 0 0 65 66 14 56 85 65 ?67 58 44 24 68 +0 0 67 58 37 14 60 16 69 ?58 32 7
0 24 71 -0 0 58 32 37 15 61 74 0 51 58 57 50 255 62 94 0 58 68 72 0 +0 0 .155 0
 0 1 1 0 0 13 37 8 0 0 0 0 0 0 27 32 14 32 25 73 ?60 0 74 24 35 -0 0 60 0 37 81
 1 73 268 63 32 75 0 69 76 77 15 74 26 0 46 32 78 51 255 35 28 0 32 71 25 0 -0 0
 .005 0 0 -1 .0637197274963361 -1 0 0 50 71 22 0 60 72 35 0 +0 0 0 0 0 1 1 0 0 5
0 72 2 0 67 62 71 0 +0 0 .005 0 0 1 1 0 0 14 67 57 76 ?34 56 40 24 72 +0 0 34 56
 37 81 1 76 269 63 67 79 0 73 80 81 14 34 234 80 ?0 67 82 24 25 -0 0 0 67 37 15
 40 222 0 38 67 0 81 1 80 270 63 34 83 0 76 0 84 15 82 235 0 41 34 85 17 41 0 82
 41 41 0 38 28 0 0 -15 85 236 0 45 34 0 17 45 0 85 45 45 0 42 39 0 0 -80 255 1 6
3 86 87 9000 1 1 1 1 1 1 1 1 0 FFFFTFTFFFFFFF1 81 1 83 250 88 34 0 80 79 0 89 82
 255 1 84 368836748 80 1 88 0 90 8001 0 0 0 0 3 5 0 0 0 FFFFTFTFFFFFFF2 81 1 79
 127 88 67 0 76 91 83 92 83 255 3 89 1 1 1 81 1 91 126 88 56 0 65 64 79 93 83 3
 92 1 1 1 81 1 65 266 63 56 91 0 59 69 94 81 1 64 125 88 58 0 59 95 91 96 83 3 9
3 1 1 1 81 1 95 124 88 60 0 69 75 64 97 83 3 96 1 1 1 81 1 69 267 63 60 95 0 65
 73 98 81 1 75 123 88 32 0 73 0 95 99 83 3 97 1 1 1 83 3 99 1 1 1 82 1 98 168558
733 82 1 94 363856012 79 255 15 90 SDL/TYSA_COLOUR79 14 87 SWEntUnchanged82 1 81
 365232268 17 46 0 74 46 46 0 100 43 0 0 +15 78 83 0 101 32 0 17 101 0 78 101 10
1 0 51 47 0 0 -17 51 0 61 51 51 0 101 47 0 0 +17 100 0 70 100 100 0 46 43 0 0 -1
5 70 17 0 100 60 0 82 1 77 168820880 51 68 95 0 56 0 62 0 -0 0 .155 0 0 -1 .0582
967528871864 -1 0 0 15 44 215 0 42 56 54 82 1 66 -1611530096 19 33 30 0 12 0 27
 24 S0 74 4 CI16 index_map_offset0 0 1 dCCZ20 31 4 0 0 80 83 30 21 0 0 0 0 0 0 0
 0 0 0 0 0 0 0 0 0 81 2 30 166 102 12 0 21 0 0 103 0 80 2 102 104 105 8004 0 0 0
 0 3 5 0 0 0 FFTFFFFFFFFFFF2 3 83 1 103 1e3 79 16 105 SDL/TYSA_DENSITY80 1 29 10
6 107 8017 0 0 0 0 0 0 0 0 0 TTTTTTTTTTTTTF3 79 13 107 SDL/TYSA_NAME81 1 10 165
 29 7 108 0 0 0 0 70 11 0 4 T7 0 0 4 20 1 109 109 13 13 94 0 7 0 110 0 0 111 0 5
0 14 89 0 110 112 0 0 +-.118788699194799 -.103341817065073 -.01 1 0 0 0 0 -1 30
 255 15 93 0 18 113 0 0 +-.118788699194799 .103341817065073 -.01 0 0 1 29 255 16
 70 0 114 115 0 -.118788699194799 -.103341817065073 0 19 17 28 0 7 111 0 116 V0
 16 18 77 0 ?117 0 118 15 0 0 7 18 255 19 25 0 119 0 120 121 ?7 17 119 0 122 123
 124 19 125 126 0 127 +18 120 22 0 124 19 128 129 ?7 29 121 27 0 19 129 130 -.11
8788699194799 -.103341817065073 -.01 29 129 24 0 120 131 121 .118788699194799 -.
103341817065073 -.01 29 130 73 0 132 121 133 -.118788699194799 .103341817065073
 0 18 132 64 0 134 135 0 130 ?7 29 133 72 0 135 130 115 .118788699194799 .103341
817065073 0 18 135 63 0 136 137 132 133 ?7 29 115 71 0 137 133 16 .1187886991947
99 -.103341817065073 0 18 137 62 0 138 114 135 115 ?7 17 138 0 139 140 141 137 1
42 143 0 144 +18 114 61 0 145 146 137 16 ?7 17 145 0 147 127 144 114 148 149 0 1
50 +18 146 16 0 151 128 114 152 ?7 17 151 0 153 117 154 146 155 156 0 123 -18 12
8 19 0 155 120 146 131 ?7 29 152 18 0 146 0 131 -.118788699194799 .1033418170650
73 -.01 29 131 21 0 128 152 129 .118788699194799 .103341817065073 -.01 17 155 0
 122 124 123 128 151 156 0 154 +15 122 3 0 123 157 0 17 124 0 122 119 155 120 15
8 159 0 140 +17 123 0 122 155 119 146 160 161 0 162 +16 156 7 0 ?155 159 161 163
 0 0 7 17 154 0 153 151 136 128 141 118 0 158 -15 153 82 0 136 164 0 17 136 0 15
3 154 117 135 134 165 0 141 +17 141 0 139 138 158 135 154 118 0 142 +16 118 76 0
 ?141 18 166 113 0 0 7 17 158 0 139 141 140 128 124 159 0 0 -15 139 80 0 138 167
 0 17 140 0 139 158 138 120 144 166 0 125 -16 159 10 0 ?124 126 156 168 0 0 7 16
 126 13 0 ?119 169 159 170 0 0 7 30 168 11 0 159 163 170 0 +.118788699194799 -.1
03341817065073 -.01 0 -1 0 30 163 8 0 156 171 168 0 +.118788699194799 .103341817
065073 -.01 1 0 0 30 170 14 0 126 168 172 0 +.118788699194799 -.103341817065073
 -.01 -1 0 0 30 172 69 0 173 170 174 0 +-.118788699194799 -.103341817065073 0 0
 1 0 16 173 57 0 ?175 165 0 172 0 0 7 30 174 68 0 165 172 176 0 +.11878869919479
9 .103341817065073 0 1 0 0 16 165 53 0 ?136 143 173 174 0 0 7 30 176 67 0 143 17
4 177 0 +.118788699194799 -.103341817065073 0 0 -1 0 16 143 49 0 ?138 149 165 17
6 0 0 7 30 177 66 0 149 176 178 0 +.118788699194799 -.103341817065073 0 -1 0 0 1
6 149 45 0 ?145 161 143 177 0 0 7 30 178 90 0 169 177 179 0 +-.118788699194799 -
.103341817065073 -.01 0 0 1 16 169 74 0 ?150 166 126 178 0 0 7 30 179 91 0 166 1
78 113 0 +.118788699194799 -.103341817065073 -.01 0 0 1 16 166 75 0 ?144 118 169
 179 0 0 7 30 113 92 0 118 179 15 0 +.118788699194799 .103341817065073 -.01 0 0
 1 17 144 0 147 145 125 137 140 166 0 148 +15 147 78 0 145 180 0 17 125 0 147 14
4 127 120 119 126 0 0 -17 148 0 181 142 182 137 145 149 0 0 -15 181 44 0 182 183
 0 17 142 0 181 134 148 135 138 143 0 0 -17 182 0 181 148 134 114 175 173 0 0 -1
7 134 0 181 182 142 132 136 165 0 117 -17 175 0 184 162 150 132 182 173 0 0 +15
 184 84 0 175 110 0 17 162 0 184 160 175 146 117 18 0 0 -17 150 0 184 175 160 11
4 127 169 0 182 +17 160 0 184 150 162 19 123 161 0 0 -17 127 0 147 125 145 19 15
0 169 0 160 -16 161 4 0 ?123 156 149 171 0 0 7 30 171 5 0 161 0 163 0 +-.1187886
99194799 -.103341817065073 -.01 0 1 0 17 117 0 153 136 151 132 162 18 0 175 +14
 110 85 185 ?164 0 184 13 14 -0 0 164 0 116 81 1 185 200 63 110 186 0 0 187 188
 14 164 83 187 ?167 110 153 13 112 -0 0 167 110 116 13 116 29 0 0 0 0 0 0 17 110
 81 1 187 201 63 164 189 0 185 190 191 14 167 81 190 ?180 164 139 13 192 -0 0 18
0 164 116 50 112 88 0 164 192 14 0 +.118788699194799 .103341817065073 -.01 0 -1
 0 0 0 -1 50 192 87 0 167 193 112 0 +.118788699194799 -.103341817065073 -.01 -1
 0 0 0 0 1 50 193 86 0 180 194 192 0 +.118788699194799 -.103341817065073 -.01 0
 1 0 0 0 1 14 180 79 195 ?157 167 147 13 193 -0 0 157 167 116 50 194 65 0 183 19
6 193 0 +0 0 0 0 0 1 1 0 0 14 183 43 197 ?0 157 181 13 194 +0 0 0 157 116 50 196
 2 0 157 0 194 0 +0 0 -.01 0 0 1 1 0 0 14 157 1 198 ?183 180 122 13 196 -0 0 183
 180 116 81 1 198 205 63 157 199 0 197 0 200 81 1 199 143 88 157 0 198 201 202 2
03 81 1 197 204 63 183 202 0 195 198 204 82 1 200 1256259728 81 1 202 144 88 183
 0 197 199 0 205 81 1 195 203 63 180 201 0 190 197 206 82 1 204 1261895824 81 1
 201 142 88 180 0 195 207 199 208 81 1 190 202 63 167 207 0 187 195 209 82 1 206
 1262813328 81 1 207 141 88 167 0 190 189 201 210 82 1 209 1263075472 81 1 189 1
40 88 164 0 187 186 207 211 83 3 210 1 1 1 81 1 186 139 88 110 0 185 0 189 212 8
3 3 211 1 1 1 83 3 212 1 1 1 83 3 208 1 1 1 83 3 205 1 1 1 83 3 203 1 1 1 82 1 1
91 1263337616 82 1 188 1263599760 19 111 95 0 7 0 17 13 S0 74 20 109 4 0 0 198 1
08 202 10 0 0 0 0 0 0 0 0 0 0 0 0 0 0 0 0 81 2 108 138 102 7 0 10 0 0 213 0 83 1
 213 1e3 74 20 6 1 0 0 2 0 0 0 0 0 0 0 0 0 0 0 0 0 0 0 0 0 0 0 80 2 5 214 215 90
00 0 0 0 0 3 5 0 0 0 TFFFFFFFFFFFFF9 1 79 18 215 MULTI_BODY_ID_20011 0 
