**ABCDEFGHIJKLMNOPQRSTUVWXYZabcdefghijklmnopqrstuvwxyz**************************
**PARASOLID !"#$%&'()*+,-./:;<=>?@[\]^_`{|}~0123456789**************************
**PART1;
MC=AMD64;
MC_MODEL=Intel64 Family 6 Model 60 Stepping 3, GenuineIntel;
MC_ID=unknown;
OS=Windows_NT;
OS_RELEASE=unknown;
FRU=Parasolid Version 30.0, build 298, 12-15-2017;
APPL=SOLIDWORKS 2018-2018056;
SITE=;
USER=unknown;
FORMAT=text;
GUISE=transmit;
KEY=»¢Ç¯;
FILE=»¢Ç¯.x_t;
DATE=Mon Jun 11 21:55:50 2018;
**PART2;
SCH=SCH_3000298_30000;
USFLD_SIZE=0;
**PART3;
**END_OF_HEADER*****************************************************************
T51 : TRANSMIT FILE created by modeller version 300029823 SCH_3000298_30000_1300
6205 0 10 19 CCCCCCCI4 mesh1006 0 I8 polyline1008 0 CCCCCCCCCCZ1 9 2 3 0 0 0 0 0
 0 0 1e3 1e-8 0 0 0 1 0 1 4 81 255 1 2 9 5 1 0 0 0 0 0 70 11 CI9 list_type0 0 1
 uI10 notransmit0 0 1 lCCCDCCDI12 finger_index0 0 1 dI12 finger_block1012 0 CZ3
 0 4 T1 0 0 1 20 1 6 6 11 255 4 7 0 1 7 8 1 9 0 0 0 12 33 CCCCCCI4 mesh1006 0 I8
 polyline1008 0 CCCCCCCDI5 owner1040 0 CCCCCCI13 boundary_mesh1006 0 I17 boundar
y_polyline1008 0 CCCA16 index_map_offset0 0 1 dA9 index_map82 0 A17 node_id_inde
x_map82 0 A20 schema_embedding_map82 0 A5 child12 0 A14 lowest_node_id0 0 1 dZ7
 344 10 11 0 0 0 0 0 0 1e3 1e-8 4 12 0 1 0 1 1 13 14 15 16 0 0 17 18 19 0 0 0 0
 0 0 100 255 8 8 4 0 0 0 0 -1 0 1 0 1 0 0 .0381 -.00254 -.0889 1 3 ?11 9 5 0 1 1
2 20 1 21 4 0 0 12 12 775 22 23 0 0 0 0 0 0 1e3 1e-8 9 24 7 1 0 1 1 25 26 27 0 0
 0 28 29 0 0 0 0 0 0 0 100 20 6 9 0 0 -1 0 0 0 -1 0 0 0 1 178847610569423e-33 80
5784004638041e-34 .0254 1 3 ?11 21 3 0 1 24 30 1 31 9 31 0 12 24 8218 32 33 0 0
 0 0 0 0 1e3 1e-8 21 34 12 1 0 1 1 35 36 37 38 0 0 39 40 41 0 0 0 0 0 0 100 30 4
 21 0 0 1 0 0 0 -1 0 0 0 -1 -1732947492899625e-34 1935352294680175e-33 .0254 1 3
 ?11 31 1 0 1 24 42 1 0 21 0 21 100 42 2 31 0 0 1 0 0 0 1 0 0 0 1 0 0 0 1 0 ?81
 1 32 8218 5 24 43 0 0 0 44 70 33 0 4 T24 0 0 5 20 1 45 45 13 255 35 194 0 24 0
 46 0 0 47 0 51 255 36 978 0 48 49 0 0 +.04699 -.00254 .0254 0 0 -1 .00381 -1 0
 0 30 255 37 1050 0 40 50 0 0 +-.160023094598743 .00744271055675129 .0254 0 0 1
 29 255 38 1043 0 41 51 0 -.160023094598743 .00744271055675129 0 19 8 CCCCCCCA5
 owner12 0 Z39 58 0 24 47 0 52 V0 16 255 40 1044 0 ?53 0 54 37 0 0 24 18 255 41
 1041 0 55 0 56 38 ?24 17 255 55 0 57 58 59 41 53 40 0 60 -18 56 1038 0 53 41 61
 51 ?24 17 53 0 62 63 64 56 55 40 0 59 +18 61 1003 0 65 56 66 67 ?24 29 51 1040
 0 56 67 38 -.160023094598743 .00744271055675129 .0254 29 67 1005 0 61 68 51 -.1
143 .01524 0 29 68 1002 0 66 69 67 -.1143 .01524 .0254 18 66 1000 0 70 61 71 68
 ?24 29 69 940 0 71 72 68 .04699 -.00635 .0254 18 71 938 0 73 66 74 69 ?24 29 72
 937 0 74 75 69 .04699 -.00635 0 18 74 935 0 76 71 77 72 ?24 29 75 718 0 77 78 7
2 -.0161769287876284 .01524 .014224 18 77 716 0 79 74 80 75 ?24 29 78 715 0 80 8
1 75 -.02206940476712415 .00262526155360526 .014224 18 80 713 0 82 77 83 78 ?24
 29 81 707 0 83 84 78 .0161769287876284 -.01524 .014224 18 83 705 0 85 80 86 81
 ?24 29 84 704 0 86 87 81 .0214094468181034 -.00596541800235346 .014224 18 86 70
2 0 88 83 89 84 ?24 29 87 691 0 89 90 84 .01400977519448474 -.01524 .0127 18 89
 689 0 91 86 92 87 ?24 29 90 688 0 92 93 87 -.0205406148838579 .0025718750344904
05 .0127 18 92 686 0 94 89 95 90 ?24 29 93 685 0 95 96 90 -.01400977519448474 .0
1524 .0127 18 95 683 0 97 92 98 93 ?24 29 96 682 0 98 99 93 .01998584992662 -.00
539418239500884 .0127 18 98 680 0 100 95 101 96 ?24 29 99 454 0 101 102 96 .0161
769287876284 -.01524 .0254 18 101 452 0 103 98 104 99 ?24 29 102 265 0 104 105 9
9 .0254 -.01524 0 18 104 263 0 106 101 107 102 ?24 29 105 140 0 108 109 102 -279
954258285085e-32 -.01524 0 18 108 121 0 110 111 112 105 ?24 29 109 141 0 112 113
 105 -.01505297465770015 .002380242415099105 0 18 112 122 0 58 108 114 109 ?24 2
9 113 142 0 114 115 109 -.1651 .00762 0 18 114 123 0 116 112 117 113 ?24 29 115
 143 0 117 118 113 -.1651 .01524 0 18 117 124 0 119 114 120 115 ?24 29 118 144 0
 120 121 115 933180860950283e-33 .01524 0 18 120 125 0 122 117 123 118 ?24 29 12
1 145 0 123 124 118 .01515533267821125 .001604210526315785 0 18 123 126 0 125 12
0 126 121 ?24 29 124 146 0 126 127 121 .0239959434071678 -.00635 0 18 126 127 0
 128 123 129 124 ?24 29 127 51 0 107 130 124 -.1651 .00762 .0254 18 107 49 0 131
 104 132 127 ?24 29 130 48 0 132 133 127 -.1651 .01524 .0254 18 132 46 0 134 107
 111 130 ?24 29 133 39 0 111 135 130 .0239959434071678 -.00635 .0254 18 111 37 0
 136 132 108 133 ?24 29 135 357 0 137 138 133 .0635 -.010795 0 18 137 320 0 139
 140 141 135 ?24 29 138 360 0 129 142 135 .0635 -.010795 .0254 18 129 317 0 143
 126 140 138 ?24 29 142 361 0 140 144 138 .0254 -.01524 .0254 18 140 319 0 145 1
29 137 142 ?24 29 144 637 0 141 146 142 .01515533267821125 .001604210526315785 .
0127 18 141 562 0 147 137 148 144 ?24 29 146 638 0 148 149 144 0 .01524 .0127 18
 148 563 0 150 141 151 146 ?24 29 149 639 0 151 152 146 -279954258285085e-32 -.0
1524 .0127 18 151 561 0 153 148 154 149 ?24 29 152 640 0 154 155 149 -.015052974
65770015 .002380242415099105 .0127 18 154 564 0 156 151 157 152 ?24 29 155 649 0
 157 158 152 .0214094468181034 -.00596541800235346 .0254 18 157 556 0 159 154 16
0 155 ?24 29 158 651 0 160 161 155 -.02206940476712415 .00262526155360526 .0254
 18 160 560 0 162 157 163 158 ?24 29 161 652 0 163 164 158 -.0161769287876284 .0
1524 .0254 18 163 570 0 165 160 166 161 ?24 29 164 905 0 166 167 161 .0635 -.002
54 .0254 18 166 857 0 168 163 169 164 ?24 29 167 906 0 169 170 164 .0508 -.00254
 .0254 18 169 856 0 171 166 172 167 ?24 29 170 907 0 172 173 167 .0508 -.00254 0
 18 172 855 0 174 169 175 170 ?24 29 173 908 0 175 0 170 .0635 -.00254 0 18 175
 852 0 176 172 0 173 ?24 17 176 0 177 178 179 175 180 181 0 182 +15 255 177 172
 0 183 184 0 17 178 0 177 183 176 166 185 186 0 0 -17 179 0 177 176 183 137 143
 187 0 180 +17 180 0 188 189 182 137 176 181 0 0 -16 181 267 0 ?176 190 191 192
 0 0 24 17 182 0 188 180 174 175 193 194 0 185 -15 188 84 0 180 195 0 17 174 0 1
88 182 196 172 197 198 0 193 +17 193 0 199 200 185 172 182 194 0 201 +16 194 842
 0 ?193 202 186 203 0 0 24 17 185 0 199 193 204 175 178 186 0 0 +15 199 877 0 18
5 205 0 17 204 0 199 185 200 166 206 207 0 178 +16 186 839 0 ?185 194 0 208 0 0
 24 30 208 900 0 186 0 203 0 +.0635 -.00254 .0254 0 0 -1 30 203 899 0 194 208 20
9 0 +.0635 -.00254 0 -1 0 0 30 209 898 0 202 203 210 0 +.0508 -.00254 .0254 0 0
 1 16 202 845 0 ?200 207 194 209 0 0 24 30 210 897 0 207 209 211 0 +.0508 -.0025
4 .0254 1 0 0 16 207 848 0 ?204 212 202 210 0 0 24 31 255 211 635 0 213 210 214
 0 +0 0 .0254 0 0 1 1 0 0 .022225 16 213 539 0 ?215 216 212 211 212 212 24 31 21
4 627 0 217 211 218 0 +0 0 .0127 0 0 1 1 0 0 .01524 16 217 529 0 ?153 219 216 21
4 0 0 24 30 218 626 0 219 214 220 0 +-.1651 .00762 .0127 .999390827019096 -.0348
9949670250105 0 16 219 687 0 ?156 221 217 218 0 0 24 30 220 625 0 221 218 222 0
 +477048955893622e-32 -.01524 .0127 1 300503279303069e-30 0 16 221 530 0 ?223 22
4 219 220 0 0 24 30 222 624 0 224 220 225 0 +-.1651 .01524 .0127 -1 -10507107667
93946e-32 0 16 224 528 0 ?226 227 221 222 0 0 24 31 225 623 0 227 222 228 0 +0 0
 .0127 0 0 1 1 0 0 .01524 16 227 527 0 ?150 229 224 225 0 0 24 31 228 622 0 229
 225 230 0 -.0239959434071678 .00254 .0127 0 0 1 1 0 0 .00889 16 229 681 0 ?147
 231 227 228 0 0 24 30 230 621 0 231 228 232 0 +-.02206940476712415 .00262526155
360526 .0127 0 0 1 16 231 714 0 ?233 234 229 230 0 0 24 30 232 620 0 234 230 235
 0 --.0161769287876284 .01524 .0127 0 0 1 16 234 521 0 ?236 237 231 232 0 0 24 3
0 235 619 0 237 232 238 0 +.0214094468181034 -.00596541800235346 .01905 0 0 1 16
 237 703 0 ?159 239 234 235 0 0 24 30 238 618 0 239 235 240 0 -.0161769287876284
 -.01524 .0127 0 0 1 16 239 513 0 ?241 242 237 238 0 0 24 31 240 418 0 242 238 2
43 0 +0 0 0 0 0 1 1 0 0 .00635 16 242 395 0 ?244 245 239 240 0 0 24 30 243 354 0
 246 240 247 0 +.0635 -.010795 .0254 .993263139087243 .1158806995601784 0 16 246
 300 0 ?248 249 245 243 0 0 24 30 247 351 0 245 243 250 0 +.0635 -.010795 0 .993
263139087243 .1158806995601784 0 16 245 314 0 ?139 246 242 247 0 0 24 30 250 350
 0 187 247 251 0 +.0635 -.010795 .0254 0 0 -1 16 187 303 0 ?179 191 249 250 0 0
 24 30 251 349 0 249 250 252 0 +.0254 -.01524 .0254 0 0 -1 16 249 307 0 ?106 187
 246 251 0 0 24 30 252 5 0 253 251 254 0 +477048955893622e-32 -.01524 .0254 1 30
0503279303069e-30 0 16 253 453 0 ?145 255 256 252 0 0 24 30 254 8 0 255 252 257
 0 +.0635 -.00635 .0254 -1561055996379585e-30 1 0 16 255 278 0 ?168 258 253 254
 0 0 24 30 257 11 0 258 254 259 0 +.0239959434071678 -.00635 .0254 -1 0 0 16 258
 939 0 ?136 260 255 257 0 0 24 31 259 14 0 260 257 261 0 +.0239959434071678 .002
54 .0254 0 0 -1 1 0 0 .00889 16 260 13 0 ?262 263 258 259 0 0 24 30 261 20 0 264
 259 265 0 +-.1651 .01524 .0254 -1 -1050710766793946e-32 0 16 264 447 0 ?266 267
 263 261 263 263 24 30 265 23 0 267 261 268 0 +-.1651 .00762 .0254 0 -1 0 16 267
 22 0 ?131 269 264 265 0 0 24 30 268 26 0 270 265 271 0 +-.1651 .00762 .0254 .99
9390827019096 -.03489949670250105 0 16 270 25 0 ?272 273 269 268 269 269 24 30 2
71 139 0 191 268 192 0 +477048955893622e-32 -.01524 0 1 300503279303069e-30 0 16
 191 117 0 ?274 181 187 271 0 0 24 30 192 138 0 181 271 275 0 +.0635 -.00635 0 -
1561055996379585e-30 1 0 30 275 137 0 190 192 276 0 +.0239959434071678 -.00635 0
 -1 0 0 16 190 936 0 ?128 277 181 275 0 0 24 31 276 136 0 277 275 278 0 +.023995
9434071678 .00254 0 0 0 -1 1 0 0 .00889 16 277 105 0 ?279 280 190 276 0 0 24 31
 278 135 0 280 276 281 0 +0 0 0 0 0 1 1 0 0 .01524 16 280 101 0 ?282 283 277 278
 0 0 24 30 281 134 0 284 278 285 0 +-.1651 .01524 0 -1 -1050710766793946e-32 0 1
6 284 97 0 ?286 287 283 281 283 283 24 30 285 133 0 287 281 288 0 +-.1651 .00762
 0 0 -1 0 16 287 93 0 ?116 289 284 285 0 0 24 30 288 132 0 290 285 291 0 +-.1651
 .00762 0 .999390827019096 -.03489949670250105 0 16 290 89 0 ?64 256 289 288 289
 289 24 31 291 131 0 256 288 292 0 +0 0 0 0 0 1 1 0 0 .01524 16 256 85 0 ?293 25
3 290 291 0 0 24 30 292 176 0 273 291 294 0 +-279954258285085e-32 -.01524 .0254
 0 0 -1 16 273 465 0 ?110 295 270 292 0 0 24 30 294 177 0 295 292 296 0 +-.01505
297465770015 .002380242415099105 .0254 0 0 -1 16 295 468 0 ?297 298 273 294 0 0
 24 30 296 178 0 298 294 299 0 +-.1651 .00762 .0254 0 0 -1 16 298 151 0 ?300 301
 295 296 0 0 24 30 299 179 0 301 296 302 0 +-.1651 .01524 .0254 0 0 -1 16 301 15
2 0 ?303 304 298 299 0 0 24 30 302 180 0 304 299 305 0 +933180860950283e-33 .015
24 .0254 0 0 -1 16 304 482 0 ?122 306 301 302 0 0 24 30 305 181 0 306 302 307 0
 +.01515533267821125 .001604210526315785 .0254 0 0 -1 16 306 492 0 ?125 308 304
 305 0 0 24 30 307 182 0 308 305 309 0 +.0239959434071678 -.00635 .0254 0 0 -1 1
6 308 155 0 ?310 311 306 307 0 0 24 31 309 440 0 216 307 312 0 -0 0 .0127 0 0 1
 1 0 0 .00635 16 216 554 0 ?313 217 213 309 0 0 24 31 312 694 0 311 309 314 0 +0
 0 .0127 0 0 1 1 0 0 .020701 16 311 692 0 ?315 316 308 312 0 0 24 31 314 699 0 3
16 312 317 0 +0 0 .0127 0 0 1 1 0 0 .020701 16 316 697 0 ?318 319 311 314 0 0 24
 31 317 710 0 319 314 320 0 -0 0 .014224 0 0 1 1 0 0 .022225 16 319 708 0 ?85 32
1 316 317 0 0 24 31 320 721 0 321 317 322 0 -0 0 .014224 0 0 1 1 0 0 .022225 16
 321 719 0 ?79 323 319 320 0 0 24 38 12 CCCCCCCCCCCA17 intersection_data204 0 Z3
22 740 0 323 320 324 0 +325 326 327 328 329 330 16 323 724 0 ?88 331 321 322 0 0
 24 38 324 741 0 331 322 332 0 +333 326 334 335 336 337 51 325 190 0 338 339 340
 341 +.0239959434071678 .00254 .0254 0 0 -1 .00889 -1 0 0 54 255 326 765 0 342 3
33 49 343 +0 0 .014224 0 0 1 .020701 .001524 1 0 0 40 255 6 327 0 1 6 8751080805
54049e-19 .3415266948063185 ??.01998584992662 -.00539418239500884 .0127 .0204448
8707127565 -.00560997539255919 .01278421502735988 .02086329424201875 -.005779772
18486727 .01303080520473756 .0211839034384539 -.00589353610381527 .0134084805586
4736 .02137128029029675 -.00595371788576339 .01387752894030318 .0214094468181034
 -.00596541800235346 .014224 41 3 CI8 term_use0 0 1 cCZ1 328 L?.01998584992662 -
.00539418239500884 .0127 41 1 329 L?.0214094468181034 -.00596541800235346 .01422
4 204 2 17 INTERSECTION_DATA17 Intersection data7 uv_type0 0 1 u6 values0 1 1 fT
24 330 4 5.18036308333631 .0127 6.01956661044567 -1.570796326794895 5.1232991598
4939 .01261578497264012 6.015381619409 -1.23680300467723 5.07250090793417 .01236
919479526242 6.01293218920153 -.899371731935429 5.03423144367207 .01199151944135
264 6.01183889140514 -.564647119306081 5.01209327535059 .01152247105969682 6.011
48922482423 -.2293485857280405 5.00760287490597 .011176 6.01144295548499 0 14 25
5 342 753 344 ?345 346 347 35 326 -0 0 345 346 52 50 255 333 193 0 348 349 326 3
50 +477048955893622e-32 -.01524 .0254 -300503279303069e-30 1 0 -1 -3005032793030
69e-30 0 54 49 786 0 345 326 36 351 +0 0 .014224 0 0 1 .020701 .001524 1 0 0 141
 255 343 322 352 352 326 141 352 324 343 343 326 14 345 774 353 ?205 342 354 35
 49 -0 0 205 342 52 141 351 332 355 355 49 38 332 742 0 356 324 357 0 +358 49 35
9 360 361 362 141 355 357 351 351 49 38 357 743 0 363 332 364 0 +365 49 366 367
 368 369 16 363 736 0 ?97 370 356 357 0 0 24 30 364 943 0 370 357 371 0 -.04699
 -.00635 0 0 0 1 50 365 188 0 372 373 339 374 +-.1651 .01524 .0254 1050710766793
946e-32 -1 0 1 1050710766793946e-32 0 40 6 366 0 1 6 .000131360482138389 .361702
699618318 ??-.0161769287876284 .01524 .014224 -.016102011163253 .01524 .01382019
307806262 -.01589811699351865 .01524 .01346559349441688 -.01548010713325185 .015
24 .01309352653903382 -.01476962377894904 .01524 .01279204545705084 -.0140097751
9448474 .01524 .0127 41 1 367 L?-.0161769287876284 .01524 .014224 41 1 368 L?-.0
1400977519448474 .01524 .0127 204 24 369 4 .1489230712123716 -.011176 2.38600807
1947325 0 .148997988836747 -.01157980692193738 2.38369093594792 -.26816780304615
9 .1492018830064814 -.01193440650558312 2.37732675792183 -.520878198947728 .1496
198928667482 -.01230647346096616 2.364010291194255 -.835721369916167 .1503303762
21051 -.01260795454294916 2.340521594406225 -1.221467714456052 .1510902248055155
 -.0127 2.314159973675995 -1.570796326794895 14 372 165 375 ?376 338 377 35 365
 -378 378 376 338 52 50 373 187 0 376 358 365 0 +-.1651 .00762 .0254 1 0 0 0 0 -
1 51 339 189 0 379 365 325 0 -0 0 .0254 0 0 -1 .01524 -1 0 0 141 374 357 374 374
 365 14 379 496 380 ?381 382 383 35 339 -0 0 381 382 52 81 1 380 8198 384 379 38
5 0 386 387 388 14 381 472 387 ?389 379 390 35 391 -0 0 389 379 52 14 382 819 38
6 ?379 378 392 35 340 -0 0 379 378 52 15 383 495 0 393 379 0 13 52 59 0 0 0 0 0
 0 39 46 14 46 1047 394 ?378 0 57 35 358 -395 395 378 0 52 81 1 394 8195 384 46
 396 0 0 397 398 14 378 1009 397 ?382 46 399 35 365 -372 372 382 46 52 15 57 104
5 0 55 46 0 50 358 186 0 395 391 373 400 +-.1651 .00762 .0254 .03489949670250105
 .999390827019096 0 -.999390827019096 .03489949670250105 0 14 395 161 401 ?402 3
76 62 35 358 -46 46 402 376 52 81 1 401 8207 384 395 403 0 404 405 406 14 402 1
 405 ?195 395 407 35 408 +389 389 195 395 52 14 376 163 404 ?395 372 409 35 373
 -0 0 395 372 52 15 62 160 0 64 395 0 17 64 0 62 53 300 41 410 290 0 0 +17 300 0
 62 64 63 114 411 298 0 410 +17 410 0 188 412 60 114 64 290 0 0 -17 412 0 188 41
3 410 117 116 287 0 0 -17 60 0 188 410 414 41 58 289 0 64 -17 414 0 188 60 415 1
12 293 256 0 0 -17 58 0 57 416 55 112 60 289 0 297 +16 289 1042 0 ?58 290 287 28
8 290 290 24 17 416 0 57 417 58 154 297 295 0 0 -17 297 0 390 293 418 112 416 29
5 0 414 +15 390 471 0 418 381 0 17 293 0 390 419 297 108 414 256 0 415 +17 418 0
 390 297 419 154 153 217 0 416 -17 419 0 390 418 293 151 110 273 0 0 -17 153 0 4
20 223 156 151 418 217 0 421 +15 420 586 0 223 346 0 17 223 0 420 318 153 89 421
 221 0 422 +17 156 0 420 153 315 154 417 219 0 418 +17 421 0 423 110 91 151 223
 221 0 419 -15 423 174 0 424 348 0 17 110 0 423 274 421 108 419 273 0 293 +17 91
 0 423 421 241 89 425 331 0 223 +17 241 0 423 91 424 83 103 239 0 425 +17 425 0
 347 426 422 83 91 331 0 0 -16 331 728 0 ?91 356 323 324 0 0 24 16 356 732 0 ?82
 363 331 332 0 0 24 17 82 0 57 233 417 80 94 356 0 427 +17 233 0 57 59 82 160 42
7 231 0 215 +17 417 0 57 82 416 92 156 219 0 0 -17 94 0 354 428 429 92 82 356 0
 315 -17 427 0 430 79 215 80 233 231 0 429 -15 430 582 0 427 431 0 17 79 0 430 1
65 427 77 429 321 0 236 +17 215 0 430 427 165 160 432 213 0 0 +17 429 0 354 94 4
33 80 79 321 0 0 -15 354 775 0 433 345 0 17 433 0 354 429 428 77 97 363 0 0 -17
 428 0 354 433 94 95 315 311 0 0 -17 97 0 399 434 236 95 433 363 0 226 +15 399 1
007 0 70 378 0 17 434 0 399 122 97 148 226 224 0 435 -17 236 0 399 97 436 77 165
 234 0 433 +17 226 0 420 315 150 95 434 224 0 428 +17 315 0 420 156 226 92 428 3
11 0 417 +17 150 0 420 226 147 148 393 227 0 434 +17 147 0 420 150 318 141 437 2
29 0 393 +17 393 0 383 125 435 141 150 227 0 438 -17 125 0 383 282 393 123 438 3
06 0 279 +17 435 0 383 393 282 148 122 304 0 0 -17 438 0 439 437 279 141 125 306
 0 0 -15 439 168 0 437 338 0 17 437 0 439 88 438 98 147 229 0 0 -17 279 0 439 43
8 310 123 440 277 0 441 +17 310 0 439 279 442 126 443 308 0 440 +17 440 0 188 19
6 441 126 279 277 0 0 -17 441 0 188 440 444 123 282 280 0 0 -17 444 0 188 441 41
3 120 286 284 0 0 -17 282 0 383 435 125 120 441 280 0 444 +17 413 0 188 444 412
 61 119 283 0 286 -17 286 0 399 70 122 61 444 284 0 0 +17 70 0 399 436 286 66 65
 54 0 445 -17 122 0 399 286 434 120 435 304 0 282 +17 436 0 399 236 70 163 266 2
64 0 0 -17 65 0 377 119 445 61 70 54 0 413 +16 54 1006 0 ?65 40 198 50 0 0 24 17
 445 0 377 65 446 66 134 263 0 266 -15 377 164 0 445 372 0 17 446 0 377 445 119
 132 303 301 0 447 -17 134 0 448 131 266 132 445 263 0 446 +16 263 1001 0 ?134 2
64 260 261 264 264 24 17 266 0 448 134 432 66 436 264 0 0 +15 448 461 0 432 389
 0 17 432 0 448 266 162 163 215 213 0 436 -17 162 0 448 432 272 160 59 269 0 233
 +17 272 0 448 162 131 56 63 270 0 0 +17 59 0 57 55 233 56 162 269 0 272 -16 269
 1039 0 ?162 270 267 268 270 270 24 17 131 0 448 272 134 107 447 267 0 411 +17 6
3 0 62 300 53 107 272 270 0 0 -17 447 0 409 303 411 132 131 267 0 0 -17 411 0 40
9 447 116 107 300 298 0 63 -15 409 162 0 116 376 0 17 116 0 409 411 303 114 412
 287 0 300 +17 303 0 409 116 447 117 446 301 0 412 +14 389 458 449 ?450 381 448
 35 408 +402 402 450 381 52 81 1 449 8200 384 389 451 0 387 452 453 14 450 441 4
52 ?348 389 454 35 455 -0 0 348 389 52 50 408 2 0 402 456 457 0 +.02399594340716
78 .00254 .0254 0 0 1 1 0 0 50 456 345 0 458 455 408 0 +.0635 -.010795 .0254 -.1
158806995601784 .993263139087243 0 -.993263139087243 -.1158806995601784 0 50 457
 130 0 195 408 391 0 +.0239959434071678 .00254 0 0 0 1 1 0 0 14 195 83 459 ?458
 402 460 35 457 -0 0 458 402 52 51 391 185 0 381 457 358 0 -0 0 .0254 0 0 -1 .01
524 -1 0 0 81 1 459 8209 384 195 461 0 405 462 463 14 458 327 462 ?464 195 465 3
5 456 -0 0 464 195 52 15 460 383 0 244 195 188 17 244 0 460 244 244 0 466 242 0
 0 +17 466 0 454 466 466 0 244 242 0 0 -15 454 404 0 466 450 467 15 467 439 0 46
8 450 0 17 468 0 467 468 468 0 313 216 0 0 -17 313 0 469 313 313 0 468 216 0 0 +
15 469 585 0 313 346 420 14 346 583 470 ?342 431 469 35 471 +0 0 342 431 52 81 1
 470 8213 384 346 472 0 473 344 474 14 431 579 473 ?346 464 430 35 475 -464 464
 346 464 52 50 471 617 0 346 476 475 0 +0 0 .0127 0 0 1 1 0 0 50 476 888 0 205 0
 471 0 +.0635 -.00254 0 0 1 0 0 0 1 51 475 615 0 464 471 455 0 +0 0 .0127 0 0 1
 .022225 1 0 0 14 464 571 477 ?431 458 478 35 475 -431 431 431 458 52 51 455 414
 0 450 475 456 0 +0 0 0 0 0 1 .00635 1 0 0 81 1 477 8211 384 464 479 0 462 473 4
80 15 478 574 0 481 464 0 17 481 0 478 85 482 86 159 237 0 426 -17 85 0 478 103
 481 83 426 319 0 241 +17 482 0 478 481 103 157 483 212 0 262 +17 159 0 439 442
 88 157 481 237 0 482 +17 426 0 347 100 425 86 85 319 0 0 -15 347 754 0 425 342
 0 17 100 0 347 422 426 98 88 323 0 318 -17 422 0 347 425 100 89 318 316 0 0 -17
 88 0 439 159 437 86 100 323 0 481 +17 318 0 420 147 223 98 422 316 0 437 +17 44
2 0 439 310 159 111 262 260 0 0 -17 262 0 407 483 136 157 442 260 0 0 +15 407 45
6 0 483 402 0 17 483 0 407 145 262 101 482 212 0 424 -17 136 0 407 262 73 111 48
4 258 0 443 +17 73 0 407 136 206 71 171 485 0 484 +17 484 0 392 76 443 71 136 25
8 0 486 -17 443 0 392 484 128 111 310 308 0 442 -15 392 817 0 484 382 0 17 128 0
 392 443 76 126 196 190 0 310 +17 76 0 392 128 484 74 486 370 0 196 +17 196 0 18
8 174 440 74 128 190 0 197 -17 197 0 487 486 201 74 174 198 0 0 -15 487 967 0 19
7 48 0 17 486 0 487 171 197 71 76 370 0 0 -17 201 0 487 197 171 172 200 202 0 0
 -16 198 951 0 ?174 54 485 488 0 0 24 16 485 946 0 ?73 198 370 371 0 0 24 31 488
 957 0 198 371 50 0 +.04699 -.00254 0 0 0 1 1 0 0 .00381 31 371 956 0 485 364 48
8 0 -.04699 -.00254 .0254 0 0 1 1 0 0 .00381 30 50 1012 0 54 488 37 0 +-.1143 .0
1524 .0254 0 0 -1 16 370 941 0 ?76 485 363 364 0 0 24 17 171 0 487 201 486 169 7
3 485 0 200 -17 200 0 199 204 193 169 201 202 0 206 +17 206 0 407 73 168 169 204
 207 0 0 -17 168 0 407 206 248 166 183 255 0 204 +17 248 0 407 168 145 129 489 2
46 0 183 +17 183 0 177 179 178 129 168 255 0 0 -17 145 0 407 248 483 140 424 253
 0 489 +17 489 0 465 106 143 140 248 246 0 490 -15 465 330 0 139 458 0 17 106 0
 465 139 489 104 490 249 0 189 +17 143 0 465 489 139 129 179 187 0 248 -17 490 0
 423 424 274 140 106 249 0 0 -17 424 0 423 241 490 101 145 253 0 0 -17 274 0 423
 490 110 104 415 191 0 0 +17 415 0 188 414 189 108 274 191 0 0 -17 189 0 188 415
 180 104 139 245 0 274 -17 139 0 465 143 106 137 189 245 0 179 +14 48 966 491 ?0
 205 487 35 36 -0 0 0 205 52 81 1 491 8217 384 48 492 0 493 0 494 14 205 875 493
 ?48 345 199 35 476 +0 0 48 345 52 81 1 493 8216 384 205 495 0 353 491 496 80 25
5 1 384 0 497 8001 0 0 0 0 3 5 0 0 0 FFFFTFTFFFFFFF2 81 1 495 8186 498 205 0 493
 492 499 500 81 1 353 8215 384 345 501 0 344 493 502 83 255 3 496 0 1 1 81 1 501
 8143 498 345 0 353 503 504 505 81 1 344 8214 384 342 503 0 470 353 506 83 3 502
 0 1 1 81 1 503 8141 498 342 0 344 0 501 507 83 3 506 0 1 1 80 1 498 508 509 900
0 1 1 1 1 1 1 1 1 0 FFFFTFTFFFFFFF1 82 255 1 507 198379215 79 255 14 509 SWEntUn
changed81 1 504 8145 498 372 0 375 501 385 510 82 1 505 200345295 81 1 375 8205
 384 372 504 0 511 404 512 81 1 385 8148 498 379 0 380 504 513 514 82 1 510 1106
92052 81 1 513 8150 498 381 0 387 385 515 516 82 1 514 192677582 81 1 387 8199 3
84 381 513 0 380 449 517 81 1 515 8152 498 382 0 386 513 396 518 82 1 516 190187
214 81 1 386 8197 384 382 515 0 397 380 519 81 1 396 8154 498 46 0 394 515 520 5
21 82 1 518 243730130 81 1 520 8157 498 378 0 397 396 403 522 82 1 521 286066390
 81 1 397 8196 384 378 520 0 394 386 523 81 1 403 8160 498 395 0 401 520 524 525
 82 1 522 267978452 81 1 524 8163 498 402 0 405 403 526 527 82 1 525 110167766 8
1 1 405 8208 384 402 524 0 401 459 528 81 1 526 8166 498 376 0 404 524 451 529 8
2 1 527 96470738 81 1 404 8206 384 376 526 0 375 401 530 81 1 451 8169 498 389 0
 449 526 531 532 82 1 529 110429895 81 1 531 8171 498 450 0 452 451 461 533 82 1
 532 186910422 81 1 452 8201 384 450 531 0 449 534 535 81 1 461 8173 498 195 0 4
59 531 536 537 82 1 533 176031438 81 1 536 8176 498 458 0 462 461 472 538 82 1 5
37 102893270 81 1 462 8210 384 458 536 0 459 477 539 81 1 472 8178 498 346 0 470
 536 540 541 82 1 538 138675914 81 1 540 8180 498 431 0 473 472 479 542 82 1 541
 185140943 81 1 473 8212 384 431 540 0 477 470 543 81 1 479 8182 498 464 0 477 5
40 492 544 82 1 542 188024527 81 1 492 8184 498 48 0 491 479 495 545 82 1 544 18
9073103 82 1 545 247334610 83 3 543 0 1 1 83 3 539 0 1 1 81 1 534 8202 384 348 5
46 0 452 547 548 83 3 535 0 1 1 14 348 175 534 ?184 450 423 35 333 -0 0 184 450
 52 81 1 546 8193 498 348 0 534 549 0 550 81 1 547 8203 384 184 499 0 534 511 55
1 83 3 548 0 1 1 14 184 173 547 ?338 348 177 35 349 -0 0 338 348 52 81 1 499 818
8 498 184 0 547 495 549 552 81 1 511 8204 384 338 549 0 547 375 553 83 3 551 0 1
 1 14 338 169 511 ?372 184 439 35 325 -0 0 372 184 52 81 1 549 8191 498 338 0 51
1 499 546 554 83 3 553 0 1 1 82 1 554 111216335 82 1 552 111740625 50 349 192 0
 184 340 333 0 +.0635 -.00635 .0254 -1 -1561055996379585e-30 0 1561055996379585e
-30 -1 0 50 340 191 0 382 325 349 0 +.0239959434071678 -.00635 .0254 0 -1 0 0 0
 -1 82 1 550 112002767 83 3 530 0 1 1 83 3 528 0 1 1 83 3 523 0 1 1 83 3 519 0 1
 1 83 3 517 0 1 1 83 3 512 0 1 1 82 1 500 232654546 79 15 497 SDL/TYSA_COLOUR83
 3 494 0 1 1 16 212 533 0 ?482 213 207 211 213 213 24 17 103 0 478 482 85 101 24
1 239 0 483 -83 3 480 0 1 1 83 3 474 0 1 1 83 3 463 0 1 1 83 3 453 0 1 1 17 119
 0 377 446 65 117 413 283 0 303 +16 283 1004 0 ?119 284 280 281 284 284 24 17 16
5 0 430 215 79 163 236 234 0 432 -83 3 406 0 1 1 141 400 332 400 400 358 83 3 39
8 0 1 1 83 3 388 0 1 1 40 6 359 0 1 6 867248460420325e-19 .3386327625187545 ??-.
0205406148838579 .00257187503449041 .0127 -.0210481487409281 .00258959850732241
 .01278640151023372 -.02149847211430145 .002605324146040725 .01303614226748844 -
.02183972196547715 .002617240853432725 .01342051573790856 -.02203331321384325 .0
0262400120879254 .01389476612033726 -.02206940476712415 .00262526155360526 .0142
24 41 1 360 L?-.0205406148838579 .00257187503449041 .0127 41 1 361 L?-.022069404
76712415 .00262526155360526 .014224 204 24 362 4 -.1446475004651808 -.0127 3.017
03163116956 -1.570796326794895 -.1441396572437416 -.01261359848976628 3.01917572
4125655 -1.23245373802246 -.1436890593783234 -.01236385773251156 3.0209942557053
9 -.89376218596254 -.1433476015202464 -.01197948426209142 3.022322877868385 -.55
5326358556567 -.1431538922694386 -.01150523387966272 3.02305849213748 -.21774941
2280049 -.1431177787167572 -.011176 3.023194220818025 -113826999736011e-29 141 3
50 324 350 350 333 141 341 322 341 341 325 40 6 334 0 1 6 .000131360482138389 .3
61702699618318 ??.0161769287876284 -.01524 .014224 .016102011163253 -.01524 .013
82019307806262 .01589811699351865 -.01524 .01346559349441688 .01548010713325185
 -.01524 .01309352653903382 .01476962377894906 -.01524 .01279204545705084 .01400
977519448474 -.01524 .0127 41 1 335 L?.0161769287876284 -.01524 .014224 41 1 336
 L?.01400977519448474 -.01524 .0127 204 24 337 4 -.0161769287876284 -.011176 5.5
2760072553712 0 -.016102011163253 -.01157980692193738 5.52528358953771 -.2681678
03046159 -.01589811699351865 -.01193440650558312 5.51891941151162 -.520878198947
728 -.01548010713325185 -.01230647346096616 5.50560294478405 -.835721369916167 -
.01476962377894904 -.01260795454294916 5.48211424799602 -1.221467714456052 -.014
00977519448474 -.0127 5.45575262726579 -1.570796326794895 19 47 195 0 24 0 39 35
 S0 74 4 CI16 index_map_offset0 0 1 dCCZ20 45 5 0 0 546 555 43 491 32 0 0 0 0 0
 0 0 0 0 0 0 0 0 0 0 81 2 555 1108 556 24 0 43 0 0 557 0 81 2 43 7365 558 24 555
 32 0 0 0 559 80 2 558 560 561 9000 0 0 0 0 3 5 0 0 0 FFTFFFFFFFFFFF9 1 82 1 559
 387 79 38 561 SUM_OF_FEATURE_IDs_MODIFYING_THIS_BODY80 2 556 562 563 8004 0 0 0
 0 3 5 0 0 0 FFTFFFFFFFFFFF2 3 83 1 557 1 79 16 563 SDL/TYSA_DENSITY80 1 5 564 5
65 8017 0 0 0 0 0 0 0 0 0 TTTTTTTTTTTTTF3 84 255 3 44 arm79 13 565 SDL/TYSA_NAME
81 1 22 775 5 12 566 0 0 0 567 70 23 0 4 T12 0 0 5 20 1 568 568 13 25 29 0 12 0
 569 0 0 570 0 51 26 28 0 569 571 0 0 +0 0 -.0433605122421383 0 0 1 .00635 1 0 0
 31 27 40 0 29 572 0 0 -0 0 -.0254 0 0 1 1 0 0 .00635 19 28 7 0 12 570 0 573 V0
 16 29 45 0 ?574 0 575 27 0 0 12 17 574 0 576 574 574 0 577 29 0 0 +16 575 18 0
 ?578 29 579 572 0 0 12 17 578 0 580 578 578 0 581 575 0 0 +16 579 104 0 ?582 57
5 583 584 0 0 12 31 572 23 0 575 585 27 0 +0 0 0 0 0 1 1 0 0 .00635 31 585 128 0
 583 584 572 0 +0 0 0 0 0 1 1 0 0 .0079375 16 583 101 0 ?586 579 587 585 0 0 12
 31 584 129 0 579 588 585 0 +0 0 .003175 0 0 1 1 0 0 .0079375 31 588 171 0 589 5
90 584 0 +0 0 -.0254 -555111512312578e-31 617033217957892e-33 -1 -1 0 5551115123
12578e-31 .0079375 16 589 144 0 ?591 587 0 588 0 0 12 31 590 172 0 587 0 588 0 +
-1762479051592435e-34 195908046701631e-35 -.028575 -555111512312578e-31 61703321
7957892e-33 -1 -1 0 555111512312578e-31 .0079375 16 587 147 0 ?592 583 589 590 0
 0 12 17 592 0 593 592 592 0 594 587 0 0 +15 593 160 0 592 595 0 17 594 0 596 59
4 594 0 592 587 0 0 -15 596 156 0 594 597 598 14 597 153 599 ?595 600 596 25 601
 -0 0 595 600 573 15 598 157 0 591 597 0 17 591 0 598 591 591 0 602 589 0 0 +17
 602 0 603 602 602 0 591 589 0 0 -15 603 164 0 602 604 0 14 604 161 605 ?0 595 5
76 25 606 -0 0 0 595 573 81 1 605 774 384 604 607 0 608 0 609 14 595 158 608 ?60
4 597 593 25 610 +0 0 604 597 573 15 576 163 0 574 604 603 50 606 168 0 604 610
 601 0 +0 0 -.0254 -555111512312578e-31 617033217957892e-33 -1 -1 0 555111512312
578e-31 13 573 8 0 0 0 0 0 0 28 569 14 569 25 611 ?612 0 613 25 26 +0 0 612 0 57
3 81 1 611 768 384 569 614 0 0 615 616 14 612 110 615 ?617 569 618 25 571 -0 0 6
17 569 573 15 613 39 0 577 569 619 17 577 0 613 577 577 0 574 29 0 0 -15 619 26
 0 581 569 0 17 581 0 619 581 581 0 578 575 0 0 -81 1 615 769 384 612 620 0 611
 621 622 14 617 115 621 ?600 612 623 25 624 +0 0 600 612 573 15 618 113 0 625 61
2 626 51 571 124 0 612 627 26 0 -0 0 .003175 0 0 -1 .0079375 -1 0 0 50 627 125 0
 600 624 571 0 +0 0 0 0 0 1 1 0 0 14 600 118 628 ?597 617 580 25 627 -0 0 597 61
7 573 50 624 126 0 617 601 627 0 +0 0 .003175 0 0 1 1 0 0 51 601 167 0 597 606 6
24 0 --1762479051592435e-34 195908046701631e-35 -.028575 555111512312578e-31 -61
7033217957892e-33 1 .0079375 1 0 -555111512312578e-31 81 1 628 771 384 600 629 0
 621 599 630 15 580 120 0 578 600 631 15 631 121 0 632 600 0 17 632 0 631 632 63
2 0 586 583 0 0 -17 586 0 626 586 586 0 632 583 0 0 +15 626 114 0 586 612 0 81 1
 629 766 498 600 0 628 633 0 634 81 1 621 770 384 617 633 0 615 628 635 81 1 599
 772 384 597 636 0 628 608 637 83 3 630 1 0 0 81 1 636 754 498 597 0 599 0 607 6
38 81 1 608 773 384 595 639 0 599 605 640 83 3 637 1 0 0 81 1 639 758 498 595 0
 608 607 614 641 83 3 640 1 0 0 81 1 607 756 498 604 0 605 636 639 642 81 1 614
 760 498 569 0 611 639 620 643 82 1 641 -1327234760 81 1 620 762 498 612 0 615 6
14 633 644 82 1 643 -1377304268 81 1 633 764 498 617 0 621 620 629 645 82 1 644
 -1335688906 82 1 645 -1337654986 82 1 642 -1325792968 82 1 638 -1325268680 83 3
 635 1 0 0 82 1 634 -1336213194 17 625 0 618 625 625 0 582 579 0 0 -17 582 0 623
 582 582 0 625 579 0 0 +15 623 117 0 582 617 0 83 3 622 1 0 0 83 3 616 1 0 0 50
 610 169 0 595 0 606 0 +-1762479051592435e-34 195908046701631e-35 -.028575 -5551
11512312578e-31 617033217957892e-33 -1 -1 0 555111512312578e-31 83 3 609 1 0 0 1
9 570 30 0 12 0 28 25 S0 74 20 568 5 0 0 629 646 566 605 22 0 0 0 0 0 0 0 0 0 0
 0 0 0 0 0 81 2 646 205 556 12 0 566 0 0 647 0 81 2 566 613 558 12 646 22 0 0 0
 648 82 1 648 44 83 1 647 1 84 3 567 pin81 1 10 344 5 7 649 0 0 0 650 70 11 0 4
 T7 0 0 4 20 1 651 651 13 13 94 0 7 0 652 0 0 653 0 50 14 93 0 652 654 0 0 +0 .0
0508 0 1 0 0 0 0 -1 30 15 89 0 18 655 0 0 +0 .00508 0 0 -1 0 29 16 70 0 656 657
 0 0 0 -.0508 19 17 28 0 7 653 0 658 V0 16 18 77 0 ?659 0 660 15 0 0 7 18 19 25
 0 661 0 662 663 ?7 17 661 0 664 665 666 19 667 668 0 669 +18 662 22 0 666 19 67
0 671 ?7 29 663 27 0 19 671 672 0 .00508 -.0508 29 671 24 0 662 673 663 .2032 .0
0508 -.0508 29 672 73 0 674 663 675 0 0 0 18 674 64 0 676 677 0 672 ?7 29 675 72
 0 677 672 657 .2032 0 0 18 677 63 0 678 679 674 675 ?7 29 657 71 0 679 675 16 .
2032 0 -.0508 18 679 62 0 680 656 677 657 ?7 17 680 0 681 682 683 679 684 685 0
 686 +18 656 61 0 687 688 679 16 ?7 17 687 0 689 669 686 656 690 691 0 692 +18 6
88 16 0 693 670 656 694 ?7 17 693 0 695 659 696 688 697 698 0 665 -18 670 19 0 6
97 662 688 673 ?7 29 694 18 0 688 0 673 0 .00508 0 29 673 21 0 670 694 671 .2032
 .00508 0 17 697 0 664 666 665 670 693 698 0 696 +15 664 3 0 665 699 0 17 666 0
 664 661 697 662 700 701 0 682 +17 665 0 664 697 661 688 702 703 0 704 +16 698 7
 0 ?697 701 703 705 0 0 7 17 696 0 695 693 678 670 683 660 0 700 -15 695 82 0 67
8 706 0 17 678 0 695 696 659 677 676 707 0 683 +17 683 0 681 680 700 677 696 660
 0 684 +16 660 76 0 ?683 18 708 655 0 0 7 17 700 0 681 683 682 670 666 701 0 0 -
15 681 80 0 680 709 0 17 682 0 681 700 680 662 686 708 0 667 -16 701 10 0 ?666 6
68 698 710 0 0 7 16 668 13 0 ?661 711 701 712 0 0 7 30 710 11 0 701 705 712 0 +.
2032 .00508 0 0 0 -1 30 705 8 0 698 713 710 0 +0 .00508 0 1 0 0 30 712 14 0 668
 710 714 0 +0 .00508 -.0508 -1 0 0 30 714 69 0 715 712 716 0 +0 0 0 0 0 1 16 715
 57 0 ?717 707 0 714 0 0 7 30 716 68 0 707 714 718 0 +0 0 0 1 0 0 16 707 53 0 ?6
78 685 715 716 0 0 7 30 718 67 0 685 716 719 0 +.2032 0 0 0 0 -1 16 685 49 0 ?68
0 691 707 718 0 0 7 30 719 66 0 691 718 720 0 +0 0 -.0508 -1 0 0 16 691 45 0 ?68
7 703 685 719 0 0 7 30 720 86 0 711 719 721 0 +0 .00508 -.0508 0 -1 0 16 711 74
 0 ?692 708 668 720 0 0 7 30 721 87 0 708 720 655 0 +.2032 .00508 -.0508 0 -1 0
 16 708 75 0 ?686 660 711 721 0 0 7 30 655 88 0 660 721 15 0 +.2032 .00508 0 0 -
1 0 17 686 0 689 687 667 679 682 708 0 690 +15 689 78 0 687 722 0 17 667 0 689 6
86 669 662 661 668 0 0 -17 690 0 723 684 724 679 687 691 0 0 -15 723 44 0 724 72
5 0 17 684 0 723 676 690 677 680 685 0 0 -17 724 0 723 690 676 656 717 715 0 0 -
17 676 0 723 724 684 674 678 707 0 659 -17 717 0 726 704 692 674 724 715 0 0 +15
 726 84 0 717 652 0 17 704 0 726 702 717 688 659 18 0 0 -17 692 0 726 717 702 65
6 669 711 0 724 +17 702 0 726 692 704 19 665 703 0 0 -17 669 0 689 667 687 19 69
2 711 0 702 -16 703 4 0 ?665 698 691 713 0 0 7 30 713 5 0 703 0 705 0 +0 .00508
 0 0 0 1 17 659 0 695 678 693 674 704 18 0 717 +14 652 85 727 ?706 0 726 13 14 -
0 0 706 0 658 81 1 727 338 384 652 728 0 0 729 730 14 706 83 729 ?709 652 695 13
 654 -0 0 709 652 658 13 658 29 0 0 0 0 0 0 17 652 81 1 729 339 384 706 731 0 72
7 732 733 14 709 81 732 ?722 706 681 13 734 -0 0 722 706 658 50 654 92 0 706 734
 14 0 +0 .00508 0 0 0 -1 -1 0 0 50 734 91 0 709 735 654 0 +.2032 .00508 0 -1 0 0
 0 0 1 50 735 90 0 722 736 734 0 +0 .00508 -.0508 0 0 1 1 0 0 14 722 79 737 ?699
 709 689 13 735 -0 0 699 709 658 50 736 65 0 725 738 735 0 +0 0 -.0508 0 -1 0 0
 0 -1 14 725 43 739 ?0 699 723 13 736 +0 0 0 699 658 50 738 2 0 699 0 736 0 +0 .
00508 -.0508 0 -1 0 0 0 -1 14 699 1 740 ?725 722 664 13 738 -0 0 725 722 658 81
 1 740 342 384 699 741 0 737 739 742 81 1 741 336 498 699 0 740 743 0 744 81 1 7
37 341 384 722 745 0 732 740 746 81 1 739 343 384 725 743 0 740 0 747 83 3 742 0
 1 0 81 1 743 334 498 725 0 739 745 741 748 83 3 747 0 1 0 81 1 745 332 498 722
 0 737 749 743 750 82 1 748 36896957 81 1 749 330 498 709 0 732 731 745 751 82 1
 750 39977149 81 1 732 340 384 709 749 0 729 737 752 81 1 731 328 498 706 0 729
 728 749 753 82 1 751 40239293 81 1 728 326 498 652 0 727 0 731 754 82 1 753 405
01437 82 1 754 40763581 83 3 752 0 1 0 83 3 746 0 1 0 82 1 744 33423549 83 3 733
 0 1 0 83 3 730 0 1 0 19 653 95 0 7 0 17 13 S0 74 20 651 4 0 0 741 649 739 10 0
 0 0 0 0 0 0 0 0 0 0 0 0 0 0 0 81 2 649 184 558 7 0 10 0 0 0 755 82 1 755 25 84
 4 650 flat74 20 6 1 0 0 2 0 0 0 0 0 0 0 0 0 0 0 0 0 0 0 0 0 0 0 1 0 
