**ABCDEFGHIJKLMNOPQRSTUVWXYZabcdefghijklmnopqrstuvwxyz**************************
**PARASOLID !"#$%&'()*+,-./:;<=>?@[\]^_`{|}~0123456789**************************
**PART1;
MC=AMD64;
MC_MODEL=Intel64 Family 6 Model 60 Stepping 3, GenuineIntel;
MC_ID=unknown;
OS=Windows_NT;
OS_RELEASE=unknown;
FRU=Parasolid Version 30.0, build 310,  6- 8-2018;
APPL=SOLIDWORKS 2018-2018211;
SITE=;
USER=unknown;
FORMAT=text;
GUISE=transmit;
KEY=平面接触重合;
FILE=平面接触重合.x_t;
DATE=Fri Mar 22 11:09:37 2019;
**PART2;
SCH=SCH_3000310_30000;
USFLD_SIZE=0;
**PART3;
**END_OF_HEADER*****************************************************************
T51 : TRANSMIT FILE created by modeller version 300031023 SCH_3000310_30000_1300
6205 0 10 19 CCCCCCCI4 mesh1006 0 I8 polyline1008 0 CCCCCCCCCCZ1 5 2 3 0 0 0 0 0
 0 0 1e3 1e-8 0 0 0 1 0 1 4 81 255 2 2 5 5 1 0 0 0 0 0 0 70 11 CI9 list_type0 0
 1 uI10 notransmit0 0 1 lCCCDCCDI12 finger_index0 0 1 dI12 finger_block1012 0 CZ
3 0 4 T1 0 0 1 20 1 6 6 11 255 4 3 0 1 7 8 1 9 0 0 0 12 33 CCCCCCI4 mesh1006 0 I
8 polyline1008 0 CCCCCCCDI5 owner1040 0 CCCCCCI13 boundary_mesh1006 0 I17 bounda
ry_polyline1008 0 CCCA16 index_map_offset0 0 1 dA9 index_map82 0 A17 node_id_ind
ex_map82 0 A20 schema_embedding_map82 0 A5 child12 0 A14 lowest_node_id0 0 1 dZ7
 166 10 11 0 0 0 0 0 0 1e3 1e-8 4 12 0 1 0 1 1 13 14 15 16 0 0 17 18 19 0 0 0 0
 0 0 100 255 8 4 4 0 0 1 0 0 0 1 0 0 0 1 0 0 0 1 0 ?11 9 1 0 1 12 20 1 0 4 0 0 1
2 12 161 21 22 0 0 0 0 0 0 1e3 1e-8 9 23 7 1 0 1 1 24 25 26 27 0 0 28 29 30 0 0
 0 0 0 0 100 20 2 9 0 0 1 0 0 0 1 0 0 0 1 0 0 0 1 0 ?81 1 21 161 31 12 32 0 0 0
 0 70 22 0 4 T12 0 0 4 20 1 33 33 13 255 24 94 0 12 0 34 0 0 35 0 50 255 25 89 0
 34 36 0 0 +.0640360070335774 .02780164091375475 .01 -1 0 0 0 0 1 30 255 26 93 0
 29 37 0 0 +.0640360070335774 .02780164091375475 .01 0 0 -1 29 255 27 70 0 38 39
 0 .0640360070335774 -.02780164091375475 0 19 8 CCCCCCCA5 owner12 0 Z28 28 0 12
 35 0 40 V0 16 255 29 77 0 ?41 0 42 26 0 0 12 18 255 30 25 0 43 0 44 45 ?12 17 2
55 43 0 46 47 48 30 49 50 0 51 +18 44 22 0 48 30 52 53 ?12 29 45 27 0 30 53 54 .
0640360070335774 -.02780164091375475 .01 29 53 24 0 44 55 45 -.0640360070335774
 -.02780164091375475 .01 29 54 73 0 56 45 57 .0640360070335774 .0278016409137547
5 0 18 56 64 0 58 59 0 54 ?12 29 57 72 0 59 54 39 -.0640360070335774 .0278016409
1375475 0 18 59 63 0 60 61 56 57 ?12 29 39 71 0 61 57 27 -.0640360070335774 -.02
780164091375475 0 18 61 62 0 62 38 59 39 ?12 17 62 0 63 64 65 61 66 67 0 68 +18
 38 61 0 69 70 61 27 ?12 17 69 0 71 51 68 38 72 73 0 74 +18 70 16 0 75 52 38 76
 ?12 17 75 0 77 41 78 70 79 80 0 47 -18 52 19 0 79 44 70 55 ?12 29 76 18 0 70 0
 55 .0640360070335774 .02780164091375475 .01 29 55 21 0 52 76 53 -.0640360070335
774 .02780164091375475 .01 17 79 0 46 48 47 52 75 80 0 78 +15 255 46 3 0 47 81 0
 17 48 0 46 43 79 44 82 83 0 64 +17 47 0 46 79 43 70 84 85 0 86 +16 80 7 0 ?79 8
3 85 87 0 0 12 17 78 0 77 75 60 52 65 42 0 82 -15 77 82 0 60 88 0 17 60 0 77 78
 41 59 58 89 0 65 +17 65 0 63 62 82 59 78 42 0 66 +16 42 76 0 ?65 29 90 37 0 0 1
2 17 82 0 63 65 64 52 48 83 0 0 -15 63 80 0 62 91 0 17 64 0 63 82 62 44 68 90 0
 49 -16 83 10 0 ?48 50 80 92 0 0 12 16 50 13 0 ?43 93 83 94 0 0 12 30 92 11 0 83
 87 94 0 +-.0640360070335774 .02780164091375475 .01 0 -1 0 30 87 8 0 80 95 92 0
 +-.0640360070335774 .02780164091375475 .01 -1 0 0 30 94 14 0 50 92 96 0 +-.0640
360070335774 -.02780164091375475 .01 1 0 0 30 96 69 0 97 94 98 0 +.0640360070335
774 .02780164091375475 0 0 1 0 16 97 57 0 ?99 89 0 96 0 0 12 30 98 68 0 89 96 10
0 0 +-.0640360070335774 .02780164091375475 0 -1 0 0 16 89 53 0 ?60 67 97 98 0 0
 12 30 100 67 0 67 98 101 0 +-.0640360070335774 .02780164091375475 0 0 -1 0 16 6
7 49 0 ?62 73 89 100 0 0 12 30 101 66 0 73 100 102 0 +-.0640360070335774 -.02780
164091375475 0 1 0 0 16 73 45 0 ?69 85 67 101 0 0 12 30 102 90 0 93 101 103 0 +.
0640360070335774 -.02780164091375475 .01 0 0 -1 16 93 74 0 ?74 90 50 102 0 0 12
 30 103 91 0 90 102 37 0 +-.0640360070335774 -.02780164091375475 .01 0 0 -1 16 9
0 75 0 ?68 42 93 103 0 0 12 30 37 92 0 42 103 26 0 +-.0640360070335774 .02780164
091375475 .01 0 0 -1 17 68 0 71 69 49 61 64 90 0 72 +15 71 78 0 69 104 0 17 49 0
 71 68 51 44 43 50 0 0 -17 72 0 105 66 106 61 69 73 0 0 -15 105 44 0 106 107 0 1
7 66 0 105 58 72 59 62 67 0 0 -17 106 0 105 72 58 38 99 97 0 0 -17 58 0 105 106
 66 56 60 89 0 41 -17 99 0 108 86 74 56 106 97 0 0 +15 108 84 0 99 34 0 17 86 0
 108 84 99 70 41 29 0 0 -17 74 0 108 99 84 38 51 93 0 106 +17 84 0 108 74 86 30
 47 85 0 0 -17 51 0 71 49 69 30 74 93 0 84 -16 85 4 0 ?47 80 73 95 0 0 12 30 95
 5 0 85 0 87 0 +.0640360070335774 .02780164091375475 .01 0 1 0 17 41 0 77 60 75
 56 86 29 0 99 +14 255 34 85 109 ?88 0 108 24 25 -0 0 88 0 40 81 1 109 155 110 3
4 111 0 0 112 113 14 88 83 112 ?91 34 77 24 36 -0 0 91 34 40 13 40 29 0 0 0 0 0
 0 28 34 81 1 112 156 110 88 114 0 109 115 116 14 91 81 115 ?104 88 63 24 117 -0
 0 104 88 40 50 36 88 0 88 117 25 0 +-.0640360070335774 .02780164091375475 .01 0
 -1 0 0 0 -1 50 117 87 0 91 118 36 0 +-.0640360070335774 .02780164091375475 .01
 1 0 0 0 0 -1 50 118 86 0 104 119 117 0 +-.0640360070335774 -.02780164091375475
 .01 0 1 0 0 0 1 14 104 79 120 ?81 91 71 24 118 -0 0 81 91 40 50 119 65 0 107 12
1 118 0 +0 0 0 0 0 1 1 0 0 14 107 43 122 ?0 81 105 24 119 -0 0 0 81 40 50 121 2
 0 81 0 119 0 +0 0 .01 0 0 1 1 0 0 14 81 1 123 ?107 104 46 24 121 +0 0 107 104 4
0 81 1 123 160 110 81 124 0 122 0 125 80 255 1 110 126 127 9000 1 1 1 1 1 1 1 1
 0 FFFFTFTFFFFFFF1 81 1 124 139 128 81 0 123 129 130 131 81 1 122 159 110 107 13
0 0 120 123 132 82 255 1 125 198115469 81 1 130 140 128 107 0 122 124 0 133 81 1
 120 158 110 104 129 0 115 122 134 82 1 132 203751565 81 1 129 138 128 104 0 120
 135 124 136 81 1 115 157 110 91 135 0 112 120 137 82 1 134 204669069 81 1 135 1
37 128 91 0 115 114 129 138 82 1 137 204931213 80 1 128 0 139 8001 0 0 0 0 3 5 0
 0 0 FFFFTFTFFFFFFF2 81 1 114 136 128 88 0 112 111 135 140 83 255 3 138 1 1 1 81
 1 111 135 128 34 0 109 0 114 141 83 3 140 1 1 1 83 3 141 1 1 1 79 255 15 139 SD
L/TYSA_COLOUR83 3 136 1 1 1 83 3 133 1 1 1 83 3 131 1 1 1 79 14 127 SWEntUnchang
ed82 1 116 205193357 82 1 113 205455501 19 35 95 0 12 0 28 24 S0 74 4 CI16 index
_map_offset0 0 1 dCCZ20 33 4 0 0 123 32 130 21 0 0 0 0 0 0 0 0 0 0 0 0 0 0 0 0 8
1 2 32 133 142 12 0 21 0 0 143 0 80 2 142 144 145 8004 0 0 0 0 3 5 0 0 0 FFTFFFF
FFFFFFF2 3 83 1 143 1e3 79 16 145 SDL/TYSA_DENSITY80 1 31 146 147 8017 0 0 0 0 0
 0 0 0 0 TTTTTTTTTTTTTF3 79 13 147 SDL/TYSA_NAME81 1 10 166 31 7 148 0 0 0 0 70
 11 0 4 T7 0 0 4 20 1 149 149 13 13 94 0 7 0 150 0 0 151 0 50 14 89 0 150 152 0
 0 +-.04178134523240895 -.0192666627308459 .02 1 0 0 0 0 -1 30 15 93 0 18 153 0
 0 +-.04178134523240895 -.0192666627308459 .02 0 0 -1 29 16 70 0 154 155 0 -.041
78134523240895 .0192666627308459 .01 19 17 28 0 7 151 0 156 V0 16 18 77 0 ?157 0
 158 15 0 0 7 18 19 25 0 159 0 160 161 ?7 17 159 0 162 163 164 19 165 166 0 167
 +18 160 22 0 164 19 168 169 ?7 29 161 27 0 19 169 170 -.04178134523240895 .0192
666627308459 .02 29 169 24 0 160 171 161 .04178134523240895 .0192666627308459 .0
2 29 170 73 0 172 161 173 -.04178134523240895 -.0192666627308459 .01 18 172 64 0
 174 175 0 170 ?7 29 173 72 0 175 170 155 .04178134523240895 -.0192666627308459
 .01 18 175 63 0 176 177 172 173 ?7 29 155 71 0 177 173 16 .04178134523240895 .0
192666627308459 .01 18 177 62 0 178 154 175 155 ?7 17 178 0 179 180 181 177 182
 183 0 184 +18 154 61 0 185 186 177 16 ?7 17 185 0 187 167 184 154 188 189 0 190
 +18 186 16 0 191 168 154 192 ?7 17 191 0 193 157 194 186 195 196 0 163 -18 168
 19 0 195 160 186 171 ?7 29 192 18 0 186 0 171 -.04178134523240895 -.01926666273
08459 .02 29 171 21 0 168 192 169 .04178134523240895 -.0192666627308459 .02 17 1
95 0 162 164 163 168 191 196 0 194 +15 162 3 0 163 197 0 17 164 0 162 159 195 16
0 198 199 0 180 +17 163 0 162 195 159 186 200 201 0 202 +16 196 7 0 ?195 199 201
 203 0 0 7 17 194 0 193 191 176 168 181 158 0 198 -15 193 82 0 176 204 0 17 176
 0 193 194 157 175 174 205 0 181 +17 181 0 179 178 198 175 194 158 0 182 +16 158
 76 0 ?181 18 206 153 0 0 7 17 198 0 179 181 180 168 164 199 0 0 -15 179 80 0 17
8 207 0 17 180 0 179 198 178 160 184 206 0 165 -16 199 10 0 ?164 166 196 208 0 0
 7 16 166 13 0 ?159 209 199 210 0 0 7 30 208 11 0 199 203 210 0 +.04178134523240
895 -.0192666627308459 .02 0 1 0 30 203 8 0 196 211 208 0 +.04178134523240895 -.
0192666627308459 .02 1 0 0 30 210 14 0 166 208 212 0 +.04178134523240895 .019266
6627308459 .02 -1 0 0 30 212 69 0 213 210 214 0 +-.04178134523240895 -.019266662
7308459 .01 0 -1 0 16 213 57 0 ?215 205 0 212 0 0 7 30 214 68 0 205 212 216 0 +.
04178134523240895 -.0192666627308459 .01 1 0 0 16 205 53 0 ?176 183 213 214 0 0
 7 30 216 67 0 183 214 217 0 +.04178134523240895 -.0192666627308459 .01 0 1 0 16
 183 49 0 ?178 189 205 216 0 0 7 30 217 66 0 189 216 218 0 +.04178134523240895 .
0192666627308459 .01 -1 0 0 16 189 45 0 ?185 201 183 217 0 0 7 30 218 90 0 209 2
17 219 0 +-.04178134523240895 .0192666627308459 .02 0 0 -1 16 209 74 0 ?190 206
 166 218 0 0 7 30 219 91 0 206 218 153 0 +.04178134523240895 .0192666627308459 .
02 0 0 -1 16 206 75 0 ?184 158 209 219 0 0 7 30 153 92 0 158 219 15 0 +.04178134
523240895 -.0192666627308459 .02 0 0 -1 17 184 0 187 185 165 177 180 206 0 188 +
15 187 78 0 185 220 0 17 165 0 187 184 167 160 159 166 0 0 -17 188 0 221 182 222
 177 185 189 0 0 -15 221 44 0 222 223 0 17 182 0 221 174 188 175 178 183 0 0 -17
 222 0 221 188 174 154 215 213 0 0 -17 174 0 221 222 182 172 176 205 0 157 -17 2
15 0 224 202 190 172 222 213 0 0 +15 224 84 0 215 150 0 17 202 0 224 200 215 186
 157 18 0 0 -17 190 0 224 215 200 154 167 209 0 222 +17 200 0 224 190 202 19 163
 201 0 0 -17 167 0 187 165 185 19 190 209 0 200 -16 201 4 0 ?163 196 189 211 0 0
 7 30 211 5 0 201 0 203 0 +-.04178134523240895 -.0192666627308459 .02 0 -1 0 17
 157 0 193 176 191 172 202 18 0 215 +14 150 85 225 ?204 0 224 13 14 -0 0 204 0 1
56 81 1 225 160 110 150 226 0 0 227 228 14 204 83 227 ?207 150 193 13 152 -0 0 2
07 150 156 13 156 29 0 0 0 0 0 0 17 150 81 1 227 161 110 204 229 0 225 230 231 1
4 207 81 230 ?220 204 179 13 232 -0 0 220 204 156 50 152 88 0 204 232 14 0 +.041
78134523240895 -.0192666627308459 .02 0 1 0 0 0 1 50 232 87 0 207 233 152 0 +.04
178134523240895 -.0192666627308459 .02 -1 0 0 0 0 1 50 233 86 0 220 234 232 0 +.
04178134523240895 .0192666627308459 .02 0 -1 0 0 0 -1 14 220 79 235 ?197 207 187
 13 233 -0 0 197 207 156 50 234 65 0 223 236 233 0 +0 0 .01 0 0 1 1 0 0 14 223 4
3 237 ?0 197 221 13 234 -0 0 0 197 156 50 236 2 0 197 0 234 0 +0 0 .02 0 0 1 1 0
 0 14 197 1 238 ?223 220 162 13 236 +0 0 223 220 156 81 1 238 165 110 197 239 0
 237 0 240 81 1 239 144 128 197 0 238 241 242 243 81 1 237 164 110 223 242 0 235
 238 244 82 1 240 1218445470 81 1 242 145 128 223 0 237 239 0 245 81 1 235 163 1
10 220 241 0 230 237 246 82 1 244 1224081566 81 1 241 143 128 220 0 235 247 239
 248 81 1 230 162 110 207 247 0 227 235 249 82 1 246 1224999070 81 1 247 142 128
 207 0 230 229 241 250 82 1 249 1225261214 81 1 229 141 128 204 0 227 226 247 25
1 83 3 250 1 1 1 81 1 226 140 128 150 0 225 0 229 252 83 3 251 1 1 1 83 3 252 1
 1 1 83 3 248 1 1 1 83 3 245 1 1 1 83 3 243 1 1 1 82 1 231 1225523358 82 1 228 1
225785502 19 151 95 0 7 0 17 13 S0 74 20 149 4 0 0 238 148 242 10 0 0 0 0 0 0 0
 0 0 0 0 0 0 0 0 0 81 2 148 138 142 7 0 10 0 0 253 0 83 1 253 1e3 74 20 6 1 0 0
 2 0 0 0 0 0 0 0 0 0 0 0 0 0 0 0 0 0 0 0 80 2 5 254 255 9000 0 0 0 0 3 5 0 0 0 T
FFFFFFFFFFFFF9 1 79 18 255 MULTI_BODY_ID_20011 0 
