**ABCDEFGHIJKLMNOPQRSTUVWXYZabcdefghijklmnopqrstuvwxyz**************************
**PARASOLID !"#$%&'()*+,-./:;<=>?@[\]^_`{|}~0123456789**************************
**PART1;
MC=AMD64;
MC_MODEL=Intel64 Family 6 Model 60 Stepping 3, GenuineIntel;
MC_ID=unknown;
OS=Windows_NT;
OS_RELEASE=unknown;
FRU=Parasolid Version 30.0, build 310,  6- 8-2018;
APPL=SOLIDWORKS 2018-2018211;
SITE=;
USER=unknown;
FORMAT=text;
GUISE=transmit;
KEY=曲面接触;
FILE=曲面接触.x_t;
DATE=Fri Mar 22 08:50:36 2019;
**PART2;
SCH=SCH_3000310_30000;
USFLD_SIZE=0;
**PART3;
**END_OF_HEADER*****************************************************************
T51 : TRANSMIT FILE created by modeller version 300031023 SCH_3000310_30000_1300
6205 0 10 19 CCCCCCCI4 mesh1006 0 I8 polyline1008 0 CCCCCCCCCCZ1 5 2 3 0 0 0 0 0
 0 0 1e3 1e-8 0 0 0 1 0 1 4 81 255 2 2 5 5 1 0 0 0 0 0 0 70 11 CI9 list_type0 0
 1 uI10 notransmit0 0 1 lCCCDCCDI12 finger_index0 0 1 dI12 finger_block1012 0 CZ
3 0 4 T1 0 0 1 20 1 6 6 11 255 4 3 0 1 7 8 1 9 0 0 0 12 33 CCCCCCI4 mesh1006 0 I
8 polyline1008 0 CCCCCCCDI5 owner1040 0 CCCCCCI13 boundary_mesh1006 0 I17 bounda
ry_polyline1008 0 CCCA16 index_map_offset0 0 1 dA9 index_map82 0 A17 node_id_ind
ex_map82 0 A20 schema_embedding_map82 0 A5 child12 0 A14 lowest_node_id0 0 1 dZ7
 188 10 11 0 0 0 0 0 0 1e3 1e-8 4 12 0 1 0 1 1 13 14 15 16 0 0 17 18 19 0 0 0 0
 0 0 100 255 8 4 4 0 0 1 0 0 0 1 0 0 0 1 0 0 0 1 0 ?11 9 1 0 1 12 20 1 0 4 0 0 1
2 12 120 21 22 0 0 0 0 0 0 1e3 1e-8 9 23 7 1 0 1 1 24 25 26 27 0 0 28 29 30 0 0
 0 0 0 0 100 20 2 9 0 0 1 0 0 0 1 0 0 0 1 0 0 0 1 0 ?81 1 21 120 31 12 32 0 0 0
 0 70 22 0 4 T12 0 0 4 20 1 33 33 13 255 24 60 0 12 0 34 0 0 35 0 50 255 25 57 0
 34 36 0 0 +0 .04308595534975265 .02 0 1 0 0 0 1 30 255 26 59 0 29 37 0 0 +-.031
35919686006465 .04308595534975265 .02 0 0 -1 29 255 27 48 0 38 39 0 .03135919686
00646 .04308595534975265 0 19 8 CCCCCCCA5 owner12 0 Z28 20 0 12 35 0 40 V0 16 25
5 29 51 0 ?41 0 42 26 0 0 12 18 255 30 15 0 43 0 44 45 ?12 17 255 43 0 46 47 47
 30 48 49 0 50 +18 44 12 0 51 30 38 52 ?12 29 45 17 0 30 52 39 .0313591968600646
 .04308595534975265 .02 29 52 14 0 44 0 45 -.03135919686006465 .0430859553497526
5 .02 29 39 49 0 53 45 27 -.03135919686006465 .04308595534975265 0 18 53 44 0 41
 38 0 39 ?12 17 41 0 54 55 48 53 51 29 0 56 +18 38 43 0 57 44 53 27 ?12 17 57 0
 58 59 60 38 50 42 0 55 +15 255 58 54 0 59 34 0 17 59 0 58 51 57 53 61 62 0 0 -1
7 60 0 58 57 51 30 47 63 0 0 +17 50 0 54 48 55 30 57 42 0 60 -16 42 50 0 ?57 29
 49 37 0 0 12 17 55 0 54 50 41 38 56 64 0 61 +15 54 52 0 55 65 0 17 56 0 66 61 6
1 53 55 64 0 59 -16 64 33 0 ?55 63 62 67 0 0 12 17 61 0 66 56 56 38 59 62 0 0 +1
5 66 32 0 61 68 0 16 62 38 0 ?61 64 0 69 0 0 12 30 69 47 0 62 70 67 0 +0 .043085
95534975265 0 1 0 0 31 255 70 9 0 49 71 69 0 +-1387778780781446e-32 .04308595534
975265 .02 0 0 1 1 0 0 .0313591968600646 31 67 46 0 64 69 37 0 +-138777878078144
6e-32 .04308595534975265 0 0 0 1 1 0 0 .0313591968600646 30 37 58 0 42 67 26 0 +
.0313591968600646 .04308595534975265 .02 0 0 -1 16 49 8 0 ?43 42 63 70 0 0 12 30
 71 5 0 63 0 70 0 +0 .04308595534975265 .02 1 0 0 16 63 4 0 ?60 49 64 71 0 0 12
 14 255 68 31 72 ?0 73 66 24 74 -0 0 0 73 40 81 1 72 116 75 68 76 0 0 77 78 14 7
3 1 77 ?68 65 46 24 79 +0 0 68 65 40 50 74 45 0 68 79 36 0 +0 0 0 0 0 1 1 0 0 13
 40 21 0 0 0 0 0 0 28 34 14 34 55 80 ?65 0 58 24 25 +0 0 65 0 40 81 1 80 118 75
 34 81 0 77 82 83 14 65 53 82 ?73 34 54 24 36 -0 0 73 34 40 81 1 82 119 75 65 84
 0 80 0 85 51 255 36 56 0 65 74 25 0 --1387778780781446e-32 .04308595534975265 .
02 0 0 -1 .0313591968600646 -1 0 0 80 255 1 75 86 87 9000 1 1 1 1 1 1 1 1 0 FFFF
TFTFFFFFFF1 81 1 84 103 88 65 0 82 81 89 90 82 255 1 85 -317652844 80 1 88 0 91
 8001 0 0 0 0 3 5 0 0 0 FFFFTFTFFFFFFF2 81 1 81 102 88 34 0 80 0 84 92 81 1 89 1
04 88 73 0 77 84 76 93 83 255 3 90 1 1 1 81 1 77 117 75 73 89 0 72 80 94 81 1 76
 105 88 68 0 72 89 0 95 83 3 93 1 1 1 83 3 95 1 1 1 82 1 94 -321978220 83 3 92 1
 1 1 79 255 15 91 SDL/TYSA_COLOUR79 14 87 SWEntUnchanged82 1 83 -317390700 50 79
 2 0 73 0 74 0 +0 0 .02 0 0 1 1 0 0 15 46 3 0 47 73 0 17 47 0 46 43 43 44 60 63
 0 0 -82 1 78 -318242668 17 48 0 54 41 50 44 43 49 0 47 -17 51 0 58 60 59 44 41
 29 0 48 -19 35 61 0 12 0 28 24 S0 74 4 CI16 index_map_offset0 0 1 dCCZ20 33 4 0
 0 82 32 76 21 0 0 0 0 0 0 0 0 0 0 0 0 0 0 0 0 81 2 32 88 96 12 0 21 0 0 97 0 80
 2 96 98 99 8004 0 0 0 0 3 5 0 0 0 FFTFFFFFFFFFFF2 3 83 1 97 1e3 79 16 99 SDL/TY
SA_DENSITY80 1 31 100 101 8017 0 0 0 0 0 0 0 0 0 TTTTTTTTTTTTTF3 79 13 101 SDL/T
YSA_NAME81 1 10 188 31 7 102 0 0 0 0 70 11 0 4 T7 0 0 4 20 1 103 103 13 13 104 0
 7 0 104 0 0 105 0 50 14 99 0 104 106 0 0 +0 -.01172675848968802 .02 0 1 0 0 0 1
 30 15 103 0 18 107 0 0 +.0513869192244756 -.01172675848968802 .02 0 0 -1 29 16
 80 0 108 109 0 -.0513869192244756 -.01172675848968802 0 19 17 34 0 7 105 0 110
 V0 16 18 87 0 ?111 0 112 15 0 0 7 18 19 29 0 113 0 114 115 ?7 17 113 0 116 117
 118 19 119 120 0 121 -18 114 26 0 122 19 123 124 ?7 29 115 31 0 19 124 125 -.05
13869192244756 -.01172675848968802 .02 29 124 28 0 114 126 115 -.051386919224475
6 .01172675848968802 .02 29 125 83 0 127 115 128 .0513869192244756 -.01172675848
968802 0 18 127 74 0 129 130 0 125 ?7 29 128 82 0 130 125 109 .0513869192244756
 .01172675848968802 0 18 130 73 0 131 132 127 128 ?7 29 109 81 0 132 128 16 -.05
13869192244756 .01172675848968802 0 18 132 72 0 133 108 130 109 ?7 17 133 0 116
 118 117 132 122 134 0 135 +18 108 71 0 119 136 132 16 ?7 17 119 0 137 138 121 1
08 113 120 0 139 +18 136 20 0 140 123 108 141 ?7 17 140 0 142 111 143 136 144 14
5 0 146 -18 123 23 0 144 114 136 126 ?7 29 141 22 0 136 0 126 .0513869192244756
 -.01172675848968802 .02 29 126 25 0 123 141 124 .0513869192244756 .011726758489
68802 .02 17 144 0 147 148 146 123 140 145 0 143 +15 147 3 0 146 149 0 17 148 0
 147 150 144 114 151 152 0 117 -17 146 0 147 144 150 136 121 153 0 154 +16 145 8
 0 ?144 152 153 155 0 0 7 17 143 0 142 140 156 123 131 112 0 151 -15 142 92 0 15
6 157 0 17 156 0 142 143 111 130 129 158 0 159 +17 131 0 160 135 151 130 143 112
 0 156 +16 112 86 0 ?131 18 134 107 0 0 7 17 151 0 160 131 122 123 148 152 0 0 +
15 160 90 0 135 161 0 17 122 0 160 151 135 114 133 134 0 148 -16 152 12 0 ?151 1
62 145 163 0 0 7 16 162 16 0 ?117 120 152 164 0 0 7 30 163 13 0 152 155 164 0 +0
 .01172675848968802 .02 1 0 0 30 155 9 0 145 165 163 0 +.0513869192244756 0 .02
 0 1 0 30 164 17 0 162 163 166 0 +-.0513869192244756 0 .02 0 1 0 30 166 79 0 167
 164 168 0 +0 -.01172675848968802 0 1 0 0 16 167 66 0 ?138 158 0 166 0 0 7 30 16
8 78 0 158 166 169 0 +.0513869192244756 0 0 0 1 0 16 158 61 0 ?156 170 167 168 0
 0 7 30 169 77 0 170 168 171 0 +0 .01172675848968802 0 1 0 0 16 170 56 0 ?159 17
2 158 169 0 0 7 30 171 76 0 172 169 173 0 +-.0513869192244756 0 0 0 1 0 16 172 5
1 0 ?174 153 170 171 0 0 7 30 173 100 0 120 171 175 0 +-.0513869192244756 -.0117
2675848968802 .02 0 0 -1 16 120 84 0 ?119 134 162 173 0 0 7 30 175 101 0 134 173
 107 0 +-.0513869192244756 .01172675848968802 .02 0 0 -1 16 134 85 0 ?133 112 12
0 175 0 0 7 30 107 102 0 112 175 15 0 +.0513869192244756 .01172675848968802 .02
 0 0 -1 17 174 0 176 159 139 132 118 172 0 0 +16 153 4 0 ?146 145 172 165 0 0 7
 30 165 5 0 153 0 155 0 +0 -.01172675848968802 .02 1 0 0 15 176 50 0 139 177 0 1
7 159 0 176 129 174 130 135 170 0 0 +17 139 0 176 174 129 108 138 167 0 118 -17
 118 0 116 113 133 108 174 172 0 0 -15 116 88 0 118 178 0 14 178 89 179 ?149 161
 116 13 180 +0 0 149 161 110 81 1 179 182 75 178 181 0 0 182 183 14 149 1 182 ?1
77 178 147 13 184 +0 0 177 178 110 14 161 91 185 ?178 157 160 13 186 +0 0 178 15
7 110 50 180 96 0 178 187 186 0 +-.0513869192244756 0 .02 -1 0 0 0 0 1 13 110 35
 0 0 0 0 0 0 17 104 14 104 95 188 ?157 0 137 13 14 -0 0 157 0 110 81 1 188 185 7
5 104 189 0 185 190 191 14 157 93 190 ?161 104 142 13 106 -0 0 161 104 110 15 13
7 94 0 138 104 0 17 138 0 137 154 119 127 139 167 0 0 +17 154 0 137 121 138 136
 111 18 0 0 -17 121 0 137 119 154 19 146 153 0 150 -17 111 0 142 156 140 127 154
 18 0 138 +17 150 0 147 146 148 19 117 162 0 0 -17 117 0 116 133 113 114 150 162
 0 0 +81 1 190 186 75 157 192 0 188 193 194 50 106 98 0 157 186 14 0 +.051386919
2244756 0 .02 -1 0 0 0 0 1 50 186 97 0 161 180 106 0 +0 .01172675848968802 .02 0
 1 0 0 0 1 81 1 192 163 88 157 0 190 189 195 196 81 1 193 187 75 177 197 0 190 0
 198 82 1 194 -305528684 14 177 49 193 ?0 149 176 13 187 -0 0 0 149 110 81 1 197
 167 88 177 0 193 199 0 200 82 1 198 -306773868 81 1 199 166 88 149 0 182 181 19
7 201 83 3 200 1 1 1 81 1 182 183 75 149 199 0 179 185 202 81 1 181 165 88 178 0
 179 195 199 203 83 3 201 1 1 1 81 1 195 164 88 161 0 185 192 181 204 83 3 203 1
 1 1 81 1 185 184 75 161 195 0 182 188 205 83 3 204 1 1 1 82 1 205 -305659756 82
 1 202 -313130860 50 187 75 0 177 184 180 0 +0 0 0 0 0 1 1 0 0 50 184 2 0 149 0
 187 0 +0 0 .02 0 0 1 1 0 0 81 1 189 162 88 104 0 188 0 192 206 83 3 196 1 1 1 8
3 3 206 1 1 1 82 1 191 -305201004 82 1 183 -305790828 17 129 0 176 139 159 127 1
56 158 0 111 -17 135 0 160 122 131 132 159 170 0 174 -19 105 105 0 7 0 17 13 S0
 74 20 103 4 0 0 193 102 197 10 0 0 0 0 0 0 0 0 0 0 0 0 0 0 0 0 81 2 102 142 96
 7 0 10 0 0 207 0 83 1 207 1e3 74 20 6 1 0 0 2 0 0 0 0 0 0 0 0 0 0 0 0 0 0 0 0 0
 0 0 80 2 5 208 209 9000 0 0 0 0 3 5 0 0 0 TFFFFFFFFFFFFF9 1 79 18 209 MULTI_BOD
Y_ID_20011 0 
