**ABCDEFGHIJKLMNOPQRSTUVWXYZabcdefghijklmnopqrstuvwxyz**************************
**PARASOLID !"#$%&'()*+,-./:;<=>?@[\]^_`{|}~0123456789**************************
**PART1;
MC=AMD64;
MC_MODEL=Intel64 Family 6 Model 60 Stepping 3, GenuineIntel;
MC_ID=unknown;
OS=Windows_NT;
OS_RELEASE=unknown;
FRU=Parasolid Version 30.0, build 298, 12-15-2017;
APPL=SOLIDWORKS 2018-2018056;
SITE=;
USER=unknown;
FORMAT=text;
GUISE=transmit;
KEY=L bracketÎÞÔ²½Ç;
FILE=L bracketÎÞÔ²½Ç.x_t;
DATE=Sat Jun  9 22:49:11 2018;
**PART2;
SCH=SCH_3000298_30000;
USFLD_SIZE=0;
**PART3;
**END_OF_HEADER*****************************************************************
T51 : TRANSMIT FILE created by modeller version 300029823 SCH_3000298_30000_1300
6205 0 12 33 CCCCCCI4 mesh1006 0 I8 polyline1008 0 CCCCCCCDI5 owner1040 0 CCCCCC
I13 boundary_mesh1006 0 I17 boundary_polyline1008 0 CCCA16 index_map_offset0 0 1
 dA9 index_map82 0 A17 node_id_index_map82 0 A20 schema_embedding_map82 0 A5 chi
ld12 0 A14 lowest_node_id0 0 1 dZ1 290 2 3 0 0 0 0 0 0 1e3 1e-8 0 4 0 1 0 1 1 5
 6 7 8 0 0 9 10 11 0 0 0 0 0 0 81 255 2 2 200 12 1 0 0 0 0 13 0 70 11 CI9 list_t
ype0 0 1 uI10 notransmit0 0 1 lCCCDCCDI12 finger_index0 0 1 dI12 finger_block101
2 0 CZ3 0 4 T1 0 0 3 20 1 14 14 13 255 5 134 0 1 0 15 0 0 16 0 50 255 6 127 0 15
 17 0 0 +0 0 .03175 1 0 0 0 0 -1 30 255 7 133 0 10 18 0 0 +0 0 .03175 0 0 -1 29
 255 8 98 0 19 20 0 0 .1016 0 19 8 CCCCCCCA5 owner12 0 Z9 40 0 1 16 0 21 V0 16 2
55 10 109 0 ?22 0 23 7 0 0 1 18 255 11 37 0 24 0 25 26 ?1 17 255 24 0 27 28 29 1
1 30 31 0 32 +18 25 34 0 29 11 33 34 ?1 29 26 39 0 11 34 35 0 .1016 .03175 29 34
 36 0 25 36 26 .01905 .1016 .03175 29 35 103 0 37 26 38 0 0 0 18 37 90 0 39 40 0
 35 ?1 29 38 102 0 40 35 41 .1016 0 0 18 40 89 0 42 43 37 38 ?1 29 41 101 0 43 3
8 44 .1016 .01905 0 18 43 88 0 45 46 40 41 ?1 29 44 100 0 46 41 20 .01905 .01905
 0 18 46 87 0 47 48 43 44 ?1 29 20 99 0 48 44 8 .01905 .1016 0 18 48 86 0 49 19
 46 20 ?1 17 49 0 50 51 52 48 53 54 0 55 +18 19 85 0 56 57 48 8 ?1 17 56 0 58 32
 55 19 59 60 0 61 +18 57 22 0 62 63 19 64 ?1 17 62 0 65 22 66 57 67 68 0 28 -18
 63 25 0 67 69 57 70 ?1 29 64 24 0 57 0 70 0 0 .03175 29 70 27 0 63 64 71 .1016
 0 .03175 29 71 30 0 69 70 36 .1016 .01905 .03175 18 69 28 0 72 33 63 71 ?1 29 3
6 33 0 33 71 34 .01905 .01905 .03175 18 33 31 0 73 25 69 36 ?1 17 73 0 27 29 72
 33 74 75 0 76 +15 255 27 3 0 28 77 0 17 29 0 27 24 73 25 78 79 0 51 +17 72 0 27
 73 67 69 80 81 0 82 +17 74 0 83 84 76 69 73 75 0 0 -16 75 13 0 ?73 79 81 85 0 0
 1 17 76 0 83 74 47 33 52 86 0 78 -15 83 114 0 47 87 0 17 47 0 83 76 84 46 88 89
 0 52 +17 52 0 50 49 78 46 76 86 0 53 +16 86 106 0 ?52 90 91 92 0 0 1 17 78 0 50
 52 51 33 29 79 0 0 -15 50 112 0 49 93 0 17 51 0 50 78 49 25 55 91 0 30 -16 79 1
6 0 ?29 31 75 94 0 0 1 16 31 19 0 ?24 95 79 96 0 0 1 30 94 17 0 79 85 96 0 +.019
05 .1016 .03175 -1260852920152736e-31 1 0 30 85 14 0 75 97 94 0 +.01905 .01905 .
03175 -1 0 0 30 96 20 0 31 94 98 0 +0 .1016 .03175 -1 0 0 30 98 97 0 99 96 100 0
 +0 0 0 0 -1 0 16 99 81 0 ?101 102 0 98 0 0 1 30 100 96 0 102 98 103 0 +0 0 0 1
 0 0 16 102 77 0 ?42 104 99 100 0 0 1 30 103 95 0 104 100 105 0 +.1016 0 0 0 1 0
 16 104 73 0 ?45 89 102 103 0 0 1 30 105 94 0 89 103 106 0 +.01905 .01905 0 -1 0
 0 16 89 69 0 ?47 54 104 105 0 0 1 30 106 93 0 54 105 107 0 +.01905 .1016 0 -126
0852920152736e-31 1 0 16 54 65 0 ?49 60 89 106 0 0 1 30 107 92 0 60 106 108 0 +0
 .1016 0 -1 0 0 16 60 61 0 ?56 109 54 107 0 0 1 30 108 128 0 95 107 110 0 +0 .10
16 .03175 0 0 -1 16 95 104 0 ?61 91 31 108 0 0 1 30 110 129 0 91 108 92 0 +.0190
5 .1016 .03175 0 0 -1 16 91 105 0 ?55 86 95 110 0 0 1 30 92 130 0 86 110 111 0 +
.01905 .01905 .03175 0 0 -1 30 111 131 0 90 92 18 0 +.1016 .01905 .03175 0 0 -1
 16 90 107 0 ?84 23 86 111 0 0 1 30 18 132 0 23 111 7 0 +.1016 0 .03175 0 0 -1 1
6 23 108 0 ?112 10 90 18 0 0 1 17 112 0 113 45 80 40 66 23 0 114 +15 113 116 0 4
5 115 0 17 45 0 113 82 112 43 114 104 0 84 +17 80 0 113 112 82 63 72 81 0 0 -17
 66 0 65 62 42 63 112 23 0 80 -17 114 0 116 39 88 40 45 104 0 0 -15 116 60 0 117
 118 0 17 39 0 116 117 114 37 42 102 0 22 -17 88 0 116 114 53 43 47 89 0 0 -17 5
3 0 116 88 59 46 49 54 0 0 -17 59 0 116 53 117 48 56 60 0 0 -17 117 0 116 59 39
 19 101 99 0 0 -17 101 0 119 120 61 37 117 99 0 0 +15 119 120 0 101 15 0 17 120
 0 119 121 101 57 22 10 0 0 -17 61 0 119 101 121 19 32 95 0 117 +17 121 0 119 61
 120 11 28 109 0 0 -17 32 0 58 30 56 11 61 95 0 121 -15 58 110 0 56 122 0 17 30
 0 58 55 32 25 24 31 0 0 -17 55 0 58 56 30 48 51 91 0 59 +14 255 122 111 123 ?77
 93 58 5 124 -0 0 77 93 21 81 1 123 283 125 122 126 0 0 127 128 14 77 1 127 ?118
 122 27 5 129 -0 0 118 122 21 14 93 113 130 ?122 87 50 5 131 -0 0 122 87 21 50 1
24 122 0 122 132 131 0 +0 .1016 .03175 0 -1 0 0 0 -1 13 21 41 0 0 0 0 0 0 9 15 1
4 15 121 133 ?134 0 119 5 6 -0 0 134 0 21 81 1 133 286 125 15 135 0 130 136 137
 14 134 119 136 ?115 15 65 5 17 -0 0 115 15 21 81 1 136 287 125 134 138 0 133 13
9 140 14 115 117 139 ?87 134 113 5 141 -0 0 87 134 21 15 65 118 0 42 134 0 50 17
 126 0 134 141 6 0 +0 0 .03175 0 1 0 0 0 1 50 141 125 0 115 142 17 0 +.1016 0 .0
3175 -1 0 0 0 0 1 50 142 124 0 87 131 141 0 +.01905 .01905 .03175 0 -1 0 0 0 -1
 14 87 115 143 ?93 115 83 5 142 -0 0 93 115 21 50 131 123 0 93 124 142 0 +.01905
 .1016 .03175 -1 -1260852920152736e-31 0 1260852920152736e-31 -1 0 81 1 143 289
 125 87 144 0 139 145 146 80 255 1 125 147 148 9000 1 1 1 1 1 1 1 1 0 FFFFTFTFFF
FFFF1 81 1 144 260 149 87 0 143 150 151 152 81 1 139 288 125 115 150 0 136 143 1
53 81 1 145 290 125 118 154 0 143 0 155 82 255 1 146 147718337 14 118 59 145 ?0
 77 116 5 132 +0 0 0 77 21 81 1 154 264 149 118 0 145 156 0 157 82 1 155 1458833
29 80 1 149 0 158 8001 0 0 0 0 3 5 0 0 0 FFFFTFTFFFFFFF2 81 1 156 263 149 77 0 1
27 126 154 159 83 255 3 157 .647058823529412 .619607843137255 .588235294117647 8
1 1 127 284 125 77 156 0 123 130 160 81 1 126 262 149 122 0 123 151 156 161 83 3
 159 .647058823529412 .619607843137255 .588235294117647 81 1 151 261 149 93 0 13
0 144 126 162 83 3 161 .647058823529412 .619607843137255 .588235294117647 81 1 1
30 285 125 93 151 0 127 133 163 83 3 162 .647058823529412 .619607843137255 .5882
35294117647 82 1 163 147456193 82 1 160 137887937 79 255 15 158 SDL/TYSA_COLOUR5
0 132 91 0 118 129 124 0 +0 .1016 0 0 0 -1 -1 0 0 50 129 2 0 77 0 132 0 +0 .1016
 .03175 0 0 -1 -1 0 0 81 1 150 259 149 115 0 139 138 144 164 82 1 153 147980481
 81 1 138 258 149 134 0 136 135 150 165 83 3 164 .647058823529412 .6196078431372
55 .588235294117647 81 1 135 257 149 15 0 133 0 138 166 83 3 165 .64705882352941
2 .619607843137255 .588235294117647 83 3 166 .647058823529412 .619607843137255 .
588235294117647 83 3 152 .647058823529412 .619607843137255 .588235294117647 79 1
4 148 SWEntUnchanged17 42 0 65 66 22 40 39 102 0 112 +17 22 0 65 42 62 37 120 10
 0 101 +82 1 140 148242625 82 1 137 148504769 82 1 128 147194049 17 28 0 27 67 2
4 57 121 109 0 120 +16 109 4 0 ?28 68 60 167 0 0 1 16 68 7 0 ?67 81 109 168 0 0
 1 30 167 5 0 109 0 168 0 +0 0 .03175 0 -1 0 30 168 8 0 68 167 97 0 +0 0 .03175
 1 0 0 30 97 11 0 81 168 85 0 +.1016 0 .03175 0 1 0 16 81 10 0 ?72 75 68 97 0 0
 1 17 67 0 27 72 28 63 62 68 0 66 +17 82 0 113 80 45 69 84 90 0 74 -17 84 0 83 4
7 74 43 82 90 0 88 +19 16 135 0 1 0 9 5 S0 74 4 CI16 index_map_offset0 0 1 dCCZ2
0 14 3 0 0 145 2 154 0 0 0 0 0 0 0 0 0 0 0 0 0 0 0 0 0 80 2 12 169 170 8004 0 0
 0 0 3 5 0 0 0 FFTFFFFFFFFFFF2 3 83 1 13 8e3 79 16 170 SDL/TYSA_DENSITY1 0 
