**ABCDEFGHIJKLMNOPQRSTUVWXYZabcdefghijklmnopqrstuvwxyz**************************
**PARASOLID !"#$%&'()*+,-./:;<=>?@[\]^_`{|}~0123456789**************************
**PART1;
MC=AMD64;
MC_MODEL=Intel64 Family 6 Model 60 Stepping 3, GenuineIntel;
MC_ID=unknown;
OS=Windows_NT;
OS_RELEASE=unknown;
FRU=Parasolid Version 30.0, build 310,  6- 8-2018;
APPL=SOLIDWORKS 2018-2018211;
SITE=;
USER=unknown;
FORMAT=text;
GUISE=transmit;
KEY=桌子小物体;
FILE=桌子小物体.x_t;
DATE=Fri Nov 16 12:43:58 2018;
**PART2;
SCH=SCH_3000310_30000;
USFLD_SIZE=0;
**PART3;
**END_OF_HEADER*****************************************************************
T51 : TRANSMIT FILE created by modeller version 300031023 SCH_3000310_30000_1300
6205 0 10 19 CCCCCCCI4 mesh1006 0 I8 polyline1008 0 CCCCCCCCCCZ1 5 2 3 0 0 0 0 0
 0 0 1e3 1e-8 0 0 0 1 0 1 4 81 255 2 2 5 5 1 0 0 0 0 0 0 70 11 CI9 list_type0 0
 1 uI10 notransmit0 0 1 lCCCDCCDI12 finger_index0 0 1 dI12 finger_block1012 0 CZ
3 0 4 T1 0 0 1 20 1 6 6 11 255 4 3 0 1 7 8 1 9 0 0 0 12 33 CCCCCCI4 mesh1006 0 I
8 polyline1008 0 CCCCCCCDI5 owner1040 0 CCCCCCI13 boundary_mesh1006 0 I17 bounda
ry_polyline1008 0 CCCA16 index_map_offset0 0 1 dA9 index_map82 0 A17 node_id_ind
ex_map82 0 A20 schema_embedding_map82 0 A5 child12 0 A14 lowest_node_id0 0 1 dZ7
 2215 10 11 0 0 0 0 0 0 1e3 1e-8 4 12 0 1 0 1 1 13 14 15 16 0 0 17 18 19 0 0 0 0
 0 0 100 255 8 4 4 0 0 1 0 0 0 1 0 0 0 1 0 0 0 1 0 ?11 9 1 0 1 12 20 1 0 4 0 0 1
2 12 231 21 22 0 0 0 0 0 0 1e3 1e-8 9 23 7 1 0 1 1 24 25 26 27 0 0 28 29 30 0 0
 0 0 0 0 100 20 2 9 0 0 1 0 0 0 1 0 0 0 1 0 0 0 1 0 ?81 1 21 231 31 12 32 0 0 0
 0 70 22 0 4 T12 0 0 4 20 1 33 33 13 255 24 94 0 12 0 34 0 0 35 0 50 255 25 89 0
 34 36 0 0 +.129715534726212 .129715534726212 -.115 1 0 0 0 0 -1 30 255 26 93 0
 29 37 0 0 +.129715534726212 .370284465273788 -.115 0 0 1 29 255 27 70 0 38 39 0
 .129715534726212 .129715534726212 -.015 19 8 CCCCCCCA5 owner12 0 Z28 28 0 12 35
 0 40 V0 16 255 29 77 0 ?41 0 42 26 0 0 12 18 255 30 25 0 43 0 44 45 ?12 17 255
 43 0 46 47 48 30 49 50 0 51 +18 44 22 0 48 30 52 53 ?12 29 45 27 0 30 53 54 .12
9715534726212 .129715534726212 -.115 29 53 24 0 44 55 45 .370284465273788 .12971
5534726212 -.115 29 54 73 0 56 45 57 .129715534726212 .370284465273788 -.015 18
 56 64 0 58 59 0 54 ?12 29 57 72 0 59 54 39 .370284465273788 .370284465273788 -.
015 18 59 63 0 60 61 56 57 ?12 29 39 71 0 61 57 27 .370284465273788 .12971553472
6212 -.015 18 61 62 0 62 38 59 39 ?12 17 62 0 63 64 65 61 66 67 0 68 +18 38 61 0
 69 70 61 27 ?12 17 69 0 71 51 68 38 72 73 0 74 +18 70 16 0 75 52 38 76 ?12 17 7
5 0 77 41 78 70 79 80 0 47 -18 52 19 0 79 44 70 55 ?12 29 76 18 0 70 0 55 .12971
5534726212 .370284465273788 -.115 29 55 21 0 52 76 53 .370284465273788 .37028446
5273788 -.115 17 79 0 46 48 47 52 75 80 0 78 +15 255 46 3 0 47 81 0 17 48 0 46 4
3 79 44 82 83 0 64 +17 47 0 46 79 43 70 84 85 0 86 +16 80 7 0 ?79 83 85 87 0 0 1
2 17 78 0 77 75 60 52 65 42 0 82 -15 77 82 0 60 88 0 17 60 0 77 78 41 59 58 89 0
 65 +17 65 0 63 62 82 59 78 42 0 66 +16 42 76 0 ?65 29 90 37 0 0 12 17 82 0 63 6
5 64 52 48 83 0 0 -15 63 80 0 62 91 0 17 64 0 63 82 62 44 68 90 0 49 -16 83 10 0
 ?48 50 80 92 0 0 12 16 50 13 0 ?43 93 83 94 0 0 12 30 92 11 0 83 87 94 0 +.3702
84465273788 .129715534726212 -.115 0 -1 0 30 87 8 0 80 95 92 0 +.370284465273788
 .370284465273788 -.115 1 0 0 30 94 14 0 50 92 96 0 +.370284465273788 .129715534
726212 -.115 -1 0 0 30 96 69 0 97 94 98 0 +.129715534726212 .129715534726212 -.0
15 0 1 0 16 97 57 0 ?99 89 0 96 0 0 12 30 98 68 0 89 96 100 0 +.370284465273788
 .370284465273788 -.015 1 0 0 16 89 53 0 ?60 67 97 98 0 0 12 30 100 67 0 67 98 1
01 0 +.370284465273788 .129715534726212 -.015 0 -1 0 16 67 49 0 ?62 73 89 100 0
 0 12 30 101 66 0 73 100 102 0 +.370284465273788 .129715534726212 -.015 -1 0 0 1
6 73 45 0 ?69 85 67 101 0 0 12 30 102 90 0 93 101 103 0 +.129715534726212 .12971
5534726212 -.115 0 0 1 16 93 74 0 ?74 90 50 102 0 0 12 30 103 91 0 90 102 37 0 +
.370284465273788 .129715534726212 -.115 0 0 1 16 90 75 0 ?68 42 93 103 0 0 12 30
 37 92 0 42 103 26 0 +.370284465273788 .370284465273788 -.115 0 0 1 17 68 0 71 6
9 49 61 64 90 0 72 +15 71 78 0 69 104 0 17 49 0 71 68 51 44 43 50 0 0 -17 72 0 1
05 66 106 61 69 73 0 0 -15 105 44 0 106 107 0 17 66 0 105 58 72 59 62 67 0 0 -17
 106 0 105 72 58 38 99 97 0 0 -17 58 0 105 106 66 56 60 89 0 41 -17 99 0 108 86
 74 56 106 97 0 0 +15 108 84 0 99 34 0 17 86 0 108 84 99 70 41 29 0 0 -17 74 0 1
08 99 84 38 51 93 0 106 +17 84 0 108 74 86 30 47 85 0 0 -17 51 0 71 49 69 30 74
 93 0 84 -16 85 4 0 ?47 80 73 95 0 0 12 30 95 5 0 85 0 87 0 +.129715534726212 .1
29715534726212 -.115 0 1 0 17 41 0 77 60 75 56 86 29 0 99 +14 255 34 85 109 ?88
 0 108 24 25 -0 0 88 0 40 81 1 109 225 110 34 111 0 0 112 113 14 88 83 112 ?91 3
4 77 24 36 -0 0 91 34 40 13 40 29 0 0 0 0 0 0 28 34 81 1 112 226 110 88 114 0 10
9 115 116 14 91 81 115 ?104 88 63 24 117 -0 0 104 88 40 50 36 88 0 88 117 25 0 +
.370284465273788 .370284465273788 -.115 0 -1 0 0 0 -1 50 117 87 0 91 118 36 0 +.
370284465273788 .129715534726212 -.115 -1 0 0 0 0 1 50 118 86 0 104 119 117 0 +.
370284465273788 .129715534726212 -.115 0 1 0 0 0 1 14 104 79 120 ?81 91 71 24 11
8 -0 0 81 91 40 50 119 65 0 107 121 118 0 +0 0 -.015 0 0 1 1 0 0 14 107 43 122 ?
0 81 105 24 119 +0 0 0 81 40 50 121 2 0 81 0 119 0 +0 0 -.115 0 0 1 1 0 0 14 81
 1 123 ?107 104 46 24 121 -0 0 107 104 40 81 1 123 230 110 81 124 0 122 0 125 80
 255 1 110 126 127 9000 1 1 1 1 1 1 1 1 0 FFFFTFTFFFFFFF1 81 1 124 209 128 81 0
 123 129 130 131 81 1 122 229 110 107 130 0 120 123 132 82 255 1 125 993394832 8
1 1 130 210 128 107 0 122 124 0 133 81 1 120 228 110 104 129 0 115 122 134 82 1
 132 999030928 81 1 129 208 128 104 0 120 135 124 136 81 1 115 227 110 91 135 0
 112 120 137 82 1 134 999948432 81 1 135 207 128 91 0 115 114 129 138 82 1 137 1
000210576 80 1 128 0 139 8001 0 0 0 0 3 5 0 0 0 FFFFTFTFFFFFFF2 81 1 114 206 128
 88 0 112 111 135 140 83 255 3 138 .792156862745098 .819607843137255 .9254901960
78431 81 1 111 205 128 34 0 109 0 114 141 83 3 140 .792156862745098 .81960784313
7255 .925490196078431 83 3 141 .792156862745098 .819607843137255 .92549019607843
1 79 255 15 139 SDL/TYSA_COLOUR83 3 136 .792156862745098 .819607843137255 .92549
0196078431 83 3 133 .792156862745098 .819607843137255 .925490196078431 83 3 131
 .792156862745098 .819607843137255 .925490196078431 79 14 127 SWEntUnchanged82 1
 116 1000472720 82 1 113 1000734864 19 35 95 0 12 0 28 24 S0 74 4 CI16 index_map
_offset0 0 1 dCCZ20 33 4 0 0 123 32 130 21 0 0 0 0 0 0 0 0 0 0 0 0 0 0 0 0 81 2
 32 194 142 12 0 21 0 0 143 0 80 2 142 144 145 8004 0 0 0 0 3 5 0 0 0 FFTFFFFFFF
FFFF2 3 83 1 143 1e3 79 16 145 SDL/TYSA_DENSITY80 1 31 146 147 8017 0 0 0 0 0 0
 0 0 0 TTTTTTTTTTTTTF3 79 13 147 SDL/TYSA_NAME81 1 10 2215 31 7 148 0 0 0 0 70 1
1 0 4 T7 0 0 4 20 1 149 149 13 13 94 0 7 0 150 0 0 151 0 50 14 89 0 152 153 0 0
 +.5 .5 -.015 -1 0 0 0 0 1 30 15 2037 0 18 154 0 0 +.370284465273788 0 -.015 0 1
 0 29 16 2033 0 19 155 0 .370284465273788 .129715534726212 -.015 19 17 28 0 7 15
1 0 156 V0 16 18 2035 0 ?157 0 158 15 0 0 7 18 19 2031 0 159 0 160 16 ?7 17 159
 0 161 162 163 19 157 18 0 164 -18 160 2027 0 162 19 165 155 ?7 17 162 0 161 166
 159 160 164 158 0 167 -18 165 2023 0 166 160 168 169 ?7 29 155 2029 0 160 169 1
6 .129715534726212 .129715534726212 -.015 29 169 2025 0 165 170 155 .12971553472
6212 .370284465273788 -.015 29 170 2022 0 168 171 169 .370284465273788 .37028446
5273788 -.015 18 168 2020 0 157 165 172 170 ?7 29 171 598 0 172 173 170 .48 .02
 -.005 18 172 596 0 174 168 175 171 ?7 29 173 27 0 175 176 171 .5 .5 -.015 18 17
5 25 0 177 172 178 173 ?7 29 176 24 0 178 179 173 0 .5 -.015 18 178 22 0 180 175
 181 176 ?7 29 179 21 0 181 182 176 0 0 -.015 18 181 19 0 183 178 184 179 ?7 29
 182 18 0 184 185 179 .5 0 -.015 18 184 16 0 186 181 187 182 ?7 29 185 906 0 187
 188 182 .5 .02 .005 18 187 705 0 189 184 190 185 ?7 29 188 907 0 191 192 185 .4
8 .48 -.005 18 191 699 0 193 190 194 188 ?7 29 192 911 0 190 195 188 .48 .48 .00
5 18 190 703 0 196 187 191 192 ?7 29 195 912 0 197 198 192 .5 .48 .005 18 197 70
6 0 199 200 201 195 ?7 29 198 913 0 201 202 195 .48 .5 .005 18 201 672 0 203 197
 204 198 ?7 29 202 914 0 194 205 198 .5 .48 .305 18 194 675 0 206 191 207 202 ?7
 29 205 915 0 207 208 202 .48 .48 .305 18 207 674 0 209 194 210 205 ?7 29 208 91
6 0 210 211 205 .48 .5 .305 18 210 673 0 212 207 200 208 ?7 29 211 917 0 200 213
 208 .5 .5 .305 18 200 701 0 214 210 197 211 ?7 29 213 918 0 215 216 211 .48 0 .
005 18 215 678 0 217 218 219 213 ?7 29 216 919 0 219 220 213 .48 .02 .005 18 219
 704 0 221 215 222 216 ?7 29 220 920 0 204 223 216 .5 0 .305 18 204 680 0 224 20
1 225 220 ?7 29 223 921 0 225 226 220 .48 0 .305 18 225 682 0 227 204 228 223 ?7
 29 226 922 0 228 229 223 .48 .02 .305 18 228 681 0 230 225 218 226 ?7 29 229 92
3 0 218 231 226 .5 .02 .305 18 218 677 0 232 228 215 229 ?7 29 231 924 0 222 233
 229 .02 0 .005 18 222 684 0 234 219 235 231 ?7 29 233 926 0 235 236 231 .02 .02
 -.005 18 235 685 0 237 222 238 233 ?7 29 236 927 0 238 239 233 0 .48 .005 18 23
8 689 0 240 235 241 236 ?7 29 239 929 0 242 243 236 .02 .48 -.005 18 242 686 0 2
44 241 245 239 ?7 29 243 930 0 241 246 239 .02 .02 .005 18 241 683 0 247 238 242
 243 ?7 29 246 931 0 248 249 243 .02 .48 .005 18 248 687 0 250 251 252 246 ?7 29
 249 932 0 245 253 246 555111512312578e-31 .5 .305 18 245 671 0 254 242 255 249
 ?7 29 253 933 0 255 256 249 .02 .5 .305 18 255 694 0 257 245 258 253 ?7 29 256
 934 0 258 259 253 .02 .48 .305 18 258 693 0 260 255 251 256 ?7 29 259 935 0 251
 261 256 555111512312578e-31 .48 .305 18 251 692 0 262 258 248 259 ?7 29 261 936
 0 252 263 259 .02 .5 .005 18 252 676 0 264 248 265 261 ?7 29 263 937 0 266 267
 261 0 .02 .005 18 266 691 0 268 269 0 263 ?7 29 267 938 0 265 270 263 .02 0 .30
5 18 265 697 0 271 252 272 267 ?7 29 270 939 0 272 273 267 0 0 .305 18 272 688 0
 274 265 275 270 ?7 29 273 940 0 275 276 270 0 .02 .305 18 275 696 0 277 272 269
 273 ?7 29 276 941 0 269 0 273 .02 .02 .305 18 269 695 0 278 275 266 276 ?7 17 2
78 0 279 280 281 269 277 282 0 283 -15 279 792 0 284 285 0 17 280 0 279 284 278
 241 286 287 0 288 +17 281 0 279 278 284 275 289 290 0 291 -17 277 0 292 293 283
 275 278 282 0 281 +16 282 658 0 ?277 294 295 296 0 0 7 17 283 0 292 277 271 269
 297 295 0 286 +15 292 796 0 283 298 0 17 271 0 292 283 293 265 299 300 0 301 +1
7 297 0 302 303 286 265 283 295 0 0 -16 295 657 0 ?283 282 304 305 0 0 7 17 286
 0 302 297 288 269 280 287 0 0 -15 302 788 0 288 306 0 17 288 0 302 286 303 241
 234 307 0 0 +16 287 656 0 ?280 308 290 309 0 0 7 16 308 651 0 ?310 311 287 312
 0 0 7 16 290 639 0 ?289 287 313 314 0 0 7 30 309 897 0 287 314 315 0 +.02 .02 .
305 0 0 -1 30 314 898 0 290 316 309 0 +0 .02 .305 0 0 -1 30 315 896 0 311 309 31
7 0 +0 .5 .005 1 0 0 16 311 613 0 ?318 319 308 315 0 0 7 30 317 895 0 319 315 31
2 0 +0 .48 .005 1 0 0 16 319 622 0 ?320 321 311 317 0 0 7 30 312 893 0 308 317 3
22 0 +0 .48 -.005 1 0 0 30 322 892 0 323 312 324 0 +555111512312578e-31 .5 .305
 0 -1 0 16 323 647 0 ?325 326 327 322 0 0 7 30 324 891 0 326 322 328 0 +55511151
2312578e-31 .48 .305 1 0 0 16 326 648 0 ?260 329 323 324 0 0 7 30 328 890 0 329
 324 330 0 +.02 .5 .305 0 1 0 16 329 649 0 ?257 331 326 328 0 0 7 30 330 889 0 3
31 328 332 0 +555111512312578e-31 .5 .305 -1 0 0 16 331 650 0 ?333 334 329 330 0
 0 7 30 332 888 0 321 330 335 0 +555111512312578e-31 .48 .005 1 0 0 16 321 643 0
 ?336 327 319 332 0 0 7 30 335 887 0 327 332 337 0 +.02 .5 .005 0 1 0 16 327 645
 0 ?338 323 321 335 0 0 7 30 337 886 0 334 335 339 0 +.02 .5 .305 0 0 -1 16 334
 612 0 ?340 341 331 337 0 0 7 30 339 885 0 341 337 342 0 +.02 .48 .305 0 0 -1 16
 341 646 0 ?343 344 334 339 0 0 7 30 342 884 0 344 339 345 0 +555111512312578e-3
1 .48 .305 0 0 -1 16 344 644 0 ?346 347 341 342 0 0 7 30 345 883 0 348 342 349 0
 +.02 0 .005 0 1 0 16 348 642 0 ?350 351 347 345 0 0 7 30 349 882 0 351 345 352
 0 +0 0 .005 0 1 0 16 351 640 0 ?240 353 348 349 0 0 7 30 352 881 0 347 349 354
 0 +.02 0 -.005 0 1 0 16 347 637 0 ?244 348 344 352 0 0 7 30 354 878 0 353 352 3
55 0 +.02 .48 .005 0 0 -1 16 353 652 0 ?356 357 351 354 0 0 7 30 355 877 0 358 3
54 359 0 +0 .02 .005 1 0 0 16 358 635 0 ?360 361 357 355 0 0 7 30 359 876 0 361
 355 362 0 +0 0 .005 1 0 0 16 361 634 0 ?363 364 358 359 0 0 7 30 362 875 0 357
 359 365 0 +0 .02 -.005 1 0 0 16 357 670 0 ?366 358 353 362 0 0 7 30 365 872 0 3
64 362 367 0 +.02 .02 .005 0 0 -1 16 364 638 0 ?368 369 361 365 0 0 7 30 367 871
 0 370 365 371 0 +.5 0 .305 0 1 0 16 370 630 0 ?372 373 374 367 0 0 7 30 371 870
 0 373 367 375 0 +.5 .02 .305 -1 0 0 16 373 631 0 ?230 376 370 371 0 0 7 30 375
 869 0 376 371 377 0 +.48 0 .305 0 -1 0 16 376 632 0 ?227 378 373 375 0 0 7 30 3
77 868 0 378 375 379 0 +.5 0 .305 1 0 0 16 378 633 0 ?380 381 376 377 0 0 7 30 3
79 867 0 369 377 382 0 +.5 .02 .005 -1 0 0 16 369 623 0 ?383 374 364 379 0 0 7 3
0 382 866 0 374 379 384 0 +.48 0 .005 0 -1 0 16 374 625 0 ?217 370 369 382 0 0 7
 30 384 865 0 381 382 385 0 +.48 0 .305 0 0 -1 16 381 627 0 ?386 387 378 384 0 0
 7 30 385 864 0 387 384 388 0 +.48 .02 .305 0 0 -1 16 387 626 0 ?389 390 381 385
 0 0 7 30 388 863 0 390 385 391 0 +.5 .02 .305 0 0 -1 16 390 624 0 ?392 393 387
 388 0 0 7 30 391 862 0 394 388 395 0 +.5 .5 .305 0 1 0 16 394 618 0 ?396 397 39
8 391 0 0 7 30 395 861 0 397 391 399 0 +.5 .5 .305 -1 0 0 16 397 619 0 ?212 400
 394 395 0 0 7 30 399 860 0 400 395 401 0 +.48 .5 .305 0 -1 0 16 400 620 0 ?209
 402 397 399 0 0 7 30 401 859 0 402 399 403 0 +.5 .48 .305 1 0 0 16 402 621 0 ?2
06 404 400 401 0 0 7 30 403 858 0 393 401 405 0 +.48 .5 .005 0 -1 0 16 393 614 0
 ?406 398 390 403 0 0 7 30 405 857 0 398 403 407 0 +.5 .48 .005 1 0 0 16 398 616
 0 ?408 394 393 405 0 0 7 30 407 856 0 404 405 409 0 +.5 .48 .305 0 0 -1 16 404
 664 0 ?410 411 402 407 0 0 7 30 409 855 0 411 407 412 0 +.48 .48 .305 0 0 -1 16
 411 617 0 ?413 414 404 409 0 0 7 30 412 854 0 414 409 415 0 +.48 .5 .305 0 0 -1
 16 414 615 0 ?203 416 411 412 0 0 7 30 415 853 0 417 412 418 0 +.48 0 .005 0 1
 0 16 417 661 0 ?419 420 416 415 0 0 7 30 418 852 0 420 415 421 0 +.5 0 .005 0 1
 0 16 420 666 0 ?199 422 417 418 0 0 7 30 421 851 0 416 418 423 0 +.48 0 -.005 0
 1 0 16 416 669 0 ?424 417 414 421 0 0 7 30 423 849 0 422 421 425 0 +.48 .48 .00
5 0 0 -1 16 422 662 0 ?193 426 420 423 0 0 7 30 425 846 0 426 423 427 0 +.48 .02
 .005 0 0 -1 16 426 636 0 ?174 428 422 425 0 0 7 30 427 5 0 428 425 429 0 +.5 .5
 -.015 0 -1 0 16 428 4 0 ?430 431 426 427 0 0 7 30 429 8 0 431 427 432 0 +.5 0 -
.015 -1 0 0 16 431 7 0 ?183 433 428 429 0 0 7 30 432 11 0 433 429 434 0 +0 .5 -.
015 0 1 0 16 433 10 0 ?180 435 431 432 0 0 7 30 434 14 0 435 432 436 0 +.5 .5 -.
015 1 0 0 16 435 13 0 ?177 437 433 434 0 0 7 30 436 90 0 437 434 438 0 +.5 .5 -.
015 0 0 1 16 437 74 0 ?214 439 435 436 0 0 7 30 438 91 0 439 436 440 0 +0 .5 -.0
15 0 0 1 16 439 75 0 ?254 441 437 438 0 0 7 30 440 92 0 441 438 442 0 +0 0 -.015
 0 0 1 16 441 76 0 ?274 443 439 440 0 0 7 30 442 93 0 443 440 444 0 +.5 0 -.015
 0 0 1 16 443 77 0 ?224 445 441 442 0 0 7 30 444 2026 0 445 442 446 0 +0 .370284
465273788 -.015 -1 0 0 16 445 2024 0 ?447 448 443 444 0 0 7 30 446 2030 0 448 44
4 154 0 +.129715534726212 0 -.015 0 -1 0 16 448 2028 0 ?167 158 445 446 0 0 7 30
 154 2034 0 158 446 15 0 +0 .129715534726212 -.015 1 0 0 16 158 2032 0 ?164 18 4
48 154 0 0 7 17 164 0 449 157 167 19 162 158 0 0 +15 449 2021 0 164 150 0 17 157
 0 449 447 164 168 159 18 0 163 +17 167 0 449 164 447 160 166 448 0 0 +17 447 0
 449 167 157 165 163 445 0 0 +17 166 0 161 163 162 165 167 448 0 447 -15 161 203
6 0 159 450 0 17 163 0 161 159 166 168 447 445 0 0 -14 450 1 451 ?452 453 161 13
 454 +150 150 452 453 156 81 1 451 2188 110 450 455 0 0 456 457 14 452 713 456 ?
458 450 459 13 460 -0 0 458 450 156 14 453 79 461 ?450 462 463 13 464 -0 0 450 4
62 156 50 454 2 0 450 465 466 0 +0 0 -.015 0 0 -1 -1 0 0 14 150 2038 467 ?152 0
 468 13 454 +450 450 152 0 156 13 156 29 0 0 0 0 0 0 17 150 81 1 467 2191 110 15
0 469 0 461 470 471 14 152 85 470 ?472 150 473 13 14 -0 0 472 150 156 15 468 3 0
 430 150 449 17 430 0 468 183 177 184 474 428 0 475 +17 183 0 468 180 430 181 18
6 431 0 476 +17 177 0 468 430 180 175 477 435 0 478 +17 474 0 473 214 475 175 43
0 428 0 0 -17 475 0 473 474 479 184 224 443 0 0 -15 473 84 0 214 152 0 17 479 0
 473 475 480 204 372 370 0 0 -17 224 0 481 482 186 204 475 443 0 380 +15 481 82
 0 224 472 0 17 482 0 481 386 224 225 380 378 0 0 -17 186 0 481 224 476 184 183
 431 0 430 -17 380 0 483 372 227 204 482 378 0 479 +15 483 746 0 372 484 0 17 37
2 0 483 230 380 218 479 370 0 480 +17 227 0 483 380 230 225 485 376 0 486 +17 23
0 0 483 227 372 228 232 373 0 487 +17 485 0 488 389 486 228 227 376 0 0 -17 486
 0 488 485 217 225 386 381 0 482 -15 488 736 0 217 489 0 17 217 0 488 486 389 21
5 490 374 0 386 +17 386 0 481 491 482 215 486 381 0 363 +17 491 0 481 301 386 22
2 363 361 0 303 -17 363 0 492 490 234 215 491 361 0 0 +15 492 750 0 490 493 0 17
 490 0 492 247 363 219 217 374 0 360 -17 234 0 492 363 247 222 288 307 0 491 -17
 247 0 492 234 490 241 360 358 0 494 -16 307 653 0 ?288 304 0 495 0 0 7 16 304 6
55 0 ?284 295 307 496 0 0 7 30 495 901 0 307 497 496 0 +.02 .02 .005 0 1 0 30 49
7 902 0 300 498 495 0 +.02 0 .305 1 0 0 30 496 900 0 304 495 316 0 +.02 .02 .005
 -1 0 0 30 316 899 0 313 496 314 0 +.02 0 .305 0 0 -1 16 313 654 0 ?303 290 300
 316 0 0 7 17 303 0 302 288 297 222 301 313 0 0 +16 300 660 0 ?271 313 294 497 0
 0 7 16 294 659 0 ?293 300 282 498 0 0 7 17 293 0 292 271 277 272 291 294 0 299
 +30 498 903 0 294 296 497 0 +0 .02 .305 0 -1 0 30 296 904 0 282 305 498 0 +.02
 .02 .305 -1 0 0 30 305 905 0 295 0 296 0 +.02 .02 .305 0 1 0 17 291 0 499 289 2
74 275 293 294 0 0 -17 299 0 481 476 301 272 271 300 0 0 -17 476 0 481 186 299 1
81 274 441 0 500 -17 301 0 481 299 491 265 303 313 0 297 -17 274 0 499 291 500 2
72 476 441 0 293 +17 500 0 499 274 501 181 180 433 0 0 -15 499 80 0 274 462 0 17
 501 0 499 500 502 178 254 439 0 477 -17 180 0 468 177 183 178 500 433 0 501 +17
 502 0 499 501 503 245 325 323 0 0 -17 254 0 463 504 477 245 501 439 0 333 +17 4
77 0 463 254 478 178 177 435 0 0 -15 463 78 0 254 453 0 17 478 0 463 477 505 175
 214 437 0 474 -17 505 0 463 478 506 200 212 397 0 396 -17 214 0 473 507 474 200
 478 437 0 505 +17 507 0 473 410 214 194 396 394 0 0 -17 410 0 473 508 507 197 5
09 404 0 0 +17 396 0 510 212 206 200 507 394 0 0 +15 510 724 0 396 511 0 17 212
 0 510 209 396 210 505 397 0 506 +17 206 0 510 396 209 194 512 402 0 509 +17 209
 0 510 206 212 207 513 400 0 514 +17 512 0 515 413 509 207 206 402 0 0 -17 509 0
 515 512 408 194 410 404 0 507 -15 515 720 0 408 458 0 17 408 0 515 509 413 197
 196 398 0 410 +17 413 0 515 408 512 190 514 411 0 406 +17 196 0 516 221 199 190
 408 398 0 419 -15 516 810 0 196 517 0 17 221 0 516 189 196 219 419 417 0 518 -1
7 199 0 516 196 189 197 508 420 0 408 +17 419 0 519 193 518 190 221 417 0 413 +1
5 519 800 0 520 521 0 17 193 0 519 520 419 191 522 422 0 310 +17 518 0 519 419 5
20 219 174 426 0 383 -17 520 0 519 518 193 172 424 416 0 366 -17 174 0 523 237 3
60 172 518 426 0 520 +17 383 0 524 487 392 219 189 369 0 389 +15 524 732 0 383 5
25 0 17 487 0 524 232 383 228 389 387 0 485 -17 392 0 524 383 232 187 480 390 0
 0 +17 189 0 516 199 221 187 383 369 0 508 -17 389 0 488 217 485 219 487 387 0 4
90 +17 508 0 473 480 410 187 199 420 0 392 -17 480 0 473 479 508 218 392 390 0 0
 -17 232 0 524 392 487 218 230 373 0 372 -14 525 729 526 ?489 527 524 13 528 -0
 0 489 527 156 81 1 526 2193 110 525 529 0 470 530 531 14 489 733 530 ?484 525 4
88 13 532 -0 0 484 525 156 14 527 725 533 ?525 511 534 13 535 +0 0 525 511 156 5
0 528 829 0 525 532 536 0 +.5 .02 .305 0 -1 0 0 0 -1 50 532 830 0 489 537 528 0
 +.48 0 .305 1 0 0 0 0 -1 50 536 828 0 511 528 538 0 +0 0 .305 0 0 -1 -1 0 0 14
 511 721 539 ?527 458 510 13 536 -0 0 527 458 156 50 538 827 0 458 536 460 0 +.5
 .48 .305 0 1 0 0 0 1 14 458 717 540 ?511 452 515 13 538 -0 0 511 452 156 50 460
 826 0 452 538 541 0 +.48 .5 .305 1 0 0 0 0 -1 50 541 824 0 517 460 465 0 +0 0 .
005 0 0 1 1 0 0 14 517 807 542 ?543 521 516 13 541 +0 0 543 521 156 50 465 821 0
 521 541 454 0 +.48 0 .005 -1 0 0 0 0 1 14 521 797 544 ?517 298 519 13 465 +0 0
 517 298 156 81 1 544 2199 110 521 545 0 542 546 547 14 298 793 546 ?521 285 292
 13 548 -0 0 521 285 156 81 1 546 2200 110 298 549 0 544 550 551 14 285 789 550
 ?298 306 279 13 552 -0 0 298 306 156 50 548 845 0 298 0 552 0 +0 0 .305 0 0 -1
 -1 0 0 50 552 844 0 285 548 553 0 +.02 .02 .305 0 -1 0 0 0 -1 50 553 843 0 306
 552 535 0 +.02 .02 .305 -1 0 0 0 0 1 14 306 785 554 ?285 555 302 13 553 -0 0 28
5 555 156 50 535 842 0 527 553 556 0 +0 0 .005 0 0 1 1 0 0 50 556 841 0 555 535
 557 0 +0 .48 .005 0 1 0 0 0 1 14 555 781 558 ?306 559 560 13 556 -0 0 306 559 1
56 50 557 840 0 559 556 561 0 +0 0 .305 0 0 1 1 0 0 14 559 777 562 ?555 563 564
 13 557 +0 0 555 563 156 50 561 839 0 563 557 565 0 +.02 .5 .305 -1 0 0 0 0 1 14
 563 773 566 ?559 567 568 13 561 -0 0 559 567 156 50 565 838 0 567 561 569 0 +55
5111512312578e-31 .48 .305 0 1 0 0 0 1 14 567 769 570 ?563 571 572 13 565 -0 0 5
63 571 156 50 569 837 0 571 565 573 0 +0 0 .005 0 0 1 1 0 0 14 571 765 574 ?567
 575 576 13 569 +0 0 567 575 156 50 573 835 0 575 569 577 0 +.02 0 .005 -1 0 0 0
 0 1 14 575 755 578 ?571 579 580 13 573 -0 0 571 579 156 50 577 834 0 493 573 58
1 0 +0 0 .005 0 0 1 1 0 0 14 493 747 582 ?579 484 492 13 577 +0 0 579 484 156 50
 581 833 0 579 577 537 0 +0 .02 .005 0 1 0 0 0 1 14 579 751 583 ?575 493 523 13
 581 +0 0 575 493 156 50 537 832 0 484 581 532 0 +0 0 .305 0 0 1 1 0 0 14 484 74
3 584 ?493 489 483 13 537 +0 0 493 489 156 81 1 584 2211 110 484 585 0 583 586 5
87 81 1 585 2112 128 484 0 584 588 589 590 81 1 583 2210 110 579 591 0 582 584 5
92 81 1 586 2212 110 543 593 0 584 594 595 82 1 587 1447362706 14 543 43 586 ?0
 517 596 13 466 -0 0 0 517 156 81 1 593 2126 128 543 0 586 597 0 598 81 1 594 22
13 110 462 599 0 586 600 601 82 1 595 1496776850 14 462 81 594 ?453 472 499 13 6
02 -0 0 453 472 156 81 1 599 2103 128 462 0 594 603 604 605 81 1 600 2214 110 47
2 603 0 594 0 606 82 1 601 1496383634 14 472 83 600 ?462 152 481 13 153 -0 0 462
 152 156 81 1 603 2102 128 472 0 600 607 599 608 82 1 606 1496187026 81 1 607 21
01 128 152 0 470 469 603 609 83 3 608 .792156862745098 .819607843137255 .9254901
96078431 81 1 470 2192 110 152 607 0 467 526 610 81 1 469 2100 128 150 0 467 0 6
07 611 83 3 609 .792156862745098 .819607843137255 .925490196078431 83 3 611 .792
156862745098 .819607843137255 .925490196078431 82 1 610 1496055954 50 153 88 0 4
72 602 14 0 +.5 0 -.015 0 1 0 0 0 1 50 602 87 0 462 464 153 0 +0 .5 -.015 1 0 0
 0 0 -1 50 464 86 0 453 466 602 0 +.5 .5 -.015 0 -1 0 0 0 -1 50 466 65 0 543 454
 464 0 +0 0 -.005 0 0 -1 -1 0 0 81 1 604 2104 128 453 0 461 599 455 612 83 3 605
 .792156862745098 .819607843137255 .925490196078431 81 1 461 2190 110 453 604 0
 456 467 613 81 1 455 2105 128 450 0 451 604 614 615 83 3 612 .792156862745098 .
819607843137255 .925490196078431 81 1 614 2106 128 452 0 456 455 616 617 83 3 61
5 .792156862745098 .819607843137255 .925490196078431 81 1 456 2189 110 452 614 0
 451 461 618 81 1 616 2107 128 458 0 540 614 619 620 83 3 617 .792156862745098 .
819607843137255 .925490196078431 81 1 540 2197 110 458 616 0 539 542 621 81 1 61
9 2108 128 511 0 539 616 622 623 83 3 620 .792156862745098 .819607843137255 .925
490196078431 81 1 539 2196 110 511 619 0 533 540 624 81 1 622 2109 128 527 0 533
 619 529 625 83 3 623 .792156862745098 .819607843137255 .925490196078431 81 1 53
3 2195 110 527 622 0 530 539 626 81 1 529 2110 128 525 0 526 622 588 627 83 3 62
5 .792156862745098 .819607843137255 .925490196078431 81 1 588 2111 128 489 0 530
 529 585 628 83 3 627 .792156862745098 .819607843137255 .925490196078431 81 1 53
0 2194 110 489 588 0 526 533 629 83 3 628 .792156862745098 .819607843137255 .925
490196078431 82 1 629 1446838418 82 1 626 1506803858 82 1 624 1439105170 81 1 54
2 2198 110 517 597 0 540 544 630 82 1 621 1438843026 81 1 597 2125 128 517 0 542
 545 593 631 82 1 630 1430519954 81 1 545 2124 128 521 0 544 549 597 632 83 3 63
1 .792156862745098 .819607843137255 .925490196078431 81 1 549 2123 128 298 0 546
 633 545 634 83 3 632 .792156862745098 .819607843137255 .925490196078431 81 1 63
3 2122 128 285 0 550 635 549 636 83 3 634 .792156862745098 .819607843137255 .925
490196078431 81 1 550 2201 110 285 633 0 546 554 637 81 1 635 2121 128 306 0 554
 638 633 639 83 3 636 .792156862745098 .819607843137255 .925490196078431 81 1 55
4 2202 110 306 635 0 550 558 640 81 1 638 2120 128 555 0 558 641 635 642 83 3 63
9 .792156862745098 .819607843137255 .925490196078431 81 1 558 2203 110 555 638 0
 554 562 643 81 1 641 2119 128 559 0 562 644 638 645 83 3 642 .792156862745098 .
819607843137255 .925490196078431 81 1 562 2204 110 559 641 0 558 566 646 81 1 64
4 2118 128 563 0 566 647 641 648 83 3 645 .792156862745098 .819607843137255 .925
490196078431 81 1 566 2205 110 563 644 0 562 570 649 81 1 647 2117 128 567 0 570
 650 644 651 83 3 648 .792156862745098 .819607843137255 .925490196078431 81 1 57
0 2206 110 567 647 0 566 574 652 81 1 650 2116 128 571 0 574 653 647 654 83 3 65
1 .792156862745098 .819607843137255 .925490196078431 81 1 574 2207 110 571 650 0
 570 578 655 81 1 653 2115 128 575 0 578 591 650 656 83 3 654 .792156862745098 .
819607843137255 .925490196078431 81 1 578 2208 110 575 653 0 574 582 657 81 1 59
1 2114 128 579 0 583 589 653 658 83 3 656 .792156862745098 .819607843137255 .925
490196078431 81 1 589 2113 128 493 0 582 585 591 659 83 3 658 .792156862745098 .
819607843137255 .925490196078431 81 1 582 2209 110 493 589 0 578 583 660 83 3 65
9 .792156862745098 .819607843137255 .925490196078431 82 1 660 1505230994 82 1 65
7 1463091346 82 1 655 1462698130 82 1 652 1471414418 82 1 649 1471611026 82 1 64
6 1472135314 82 1 643 1479934098 82 1 640 1487798418 82 1 637 1487929490 82 1 61
8 1438580882 82 1 613 1496645778 83 3 598 .792156862745098 .819607843137255 .925
490196078431 15 596 594 0 366 543 0 17 366 0 596 424 661 172 237 357 0 0 +17 424
 0 596 662 366 191 520 416 0 0 +17 661 0 596 366 662 235 244 347 0 0 -17 237 0 5
23 494 174 235 366 357 0 368 -15 523 754 0 237 579 0 17 494 0 523 360 237 241 36
8 364 0 663 -17 368 0 580 244 664 235 494 364 0 661 +15 580 758 0 244 575 0 17 2
44 0 580 250 368 242 661 347 0 356 +17 664 0 580 368 250 241 350 348 0 280 -17 2
50 0 580 664 244 248 356 353 0 350 -17 350 0 576 665 663 248 664 348 0 666 +15 5
76 768 0 663 571 0 17 665 0 576 268 350 238 336 321 0 346 -17 663 0 576 350 268
 241 284 304 0 664 -17 666 0 560 356 522 248 320 319 0 667 -15 560 784 0 310 555
 0 17 356 0 560 310 666 242 250 353 0 662 +17 522 0 560 666 310 190 193 422 0 0
 -17 320 0 534 668 667 190 666 319 0 522 +17 667 0 534 320 264 248 338 327 0 336
 -15 534 728 0 668 527 0 17 264 0 534 667 668 252 318 311 0 338 -17 338 0 568 66
9 343 252 667 327 0 340 +17 336 0 572 670 346 248 665 321 0 343 +15 572 772 0 33
6 567 0 17 670 0 572 262 336 258 343 341 0 671 -17 346 0 572 336 262 238 503 344
 0 0 +17 343 0 568 338 671 248 670 341 0 0 +15 568 776 0 338 563 0 17 671 0 568
 343 669 258 257 329 0 0 -17 669 0 568 671 338 255 340 334 0 504 -17 257 0 564 3
33 260 255 671 329 0 669 +15 564 780 0 325 559 0 17 333 0 564 325 257 245 504 33
1 0 502 +17 260 0 564 257 325 258 262 326 0 670 +17 325 0 564 260 333 251 502 32
3 0 503 +17 262 0 572 346 670 251 260 326 0 325 -17 503 0 499 502 240 251 346 34
4 0 0 -17 240 0 499 503 289 238 268 351 0 665 +17 289 0 499 240 291 266 281 290
 0 0 +17 268 0 576 663 665 266 240 351 0 284 -17 284 0 279 281 280 266 663 304 0
 289 +17 504 0 463 340 254 255 333 331 0 0 -17 340 0 463 318 504 252 669 334 0 0
 +17 318 0 463 506 340 201 264 311 0 0 +17 506 0 463 505 318 210 203 414 0 513 -
17 203 0 459 406 513 201 506 414 0 668 +17 513 0 459 203 514 210 209 400 0 0 -15
 459 716 0 406 452 0 17 514 0 459 513 406 207 413 411 0 512 -17 406 0 459 514 20
3 190 668 393 0 320 +17 668 0 534 264 320 201 406 393 0 318 -17 310 0 560 522 35
6 191 662 308 0 424 +17 662 0 596 661 424 242 310 308 0 0 -17 360 0 523 174 494
 219 247 358 0 0 +82 1 592 1454702738 83 3 590 .792156862745098 .819607843137255
 .925490196078431 82 1 551 1488650386 82 1 547 1429667986 82 1 531 1446641810 82
 1 471 1972306062 82 1 457 1943797902 19 151 95 0 7 0 17 13 S0 74 20 149 4 0 0 6
00 148 593 10 0 0 0 0 0 0 0 0 0 0 0 0 0 0 0 0 81 2 148 168 142 7 0 10 0 0 672 0
 83 1 672 1e3 74 20 6 1 0 0 2 0 0 0 0 0 0 0 0 0 0 0 0 0 0 0 0 0 0 0 80 2 5 673 6
74 9000 0 0 0 0 3 5 0 0 0 TFFFFFFFFFFFFF9 1 79 18 674 MULTI_BODY_ID_20011 0 
