**ABCDEFGHIJKLMNOPQRSTUVWXYZabcdefghijklmnopqrstuvwxyz**************************
**PARASOLID !"#$%&'()*+,-./:;<=>?@[\]^_`{|}~0123456789**************************
**PART1;
MC=AMD64;
MC_MODEL=Intel64 Family 6 Model 60 Stepping 3, GenuineIntel;
MC_ID=unknown;
OS=Windows_NT;
OS_RELEASE=unknown;
FRU=Parasolid Version 30.0, build 310,  6- 8-2018;
APPL=SOLIDWORKS 2018-2018211;
SITE=;
USER=unknown;
FORMAT=text;
GUISE=transmit;
KEY=ºÕ×È½Ó´¥;
FILE=ºÕ×È½Ó´¥.x_t;
DATE=Thu Mar 28 09:44:03 2019;
**PART2;
SCH=SCH_3000310_30000;
USFLD_SIZE=0;
**PART3;
**END_OF_HEADER*****************************************************************
T51 : TRANSMIT FILE created by modeller version 300031023 SCH_3000310_30000_1300
6205 0 10 19 CCCCCCCI4 mesh1006 0 I8 polyline1008 0 CCCCCCCCCCZ1 5 2 3 0 0 0 0 0
 0 0 1e3 1e-8 0 0 0 1 0 1 4 81 255 2 2 5 5 1 0 0 0 0 0 0 70 11 CI9 list_type0 0
 1 uI10 notransmit0 0 1 lCCCDCCDI12 finger_index0 0 1 dI12 finger_block1012 0 CZ
3 0 4 T1 0 0 1 20 1 6 6 11 255 4 3 0 1 7 8 1 9 0 0 0 12 33 CCCCCCI4 mesh1006 0 I
8 polyline1008 0 CCCCCCCDI5 owner1040 0 CCCCCCI13 boundary_mesh1006 0 I17 bounda
ry_polyline1008 0 CCCA16 index_map_offset0 0 1 dA9 index_map82 0 A17 node_id_ind
ex_map82 0 A20 schema_embedding_map82 0 A5 child12 0 A14 lowest_node_id0 0 1 dZ7
 169 10 11 0 0 0 0 0 0 1e3 1e-8 4 12 0 1 0 1 1 13 14 15 16 0 0 17 18 19 0 0 0 0
 0 0 100 255 8 4 4 0 0 1 0 0 0 1 0 0 0 1 0 0 0 1 0 ?11 9 1 0 1 12 20 1 0 4 0 0 1
2 12 169 21 22 0 0 0 0 0 0 1e3 1e-8 9 23 7 1 0 1 1 24 25 26 27 0 0 28 29 30 0 0
 0 0 0 0 100 20 2 9 0 0 1 0 0 0 1 0 0 0 1 0 0 0 1 0 ?81 1 21 169 31 12 32 0 0 0
 0 70 22 0 4 T12 0 0 4 20 1 33 33 13 255 24 104 0 12 0 34 0 0 35 0 51 255 25 99
 0 34 36 0 0 -0 .0641677683649221 .002 0 0 -1 .00706580930951994 -1 0 0 30 255 2
6 103 0 29 37 0 0 +-.00243018181415496 .05753302062679 .002 0 0 -1 29 255 27 80
 0 38 39 0 0 .0571019590554022 0 19 8 CCCCCCCA5 owner12 0 Z28 34 0 12 35 0 40 V0
 16 255 29 87 0 ?41 0 42 26 0 0 12 18 255 30 29 0 43 0 44 45 ?12 17 255 43 0 46
 47 48 30 49 50 0 51 -18 44 26 0 52 30 53 54 ?12 29 45 31 0 30 54 55 0 .05710195
90554022 .002 29 54 28 0 44 56 45 0 .039396638072098 .002 29 55 83 0 57 45 58 -.
00243018181415496 .05753302062679 0 18 57 74 0 41 59 0 55 ?12 29 58 82 0 59 55 3
9 -.00851966812528857 .04090784250478635 0 18 59 73 0 60 61 57 58 ?12 29 39 81 0
 61 58 27 0 .039396638072098 0 18 61 72 0 62 38 59 39 ?12 17 62 0 46 48 47 61 63
 64 0 65 +18 38 71 0 49 66 61 27 ?12 17 49 0 67 68 51 38 43 50 0 69 +18 66 20 0
 70 53 38 71 ?12 17 70 0 67 51 68 66 41 29 0 72 -18 53 23 0 73 44 66 56 ?12 29 7
1 22 0 66 0 56 -.00243018181415496 .05753302062679 .002 29 56 25 0 53 71 54 -.00
851966812528857 .04090784250478635 .002 17 73 0 74 52 75 53 72 76 0 77 +15 255 7
4 3 0 75 78 0 17 52 0 74 79 73 44 80 81 0 63 +17 75 0 74 73 79 66 51 82 0 0 -17
 72 0 83 41 77 66 73 76 0 75 -16 76 8 0 ?73 81 82 84 0 0 12 17 77 0 83 72 60 53
 85 42 0 80 -15 83 92 0 60 86 0 17 60 0 83 77 41 59 87 88 0 85 +17 85 0 89 65 80
 59 77 42 0 90 +16 42 86 0 ?85 29 64 37 0 0 12 17 80 0 89 85 63 53 52 81 0 0 -15
 89 90 0 65 91 0 17 63 0 89 80 65 44 62 64 0 47 -16 81 12 0 ?52 92 76 93 0 0 12
 16 92 16 0 ?47 50 81 94 0 0 12 31 255 93 13 0 81 84 94 0 +0 .0641677683649221 .
002 0 0 1 1 0 0 .02477113029282415 30 84 9 0 76 95 93 0 +-.02072317488235845 .00
759050452532179 .002 -.3439353806054055 -.938993319447915 0 30 94 17 0 92 93 96
 0 +0 0 .002 0 -1 0 31 96 79 0 97 94 98 0 +0 .0641677683649221 0 0 0 1 1 0 0 .00
706580930951994 16 97 66 0 ?69 88 0 96 0 0 12 30 98 78 0 88 96 99 0 +-.020723174
88235845 .00759050452532179 0 -.3439353806054055 -.938993319447915 0 16 88 61 0
 ?60 100 97 98 0 0 12 31 99 77 0 100 98 101 0 +0 .0641677683649221 0 0 0 1 1 0 0
 .02477113029282415 16 100 56 0 ?65 102 88 99 0 0 12 30 101 76 0 102 99 103 0 +0
 0 0 0 -1 0 16 102 51 0 ?104 82 100 101 0 0 12 30 103 100 0 50 101 105 0 +0 .057
1019590554022 .002 0 0 -1 16 50 84 0 ?49 64 92 103 0 0 12 30 105 101 0 64 103 37
 0 +0 .039396638072098 .002 0 0 -1 16 64 85 0 ?62 42 50 105 0 0 12 30 37 102 0 4
2 105 26 0 +-.00851966812528857 .04090784250478635 .002 0 0 -1 17 104 0 106 90 6
9 61 48 102 0 0 +16 82 4 0 ?51 76 102 95 0 0 12 17 51 0 67 49 70 30 75 82 0 79 +
31 95 5 0 82 0 84 0 +0 .0641677683649221 .002 0 0 1 1 0 0 .00706580930951994 15
 67 94 0 68 34 0 17 79 0 74 75 52 30 47 92 0 0 -17 47 0 46 62 43 44 79 92 0 0 +1
5 46 88 0 48 107 0 17 48 0 46 43 62 38 104 102 0 0 -14 255 107 89 108 ?78 91 46
 24 109 +0 0 78 91 40 81 1 108 163 110 107 111 0 0 112 113 14 78 1 112 ?114 107
 74 24 115 +0 0 114 107 40 14 91 91 116 ?107 86 89 24 117 -0 0 107 86 40 50 255
 109 96 0 107 118 117 0 +0 0 .002 1 0 0 0 0 -1 13 40 35 0 0 0 0 0 0 28 34 14 34
 95 119 ?86 0 67 24 25 +0 0 86 0 40 81 1 119 166 110 34 120 0 116 121 122 14 86
 93 121 ?91 34 83 24 36 -0 0 91 34 40 81 1 121 167 110 86 123 0 119 124 125 50 3
6 98 0 86 117 25 0 +-.02072317488235845 .00759050452532179 .002 .938993319447915
 -.3439353806054055 0 .3439353806054055 .938993319447915 0 51 117 97 0 91 109 36
 0 -0 .0641677683649221 .002 0 0 -1 .02477113029282415 -1 0 0 80 255 1 110 126 1
27 9000 1 1 1 1 1 1 1 1 0 FFFFTFTFFFFFFF1 81 1 123 144 128 86 0 121 120 129 130
 81 1 124 168 110 114 131 0 121 0 132 82 255 1 125 -1496317804 14 114 49 124 ?0
 78 106 24 118 -0 0 0 78 40 81 1 131 148 128 114 0 124 133 0 134 82 1 132 -14977
59596 80 1 128 0 135 8001 0 0 0 0 3 5 0 0 0 FFFFTFTFFFFFFF2 81 1 133 147 128 78
 0 112 111 131 136 83 255 3 134 1 1 1 81 1 112 164 110 78 133 0 108 116 137 81 1
 111 146 128 107 0 108 129 133 138 83 3 136 1 1 1 81 1 129 145 128 91 0 116 123
 111 139 83 3 138 1 1 1 81 1 116 165 110 91 129 0 112 119 140 83 3 139 1 1 1 82
 1 140 -1496645484 82 1 137 -1504116588 79 255 15 135 SDL/TYSA_COLOUR15 106 50 0
 69 114 0 50 118 75 0 114 115 109 0 +0 0 0 0 0 1 1 0 0 50 115 2 0 78 0 118 0 +0
 0 .002 0 0 1 1 0 0 17 69 0 106 104 87 38 68 97 0 48 +17 87 0 106 69 90 57 60 88
 0 68 -17 68 0 67 70 49 57 69 97 0 0 -17 90 0 106 87 104 59 65 100 0 0 -17 65 0
 89 63 85 61 90 100 0 104 +81 1 120 143 128 34 0 119 0 123 141 83 3 130 1 1 1 83
 3 141 1 1 1 79 14 127 SWEntUnchanged82 1 122 -1496055660 82 1 113 -1496776556 1
7 41 0 83 60 72 57 70 29 0 87 +19 35 105 0 12 0 28 24 S0 74 4 CI16 index_map_off
set0 0 1 dCCZ20 33 4 0 0 124 32 131 21 0 0 0 0 0 0 0 0 0 0 0 0 0 0 0 0 81 2 32 1
42 142 12 0 21 0 0 143 0 80 2 142 144 145 8004 0 0 0 0 3 5 0 0 0 FFTFFFFFFFFFFF2
 3 83 1 143 1e3 79 16 145 SDL/TYSA_DENSITY80 1 31 146 147 8017 0 0 0 0 0 0 0 0 0
 TTTTTTTTTTTTTF3 79 13 147 SDL/TYSA_NAME81 1 10 169 31 7 148 0 0 0 0 70 11 0 4 T
7 0 0 4 20 1 149 149 13 13 104 0 7 0 150 0 0 151 0 51 14 99 0 150 152 0 0 -0 0 .
002 0 0 -1 .02165657045069905 -1 0 0 30 15 103 0 18 153 0 0 +0 .0216565704506990
5 .002 0 0 -1 29 16 80 0 154 155 0 -.00468331314550824 .02114411553286635 0 19 1
7 34 0 7 151 0 156 V0 16 18 87 0 ?157 0 158 15 0 0 7 18 19 29 0 159 0 160 161 ?7
 17 159 0 162 163 164 19 165 166 0 167 -18 160 26 0 168 19 169 170 ?7 29 161 31
 0 19 170 171 -.00468331314550824 .02114411553286635 .002 29 170 28 0 160 172 16
1 -.00851966812528857 .03846440362749465 .002 29 171 83 0 173 161 174 0 .0216565
7045069905 0 18 173 74 0 157 175 0 171 ?7 29 174 82 0 175 171 155 0 .03939663807
2098 0 18 175 73 0 176 177 173 174 ?7 29 155 81 0 177 174 16 -.00851966812528857
 .03846440362749465 0 18 177 72 0 178 154 175 155 ?7 17 178 0 162 164 163 177 17
9 180 0 181 +18 154 71 0 165 182 177 16 ?7 17 165 0 183 184 167 154 159 166 0 18
5 +18 182 20 0 186 169 154 187 ?7 17 186 0 183 167 184 182 157 18 0 188 -18 169
 23 0 189 160 182 172 ?7 29 187 22 0 182 0 172 0 .02165657045069905 .002 29 172
 25 0 169 187 170 0 .039396638072098 .002 17 189 0 190 191 192 169 176 158 0 193
 -15 190 92 0 192 194 0 17 191 0 190 157 189 182 195 196 0 0 +17 192 0 190 189 1
57 175 197 198 0 0 -17 176 0 199 181 193 175 189 158 0 200 +16 158 86 0 ?176 18
 180 153 0 0 7 17 193 0 199 176 179 169 168 201 0 195 -15 199 90 0 181 202 0 17
 179 0 199 193 181 160 178 180 0 163 -17 168 0 203 204 195 160 193 201 0 179 +16
 201 12 0 ?168 205 196 206 0 0 7 17 195 0 203 168 188 169 191 196 0 0 -15 203 3
 0 188 207 0 17 188 0 203 195 204 182 167 208 0 191 -16 196 8 0 ?191 201 208 209
 0 0 7 16 208 4 0 ?167 196 210 211 0 0 7 30 209 9 0 196 211 206 0 +0 0 .002 0 -1
 0 31 211 5 0 208 0 209 0 +0 0 .002 0 0 1 1 0 0 .02165657045069905 31 206 13 0 2
01 209 212 0 +0 0 .002 0 0 1 1 0 0 .039396638072098 30 212 17 0 205 206 213 0 +1
69367507552172e-32 375140342620671e-33 .002 -.216253684126476 .976337208192808 0
 16 205 16 0 ?163 166 201 212 0 0 7 31 213 79 0 214 212 215 0 +0 0 0 0 0 1 1 0 0
 .02165657045069905 16 214 66 0 ?185 198 0 213 0 0 7 30 215 78 0 198 213 216 0 +
0 0 0 0 -1 0 16 198 61 0 ?197 217 214 215 0 0 7 31 216 77 0 217 215 218 0 +0 0 0
 0 0 1 1 0 0 .039396638072098 16 217 56 0 ?181 210 198 216 0 0 7 30 218 76 0 210
 216 219 0 +169367507552172e-32 375140342620671e-33 0 -.216253684126476 .9763372
08192808 0 16 210 51 0 ?220 208 217 218 0 0 7 30 219 100 0 166 218 221 0 +-.0046
8331314550824 .02114411553286635 .002 0 0 -1 16 166 84 0 ?165 180 205 219 0 0 7
 30 221 101 0 180 219 153 0 +-.00851966812528857 .03846440362749465 .002 0 0 -1
 16 180 85 0 ?178 158 166 221 0 0 7 30 153 102 0 158 221 15 0 +0 .03939663807209
8 .002 0 0 -1 17 220 0 222 200 185 177 164 210 0 0 +15 222 50 0 185 223 0 17 200
 0 222 197 220 175 181 217 0 192 -17 185 0 222 220 197 154 184 214 0 164 +17 164
 0 162 159 178 154 220 210 0 0 -15 162 88 0 164 224 0 14 224 89 225 ?207 202 162
 13 226 +0 0 207 202 156 81 1 225 163 110 224 227 0 0 228 229 14 207 1 228 ?223
 224 203 13 230 +0 0 223 224 156 14 202 91 231 ?224 194 199 13 232 -0 0 224 194
 156 50 226 96 0 224 233 232 0 +169367507552172e-32 375140342620671e-33 .002 -.9
76337208192808 -.216253684126476 0 .216253684126476 -.976337208192808 0 13 156 3
5 0 0 0 0 0 0 17 150 14 150 95 234 ?194 0 183 13 14 +0 0 194 0 156 81 1 234 166
 110 150 235 0 231 236 237 14 194 93 236 ?202 150 190 13 152 +0 0 202 150 156 15
 183 94 0 184 150 0 17 184 0 183 186 165 173 185 214 0 197 -17 197 0 222 185 200
 173 192 198 0 0 +81 1 236 167 110 194 238 0 234 239 240 50 152 98 0 194 232 14
 0 +0 0 .002 1 0 0 0 0 -1 51 232 97 0 202 226 152 0 -0 0 .002 0 0 -1 .0393966380
72098 -1 0 0 81 1 238 144 128 194 0 236 235 241 242 81 1 239 168 110 223 243 0 2
36 0 244 82 1 240 -1483538284 14 223 49 239 ?0 207 222 13 233 -0 0 0 207 156 81
 1 243 148 128 223 0 239 245 0 246 82 1 244 -1484980076 81 1 245 147 128 207 0 2
28 227 243 247 83 3 246 1 1 1 81 1 228 164 110 207 245 0 225 231 248 81 1 227 14
6 128 224 0 225 241 245 249 83 3 247 1 1 1 81 1 241 145 128 202 0 231 238 227 25
0 83 3 249 1 1 1 81 1 231 165 110 202 241 0 228 234 251 83 3 250 1 1 1 82 1 251
 -1483865964 82 1 248 -1491337068 50 233 75 0 223 230 226 0 +0 0 0 0 0 1 1 0 0 5
0 230 2 0 207 0 233 0 +0 0 .002 0 0 1 1 0 0 81 1 235 143 128 150 0 234 0 238 252
 83 3 242 1 1 1 83 3 252 1 1 1 82 1 237 -1483341676 82 1 229 -1483997036 17 181
 0 199 179 176 177 200 217 0 220 +17 163 0 162 178 159 160 204 205 0 0 +17 204 0
 203 188 168 19 163 205 0 0 -17 167 0 183 165 186 19 188 208 0 204 +17 157 0 190
 192 191 173 186 18 0 184 +19 151 105 0 7 0 17 13 S0 74 20 149 4 0 0 239 148 243
 10 0 0 0 0 0 0 0 0 0 0 0 0 0 0 0 0 81 2 148 142 142 7 0 10 0 0 253 0 83 1 253 1
e3 74 20 6 1 0 0 2 0 0 0 0 0 0 0 0 0 0 0 0 0 0 0 0 0 0 0 80 2 5 254 255 9000 0 0
 0 0 3 5 0 0 0 TFFFFFFFFFFFFF9 1 79 18 255 MULTI_BODY_ID_20011 0 
