**ABCDEFGHIJKLMNOPQRSTUVWXYZabcdefghijklmnopqrstuvwxyz**************************
**PARASOLID !"#$%&'()*+,-./:;<=>?@[\]^_`{|}~0123456789**************************
**PART1;
MC=AMD64;
MC_MODEL=Intel64 Family 6 Model 60 Stepping 3, GenuineIntel;
MC_ID=unknown;
OS=Windows_NT;
OS_RELEASE=unknown;
FRU=Parasolid Version 30.0, build 310,  6- 8-2018;
APPL=SOLIDWORKS 2018-2018211;
SITE=;
USER=unknown;
FORMAT=text;
GUISE=transmit;
KEY=Áº;
FILE=Áº.x_t;
DATE=Thu Feb 28 09:31:30 2019;
**PART2;
SCH=SCH_3000310_30000;
USFLD_SIZE=0;
**PART3;
**END_OF_HEADER*****************************************************************
T51 : TRANSMIT FILE created by modeller version 300031023 SCH_3000310_30000_1300
6205 0 10 19 CCCCCCCI4 mesh1006 0 I8 polyline1008 0 CCCCCCCCCCZ1 7 2 3 0 0 0 0 0
 0 0 1e3 1e-8 0 0 0 1 0 1 4 81 255 2 2 7 5 1 0 0 0 0 0 0 70 11 CI9 list_type0 0
 1 uI10 notransmit0 0 1 lCCCDCCDI12 finger_index0 0 1 dI12 finger_block1012 0 CZ
3 0 4 T1 0 0 1 20 1 6 6 11 255 4 5 0 1 7 8 1 9 0 0 0 12 33 CCCCCCI4 mesh1006 0 I
8 polyline1008 0 CCCCCCCDI5 owner1040 0 CCCCCCI13 boundary_mesh1006 0 I17 bounda
ry_polyline1008 0 CCCA16 index_map_offset0 0 1 dA9 index_map82 0 A17 node_id_ind
ex_map82 0 A20 schema_embedding_map82 0 A5 child12 0 A14 lowest_node_id0 0 1 dZ7
 380 10 11 0 0 0 0 0 0 1e3 1e-8 4 12 0 1 0 1 1 13 14 15 16 0 0 17 18 19 0 0 0 0
 0 0 100 255 8 6 4 0 0 1 0 0 0 1 0 0 0 1 0 0 0 1 0 ?11 9 3 0 1 12 20 1 21 4 0 0
 12 12 125 22 23 0 0 0 0 0 0 1e3 1e-8 9 24 7 1 0 1 1 25 26 27 0 0 0 28 29 0 0 0
 0 0 0 0 100 20 4 9 0 0 1 0 0 0 1 0 0 0 1 0 0 0 1 0 ?11 21 1 0 1 24 30 1 0 9 0 0
 12 24 79 31 32 0 0 0 0 0 0 1e3 1e-8 21 33 12 1 0 1 1 34 35 36 0 0 0 37 38 0 0 0
 0 0 0 0 100 30 2 21 0 0 1 0 0 0 1 0 0 0 1 0 0 0 1 0 ?81 1 31 79 39 24 40 0 0 0
 0 70 32 0 4 T24 0 0 4 20 1 41 41 13 255 34 29 0 24 0 42 0 0 43 0 51 255 35 28 0
 42 44 0 0 -.65124807965896 .1162 12 0 0 -1 .1414 -1 0 0 31 255 36 23 0 45 46 0
 0 +.65124807965896 .1162 0 0 0 1 1 0 0 .1414 19 8 CCCCCCCA5 owner12 0 Z37 7 0 2
4 43 0 47 V0 16 255 38 4 0 ?48 0 45 46 0 0 24 17 255 48 0 49 48 48 0 50 38 0 0 +
16 45 18 0 ?51 38 0 36 0 0 24 31 46 5 0 38 0 36 0 +.65124807965896 .1162 12 0 0
 1 1 0 0 .1414 17 51 0 52 51 51 0 53 45 0 0 +15 255 52 26 0 51 42 0 17 53 0 54 5
3 53 0 51 45 0 0 -15 54 17 0 53 55 0 14 255 55 16 56 ?0 57 54 34 44 -0 0 0 57 47
 81 1 56 76 58 55 59 0 0 60 61 14 57 1 60 ?55 42 49 34 62 +0 0 55 42 47 50 255 4
4 22 0 55 62 35 0 +.65124807965896 .1162 0 0 0 1 1 0 0 13 47 8 0 0 0 0 0 0 37 42
 14 42 25 63 ?57 0 64 34 35 -0 0 57 0 47 81 1 63 78 58 42 65 0 60 0 66 15 64 24
 0 50 42 52 17 50 0 64 50 50 0 48 38 0 0 -80 255 1 58 67 68 9000 1 1 1 1 1 1 1 1
 0 FFFFTFTFFFFFFF1 81 1 65 65 69 42 0 63 0 70 71 81 1 60 77 58 57 70 0 56 63 72
 82 255 1 66 270860498 81 1 70 66 69 57 0 60 65 59 73 82 1 72 268894418 80 1 69
 0 74 8001 0 0 0 0 3 5 0 0 0 FFFFTFTFFFFFFF2 81 1 59 67 69 55 0 56 70 0 75 83 25
5 3 73 1 1 1 83 3 75 1 1 1 79 255 15 74 SDL/TYSA_COLOUR83 3 71 1 1 1 79 14 68 SW
EntUnchanged50 62 2 0 57 0 44 0 +.65124807965896 .1162 12 0 0 1 1 0 0 15 49 3 0
 48 57 0 82 1 61 270598354 19 43 30 0 24 0 37 34 S0 74 4 CI16 index_map_offset0
 0 1 dCCZ20 41 4 0 0 63 40 59 31 0 0 0 0 0 0 0 0 0 0 0 0 0 0 0 0 81 2 40 56 76 2
4 0 31 0 0 77 0 80 2 76 78 79 8004 0 0 0 0 3 5 0 0 0 FFTFFFFFFFFFFF2 3 83 1 77 1
e3 79 16 79 SDL/TYSA_DENSITY80 1 39 80 81 8017 0 0 0 0 0 0 0 0 0 TTTTTTTTTTTTTF3
 79 13 81 SDL/TYSA_NAME81 1 22 125 39 12 82 0 0 0 0 70 23 0 4 T12 0 0 4 20 1 83
 83 13 25 29 0 12 0 84 0 0 85 0 51 26 28 0 86 87 0 0 --.4073276247685025 .1162 1
2 0 0 -1 .16435 -1 0 0 31 27 23 0 88 89 0 0 +-.4073276247685025 .1162 0 0 0 1 1
 0 0 .16435 19 28 7 0 12 85 0 90 V0 16 29 4 0 ?91 0 88 89 0 0 12 17 91 0 92 91 9
1 0 93 29 0 0 +16 88 18 0 ?94 29 95 27 0 0 12 31 89 5 0 29 96 27 0 +-.4073276247
685025 .1162 12 0 0 1 1 0 0 .16435 31 96 71 0 97 98 89 0 +-.4073276247685025 .11
62 0 0 0 1 1 0 0 .13435 16 97 49 0 ?99 95 0 96 0 0 12 31 98 72 0 95 0 96 0 +-.40
73276247685025 .1162 12 0 0 1 1 0 0 .13435 16 95 52 0 ?100 88 97 98 0 0 12 17 10
0 0 101 100 100 0 102 95 0 0 +15 101 58 0 100 103 104 17 102 0 105 102 102 0 100
 95 0 0 -15 105 43 0 102 84 0 14 84 46 106 ?107 0 92 25 108 +0 0 107 0 90 81 1 1
06 121 58 84 109 0 0 110 111 14 107 40 110 ?86 84 112 25 87 -0 0 86 84 90 15 92
 3 0 91 84 105 50 108 2 0 84 113 87 0 +-.4073276247685025 .1162 12 0 0 1 1 0 0 1
3 90 8 0 0 0 0 0 0 28 84 51 113 68 0 103 0 108 0 --.4073276247685025 .1162 12 0
 0 -1 .13435 -1 0 0 50 87 22 0 107 108 26 0 +-.4073276247685025 .1162 0 0 0 1 1
 0 0 14 103 55 114 ?0 86 101 25 113 +0 0 0 86 90 81 1 114 123 58 103 115 0 110 1
16 117 14 86 25 116 ?103 107 118 25 26 -0 0 103 107 90 81 1 116 124 58 86 119 0
 114 0 120 15 118 24 0 93 86 121 17 93 0 118 93 93 0 91 29 0 0 -15 121 26 0 94 8
6 0 17 94 0 121 94 94 0 122 88 0 0 +17 122 0 112 122 122 0 94 88 0 0 -15 112 17
 0 122 107 123 15 123 38 0 99 107 0 17 99 0 123 99 99 0 124 97 0 0 +17 124 0 104
 124 124 0 99 97 0 0 -15 104 59 0 124 103 0 81 1 119 109 69 86 0 116 125 115 126
 82 1 120 278986962 81 1 125 108 69 107 0 110 109 119 127 81 1 115 110 69 103 0
 114 119 0 128 83 3 126 1 1 1 83 3 128 1 1 1 81 1 110 122 58 107 125 0 106 114 1
29 81 1 109 107 69 84 0 106 0 125 130 83 3 127 1 1 1 83 3 130 1 1 1 82 1 129 280
690898 82 1 117 274923730 82 1 111 281215186 19 85 30 0 12 0 28 25 S0 74 20 83 4
 0 0 116 82 115 22 0 0 0 0 0 0 0 0 0 0 0 0 0 0 0 0 81 2 82 97 76 12 0 22 0 0 131
 0 83 1 131 1e3 81 1 10 380 39 7 132 0 0 0 0 70 11 0 4 T7 0 0 4 20 1 133 133 13
 13 94 0 7 0 134 0 0 135 0 50 14 89 0 136 137 0 0 +0 0 12 1 0 0 0 0 -1 30 255 15
 232 0 138 139 0 0 +1699770935330215e-32 -2194196560236935e-32 0 -.7905426248848
55 -.612407020077468 0 29 255 16 204 0 19 140 0 .15 .1162 12 19 17 28 0 7 135 0
 141 V0 16 18 221 0 ?142 0 143 139 0 0 7 18 255 19 201 0 144 0 145 16 ?7 17 144
 0 146 147 148 19 149 143 0 150 -18 145 188 0 151 19 152 140 ?7 17 151 0 153 154
 155 145 142 18 0 156 -18 152 25 0 147 145 157 158 ?7 29 140 191 0 145 159 16 .1
5 .1162 0 29 159 70 0 160 161 140 0 .2324 0 18 160 61 0 162 163 164 159 ?7 29 16
1 71 0 164 165 159 .3 .2324 0 18 164 62 0 166 160 167 161 ?7 29 165 72 0 167 168
 161 .3 0 0 18 167 63 0 154 164 169 165 ?7 29 168 73 0 169 158 165 0 0 0 18 169
 64 0 142 167 0 168 ?7 29 158 27 0 152 170 168 0 .2324 12 29 170 24 0 157 171 15
8 .3 .2324 12 18 157 22 0 172 152 173 170 ?7 29 171 21 0 173 174 170 .3 0 12 18
 173 19 0 175 157 163 171 ?7 29 174 18 0 163 0 171 0 0 12 18 163 16 0 149 173 16
0 174 ?7 17 149 0 176 177 178 163 144 143 0 179 +15 176 162 0 178 180 0 17 177 0
 176 178 149 173 179 181 0 182 +17 178 0 176 149 177 19 175 183 0 184 -16 143 21
3 0 ?149 18 185 186 0 0 7 17 179 0 187 188 182 163 177 181 0 148 -15 187 82 0 18
9 190 0 17 188 0 187 189 179 169 191 192 0 193 +17 182 0 187 179 189 173 194 195
 0 196 -16 181 7 0 ?177 197 198 199 0 0 7 17 148 0 146 144 147 163 200 198 0 191
 +15 146 214 0 144 201 0 17 147 0 146 148 144 152 184 202 0 203 -17 200 0 204 20
5 191 152 148 198 0 0 -16 198 4 0 ?148 181 206 207 0 0 7 17 191 0 204 200 193 16
3 188 192 0 0 -15 204 84 0 193 136 0 17 193 0 204 191 205 169 208 209 0 0 +16 19
2 77 0 ?188 183 195 210 0 0 7 16 183 202 0 ?175 202 192 211 202 202 7 16 195 76
 0 ?194 192 212 213 0 0 7 30 210 93 0 192 213 214 0 +0 0 12 0 0 -1 30 213 92 0 1
95 215 210 0 +.3 0 12 0 0 -1 30 214 176 0 216 210 211 0 +.112512707472049 .14524
0155944986 0 .790542624884855 -.612407020077468 0 16 216 169 0 ?217 138 218 214
 218 218 7 30 211 177 0 202 214 186 0 +.112512707472049 .145240155944986 12 .790
542624884855 -.612407020077468 0 16 202 161 0 ?184 218 183 211 183 183 7 30 186
 229 0 143 211 219 0 +1699770935330215e-32 -2194196560236935e-32 12 -.7905426248
84855 -.612407020077468 0 30 219 230 0 185 186 139 0 +1699770935330215e-32 -2194
196560236935e-32 12 -.790542624884855 -.612407020077468 0 16 185 205 0 ?150 143
 138 219 0 0 7 30 139 231 0 18 219 15 0 +1699770935330215e-32 -2194196560236935e
-32 0 -.790542624884855 -.612407020077468 0 17 150 0 220 175 221 19 172 185 0 17
8 +16 138 192 0 ?156 185 216 15 0 0 7 17 156 0 222 162 223 145 166 138 0 224 +15
 222 170 0 223 225 0 17 162 0 222 223 156 160 217 216 0 226 -17 223 0 222 156 16
2 164 226 206 0 0 -17 166 0 227 228 224 164 156 138 0 229 -17 224 0 227 166 228
 145 154 218 0 217 -15 227 193 0 166 230 0 17 228 0 227 224 166 167 229 231 0 0
 -17 154 0 153 155 151 167 224 218 0 189 +16 218 189 0 ?154 216 202 214 216 216
 7 17 217 0 232 142 208 145 162 216 0 0 +15 232 44 0 217 134 0 17 142 0 232 208
 217 169 151 18 0 155 +17 208 0 232 217 142 160 193 209 0 0 -16 209 57 0 ?193 23
3 0 234 0 0 7 16 233 53 0 ?189 231 209 235 0 0 7 30 234 69 0 209 236 235 0 +0 0
 0 0 -1 0 30 236 14 0 237 238 234 0 +0 .2324 12 -1 0 0 30 235 68 0 233 234 239 0
 +0 0 0 1 0 0 30 239 67 0 231 235 240 0 +.3 0 0 0 1 0 16 231 49 0 ?229 206 233 2
39 0 0 7 30 240 66 0 206 239 241 0 +0 .2324 0 -1 0 0 16 206 45 0 ?226 198 231 24
0 0 0 7 30 241 90 0 242 240 215 0 +0 .2324 12 0 0 -1 16 242 74 0 ?205 212 237 24
1 0 0 7 30 215 91 0 212 241 213 0 +.3 .2324 12 0 0 -1 16 212 75 0 ?243 195 242 2
15 0 0 7 17 243 0 244 226 245 164 246 212 0 223 +15 244 78 0 226 247 0 17 226 0
 244 248 243 160 223 206 0 205 +17 245 0 244 243 248 157 203 237 0 0 -17 246 0 2
49 196 229 157 243 212 0 245 -15 249 80 0 229 250 0 17 196 0 249 194 246 173 221
 197 0 0 -17 229 0 249 246 194 164 228 231 0 243 +17 194 0 249 229 196 167 182 1
95 0 228 +17 221 0 220 150 175 157 196 197 0 246 +16 197 10 0 ?221 237 181 238 0
 0 7 16 237 13 0 ?203 242 197 236 0 0 7 30 238 11 0 197 199 236 0 +.3 0 12 0 1 0
 30 199 8 0 181 207 238 0 +0 0 12 1 0 0 30 207 5 0 198 0 199 0 +0 0 12 0 -1 0 17
 203 0 251 184 172 152 245 237 0 248 +15 251 206 0 172 252 0 17 184 0 251 172 20
3 19 147 202 0 0 +17 172 0 251 203 184 157 150 185 0 221 -17 248 0 244 245 226 1
52 205 242 0 200 -17 205 0 204 193 200 160 248 242 0 208 +14 252 207 253 ?225 20
1 251 13 254 -180 201 225 201 141 81 1 253 368 58 252 255 0 0 256 257 14 225 195
 256 ?258 252 222 13 259 +258 134 258 252 141 14 201 215 260 ?252 134 146 13 254
 -252 261 252 134 141 50 254 2 0 261 0 259 0 +0 0 12 0 0 -1 -1 0 0 14 180 164 26
2 ?136 258 176 13 254 -261 252 136 258 141 13 141 29 0 0 0 0 0 0 17 134 14 134 2
23 263 ?201 0 232 13 259 +225 230 201 0 141 81 1 263 372 58 134 264 0 262 265 26
6 50 259 65 0 230 254 267 0 +0 0 0 0 0 -1 -1 0 0 14 230 43 265 ?0 261 227 13 259
 +134 258 0 261 141 81 1 265 373 58 230 268 0 263 269 270 14 261 1 269 ?230 247
 220 13 254 -201 180 230 247 141 14 258 171 271 ?180 225 153 13 259 +230 225 180
 225 141 81 1 271 375 58 258 272 0 269 273 274 15 153 222 0 151 258 0 81 1 272 3
18 69 258 0 271 275 276 277 81 1 269 374 58 261 278 0 265 271 279 81 1 273 376 5
8 136 280 0 271 281 282 82 1 274 838467797 14 136 85 273 ?190 180 204 13 14 -0 0
 190 180 141 81 1 280 320 69 136 0 273 276 283 284 81 1 281 377 58 190 283 0 273
 285 286 82 1 282 266010834 14 190 83 281 ?250 136 187 13 137 -0 0 250 136 141 8
1 1 283 321 69 190 0 281 280 287 288 81 1 285 378 58 250 287 0 281 289 290 82 1
 286 265748690 14 250 81 285 ?247 190 249 13 291 -0 0 247 190 141 81 1 287 322 6
9 250 0 285 283 292 293 81 1 289 379 58 247 292 0 285 0 294 82 1 290 265486546 1
4 247 79 289 ?261 250 244 13 267 -0 0 261 250 141 81 1 292 323 69 247 0 289 287
 278 295 82 1 294 265224402 81 1 278 324 69 261 0 269 292 268 296 83 3 295 1 1 1
 81 1 268 325 69 230 0 265 278 0 297 83 3 296 1 1 1 83 3 297 1 1 1 50 267 86 0 2
47 259 291 0 +0 .2324 12 0 -1 0 0 0 -1 50 291 87 0 250 267 137 0 +.3 0 12 -1 0 0
 0 0 1 50 137 88 0 190 291 14 0 +0 0 12 0 1 0 0 0 1 83 3 293 1 1 1 83 3 288 1 1
 1 81 1 276 319 69 180 0 262 272 280 298 83 3 284 1 1 1 81 1 262 371 58 180 276
 0 260 263 299 83 3 298 1 1 1 81 1 260 370 58 201 300 0 256 262 301 82 1 299 835
715285 81 1 300 315 69 201 0 260 264 255 302 81 1 256 369 58 225 275 0 253 260 3
03 82 1 301 848298197 81 1 275 317 69 225 0 256 255 272 304 82 1 303 843645141 8
1 1 255 316 69 252 0 253 300 275 305 83 3 304 1 1 1 83 3 305 1 1 1 81 1 264 314
 69 134 0 263 0 300 306 83 3 302 1 1 1 83 3 306 1 1 1 82 1 279 29819093 83 3 277
 1 1 1 15 220 3 0 221 261 0 82 1 270 29688021 82 1 266 848953557 82 1 257 847642
837 17 175 0 220 221 150 173 178 183 0 177 +17 189 0 187 182 188 167 155 233 0 1
94 +17 155 0 153 151 154 169 189 233 0 188 -19 135 95 0 7 0 17 13 S0 74 20 133 4
 0 0 289 132 268 10 0 0 0 0 0 0 0 0 0 0 0 0 0 0 0 0 81 2 132 141 76 7 0 10 0 0 3
07 0 83 1 307 1e3 74 20 6 1 0 0 2 0 0 0 0 0 0 0 0 0 0 0 0 0 0 0 0 0 0 0 80 2 5 3
08 309 9000 0 0 0 0 3 5 0 0 0 TFFFFFFFFFFFFF9 1 79 18 309 MULTI_BODY_ID_20011 0
 
