**ABCDEFGHIJKLMNOPQRSTUVWXYZabcdefghijklmnopqrstuvwxyz**************************
**PARASOLID !"#$%&'()*+,-./:;<=>?@[\]^_`{|}~0123456789**************************
**PART1;
MC=AMD64;
MC_MODEL=Intel64 Family 6 Model 60 Stepping 3, GenuineIntel;
MC_ID=unknown;
OS=Windows_NT;
OS_RELEASE=unknown;
FRU=Parasolid Version 30.0, build 298, 12-15-2017;
APPL=SOLIDWORKS 2018-2018056;
SITE=;
USER=unknown;
FORMAT=text;
GUISE=transmit;
KEY=Ö§¼Ü;
FILE=Ö§¼Ü.x_t;
DATE=Wed Aug  1 21:33:39 2018;
**PART2;
SCH=SCH_3000298_30000;
USFLD_SIZE=0;
**PART3;
**END_OF_HEADER*****************************************************************
T51 : TRANSMIT FILE created by modeller version 300029823 SCH_3000298_30000_1300
6205 0 10 19 CCCCCCCI4 mesh1006 0 I8 polyline1008 0 CCCCCCCCCCZ1 9 2 3 0 0 0 0 0
 0 0 1e3 1e-8 0 0 0 1 0 1 4 81 255 1 2 9 5 1 0 0 0 0 0 70 11 CI9 list_type0 0 1
 uI10 notransmit0 0 1 lCCCDCCDI12 finger_index0 0 1 dI12 finger_block1012 0 CZ3
 0 4 T1 0 0 1 20 1 6 6 11 255 4 7 0 1 7 8 1 9 0 9 0 12 33 CCCCCCI4 mesh1006 0 I8
 polyline1008 0 CCCCCCCDI5 owner1040 0 CCCCCCI13 boundary_mesh1006 0 I17 boundar
y_polyline1008 0 CCCA16 index_map_offset0 0 1 dA9 index_map82 0 A17 node_id_inde
x_map82 0 A20 schema_embedding_map82 0 A5 child12 0 A14 lowest_node_id0 0 1 dZ7
 838 10 11 0 0 0 0 0 0 1e3 1e-8 4 12 0 1 0 1 1 13 14 15 0 0 0 16 17 0 0 0 0 0 0
 0 100 255 8 8 4 0 0 1 0 0 0 0 1 0 -1 0 .1397 -.0075 -.0254 1 3 ?11 9 5 0 1 7 18
 1 19 4 0 4 100 18 6 9 0 0 1 0 0 0 0 1 0 -1 0 .0127 -.0075 -.0254 1 3 ?11 19 3 0
 1 12 20 1 21 9 0 0 12 12 342 22 23 0 0 0 0 0 0 1e3 1e-8 19 24 7 1 0 1 1 25 26 2
7 28 0 0 29 30 31 0 0 0 0 0 0 100 20 4 19 0 0 1 0 0 0 1 0 0 0 1 0 0 0 1 0 ?11 21
 1 0 1 24 32 1 0 19 0 0 12 24 2069 33 34 0 0 0 0 0 0 1e3 1e-8 21 35 12 1 0 1 1 3
6 37 38 39 0 0 40 41 42 0 0 0 0 0 0 100 32 2 21 0 0 1 0 0 0 1 0 0 0 1 0 0 0 1 0
 ?81 1 33 2069 5 24 43 0 0 0 44 70 34 0 4 T24 0 0 4 20 1 45 45 13 255 36 94 0 24
 0 46 0 0 47 0 51 255 37 1436 0 48 49 0 0 +.066675 207565556165528e-33 -.009525
 0 1 0 .003175 0 0 1 31 255 38 1458 0 50 51 0 0 +.066675 .011175 -.009525 0 -1 0
 0 0 -1 .003175 29 255 39 1255 0 42 52 0 .06985 .011175 -.009525 19 8 CCCCCCCA5
 owner12 0 Z40 28 0 24 47 0 53 V0 16 255 41 1257 0 ?54 0 55 56 0 0 24 18 255 42
 1253 0 57 0 58 39 ?24 17 255 57 0 59 54 60 42 61 55 0 62 +18 58 1249 0 60 42 63
 52 ?24 17 60 0 59 57 64 58 65 66 0 61 +18 63 1236 0 67 58 68 69 ?24 29 52 1251
 0 58 69 39 .06985 .011175 -.003175 29 69 1238 0 63 70 52 .06985 .022 -.003175 2
9 70 1235 0 68 71 69 .06985 .022 -.009525 18 68 1233 0 54 63 72 70 ?24 29 71 122
6 0 72 73 70 .034925 .011175 -.0127 18 72 1224 0 74 68 75 71 ?24 29 73 1222 0 75
 76 71 .034925 .022 -.0127 18 75 1220 0 77 72 78 73 ?24 29 76 1218 0 78 79 73 .0
66675 .011175 -.0127 18 78 1216 0 80 75 81 76 ?24 29 79 1215 0 81 82 76 .066675
 .022 -.0127 18 81 1213 0 83 78 84 79 ?24 29 82 1201 0 84 85 79 .03175 .011175 -
.009525 18 84 1199 0 86 81 87 82 ?24 29 85 1197 0 87 88 82 .03175 .011175 -.0031
75 18 87 1195 0 89 84 90 85 ?24 29 88 1194 0 90 91 85 .03175 .022 -.003175 18 90
 1192 0 92 87 93 88 ?24 29 91 1191 0 93 94 88 .03175 .022 -.009525 18 93 1189 0
 95 90 96 91 ?24 29 94 1183 0 96 97 91 .1524 .004825 -.00635 18 96 1181 0 98 93
 99 94 ?24 29 97 1173 0 99 100 94 .028575 .004825 0 18 99 1171 0 101 96 102 97 ?
24 29 100 1167 0 102 103 97 .073025 .004825 0 18 102 1165 0 104 99 105 100 ?24 2
9 103 1163 0 105 106 100 .034925 .011175 0 18 105 1161 0 107 102 108 103 ?24 29
 106 1159 0 108 109 103 .034925 .022 0 18 108 1157 0 110 105 111 106 ?24 29 109
 1155 0 111 112 106 .066675 .022 0 18 111 1153 0 113 108 114 109 ?24 29 112 1152
 0 114 115 109 .066675 .011175 0 18 114 1150 0 116 111 117 112 ?24 29 115 1149 0
 117 118 112 .14605 .004825 0 18 117 1147 0 119 114 120 115 ?24 29 118 1141 0 12
0 121 115 .1524 .004825 -.03175 18 120 1139 0 122 117 123 118 ?24 29 121 1133 0
 123 124 118 .00635 .004825 0 18 123 1131 0 125 120 126 121 ?24 29 124 1125 0 12
6 127 121 .14605 .004825 -.0381 18 126 1123 0 128 123 129 124 ?24 29 127 1117 0
 129 130 124 0 .004825 -.00635 18 129 1115 0 131 126 132 127 ?24 29 130 1109 0 1
32 133 127 0 .004825 -.03175 18 132 1107 0 134 129 135 130 ?24 29 133 1106 0 135
 136 130 .00635 .004825 -.0381 18 135 1104 0 137 132 138 133 ?24 29 136 1097 0 1
38 139 133 .003175 .008 -.03175 18 138 1095 0 140 135 141 136 ?24 29 139 1093 0
 141 142 136 .00635 .008 -.034925 18 141 1091 0 143 138 144 139 ?24 29 142 1089
 0 144 145 139 .003175 .008 -.00635 18 144 1087 0 146 141 147 142 ?24 29 145 108
5 0 147 148 142 .14605 .008 -.034925 18 147 1083 0 149 144 150 145 ?24 29 148 10
81 0 150 151 145 .00635 .008 -.003175 18 150 1079 0 152 147 153 148 ?24 29 151 1
077 0 153 154 148 .149225 .008 -.03175 18 153 1075 0 155 150 156 151 ?24 29 154
 1073 0 156 157 151 .028575 .008 -.003175 18 156 1071 0 158 153 159 154 ?24 29 1
57 1069 0 159 160 154 .028575 .008 -.009525 18 159 1067 0 161 156 162 157 ?24 29
 160 1065 0 162 163 157 .149225 .008 -.00635 18 162 1063 0 164 159 165 160 ?24 2
9 163 1061 0 165 166 160 .034925 .008 -.015875 18 165 1059 0 167 162 168 163 ?24
 29 166 1057 0 168 169 163 .066675 .008 -.015875 18 168 1055 0 170 165 171 166 ?
24 29 169 1053 0 171 172 166 .14605 .008 -.003175 18 171 1051 0 173 168 174 169
 ?24 29 172 1049 0 174 175 169 .073025 .008 -.003175 18 174 1047 0 176 171 177 1
72 ?24 29 175 1046 0 177 178 172 .073025 .008 -.009525 18 177 1044 0 179 174 180
 175 ?24 29 178 809 0 180 181 175 0 0 -.00635 18 180 807 0 182 177 183 178 ?24 2
9 181 806 0 183 184 178 0 0 -.03175 18 183 804 0 185 180 186 181 ?24 29 184 781
 0 186 187 181 .0372492613140312 .003175 0 18 186 779 0 188 183 189 184 ?24 29 1
87 778 0 189 190 184 .0643507386859688 .003175 0 18 189 776 0 191 186 192 187 ?2
4 29 190 775 0 192 193 187 .00635 0 0 18 192 773 0 194 189 195 190 ?24 29 193 71
4 0 195 196 190 .14605 0 0 18 195 712 0 197 192 198 193 ?24 29 196 711 0 198 199
 193 .1524 0 -.03175 18 198 709 0 200 195 201 196 ?24 29 199 708 0 201 202 196 .
1524 0 -.00635 18 201 706 0 203 198 204 199 ?24 29 202 695 0 204 205 199 .14605
 0 -.0381 18 204 693 0 206 201 207 202 ?24 29 205 686 0 207 208 202 .00635 0 -.0
381 18 207 684 0 209 204 210 205 ?24 29 208 683 0 210 211 205 .0372492613140312
 .003175 -.0381 18 210 681 0 212 207 213 208 ?24 29 211 680 0 213 214 208 .06435
07386859688 .003175 -.0381 18 213 678 0 215 210 216 211 ?24 29 214 432 0 216 217
 211 .06985 0 -.0381 18 216 430 0 218 213 219 214 ?24 29 217 554 0 220 221 214 .
06985 0 0 18 220 509 0 222 219 223 217 ?24 29 221 555 0 223 224 217 .03175 0 0 1
8 223 503 0 225 220 0 221 ?24 29 224 559 0 219 0 221 .03175 0 -.0381 18 219 508
 0 226 216 220 224 ?24 17 226 0 227 228 229 219 230 231 0 232 +15 255 227 78 0 2
33 234 0 17 228 0 227 233 226 207 232 235 0 236 +17 229 0 227 226 215 210 237 23
8 0 230 +17 230 0 239 240 241 210 226 231 0 0 -16 231 844 0 ?226 242 243 244 0 0
 24 17 232 0 245 246 209 219 228 235 0 241 -15 245 442 0 247 46 0 17 246 0 245 2
48 232 223 241 249 0 0 +17 209 0 245 232 247 207 250 251 0 228 +16 235 434 0 ?22
8 252 253 254 252 252 24 17 241 0 239 230 225 219 246 249 0 0 -15 239 940 0 230
 255 0 17 225 0 239 241 240 223 188 243 0 256 -16 249 477 0 ?246 257 238 258 0 0
 24 16 257 489 0 ?259 260 249 261 0 0 24 16 238 679 0 ?229 249 262 263 0 0 24 30
 255 258 540 0 249 261 264 0 +.03175 0 -.0381 0 0 1 30 261 541 0 257 265 258 0 +
.06985 0 -.0381 0 0 1 31 264 403 0 260 258 266 0 +.0508 .022 -.0047752 0 0 1 1 0
 0 .0033782 16 260 365 0 ?267 268 257 264 0 0 24 31 266 402 0 268 264 269 0 +.05
08 .022 -.0047752 0 0 1 1 0 0 .009525 16 268 364 0 ?270 271 260 266 0 0 24 31 26
9 401 0 271 266 272 0 +.0508 .022 0 0 0 1 1 0 0 .009525 16 271 363 0 ?273 274 26
8 269 0 0 24 30 272 292 0 275 269 276 0 +.03175 .022 -.0127 0 0 1 16 275 1190 0
 ?277 278 279 272 0 0 24 30 276 291 0 279 272 280 0 +.06985 .022 -.0127 0 0 1 16
 279 1234 0 ?64 275 274 276 0 0 24 30 280 69 0 278 276 281 0 +0 0 0 0 0 1 16 278
 805 0 ?282 283 275 280 0 0 24 30 281 68 0 284 280 285 0 +0 0 0 1 0 0 16 284 774
 0 ?256 253 283 281 283 283 24 30 285 67 0 253 281 254 0 +.1524 0 0 0 0 -1 16 25
3 707 0 ?286 235 284 285 0 0 24 30 254 66 0 252 285 287 0 +0 0 -.0381 -1 0 0 16
 252 694 0 ?218 288 235 254 235 235 24 31 287 355 0 274 254 289 0 +.0508 .022 -.
0127 0 0 -1 -1 0 0 .0033782 16 274 362 0 ?290 279 271 287 0 0 24 30 289 698 0 28
8 287 291 0 -.00635 .008 -.0381 0 -1 0 16 288 696 0 ?233 292 252 289 0 0 24 30 2
91 703 0 292 289 293 0 +.14605 .008 -.0381 0 -1 0 16 292 1124 0 ?206 294 288 291
 0 0 24 31 293 717 0 294 291 295 0 +.14605 0 -.00635 0 -1 0 0 0 -1 .00635 16 294
 715 0 ?197 296 292 293 0 0 24 31 295 722 0 296 293 297 0 +.14605 0 -.03175 0 -1
 0 0 0 -1 .00635 16 296 720 0 ?200 298 294 295 0 0 24 30 297 733 0 298 295 299 0
 +.1524 .008 -.00635 0 -1 0 16 298 1182 0 ?203 300 296 297 0 0 24 30 299 738 0 3
00 297 301 0 -.1524 .008 -.03175 0 -1 0 16 300 736 0 ?302 303 298 299 0 0 24 30
 301 784 0 303 299 304 0 +.00635 .008 0 0 -1 0 16 303 1132 0 ?194 305 300 301 0
 0 24 30 304 790 0 305 301 306 0 -.14605 .008 0 0 -1 0 16 305 788 0 ?307 308 303
 304 0 0 24 30 306 796 0 308 304 309 0 -.0372492613140312 .003175 -.0381 0 0 1 1
6 308 794 0 ?212 310 305 306 0 0 24 30 309 801 0 310 306 311 0 -.064350738685968
8 .003175 -.0381 0 0 -1 16 310 799 0 ?312 313 308 309 0 0 24 30 311 812 0 313 30
9 314 0 -0 .008 -.00635 0 -1 0 16 313 810 0 ?315 316 310 311 0 0 24 30 314 817 0
 316 311 317 0 +0 .008 -.03175 0 -1 0 16 316 1108 0 ?185 318 313 314 0 0 24 31 3
17 822 0 318 314 319 0 +.00635 0 -.00635 0 -1 0 0 0 -1 .00635 16 318 820 0 ?182
 251 316 317 0 0 24 31 319 827 0 251 317 320 0 +.00635 0 -.03175 0 -1 0 0 0 -1 .
00635 16 251 825 0 ?209 321 318 319 0 0 24 31 320 848 0 321 319 322 0 +.06435073
86859688 -.003175 0 0 0 -1 -1 0 0 .00635 16 321 830 0 ?222 323 251 320 0 0 24 31
 322 849 0 323 320 324 0 +.0643507386859688 -.003175 -.0381 0 0 1 1 0 0 .00635 1
6 323 835 0 ?215 243 321 322 0 0 24 31 324 850 0 243 322 244 0 +.037249261314031
2 -.003175 0 0 0 -1 -1 0 0 .00635 16 243 839 0 ?188 231 323 324 0 0 24 31 244 85
1 0 231 324 325 0 +.0372492613140312 -.003175 -.0381 0 0 1 1 0 0 .00635 30 325 1
050 0 242 244 326 0 +.073025 .008 -.0381 0 0 1 16 242 1048 0 ?176 327 231 325 0
 0 24 30 326 1054 0 327 325 328 0 +0 .008 -.003175 1 0 0 16 327 1052 0 ?173 329
 242 326 0 0 24 31 328 1058 0 329 326 330 0 -.066675 .008 -.009525 0 -1 0 0 0 -1
 .00635 16 329 1056 0 ?331 332 327 328 0 0 24 30 330 1062 0 332 328 333 0 +0 .00
8 -.015875 1 0 0 16 332 1060 0 ?170 334 329 330 0 0 24 31 333 1066 0 334 330 335
 0 -.14605 .008 -.00635 0 -1 0 0 0 -1 .003175 16 334 1064 0 ?164 336 332 333 0 0
 24 31 335 1070 0 336 333 337 0 -.034925 .008 -.009525 0 -1 0 0 0 -1 .00635 16 3
36 1068 0 ?338 339 334 335 0 0 24 30 337 1074 0 339 335 340 0 +.028575 .008 -.03
81 0 0 -1 16 339 1072 0 ?161 341 336 337 0 0 24 30 340 1078 0 341 337 342 0 +.14
9225 .008 -.0381 0 0 -1 16 341 1076 0 ?155 343 339 340 0 0 24 30 342 1082 0 343
 340 344 0 +0 .008 -.003175 1 0 0 16 343 1080 0 ?158 345 341 342 0 0 24 31 344 1
086 0 345 342 346 0 -.14605 .008 -.03175 0 -1 0 0 0 -1 .003175 16 345 1084 0 ?14
9 347 343 344 0 0 24 31 346 1090 0 347 344 348 0 -.00635 .008 -.00635 0 -1 0 0 0
 -1 .003175 16 347 1088 0 ?152 349 345 346 0 0 24 30 348 1094 0 349 346 350 0 +0
 .008 -.034925 -1 0 0 16 349 1092 0 ?143 351 347 348 0 0 24 30 350 1098 0 351 34
8 352 0 +.003175 .008 -.0381 0 0 1 16 351 1096 0 ?146 353 349 350 0 0 24 31 352
 1101 0 353 350 354 0 -.00635 .008 -.03175 0 -1 0 0 0 -1 .003175 16 353 1099 0 ?
355 356 351 352 0 0 24 31 354 1112 0 356 352 357 0 +.00635 .004825 -.03175 0 -1
 0 0 0 -1 .00635 16 356 1110 0 ?358 359 353 354 0 0 24 30 357 1120 0 359 354 360
 0 -0 .004825 0 0 0 1 16 359 1118 0 ?134 361 356 357 0 0 24 30 360 1128 0 361 35
7 362 0 -0 .004825 -.0381 -1 0 0 16 361 1126 0 ?128 363 359 360 0 0 24 31 362 11
36 0 363 360 364 0 +.00635 .004825 -.00635 0 -1 0 0 0 -1 .00635 16 363 1134 0 ?1
31 365 361 362 0 0 24 31 364 1144 0 365 362 366 0 +.14605 .004825 -.03175 0 -1 0
 0 0 -1 .00635 16 365 1142 0 ?122 367 363 364 0 0 24 30 366 1156 0 367 364 368 0
 +.066675 .022 0 0 1 0 16 367 1154 0 ?113 369 365 366 0 0 24 31 368 1160 0 369 3
66 370 0 -.0508 .022 0 0 0 -1 -1 0 0 .015875 16 369 1158 0 ?110 371 367 368 0 0
 24 30 370 1164 0 371 368 372 0 +.034925 .008 0 0 -1 0 16 371 1162 0 ?107 373 36
9 370 0 0 24 31 372 1168 0 373 370 374 0 -.073025 .011175 0 0 0 -1 -1 0 0 .00635
 16 373 1166 0 ?375 376 371 372 0 0 24 30 374 1170 0 376 372 377 0 -0 .004825 0
 1 0 0 16 376 1169 0 ?104 378 373 374 0 0 24 31 377 1174 0 378 374 379 0 -.02857
5 .011175 0 0 0 -1 -1 0 0 .00635 16 378 1172 0 ?380 381 376 377 0 0 24 30 379 11
77 0 381 377 382 0 -0 .004825 0 1 0 0 16 381 1175 0 ?125 383 378 379 0 0 24 30 3
82 1186 0 383 379 384 0 -.1524 .004825 0 0 0 -1 16 383 1184 0 ?98 385 381 382 0
 0 24 30 384 1198 0 385 382 386 0 -.03175 .022 -.003175 0 -1 0 16 385 1196 0 ?92
 387 383 384 0 0 24 30 386 1202 0 387 384 388 0 -.03175 .011175 -.0127 0 0 -1 16
 387 1200 0 ?389 390 385 386 0 0 24 30 388 1205 0 390 386 391 0 +.03175 0 -.0095
25 0 -1 0 16 390 1203 0 ?86 392 387 388 0 0 24 31 391 1210 0 392 388 393 0 +.146
05 .004825 -.00635 0 -1 0 0 0 -1 .00635 16 392 1208 0 ?119 394 390 391 0 0 24 30
 393 1219 0 394 391 395 0 -.066675 .022 -.0127 0 1 0 16 394 1217 0 ?80 396 392 3
93 0 0 24 31 395 1223 0 396 393 397 0 +.0508 .022 -.0127 0 0 -1 -1 0 0 .015875 1
6 396 1221 0 ?83 398 394 395 0 0 24 30 397 1227 0 398 395 399 0 -.034925 .022 -.
0127 0 -1 0 16 398 1225 0 ?77 400 396 397 0 0 24 30 399 1230 0 400 397 401 0 -.0
508 .011175 -.0127 1 0 0 16 400 1228 0 ?402 403 398 399 0 0 24 31 401 1241 0 403
 399 404 0 +.0508 .022 -.003175 0 0 -1 -1 0 0 .01905 16 403 1239 0 ?67 405 400 4
01 0 0 24 31 404 1246 0 405 401 406 0 -.0508 .022 -.009525 0 0 -1 -1 0 0 .01905
 16 405 1244 0 ?95 66 403 404 0 0 24 30 406 1252 0 66 404 407 0 -.06985 .008 -.0
03175 0 1 0 16 66 1250 0 ?60 55 405 406 0 0 24 30 407 1256 0 55 406 56 0 -.06985
 .011175 -.0127 0 0 1 16 55 1254 0 ?57 41 66 407 0 0 24 30 56 1259 0 41 407 408
 0 +.06985 207565556165528e-33 -.009525 0 1 0 31 408 1481 0 409 56 410 0 +.00317
5 .004825 -.03175 0 0 -1 -1 0 0 .003175 16 409 1395 0 ?140 411 0 408 0 0 24 31 4
10 1480 0 411 408 412 0 +.00635 .004825 -.034925 -1 0 0 0 0 1 .003175 16 411 139
3 0 ?137 413 409 410 0 0 24 31 412 1479 0 413 410 414 0 +.003175 .004825 -.00635
 0 0 -1 -1 0 0 .003175 16 413 1390 0 ?415 416 411 412 0 0 24 31 414 1478 0 416 4
12 417 0 +.14605 .004825 -.034925 -1 0 0 0 0 1 .003175 16 416 1387 0 ?418 419 41
3 414 0 0 24 31 417 1477 0 419 414 420 0 +.00635 .004825 -.003175 -1 0 0 0 0 1 .
003175 16 419 1384 0 ?421 422 416 417 0 0 24 31 420 1476 0 422 417 423 0 +.14922
5 .004825 -.03175 0 0 -1 -1 0 0 .003175 16 422 1381 0 ?424 425 419 420 0 0 24 31
 423 1475 0 425 420 426 0 -.028575 .004825 -.003175 1 0 0 0 0 -1 .003175 16 425
 1378 0 ?427 428 422 423 0 0 24 31 426 1474 0 428 423 429 0 +.149225 .004825 -.0
0635 0 0 -1 -1 0 0 .003175 16 428 1375 0 ?430 431 425 426 0 0 24 31 429 1473 0 4
31 426 432 0 +.034925 .011175 -.003175 0 -1 0 0 0 -1 .003175 16 431 1372 0 ?89 4
33 428 429 0 0 24 31 432 1472 0 433 429 434 0 +.028575 .011175 -.003175 0 0 -1 -
1 0 0 .003175 16 433 1371 0 ?435 436 431 432 0 0 24 31 434 1471 0 436 432 437 0
 +.14605 .004825 -.003175 1 0 0 0 0 -1 .003175 16 436 1369 0 ?438 439 433 434 0
 0 24 31 437 1470 0 439 434 440 0 +.034925 .022 -.003175 0 -1 0 0 0 -1 .003175 1
6 439 1366 0 ?441 442 436 437 0 0 24 31 440 1469 0 442 437 443 0 -.028575 .01117
5 -.009525 0 0 1 1 0 0 .003175 16 442 1363 0 ?444 445 439 440 0 0 24 31 443 1468
 0 445 440 446 0 -.073025 .004825 -.003175 -1 0 0 0 0 1 .003175 16 445 1360 0 ?4
47 448 442 443 0 0 24 31 446 1467 0 448 443 449 0 +.066675 .022 -.003175 0 1 0 0
 0 1 .003175 16 448 1357 0 ?450 451 445 446 0 0 24 31 449 1466 0 451 446 452 0 +
.034925 .011175 -.009525 0 -1 0 0 0 -1 .003175 16 451 1355 0 ?74 453 448 449 0 0
 24 31 452 1465 0 453 449 454 0 +.034925 .011175 -.015875 1 0 0 0 0 -1 .003175 1
6 453 1354 0 ?455 456 451 452 0 0 24 31 454 1464 0 456 452 457 0 +.073025 .01117
5 -.003175 0 0 -1 -1 0 0 .003175 16 456 1352 0 ?458 459 453 454 0 0 24 31 457 14
63 0 459 454 460 0 +.066675 .011175 -.003175 0 -1 0 0 0 -1 .003175 16 459 1351 0
 ?461 462 456 457 0 0 24 31 460 1462 0 462 457 463 0 +.034925 .022 -.009525 0 -1
 0 0 0 -1 .003175 16 462 1346 0 ?464 465 459 460 0 0 24 31 463 1461 0 465 460 46
6 0 -.066675 .011175 -.015875 -1 0 0 0 0 1 .003175 16 465 1343 0 ?467 468 462 46
3 0 0 24 31 466 1460 0 468 463 51 0 -.073025 .011175 -.009525 0 0 1 1 0 0 .00317
5 16 468 1340 0 ?469 470 465 466 0 0 24 31 51 1459 0 470 466 38 0 +.066675 .022
 -.009525 0 1 0 0 0 1 .003175 16 470 1337 0 ?471 50 468 51 0 0 24 17 471 0 472 4
73 474 81 475 470 0 0 +16 50 1335 0 ?476 477 470 38 0 0 24 17 476 0 478 479 480
 42 481 50 0 469 +16 477 642 0 ?482 483 50 484 0 0 24 17 482 0 485 482 482 0 486
 477 0 0 +16 483 641 0 ?487 488 477 489 0 0 24 31 484 662 0 477 0 489 0 +.1397 0
 -.0254 0 1 0 0 0 1 .0035 31 489 661 0 483 484 490 0 +.1397 .008 -.0254 0 1 0 0
 0 1 .0035 31 490 621 0 488 489 491 0 +.0127 0 -.0254 0 1 0 0 0 1 .0035 16 488 6
01 0 ?492 493 483 490 0 0 24 31 491 620 0 493 490 263 0 +.0127 .008 -.0254 0 1 0
 0 0 1 .0035 16 493 600 0 ?494 262 488 491 0 0 24 30 263 548 0 238 491 265 0 +.0
3175 .003175 -.0381 -1 0 0 30 265 544 0 262 263 261 0 +.03175 .003175 0 -1 0 0 1
6 262 777 0 ?495 238 493 265 0 0 24 17 495 0 496 212 312 186 497 262 0 240 +15 4
96 517 0 237 498 0 17 212 0 496 237 495 210 240 308 0 229 +17 312 0 496 495 237
 189 499 310 0 497 +17 497 0 500 222 188 189 495 262 0 0 -17 240 0 239 225 230 1
86 212 308 0 0 -15 500 82 0 101 501 0 17 222 0 500 502 497 220 191 321 0 503 +17
 188 0 500 497 256 186 225 243 0 495 +17 256 0 500 188 194 223 248 284 0 246 +17
 194 0 500 256 125 192 504 303 0 505 +17 248 0 245 182 246 192 256 284 0 0 -17 1
82 0 245 247 248 180 505 318 0 282 +17 247 0 245 209 182 183 282 278 0 0 -17 505
 0 506 504 507 192 182 318 0 248 -17 282 0 508 315 185 180 247 278 0 507 +15 508
 84 0 315 509 0 17 315 0 508 134 282 129 507 313 0 510 +17 185 0 508 282 134 183
 511 316 0 250 +17 507 0 506 505 131 180 315 313 0 0 -15 506 982 0 504 512 0 17
 131 0 506 507 504 129 513 363 0 315 +17 504 0 506 131 505 123 194 303 0 514 -17
 513 0 515 421 510 123 131 363 0 0 -15 515 1323 0 421 516 0 17 421 0 515 517 513
 150 514 419 0 0 +17 510 0 515 513 517 129 415 413 0 518 -17 517 0 515 510 421 1
44 152 347 0 415 -17 415 0 519 520 518 144 510 413 0 0 +17 518 0 519 415 521 129
 134 359 0 0 -15 519 1327 0 415 522 0 17 521 0 519 518 520 132 140 409 0 0 -17 1
34 0 508 185 315 132 518 359 0 511 +17 511 0 523 358 250 132 185 316 0 524 -15 5
23 961 0 511 525 0 17 358 0 523 236 511 135 524 356 0 233 +17 250 0 523 511 236
 183 209 251 0 247 -17 524 0 526 140 137 132 358 356 0 521 -15 526 1329 0 137 52
7 0 17 140 0 526 528 524 138 521 409 0 520 +17 137 0 526 524 528 135 529 411 0 5
30 +17 528 0 526 137 140 141 355 353 0 0 -17 529 0 531 532 530 141 137 411 0 528
 -17 530 0 531 529 418 135 128 361 0 358 -15 531 1325 0 418 533 0 17 418 0 531 5
30 532 126 534 416 0 0 +17 128 0 227 206 233 126 530 361 0 535 +17 206 0 227 218
 128 204 535 292 0 536 +17 233 0 227 128 228 135 236 288 0 0 +17 535 0 537 122 5
36 126 206 292 0 538 -15 537 877 0 535 539 0 17 122 0 537 540 535 120 538 365 0
 302 +17 536 0 537 535 540 204 200 296 0 541 -17 538 0 542 534 424 126 122 365 0
 418 -15 542 1321 0 424 543 0 17 534 0 542 544 538 147 418 416 0 532 -17 424 0 5
42 538 544 120 545 422 0 0 +17 544 0 542 424 534 153 149 345 0 0 -17 545 0 546 5
47 548 153 424 422 0 544 -15 546 1317 0 430 549 0 17 547 0 546 430 545 162 155 3
41 0 0 -17 548 0 546 545 430 120 98 383 0 424 -17 430 0 546 548 547 96 550 428 0
 0 +17 98 0 551 203 302 96 548 383 0 552 +15 551 80 0 302 553 0 17 203 0 551 286
 98 201 552 298 0 554 +17 302 0 551 98 286 120 540 300 0 548 +17 552 0 555 119 5
54 96 203 298 0 556 -15 555 898 0 552 557 0 17 119 0 555 558 552 117 556 392 0 3
07 +17 554 0 555 552 558 201 197 294 0 559 -17 556 0 560 550 438 96 119 392 0 43
0 -15 560 1313 0 438 561 0 17 550 0 560 562 556 162 430 428 0 547 -17 438 0 560
 556 562 117 563 436 0 0 +17 562 0 560 438 550 171 164 334 0 0 -17 563 0 564 565
 566 171 438 436 0 562 -15 564 1307 0 447 567 0 17 565 0 564 447 563 174 173 327
 0 0 -17 566 0 564 563 447 117 104 376 0 438 -17 447 0 564 566 565 102 568 445 0
 0 +17 104 0 500 116 307 102 566 376 0 375 +17 116 0 500 113 104 114 375 373 0 5
69 -17 307 0 500 104 502 117 558 305 0 566 +17 375 0 570 568 461 102 116 373 0 4
47 +15 570 1301 0 461 571 0 17 568 0 570 458 375 174 447 445 0 565 -17 461 0 570
 375 458 114 572 459 0 0 +17 458 0 570 461 568 58 573 456 0 0 +17 572 0 574 65 5
69 58 461 459 0 458 -15 574 1299 0 575 576 0 17 65 0 574 575 572 63 60 66 0 450
 -17 569 0 574 572 575 114 113 367 0 461 -17 575 0 574 569 65 111 450 448 0 577
 -17 113 0 500 110 116 111 569 367 0 575 +17 110 0 500 107 113 108 577 369 0 578
 +17 107 0 500 101 110 105 579 371 0 580 +17 577 0 581 450 578 111 110 369 0 0 -
17 578 0 581 577 582 108 441 439 0 579 -15 581 1305 0 450 583 0 17 582 0 581 578
 450 90 67 403 0 441 -17 441 0 584 585 579 90 578 439 0 0 +17 579 0 584 441 580
 108 107 371 0 0 -15 584 1311 0 441 586 0 17 580 0 584 579 585 105 89 431 0 380
 -17 585 0 584 580 441 87 92 385 0 389 -17 89 0 587 435 380 87 580 431 0 588 +17
 380 0 587 89 589 105 101 378 0 0 +15 587 1315 0 89 590 0 17 589 0 587 380 435 9
9 427 425 0 591 -17 101 0 500 125 107 99 380 378 0 589 -17 125 0 500 194 101 123
 591 381 0 504 +17 591 0 592 427 514 99 125 381 0 0 -15 592 1319 0 427 593 0 17
 427 0 592 594 591 156 589 425 0 0 +17 514 0 592 591 594 123 421 419 0 513 -17 5
94 0 592 514 427 150 158 343 0 421 -17 158 0 595 161 152 156 594 343 0 596 +15 5
95 1045 0 143 597 598 17 161 0 595 167 158 159 596 339 0 338 +17 152 0 595 158 1
46 150 517 347 0 594 +17 596 0 599 588 444 156 161 339 0 435 -15 599 1309 0 444
 600 0 17 588 0 599 601 596 87 435 433 0 585 -17 444 0 599 596 601 159 602 442 0
 0 +17 435 0 587 589 89 156 588 433 0 427 +17 601 0 599 444 588 84 389 387 0 0 -
17 602 0 603 74 338 84 444 442 0 601 -15 603 1303 0 455 604 0 17 74 0 603 455 60
2 72 605 451 0 606 +17 338 0 603 602 455 159 167 336 0 444 +17 455 0 603 338 74
 165 606 453 0 0 +17 167 0 595 170 161 165 338 336 0 607 -17 170 0 595 179 167 1
68 607 332 0 331 +17 607 0 608 606 467 165 170 332 0 455 -15 608 1293 0 467 609
 0 17 606 0 608 610 607 72 455 453 0 611 -17 467 0 608 607 610 168 480 465 0 0 +
17 610 0 608 467 606 78 402 400 0 0 -17 480 0 478 476 331 78 467 465 0 610 -15 4
78 1287 0 480 612 0 17 331 0 478 480 479 168 179 329 0 467 +17 479 0 478 331 476
 177 469 468 0 613 -17 179 0 595 176 170 177 331 329 0 479 -17 176 0 595 173 179
 174 613 242 0 573 +17 173 0 595 164 176 171 565 327 0 563 +17 613 0 614 469 573
 177 176 242 0 0 -17 573 0 614 613 61 174 458 456 0 568 -15 614 1291 0 469 615 0
 17 61 0 614 573 469 58 57 55 0 572 -17 469 0 614 61 613 42 479 468 0 0 +14 255
 615 1290 616 ?609 617 614 36 618 -0 0 609 617 53 81 1 616 2050 619 615 620 0 62
1 622 623 14 609 1292 622 ?624 615 608 36 625 -0 0 624 615 53 14 617 1288 621 ?6
15 612 472 36 626 +0 0 615 612 53 51 618 1439 0 615 625 626 0 +.073025 .011175 -
.0381 0 0 1 .003175 1 0 0 13 53 29 0 0 0 0 0 0 40 46 14 46 439 627 ?509 0 628 36
 629 +630 630 509 0 53 81 1 627 2024 619 46 631 0 0 632 633 14 509 85 632 ?501 4
6 508 36 634 -0 0 501 46 53 15 628 594 0 492 46 245 50 255 629 65 0 630 635 636
 0 +0 0 -.0381 0 -1 0 0 0 -1 14 630 43 637 ?638 597 485 36 629 +46 46 638 597 53
 81 1 637 2030 619 630 639 0 640 641 642 14 638 242 641 ?643 630 644 36 645 +0 0
 643 630 53 14 597 1 640 ?630 234 595 36 635 -0 0 630 234 53 15 485 634 0 482 63
0 646 15 646 437 0 541 630 0 17 541 0 646 200 647 204 218 252 0 0 -17 200 0 646
 559 541 198 536 296 0 286 +17 647 0 646 541 503 216 259 257 0 648 -17 218 0 227
 215 206 216 541 252 0 647 +17 215 0 227 229 218 213 648 323 0 237 +17 648 0 649
 259 499 216 215 323 0 0 -17 237 0 496 312 212 213 229 238 0 499 -17 499 0 649 6
48 191 213 312 310 0 0 -15 649 919 0 648 650 0 17 191 0 649 499 259 189 222 321
 0 312 -17 259 0 649 191 648 220 647 257 0 0 +14 650 918 651 ?255 557 649 36 652
 -0 0 255 557 53 81 1 651 2043 619 650 653 0 654 655 656 14 255 939 655 ?525 650
 239 36 657 -0 0 525 650 53 14 557 897 654 ?650 539 555 36 658 +0 0 650 539 53 5
1 652 930 0 650 658 657 0 +.0643507386859688 -.003175 -.0381 0 0 -1 .00635 -1 0
 0 51 658 909 0 557 659 652 0 +.14605 .008 -.00635 0 -1 0 .00635 0 0 -1 51 657 9
51 0 255 652 660 0 +.0372492613140312 -.003175 -.0381 0 0 1 .00635 1 0 0 51 660
 972 0 525 657 661 0 +.00635 .008 -.03175 0 -1 0 .00635 0 0 -1 14 525 960 662 ?5
12 255 523 36 660 +0 0 512 255 53 51 661 993 0 512 660 663 0 +.00635 .008 -.0063
5 0 -1 0 .00635 0 0 -1 14 512 981 664 ?48 525 506 36 661 +0 0 48 525 53 54 255 6
63 1457 0 527 661 665 0 +.00635 .004825 -.03175 0 -1 0 .003175 .003175 0 0 -1 14
 527 1328 666 ?0 522 526 36 663 +0 0 0 522 53 51 665 1456 0 522 663 667 0 +.0031
75 .004825 -.0381 0 0 1 .003175 1 0 0 14 522 1326 668 ?527 533 519 36 665 +0 0 5
27 533 53 51 667 1455 0 533 665 669 0 +0 .004825 -.034925 -1 0 0 .003175 0 0 1 1
4 533 1324 670 ?522 516 531 36 667 +0 0 522 516 53 54 669 1454 0 516 667 671 0 +
.00635 .004825 -.00635 0 -1 0 .003175 .003175 0 0 -1 14 516 1322 672 ?533 543 51
5 36 669 +0 0 533 543 53 54 671 1453 0 543 669 673 0 +.14605 .004825 -.03175 0 -
1 0 .003175 .003175 0 0 -1 14 543 1320 674 ?516 593 542 36 671 +0 0 516 593 53 5
1 673 1452 0 593 671 675 0 +0 .004825 -.003175 1 0 0 .003175 0 0 -1 14 593 1318
 676 ?543 549 592 36 673 +0 0 543 549 53 51 675 1451 0 549 673 677 0 +.149225 .0
04825 -.0381 0 0 -1 .003175 -1 0 0 14 549 1316 678 ?593 590 546 36 675 +0 0 593
 590 53 54 677 1450 0 590 675 679 0 +.028575 .011175 -.003175 0 0 -1 .00635 .003
175 -1 0 0 14 590 1314 680 ?549 561 587 36 677 +0 0 549 561 53 54 679 1449 0 561
 677 681 0 +.14605 .004825 -.00635 0 -1 0 .003175 .003175 0 0 -1 14 561 1312 682
 ?590 586 560 36 679 +0 0 590 586 53 51 681 1448 0 586 679 683 0 +.034925 .008 -
.003175 0 1 0 .003175 0 0 1 14 586 1310 684 ?561 600 584 36 681 +0 0 561 600 53
 51 683 1447 0 600 681 685 0 +.028575 .011175 -.0381 0 0 -1 .003175 -1 0 0 14 60
0 1308 686 ?586 567 599 36 683 -0 0 586 567 53 51 685 1446 0 567 683 687 0 +0 .0
04825 -.003175 1 0 0 .003175 0 0 -1 14 567 1306 688 ?600 583 564 36 685 +0 0 600
 583 53 54 687 1445 0 583 685 689 0 +.0508 .022 -.003175 0 0 -1 .015875 .003175
 -1 0 0 14 583 1304 690 ?567 604 581 36 687 +0 0 567 604 53 54 689 1444 0 604 68
7 691 0 +.034925 .011175 -.009525 0 -1 0 .00635 .003175 0 0 -1 14 604 1302 692 ?
583 571 603 36 689 -0 0 583 571 53 54 691 1443 0 571 689 693 0 +.073025 .011175
 -.003175 0 0 -1 .00635 .003175 -1 0 0 14 571 1300 694 ?604 576 570 36 691 +0 0
 604 576 53 51 693 1442 0 576 691 695 0 +.066675 .008 -.003175 0 -1 0 .003175 0
 0 -1 14 576 1298 696 ?571 624 574 36 693 +0 0 571 624 53 51 695 1441 0 624 693
 625 0 +.034925 0 -.009525 0 -1 0 .003175 0 0 -1 14 624 1294 697 ?576 609 698 36
 695 +0 0 576 609 53 51 625 1440 0 609 695 618 0 +0 .011175 -.015875 1 0 0 .0031
75 0 0 -1 81 1 697 2052 619 624 699 0 622 696 700 15 698 1295 0 464 624 0 17 464
 0 698 611 701 75 702 462 0 0 +17 611 0 698 605 464 72 77 398 0 402 -17 701 0 69
8 464 605 93 86 390 0 0 -17 702 0 472 474 473 93 464 462 0 701 -15 472 1289 0 47
1 617 0 17 474 0 472 471 702 68 95 405 0 0 -17 473 0 472 702 471 75 83 396 0 464
 -17 83 0 703 80 77 81 473 396 0 704 +15 703 1214 0 80 705 706 17 80 0 703 402 8
3 78 704 394 0 481 +17 77 0 703 83 402 75 611 398 0 473 +17 704 0 707 475 481 81
 80 394 0 471 -15 707 1285 0 481 48 0 17 475 0 707 62 704 68 471 470 0 474 -17 4
81 0 707 704 62 78 476 50 0 480 -17 62 0 707 481 475 42 54 41 0 476 -17 54 0 59
 64 57 68 62 41 0 708 +15 59 249 0 57 643 0 17 64 0 59 60 54 63 708 279 0 65 +17
 708 0 709 95 67 68 64 279 0 475 -15 709 267 0 708 710 0 17 95 0 709 277 708 93
 474 405 0 711 +17 67 0 709 708 277 63 582 403 0 64 +17 277 0 709 67 95 90 711 2
75 0 582 +17 711 0 644 86 92 93 277 275 0 702 -15 644 245 0 711 638 0 17 86 0 64
4 389 711 84 701 390 0 605 +17 92 0 644 711 389 90 585 385 0 277 +17 389 0 644 9
2 86 87 601 387 0 0 +17 605 0 698 701 611 84 74 451 0 602 -14 710 264 712 ?713 7
05 709 36 714 +0 0 713 705 53 81 1 712 2034 619 710 715 0 716 717 718 14 713 375
 717 ?719 710 720 36 721 -0 0 719 710 53 14 705 250 716 ?710 643 703 36 722 +0 0
 710 643 53 51 714 282 0 710 645 723 0 +.0508 .022 -.0127 0 0 1 .01905 1 0 0 50
 645 283 0 638 722 714 0 +.03175 0 -.0127 -1 0 0 0 0 1 50 723 281 0 643 714 635
 0 +.06985 207565556165528e-33 -.0127 1 0 0 0 0 -1 14 643 246 724 ?705 638 59 36
 723 +0 0 705 638 53 50 635 2 0 597 723 629 0 +0 .008 -.0381 0 -1 0 0 0 -1 81 1
 724 2032 619 643 725 0 641 716 726 80 255 1 619 0 727 8001 0 0 0 0 3 5 0 0 0 FF
FFTFTFFFFFFF2 81 1 725 1999 728 643 0 724 729 730 731 81 1 641 2031 619 638 732
 0 637 724 733 81 1 716 2033 619 705 729 0 724 712 734 83 255 3 726 .79215686274
5098 .819607843137255 .933333333333333 81 1 729 1997 728 705 0 716 735 725 736 8
3 3 734 .792156862745098 .819607843137255 .933333333333333 80 1 728 737 738 9000
 1 1 1 1 1 1 1 1 0 FFFFTFTFFFFFFF1 81 1 735 1995 728 713 0 717 715 729 739 82 25
5 1 736 -1690172968 81 1 717 2035 619 713 735 0 712 740 741 81 1 715 1993 728 71
0 0 712 699 735 742 82 1 739 -1662975533 81 1 699 1991 728 624 0 697 743 715 744
 82 1 742 -1697644072 81 1 743 1989 728 576 0 696 745 699 746 82 1 744 -15243013
52 81 1 696 2053 619 576 743 0 697 694 747 81 1 745 1987 728 571 0 694 748 743 7
49 82 1 746 -1525022248 81 1 694 2054 619 571 745 0 696 692 750 81 1 748 1985 72
8 604 0 692 751 745 752 82 1 749 -1526201896 81 1 692 2055 619 604 748 0 694 690
 753 81 1 751 1983 728 583 0 690 754 748 755 82 1 752 -1527381544 81 1 690 2056
 619 583 751 0 692 688 756 81 1 754 1981 728 567 0 688 757 751 758 82 1 755 -152
8495656 81 1 688 2057 619 567 754 0 690 686 759 81 1 757 1979 728 600 0 686 760
 754 761 82 1 758 -1529609768 81 1 686 2058 619 600 757 0 688 684 762 81 1 760 1
977 728 586 0 684 763 757 764 82 1 761 -1530723880 81 1 684 2059 619 586 760 0 6
86 682 765 81 1 763 1975 728 561 0 682 766 760 767 82 1 764 -1531837992 81 1 682
 2060 619 561 763 0 684 680 768 81 1 766 1973 728 590 0 680 769 763 770 82 1 767
 -1533017640 81 1 680 2061 619 590 766 0 682 678 771 81 1 769 1971 728 549 0 678
 772 766 773 82 1 770 -1534131752 81 1 678 2062 619 549 769 0 680 676 774 81 1 7
72 1969 728 593 0 676 775 769 776 82 1 773 -1535245864 81 1 676 2063 619 593 772
 0 678 674 777 81 1 775 1967 728 543 0 674 778 772 779 82 1 776 -1536359976 81 1
 674 2064 619 543 775 0 676 672 780 81 1 778 1965 728 516 0 672 781 775 782 82 1
 779 -1537474088 81 1 672 2065 619 516 778 0 674 670 783 81 1 781 1963 728 533 0
 670 784 778 785 82 1 782 -1538588200 81 1 670 2066 619 533 781 0 672 668 786 81
 1 784 1961 728 522 0 668 787 781 788 82 1 785 -1539702312 81 1 668 2067 619 522
 784 0 670 666 789 81 1 787 1959 728 527 0 666 790 784 791 82 1 788 -1540881960
 81 1 666 2068 619 527 787 0 668 0 792 81 1 790 1957 728 512 0 664 793 787 794 8
2 1 791 -1542454824 81 1 664 2046 619 512 790 0 662 795 796 81 1 793 1955 728 52
5 0 662 797 790 798 82 1 794 -1569979944 81 1 662 2045 619 525 793 0 655 664 799
 81 1 797 1953 728 557 0 654 800 793 801 82 1 798 -1571946024 81 1 654 2042 619
 557 797 0 802 651 803 81 1 800 1951 728 255 0 655 653 797 804 82 1 801 -1577844
264 81 1 655 2044 619 255 800 0 651 662 805 81 1 653 1949 728 650 0 651 806 800
 807 82 1 804 -1573912105 81 1 806 1947 728 597 0 640 732 653 808 82 1 807 -1575
878185 81 1 640 2029 619 597 806 0 809 637 810 81 1 732 1945 728 638 0 641 639 8
06 811 82 1 808 -1845100072 81 1 639 1943 728 630 0 637 812 732 813 82 1 811 -16
89189928 81 1 812 1941 728 509 0 632 631 639 814 82 1 813 -1839463977 81 1 632 2
025 619 509 812 0 627 815 816 81 1 631 1939 728 46 0 627 817 812 818 82 1 814 -1
837760040 81 1 817 1937 728 617 0 621 819 631 820 82 1 818 -1627192873 81 1 621
 2049 619 617 817 0 821 616 822 81 1 819 1935 728 609 0 622 620 817 823 82 1 820
 -1520959016 81 1 622 2051 619 609 819 0 616 697 824 81 1 620 1933 728 615 0 616
 0 819 825 82 1 823 -1523187240 82 1 825 -1522073128 83 3 824 .792156862745098 .
819607843137255 .933333333333333 81 1 821 2048 619 612 826 0 795 621 827 83 3 82
2 .792156862745098 .819607843137255 .933333333333333 14 612 1286 821 ?617 48 478
 36 49 -0 0 617 48 53 81 1 826 2015 728 612 0 821 828 829 830 81 1 795 2047 619
 48 828 0 664 821 831 83 3 827 .792156862745098 .819607843137255 .93333333333333
3 14 48 1284 795 ?612 512 707 36 37 +0 0 612 512 53 81 1 828 2013 728 48 0 795 8
32 826 833 83 3 831 .792156862745098 .819607843137255 .933333333333333 81 1 832
 2011 728 539 0 802 834 828 835 82 1 833 -1519451688 14 539 876 802 ?557 836 537
 36 659 +0 0 557 836 53 81 1 802 2041 619 539 832 0 837 654 838 81 1 834 2009 72
8 836 0 837 839 832 840 82 1 835 -1579810344 14 836 647 837 ?539 841 842 36 843
 -0 0 539 841 53 81 1 837 2040 619 836 834 0 844 802 845 81 1 839 2007 728 841 0
 844 846 834 847 82 1 840 -1606811178 14 841 606 844 ?836 498 848 36 849 -0 0 83
6 498 53 81 1 844 2039 619 841 839 0 850 837 851 81 1 846 2005 728 498 0 850 852
 839 853 82 1 847 -1590165034 14 498 514 850 ?841 854 496 36 855 -0 0 841 854 53
 81 1 850 2038 619 498 846 0 856 844 857 81 1 852 2003 728 854 0 856 730 846 858
 82 1 853 -1631649321 14 854 385 856 ?498 719 859 36 860 -0 0 498 719 53 81 1 85
6 2037 619 854 852 0 740 850 861 81 1 730 2001 728 719 0 740 725 852 862 82 1 85
8 -1664155181 14 719 380 740 ?854 713 863 36 864 -0 0 854 713 53 81 1 740 2036 6
19 719 730 0 717 856 865 82 1 862 -1663565357 83 3 865 .792156862745098 .8196078
43137255 .933333333333333 15 863 383 0 866 719 867 50 864 398 0 719 860 721 0 +.
0541782 .022 -.0047752 0 0 -1 -1 0 0 51 860 399 0 854 855 864 0 +.0508 .022 0 0
 0 1 .0033782 1 0 0 51 721 397 0 713 864 722 0 +.0508 .022 0 0 0 1 .009525 1 0 0
 50 722 285 0 705 721 645 0 +.0508 .022 -.0127 0 0 -1 -1 0 0 50 855 537 0 498 84
9 860 0 +.03175 .003175 -.0381 0 1 0 0 0 1 51 849 618 0 841 843 855 0 +.0127 .00
8 -.0254 0 1 0 .0035 0 0 1 51 843 659 0 836 0 849 0 +.1397 .008 -.0254 0 1 0 .00
35 0 0 1 17 866 0 863 866 866 0 267 260 0 0 -15 867 384 0 270 719 0 17 270 0 867
 270 270 0 868 268 0 0 +17 868 0 720 868 868 0 270 268 0 0 -15 720 378 0 868 713
 869 15 869 379 0 273 713 0 17 273 0 869 273 273 0 870 271 0 0 +17 870 0 871 870
 870 0 273 271 0 0 -15 871 344 0 870 501 500 14 501 83 815 ?553 509 871 36 872 -
0 0 553 509 53 81 1 815 2026 619 501 829 0 632 873 874 14 553 81 873 ?234 501 55
1 36 875 -0 0 234 501 53 50 872 88 0 501 875 634 0 +0 .008 0 0 0 -1 -1 0 0 50 87
5 87 0 553 636 872 0 +.1524 .008 0 -1 0 0 0 0 1 50 634 89 0 509 872 659 0 +0 .00
8 0 1 0 0 0 0 -1 51 659 888 0 539 634 658 0 +.14605 .008 -.03175 0 -1 0 .00635 0
 0 -1 50 636 86 0 234 629 875 0 +0 .008 -.0381 0 0 1 1 0 0 14 234 79 809 ?597 55
3 227 36 636 -0 0 597 553 53 81 1 809 2028 619 234 876 0 873 640 877 81 1 876 20
22 728 234 0 809 878 0 879 81 1 873 2027 619 553 878 0 815 809 880 83 3 877 .792
156862745098 .819607843137255 .933333333333333 81 1 878 2020 728 553 0 873 829 8
76 881 83 3 880 .792156862745098 .819607843137255 .933333333333333 81 1 829 2017
 728 501 0 815 826 878 882 82 1 881 -1838284328 82 1 882 -1838022184 82 1 879 -1
838546472 83 3 874 .792156862745098 .819607843137255 .933333333333333 17 267 0 8
83 267 267 0 866 260 0 0 +15 883 389 0 267 854 0 83 3 861 .792156862745098 .8196
07843137255 .933333333333333 15 859 388 0 290 854 883 17 290 0 859 290 290 0 884
 274 0 0 +17 884 0 706 884 884 0 290 274 0 0 -15 706 354 0 884 705 0 83 3 857 .7
92156862745098 .819607843137255 .933333333333333 83 3 851 .792156862745098 .8196
07843137255 .933333333333333 15 848 609 0 885 841 886 17 885 0 848 885 885 0 492
 488 0 0 -15 886 610 0 494 841 0 17 494 0 886 494 494 0 887 493 0 0 +17 887 0 88
8 887 887 0 494 493 0 0 -15 888 584 0 887 597 0 17 492 0 628 492 492 0 885 488 0
 0 +83 3 845 .792156862745098 .819607843137255 .933333333333333 15 842 650 0 486
 836 889 17 486 0 842 486 486 0 482 477 0 0 -15 889 651 0 487 836 0 17 487 0 889
 487 487 0 890 483 0 0 +17 890 0 598 890 890 0 487 483 0 0 -15 598 624 0 890 597
 888 83 3 838 .792156862745098 .819607843137255 .933333333333333 82 1 830 -15198
44904 54 49 1437 0 612 626 37 0 +.066675 .011175 -.009525 0 -1 0 .00635 .003175
 0 0 -1 54 626 1438 0 617 618 49 0 +.0508 .022 -.009525 0 0 -1 .015875 .003175 -
1 0 0 83 3 816 .792156862745098 .819607843137255 .933333333333333 83 3 810 .7921
56862745098 .819607843137255 .933333333333333 83 3 805 .792156862745098 .8196078
43137255 .933333333333333 83 3 803 .792156862745098 .819607843137255 .9333333333
33333 83 3 799 .792156862745098 .819607843137255 .933333333333333 83 3 796 .7921
56862745098 .819607843137255 .933333333333333 83 3 792 .792156862745098 .8196078
43137255 .933333333333333 83 3 789 .792156862745098 .819607843137255 .9333333333
33333 83 3 786 .792156862745098 .819607843137255 .933333333333333 83 3 783 .7921
56862745098 .819607843137255 .933333333333333 83 3 780 .792156862745098 .8196078
43137255 .933333333333333 83 3 777 .792156862745098 .819607843137255 .9333333333
33333 83 3 774 .792156862745098 .819607843137255 .933333333333333 83 3 771 .7921
56862745098 .819607843137255 .933333333333333 83 3 768 .792156862745098 .8196078
43137255 .933333333333333 83 3 765 .792156862745098 .819607843137255 .9333333333
33333 83 3 762 .792156862745098 .819607843137255 .933333333333333 83 3 759 .7921
56862745098 .819607843137255 .933333333333333 83 3 756 .792156862745098 .8196078
43137255 .933333333333333 83 3 753 .792156862745098 .819607843137255 .9333333333
33333 83 3 750 .792156862745098 .819607843137255 .933333333333333 83 3 747 .7921
56862745098 .819607843137255 .933333333333333 83 3 741 .792156862745098 .8196078
43137255 .933333333333333 79 255 14 738 SWEntUnchanged83 3 733 .792156862745098
 .819607843137255 .933333333333333 82 1 731 -1689714216 79 15 727 SDL/TYSA_COLOU
R83 3 718 .792156862745098 .819607843137255 .933333333333333 17 402 0 703 77 80
 72 610 400 0 0 +83 3 700 .792156862745098 .819607843137255 .933333333333333 83
 3 656 .792156862745098 .819607843137255 .933333333333333 17 503 0 646 647 197 2
20 502 283 0 259 -17 197 0 646 503 559 195 554 294 0 502 +17 502 0 500 307 222 1
95 503 283 0 558 +16 283 428 0 ?502 284 278 281 284 284 24 17 558 0 555 554 119
 195 307 305 0 0 -17 559 0 646 197 200 201 286 253 0 0 -17 286 0 551 302 203 198
 559 253 0 540 +17 540 0 537 536 122 198 302 300 0 0 -83 3 642 .792156862745098
 .819607843137255 .933333333333333 83 3 633 .792156862745098 .819607843137255 .9
33333333333333 83 3 623 .792156862745098 .819607843137255 .933333333333333 17 16
4 0 595 155 173 162 562 334 0 550 +17 155 0 595 149 164 153 547 341 0 545 +17 14
9 0 595 143 155 147 544 345 0 534 +17 143 0 595 355 149 141 532 349 0 529 +17 35
5 0 595 146 143 138 528 353 0 0 +17 532 0 531 418 529 147 143 349 0 0 -17 146 0
 595 152 355 144 520 351 0 517 +17 520 0 519 521 415 138 146 351 0 355 -17 450 0
 581 582 577 63 575 448 0 0 +17 236 0 523 250 358 207 233 288 0 0 -19 47 95 0 24
 0 40 36 S0 74 4 CI16 index_map_offset0 0 1 dCCZ20 45 4 0 0 876 43 666 33 0 0 0
 0 0 0 0 0 0 0 0 0 0 0 0 0 81 2 43 1621 891 24 0 33 0 0 892 0 80 2 891 893 894 8
004 0 0 0 0 3 5 0 0 0 FFTFFFFFFFFFFF2 3 83 1 892 1 79 16 894 SDL/TYSA_DENSITY80
 1 5 895 896 8017 0 0 0 0 0 0 0 0 0 TTTTTTTTTTTTTF3 84 255 4 44 Part79 13 896 SD
L/TYSA_NAME81 1 22 342 5 12 897 0 0 0 898 70 23 0 4 T12 0 0 4 20 1 899 899 13 25
 94 0 12 0 900 0 0 901 0 50 26 89 0 902 903 0 0 +-.01252406272943156 -.005 .0125
032960756556 1 0 0 0 0 -1 30 27 93 0 30 904 0 0 +-.01252406272943156 -.005 -.052
9100644571653 0 1 0 29 28 70 0 905 906 0 -.01252406272943156 0 .0125032960756556
 19 29 28 0 12 901 0 907 V0 16 30 77 0 ?908 0 909 27 0 0 12 18 31 25 0 910 0 911
 912 ?12 17 910 0 913 914 915 31 916 917 0 918 +18 911 22 0 915 31 919 920 ?12 2
9 912 27 0 31 920 921 -.01252406272943156 -.005 .0125032960756556 29 920 24 0 91
1 922 912 .1622960267550095 -.005 .0125032960756556 29 921 73 0 923 912 924 -.01
252406272943156 0 -.0529100644571653 18 923 64 0 925 926 0 921 ?12 29 924 72 0 9
26 921 906 .1622960267550095 0 -.0529100644571653 18 926 63 0 927 928 923 924 ?1
2 29 906 71 0 928 924 28 .1622960267550095 0 .0125032960756556 18 928 62 0 929 9
05 926 906 ?12 17 929 0 930 931 932 928 933 934 0 935 +18 905 61 0 936 937 928 2
8 ?12 17 936 0 938 918 935 905 939 940 0 941 +18 937 16 0 942 919 905 943 ?12 17
 942 0 944 908 945 937 946 947 0 914 -18 919 19 0 946 911 937 922 ?12 29 943 18
 0 937 0 922 -.01252406272943156 -.005 -.0529100644571653 29 922 21 0 919 943 92
0 .1622960267550095 -.005 -.0529100644571653 17 946 0 913 915 914 919 942 947 0
 945 +15 913 3 0 914 900 948 17 915 0 913 910 946 911 949 950 0 931 +17 914 0 91
3 946 910 937 951 952 0 953 +16 947 7 0 ?946 950 952 954 0 0 12 17 945 0 944 942
 927 919 932 909 0 949 -15 944 82 0 927 955 0 17 927 0 944 945 908 926 925 956 0
 932 +17 932 0 930 929 949 926 945 909 0 933 +16 909 76 0 ?932 30 957 904 0 0 12
 17 949 0 930 932 931 919 915 950 0 0 -15 930 80 0 929 958 0 17 931 0 930 949 92
9 911 935 957 0 916 -16 950 10 0 ?915 917 947 959 0 0 12 16 917 13 0 ?910 960 95
0 961 0 0 12 30 959 11 0 950 954 961 0 +.1622960267550095 -.005 .012503296075655
6 0 0 1 30 954 8 0 947 962 959 0 +-.01252406272943156 -.005 -.0529100644571653 1
 0 0 30 961 14 0 917 959 963 0 +-.01252406272943156 -.005 .0125032960756556 -1 0
 0 30 963 69 0 964 961 965 0 +-.01252406272943156 0 .0125032960756556 0 0 -1 16
 964 57 0 ?966 956 967 963 0 0 12 30 965 68 0 956 963 968 0 +-.01252406272943156
 0 -.0529100644571653 1 0 0 16 956 53 0 ?927 934 964 965 0 0 12 30 968 67 0 934
 965 969 0 +.1622960267550095 0 .0125032960756556 0 0 1 16 934 49 0 ?929 940 956
 968 0 0 12 30 969 66 0 940 968 970 0 +-.01252406272943156 0 .0125032960756556 -
1 0 0 16 940 45 0 ?936 952 934 969 0 0 12 30 970 90 0 960 969 971 0 +-.012524062
72943156 -.005 .0125032960756556 0 1 0 16 960 74 0 ?941 957 917 970 0 0 12 30 97
1 91 0 957 970 904 0 +.1622960267550095 -.005 .0125032960756556 0 1 0 16 957 75
 0 ?935 909 960 971 0 0 12 30 904 92 0 909 971 27 0 +.1622960267550095 -.005 -.0
529100644571653 0 1 0 17 935 0 938 936 916 928 931 957 0 939 +15 938 78 0 936 97
2 0 17 916 0 938 935 918 911 910 917 0 0 -17 939 0 973 933 974 928 936 940 0 0 -
15 973 44 0 974 975 976 17 933 0 973 925 939 926 929 934 0 0 -17 974 0 973 939 9
25 905 966 964 0 0 -17 925 0 973 974 933 923 927 956 0 908 -17 966 0 977 953 941
 923 974 964 0 0 +15 977 84 0 966 902 0 17 953 0 977 951 966 937 908 30 0 0 -17
 941 0 977 966 951 905 918 960 0 974 +17 951 0 977 941 953 31 914 952 0 0 -17 91
8 0 938 916 936 31 941 960 0 951 -16 952 4 0 ?914 947 940 962 0 0 12 30 962 5 0
 952 978 954 0 +-.01252406272943156 -.005 .0125032960756556 0 0 -1 31 978 142 0
 979 980 962 0 +.1397 0 -.0254 0 -1 0 0 0 -1 .0035 16 979 120 0 ?981 967 982 978
 0 0 12 31 980 143 0 967 983 978 0 +.1397 -.005 -.0254 0 -1 0 0 0 -1 .0035 16 96
7 123 0 ?984 964 979 980 0 0 12 31 983 180 0 985 986 980 0 +.0127 0 -.0254 0 -1
 0 0 0 -1 .0035 16 985 158 0 ?987 982 0 983 0 0 12 31 986 181 0 982 0 983 0 +.01
27 -.005 -.0254 0 -1 0 0 0 -1 .0035 16 982 161 0 ?988 979 985 986 0 0 12 17 988
 0 989 988 988 0 990 982 0 0 +15 989 167 0 988 991 992 17 990 0 948 990 990 0 98
8 982 0 0 -15 948 152 0 990 900 0 14 900 155 993 ?975 0 994 25 995 +0 0 975 0 90
7 81 1 993 334 619 900 996 0 0 997 998 14 975 149 997 ?902 900 973 25 999 -0 0 9
02 900 907 15 994 114 0 1000 900 913 50 995 2 0 900 1001 999 0 +0 -.005 0 0 -1 0
 0 0 -1 13 907 29 0 0 0 0 0 0 29 900 51 1001 139 0 1002 1003 995 0 -.1397 -.005
 -.0254 0 1 0 .0035 0 0 1 50 999 65 0 975 995 1004 0 +0 0 0 0 -1 0 0 0 -1 50 100
4 86 0 972 999 1005 0 +-.01252406272943156 -.005 .0125032960756556 0 0 -1 -1 0 0
 14 972 79 1006 ?1002 958 938 25 1004 -0 0 1002 958 907 50 1005 87 0 958 1004 90
3 0 +.1622960267550095 -.005 .0125032960756556 -1 0 0 0 0 1 14 958 81 1007 ?972
 955 930 25 1005 -0 0 972 955 907 50 903 88 0 955 1005 26 0 +-.01252406272943156
 -.005 -.0529100644571653 0 0 1 1 0 0 14 955 83 1008 ?958 902 944 25 903 -0 0 95
8 902 907 81 1 1008 337 619 955 1009 0 1010 1007 1011 14 902 85 1010 ?955 975 97
7 25 26 -0 0 955 975 907 81 1 1010 336 619 902 1012 0 997 1008 1013 81 1 1012 32
8 728 902 0 1010 1009 1014 1015 81 1 997 335 619 975 1016 0 993 1010 1017 83 3 1
013 .792156862745098 .819607843137255 .933333333333333 81 1 1016 320 728 975 0 9
97 996 1018 1019 83 3 1017 .792156862745098 .819607843137255 .933333333333333 81
 1 996 318 728 900 0 993 0 1016 1020 81 1 1018 322 728 972 0 1006 1016 1021 1022
 82 1 1019 -1446379044 81 1 1006 339 619 972 1018 0 1007 1023 1024 81 1 1021 324
 728 958 0 1007 1018 1009 1025 82 1 1022 -1459093028 81 1 1007 338 619 958 1021
 0 1008 1006 1026 81 1 1009 326 728 955 0 1008 1021 1012 1027 82 1 1025 -1458830
884 82 1 1027 -1458568740 83 3 1026 .792156862745098 .819607843137255 .933333333
333333 81 1 1023 340 619 1002 1028 0 1006 1029 1030 83 3 1024 .792156862745098 .
819607843137255 .933333333333333 14 1002 126 1023 ?991 972 1031 25 1001 +0 0 991
 972 907 81 1 1028 332 728 1002 0 1023 1014 0 1032 81 1 1029 341 619 991 1014 0
 1023 0 1033 83 3 1030 .792156862745098 .819607843137255 .933333333333333 14 991
 164 1029 ?0 1002 989 25 1003 +0 0 0 1002 907 81 1 1014 330 728 991 0 1029 1012
 1028 1034 83 3 1033 .792156862745098 .819607843137255 .933333333333333 82 1 103
4 -1449393700 51 1003 177 0 991 0 1001 0 -.0127 -.005 -.0254 0 1 0 .0035 0 0 1 8
2 1 1032 -1453456932 15 1031 129 0 984 1002 1035 17 984 0 1031 984 984 0 1000 96
7 0 0 +15 1035 130 0 1036 1002 0 17 1036 0 1035 1036 1036 0 981 979 0 0 -17 981
 0 976 981 981 0 1036 979 0 0 +15 976 109 0 981 975 1037 15 1037 147 0 987 975 0
 17 987 0 1037 987 987 0 1038 985 0 0 +17 1038 0 992 1038 1038 0 987 985 0 0 -15
 992 168 0 1038 991 0 17 1000 0 994 1000 1000 0 984 967 0 0 -82 1 1020 -14458547
56 82 1 1015 -1458306596 83 3 1011 .792156862745098 .819607843137255 .9333333333
33333 83 3 998 .792156862745098 .819607843137255 .933333333333333 17 908 0 944 9
27 942 923 953 30 0 966 +19 901 95 0 12 0 29 25 S0 74 20 899 4 0 0 1028 897 1029
 22 0 0 0 0 0 0 0 0 0 0 0 0 0 0 0 0 81 2 897 222 891 12 0 22 0 0 1039 0 83 1 103
9 1 84 4 898 Part81 1 10 838 5 7 1040 0 0 0 1041 70 11 0 4 T7 0 0 4 20 1 1042 10
42 13 13 29 0 7 0 1043 0 0 1044 0 51 14 28 0 1045 1046 0 0 -0 0 .018 0 0 -1 .005
 -1 0 0 31 15 70 0 1047 1048 0 0 +0 0 .0155 0 0 -1 -1 0 0 .005 19 16 7 0 7 1044
 0 1049 V0 16 17 4 0 ?1050 0 1051 1052 0 0 7 17 1050 0 1053 1050 1050 0 1054 17
 0 0 +16 1051 18 0 ?1055 17 1047 1056 0 0 7 31 1052 5 0 17 1057 1056 0 +0 0 .018
 0 0 1 1 0 0 .005 31 1057 581 0 1058 1059 1052 0 +0 0 .0155 0 0 1 0 -1 0 .0035 3
1 1056 23 0 1051 1052 1048 0 +0 0 0 0 0 1 1 0 0 .005 31 1048 63 0 1060 1056 15 0
 +0 0 .0025 0 0 -1 -1 0 0 .005 16 1060 75 0 ?1061 1047 1058 1048 0 0 7 17 1061 0
 1062 1061 1061 0 1063 1060 0 0 +16 1047 103 0 ?1064 1051 1060 15 0 0 7 16 1058
 137 0 ?1065 1060 1066 1057 0 0 7 17 1065 0 1067 1065 1065 0 1068 1058 0 0 +16 1
066 138 0 ?1069 1058 0 1059 0 0 7 17 1069 0 1070 1069 1069 0 1071 1066 0 0 +31 1
059 596 0 1066 0 1057 0 +0 0 .0025 0 0 -1 0 1 0 .0035 15 1070 261 0 1069 1072 10
73 17 1071 0 1074 1071 1071 0 1069 1066 0 0 -15 1074 314 0 1071 1075 0 14 1075 3
10 1076 ?1077 1072 1078 13 1079 +0 0 1077 1072 1049 81 1 1076 835 619 1075 1080
 0 1081 1082 1083 14 1077 16 1082 ?1045 1075 1084 13 1046 -0 0 1045 1075 1049 14
 1072 259 1081 ?1075 1085 1070 13 1086 -0 0 1075 1085 1049 15 1078 313 0 1068 10
75 1074 51 1079 477 0 1075 1086 1087 0 +0 0 .0155 0 0 1 .0035 0 -1 0 13 1049 8 0
 0 0 0 0 0 16 1043 14 1043 71 1088 ?1089 0 1090 13 14 -1045 1045 1089 0 1049 81
 1 1088 831 619 1043 1091 0 0 1092 1093 14 1089 1 1092 ?1085 1043 1053 13 1094 +
0 0 1085 1043 1049 15 1090 24 0 1054 1043 1095 14 1045 25 1096 ?0 1077 1062 13 1
4 -1043 1043 0 1077 1049 81 1 1096 837 619 1045 1097 0 1082 0 1098 15 1062 61 0
 1061 1045 1099 15 1099 26 0 1055 1045 0 17 1055 0 1099 1055 1055 0 1100 1051 0
 0 +17 1100 0 1084 1100 1100 0 1055 1051 0 0 -15 1084 17 0 1100 1077 0 81 1 1097
 827 728 1045 0 1096 1101 1102 1103 81 1 1082 836 619 1077 1104 0 1076 1096 1105
 83 3 1098 1 1 1 81 1 1104 819 728 1077 0 1082 1080 1106 1107 83 3 1105 1 1 1 81
 1 1080 816 728 1075 0 1076 0 1104 1108 81 1 1106 821 728 1072 0 1081 1104 1091
 1109 82 1 1107 -628752239 81 1 1081 834 619 1072 1106 0 1110 1076 1111 81 1 109
1 823 728 1043 0 1088 1106 1101 1112 82 1 1109 -1236336491 81 1 1101 825 728 108
9 0 1092 1091 1097 1113 82 1 1112 -1236860779 81 1 1092 832 619 1089 1101 0 1088
 1110 1114 82 1 1113 -630456175 81 1 1110 833 619 1085 1102 0 1092 1081 1115 83
 3 1114 1 1 1 14 1085 255 1110 ?1072 1089 1067 13 1087 +0 0 1072 1089 1049 81 1
 1102 829 728 1085 0 1110 1097 0 1116 83 3 1115 1 1 1 82 1 1116 -1235877739 15 1
067 257 0 1065 1085 1117 50 1087 468 0 1085 1079 1094 0 +-.0127 .0127 .0155 0 0
 -1 0 1 0 50 1094 2 0 1089 1087 1046 0 +0 0 .018 0 0 1 1 0 0 50 1046 22 0 1077 1
094 14 0 +0 0 0 0 0 1 1 0 0 15 1117 258 0 1064 1085 0 17 1064 0 1117 1064 1064 0
 1118 1047 0 0 +17 1118 0 1095 1118 1118 0 1064 1047 0 0 -15 1095 69 0 1118 1043
 0 83 3 1111 1 1 1 82 1 1108 -1335099243 82 1 1103 -402587499 17 1054 0 1090 105
4 1054 0 1050 17 0 0 -15 1053 3 0 1050 1089 0 83 3 1093 1 1 1 50 1086 484 0 1072
 0 1079 0 +-.0127 -.0254 .0025 0 0 -1 0 1 0 17 1068 0 1078 1068 1068 0 1065 1058
 0 0 -83 3 1083 1 1 1 15 1073 262 0 1063 1072 0 17 1063 0 1073 1063 1063 0 1061
 1060 0 0 -19 1044 30 0 7 0 16 13 S0 74 20 1042 4 0 0 1102 1040 1096 10 0 0 0 0
 0 0 0 0 0 0 0 0 0 0 0 0 81 2 1040 53 891 7 0 10 0 0 1119 0 83 1 1119 1 84 5 104
1 Áã¼þ174 20 6 1 0 0 2 0 0 0 0 0 0 0 0 0 0 0 0 0 0 0 0 0 0 0 1 0 
