**ABCDEFGHIJKLMNOPQRSTUVWXYZabcdefghijklmnopqrstuvwxyz**************************
**PARASOLID !"#$%&'()*+,-./:;<=>?@[\]^_`{|}~0123456789**************************
**PART1;
MC=AMD64;
MC_MODEL=Intel64 Family 6 Model 60 Stepping 3, GenuineIntel;
MC_ID=unknown;
OS=Windows_NT;
OS_RELEASE=unknown;
FRU=Parasolid Version 30.0, build 310,  6- 8-2018;
APPL=SOLIDWORKS 2018-2018211;
SITE=;
USER=unknown;
FORMAT=text;
GUISE=transmit;
KEY=L型支架装配;
FILE=L型支架装配.x_t;
DATE=Thu Sep 13 13:42:26 2018;
**PART2;
SCH=SCH_3000310_30000;
USFLD_SIZE=0;
**PART3;
**END_OF_HEADER*****************************************************************
T51 : TRANSMIT FILE created by modeller version 300031023 SCH_3000310_30000_1300
6205 0 10 19 CCCCCCCI4 mesh1006 0 I8 polyline1008 0 CCCCCCCCCCZ1 5 2 3 0 0 0 0 0
 0 0 1e3 1e-8 0 0 0 1 0 1 4 81 255 2 2 5 5 1 0 0 0 0 0 0 70 11 CI9 list_type0 0
 1 uI10 notransmit0 0 1 lCCCDCCDI12 finger_index0 0 1 dI12 finger_block1012 0 CZ
3 0 4 T1 0 0 1 20 1 6 6 11 255 4 3 0 1 7 8 1 9 0 0 0 12 33 CCCCCCI4 mesh1006 0 I
8 polyline1008 0 CCCCCCCDI5 owner1040 0 CCCCCCI13 boundary_mesh1006 0 I17 bounda
ry_polyline1008 0 CCCA16 index_map_offset0 0 1 dA9 index_map82 0 A17 node_id_ind
ex_map82 0 A20 schema_embedding_map82 0 A5 child12 0 A14 lowest_node_id0 0 1 dZ7
 165 10 11 0 0 0 0 0 0 1e3 1e-8 4 12 0 1 0 1 1 13 14 15 16 0 0 17 18 19 0 0 0 0
 0 0 100 255 8 4 4 0 0 1 0 0 0 1 0 0 0 1 0 0 0 1 0 ?11 9 1 0 1 12 20 1 0 4 0 0 1
2 12 1042 21 22 0 0 0 0 0 0 1e3 1e-8 9 23 7 1 0 1 1 24 25 26 27 0 0 28 29 30 0 0
 0 0 0 0 100 20 2 9 0 0 1 0 0 0 1 0 0 0 1 0 0 0 1 0 ?81 1 21 1034 31 12 32 0 0 0
 0 70 22 0 4 T12 0 0 4 20 1 33 33 13 255 24 134 0 12 0 34 0 0 35 0 51 255 25 387
 0 36 37 0 0 +.02155 .02155 .03175 0 0 1 .0025 1 0 0 137 255 26 747 0 12 38 0 39
 +40 41 0 ?29 255 27 797 0 30 42 0 .004525 .1291 -.001625 19 8 CCCCCCCA5 owner12
 0 Z28 40 0 12 35 0 43 V0 16 255 29 362 0 ?44 0 45 46 0 0 12 18 255 30 795 0 47
 0 48 27 ?12 17 255 47 0 49 50 51 30 52 53 0 54 -18 48 775 0 55 30 56 42 ?12 17
 55 0 57 58 59 48 60 61 0 62 +18 56 348 0 63 48 64 65 ?12 29 42 777 0 48 66 27 .
014525 .1291 .033375 29 66 590 0 67 68 42 260208521396521e-32 .1016 211419423634
6735e-33 18 67 85 0 69 70 71 66 ?12 29 68 589 0 72 73 66 .01905 .1016 -208891677
3024695e-33 18 72 435 0 74 75 76 68 ?12 29 73 586 0 77 78 68 260208521396521e-32
 .1016 .03175 18 77 37 0 79 80 81 73 ?12 29 78 583 0 81 65 73 .01905 .1016 .0317
5 18 81 34 0 82 77 83 78 ?12 29 65 350 0 56 84 78 .02155 .01905 .03175 29 84 347
 0 64 85 65 .02155 .01905 0 18 64 345 0 86 56 87 84 ?12 29 85 338 0 87 88 84 .01
905 .02155 .03175 18 87 336 0 44 64 80 85 ?12 29 88 335 0 80 89 85 .01905 .02155
 0 18 80 333 0 90 87 77 88 ?12 29 89 101 0 71 91 88 .1016 .01905 0 18 71 88 0 92
 67 93 89 ?12 29 91 102 0 93 94 89 .1016 0 0 18 93 89 0 95 71 75 91 ?12 29 94 10
3 0 75 96 91 0 0 0 18 75 90 0 97 93 72 94 ?12 29 96 30 0 83 98 94 .1016 .01905 .
03175 18 83 28 0 99 81 100 96 ?12 29 98 27 0 100 101 96 .1016 0 .03175 18 100 25
 0 102 83 70 98 ?12 29 101 24 0 70 103 98 0 0 .03175 18 70 22 0 104 100 67 101 ?
12 29 103 529 0 76 105 101 -.001975 .1116 .033375 18 76 439 0 106 72 107 103 2e-
8 12 29 105 530 0 107 108 103 .021025 .1116 .033375 18 107 436 0 109 76 110 105
 2e-8 12 29 108 532 0 110 111 105 .021025 .1116 -.001625 18 110 437 0 112 107 11
3 108 2e-8 12 29 111 695 0 114 115 108 -.001975 .1116 -.001625 18 114 649 0 116
 117 118 111 2e-8 12 29 115 696 0 113 119 111 .021025 .1366 -.001625 18 113 648
 0 120 110 121 115 ?12 29 119 697 0 121 122 115 .021025 .1366 .033375 18 121 647
 0 123 113 124 119 ?12 29 122 698 0 124 125 119 -.001975 .1366 .033375 18 124 64
6 0 126 121 117 122 ?12 29 125 699 0 117 127 122 -.001975 .1366 -.001625 18 117
 643 0 128 124 114 125 ?12 29 127 919 0 118 129 125 .014525 .1191 -.001625 18 11
8 850 0 130 114 131 127 ?12 29 129 920 0 131 132 127 .004525 .1191 -.001625 18 1
31 852 0 133 118 134 129 ?12 29 132 922 0 134 135 129 .014525 .1291 -.001625 18
 134 845 0 50 131 136 132 ?12 29 135 923 0 136 137 132 .014525 .1191 .033375 18
 136 847 0 59 134 138 135 ?12 29 137 924 0 138 139 135 .004525 .1191 .033375 18
 138 848 0 140 136 141 137 ?12 29 139 925 0 141 0 137 .004525 .1291 .033375 18 1
41 849 0 52 138 0 139 ?12 17 52 0 142 143 54 141 47 53 0 51 +15 255 142 868 0 52
 144 0 17 143 0 142 145 52 138 146 147 0 148 +17 54 0 142 52 145 30 149 150 0 15
1 -16 53 816 0 ?52 152 153 154 0 0 12 17 51 0 49 47 62 141 155 156 0 146 +15 49
 872 0 62 157 0 17 62 0 49 51 50 48 58 153 0 155 +17 155 0 158 60 146 48 51 156
 0 0 -16 156 836 0 ?51 147 61 159 0 0 12 17 146 0 158 155 148 141 143 147 0 0 -1
5 158 773 0 155 160 161 17 148 0 158 146 60 138 162 163 0 0 -16 147 839 0 ?143 1
63 156 164 0 0 12 16 163 842 0 ?162 153 147 165 0 0 12 30 255 164 912 0 147 159
 165 0 +.004525 .1191 .033375 0 -1 0 30 159 913 0 156 166 164 0 +.004525 .1291 .
033375 -1 0 0 30 165 911 0 163 164 167 0 +.004525 .1191 .033375 1 0 0 30 167 910
 0 168 165 169 0 +.014525 .1191 -.0016251 0 0 1 16 168 812 0 ?59 170 152 167 0 0
 12 30 169 909 0 152 167 154 0 +.004525 .1191 -.0016251 0 0 1 16 152 814 0 ?140
 168 53 169 0 0 12 30 154 908 0 53 169 171 0 +.004525 .1291 -.0016251 0 0 1 30 1
71 907 0 153 154 172 0 +.014525 .1291 -.0016251 0 0 1 16 153 810 0 ?62 53 163 17
1 0 0 12 30 172 906 0 170 171 173 0 +.021025 .1291 -.001625 -1 0 122561984715752
6e-31 16 170 815 0 ?151 150 168 172 0 0 12 30 173 905 0 150 172 174 0 +.004525 .
1366 -.001625 0 -1 0 16 150 813 0 ?149 175 170 173 0 0 12 30 174 904 0 175 173 1
76 0 +.021025 .1191 -.001625 1 0 -1225619847157526e-31 16 175 811 0 ?177 178 150
 174 0 0 12 30 176 903 0 178 174 179 0 +.014525 .1366 -.001625 0 1 0 16 178 809
 0 ?180 181 175 176 0 0 12 30 179 691 0 181 176 182 0 +.021025 .1366 -.001625 -1
 0 1225619847157526e-31 16 181 630 0 ?183 184 178 179 0 0 12 30 182 690 0 184 17
9 185 0 +-.001975 .1366 -.001625 0 0 1 16 184 633 0 ?126 186 181 182 0 0 12 30 1
85 689 0 186 182 187 0 +-.001975 .1366 .033375 1 0 3016910393003145e-31 16 186 6
36 0 ?123 188 184 185 0 0 12 30 187 688 0 188 185 189 0 +.021025 .1366 .033375 0
 0 -1 16 188 639 0 ?120 190 186 187 0 0 12 133 255 189 524 0 191 187 192 0 +192
 .021025 .1116 .033375 -.001975 .1116 .033375 0 1 17 191 0 193 194 195 76 196 19
7 189 198 -137 192 523 0 12 189 199 200 +201 202 0 ?133 199 522 0 203 192 204 0
 +204 -.001975 .1116 .033375 260208521396521e-32 .1016 .03175 0 .010321882095819
56 141 255 200 189 200 200 192 50 255 201 464 0 205 206 207 208 +0 -.00241278733
444969 .0148479220581519 0 -.160396069376391 .987052734623943 0 -.98705273462394
3 -.160396069376391 134 255 202 0 0 0 0 0 0 +209 210 136 255 209 1 2 2 2 5 FFF1
 211 212 213 135 255 210 2 0 45 255 4 211 -.115508303999469 .021025 -.1155083039
99469 -.001975 127 255 2 212 2 2 128 255 2 213 0 1 14 255 205 458 214 ?215 216 1
93 24 201 +0 0 215 216 43 50 206 465 0 216 217 201 218 +-.000977857447922045 .00
01931268459646045 0 .981049498258603 -.1937572759060745 0 .1937572759060745 .981
049498258603 0 50 207 2 0 219 201 220 0 +0 .1016 .03175 0 0 -1 -1 0 0 141 208 19
2 208 208 201 14 219 1 221 ?222 223 224 24 207 -0 0 222 223 43 50 220 91 0 222 2
07 225 0 +0 .1016 0 0 0 -1 -1 0 0 14 222 59 226 ?36 219 227 24 220 +0 0 36 219 4
3 50 225 123 0 223 220 228 0 +.01905 .1016 .03175 -1 -1260852920152736e-31 0 126
0852920152736e-31 -1 0 14 223 113 229 ?219 230 231 24 225 -0 0 219 230 43 50 228
 124 0 230 225 232 0 +.01905 .01905 .03175 0 -1 0 0 0 -1 14 230 115 233 ?223 234
 235 24 228 -0 0 223 234 43 50 232 125 0 234 228 236 0 +.1016 0 .03175 -1 0 0 0
 0 1 14 234 117 237 ?230 238 239 24 232 -0 0 230 238 43 50 236 126 0 238 232 37
 0 +0 0 .03175 0 1 0 0 0 1 14 238 119 240 ?234 34 241 24 236 -0 0 234 34 43 50 3
7 127 0 34 236 25 0 +0 0 .03175 1 0 0 0 0 -1 14 34 121 242 ?238 0 243 24 37 -0 0
 238 0 43 81 1 242 1020 244 34 245 0 240 246 247 15 243 120 0 248 34 0 13 43 41
 0 0 0 0 0 0 28 34 17 248 0 243 249 69 75 250 251 0 0 +17 249 0 243 252 248 70 2
53 254 0 0 -17 69 0 243 248 252 67 255 256 0 250 +17 250 0 227 74 97 67 248 251
 0 257 -16 251 81 0 ?248 258 203 259 0 0 12 16 258 77 0 ?95 260 251 261 0 0 12 1
6 203 429 0 ?194 251 262 199 0 0 12 30 259 570 0 251 263 264 0 +0 0 0 0 -1 0 30
 263 561 0 265 266 259 0 +0 0 .03175 0 -1 0 30 264 580 0 267 259 268 0 -.01905 .
1016 0 0 0 1 16 267 105 0 ?269 270 256 264 0 0 12 30 268 582 0 271 264 272 0 +0
 .1016 .03175 -1 0 0 16 271 19 0 ?79 256 273 268 0 0 12 30 272 585 0 256 268 274
 0 +0 .1016 .03175 0 0 -1 16 256 104 0 ?69 267 271 272 0 0 12 30 274 588 0 275 2
72 276 0 -0 .1016 0 1 0 0 16 275 61 0 ?257 265 277 274 0 0 12 133 276 705 0 278
 274 279 0 +279 -.001975 .1366 -.001625 -.001975 .1116 -.001625 0 .025 16 278 62
1 0 ?280 281 282 276 0 0 12 30 279 706 0 12 276 283 284 +-.001975 .1366 -.001625
 0 -1 0 133 283 712 0 285 279 286 0 +286 .021025 .1116 -.001625 -.001975 .1116 -
.001625 0 1 141 284 276 284 284 279 17 285 0 287 288 289 114 112 290 283 0 +137
 286 713 0 12 283 291 292 +293 294 0 ?133 291 719 0 190 286 295 0 +295 .021025 .
1366 -.001625 .021025 .1116 -.001625 0 .025 141 292 283 292 292 286 50 293 674 0
 215 40 296 297 +.021025 .1366 -.001625 1225619847157526e-31 0 1 1 0 -1225619847
157526e-31 134 294 0 0 0 0 0 0 +298 299 136 298 1 2 2 2 5 FFF1 300 301 302 135 2
99 1 0 45 4 300 0 -.025 -.023 -.025 127 2 301 2 2 128 2 302 0 1 14 215 650 246 ?
303 205 304 24 293 -0 0 303 205 43 50 40 675 0 303 305 293 306 +-.001975 .1366 -
.001625 1 0 0 0 0 -1 50 296 467 0 307 293 217 308 +0 .002613852945653845 .016085
2488963313 0 -.160396069376391 -.987052734623943 0 .987052734623943 -.1603960693
76391 141 297 286 297 297 293 14 307 449 309 ?310 36 311 24 296 +0 0 310 36 43 5
0 217 466 0 310 296 206 312 +.0193126845964593 .003814255207800705 0 -.981049498
258604 -.1937572759060735 0 .1937572759060735 -.981049498258604 0 141 308 313 30
8 308 296 137 313 513 0 12 314 315 316 +296 317 0 ?133 314 514 0 112 318 313 0 +
313 -.001975 .1116 -.001625 .021025 .1116 -.001625 0 1 133 315 512 0 319 313 320
 0 +320 .021025 .1116 -.001625 .01905 .1016 -2088916773024695e-33 0 .01032188209
581952 141 316 314 316 316 313 134 317 0 0 0 0 0 0 +321 322 136 321 1 2 2 2 5 FF
F1 323 324 325 135 322 2 0 45 4 323 .1104157287967686 -.001975 .1104157287967686
 .021025 127 2 324 2 2 128 2 325 0 1 16 319 417 0 ?326 327 197 315 0 0 12 30 320
 511 0 12 315 328 329 +.021025 .1116 -.001625 -.1913410734268995 -.9688155616551
84 .157432528768968 133 328 510 0 109 320 330 0 +330 .021025 .1116 -.001625 .021
025 .1116 .033375 0 1 141 329 315 329 329 320 17 109 0 331 332 333 107 334 335 3
28 195 -137 330 509 0 12 328 336 337 +206 338 0 ?30 336 8 0 339 330 340 0 +0 0 .
03175 1 0 0 141 337 328 337 337 330 134 338 0 0 0 0 0 0 +341 342 136 341 1 2 2 2
 5 FFF1 343 344 345 135 342 2 0 45 4 343 .1135588707315854 -.001625 .11355887073
15854 .033375 127 2 344 2 2 128 2 345 0 1 16 339 7 0 ?102 346 265 336 0 0 12 30
 340 11 0 346 336 347 0 +.1016 0 .03175 0 1 0 16 346 10 0 ?99 348 339 340 0 0 12
 30 347 14 0 348 340 261 0 +.01905 .01905 .03175 -1 0 0 16 348 13 0 ?349 273 346
 347 0 0 12 30 261 96 0 258 347 350 0 +0 0 0 1 0 0 30 350 95 0 260 261 351 0 +.1
016 0 0 0 1 0 16 260 73 0 ?92 352 258 350 0 0 12 30 351 94 0 352 350 353 0 +.019
05 .01905 0 -1 0 0 16 352 69 0 ?354 277 260 351 0 0 12 30 353 131 0 270 351 355
 0 +.1016 .01905 .03175 0 0 -1 16 270 107 0 ?356 357 267 353 0 0 12 30 355 132 0
 357 353 358 0 +.1016 0 .03175 0 0 -1 16 357 108 0 ?359 254 270 355 0 0 12 30 35
8 133 0 254 355 360 0 +0 0 .03175 0 0 -1 16 254 109 0 ?253 361 357 358 0 0 12 30
 360 341 0 361 358 362 0 +.01905 .02155 0 0 0 -1 16 361 339 0 ?363 364 254 360 0
 0 12 30 362 353 0 364 360 365 0 -.02155 .01905 .03175 0 0 -1 16 364 351 0 ?63 4
5 361 362 0 0 12 31 255 365 367 0 45 362 46 0 -.02155 .02155 0 0 0 -1 -1 0 0 .00
25 16 45 357 0 ?86 29 364 365 0 0 12 31 46 368 0 29 365 366 0 +.02155 .02155 .03
175 0 0 -1 -1 0 0 .0025 30 366 539 0 277 46 266 0 +.01905 .1016 0 -1260852920152
736e-31 1 0 16 277 334 0 ?367 275 352 366 0 0 12 30 266 548 0 273 366 263 0 +.01
905 .1016 .03175 -1260852920152736e-31 1 0 16 273 337 0 ?82 271 348 266 0 0 12 1
7 82 0 224 79 44 81 368 273 0 369 +15 224 3 0 370 219 0 17 79 0 224 370 82 77 37
1 271 0 252 +17 44 0 224 82 349 87 372 29 0 368 +17 368 0 231 363 369 87 82 273
 0 373 -17 369 0 231 368 367 81 269 267 0 332 -15 231 112 0 368 223 0 17 367 0 2
31 369 363 72 374 277 0 269 +17 269 0 331 333 332 72 369 267 0 326 +17 332 0 331
 269 109 81 195 262 0 371 +15 331 457 0 332 216 0 17 195 0 193 191 371 107 332 2
62 0 196 -16 262 425 0 ?332 203 327 375 0 0 12 17 371 0 193 195 194 81 79 271 0
 0 -15 193 460 0 194 205 0 17 194 0 193 371 191 77 106 203 0 0 +17 106 0 376 377
 255 76 194 203 0 191 -15 376 454 0 378 310 0 17 377 0 376 378 106 114 198 281 3
79 280 -17 255 0 376 106 378 77 69 256 0 194 -17 378 0 376 255 377 67 116 327 0
 0 +17 116 0 311 112 257 114 378 327 0 377 -16 327 421 0 ?378 262 319 380 0 0 12
 133 380 516 0 327 381 318 0 +318 -.001975 .1116 -.001625 260208521396521e-32 .1
016 2114194236346735e-33 0 .01032188209581956 137 381 517 0 12 379 380 382 +217
 383 0 ?30 318 515 0 12 380 314 384 +-.001975 .1116 -.001625 .1913410734268985 -
.968815561655184 .1574325287689675 141 384 380 384 384 318 133 379 518 0 377 385
 381 0 +381 -.001975 .1116 .033375 -.001975 .1116 -.001625 0 1 141 382 379 382 3
82 381 134 383 0 0 0 0 0 0 +386 387 136 386 1 2 2 2 5 FFF1 388 389 390 135 387 2
 0 45 4 388 -.1098677946255746 .033375 -.1098677946255746 -.001625 127 2 389 2 2
 128 2 390 0 1 30 385 519 0 12 375 379 391 +.021025 .1116 .033375 -.191341073426
8995 -.968815561655184 -.1574325287689685 133 375 520 0 262 204 385 0 +385 .0210
25 .1116 .033375 .01905 .1016 .03175 0 .01032188209581952 141 391 375 391 391 38
5 30 204 521 0 12 199 375 392 +-.001975 .1116 .033375 .1913410734268985 -.968815
561655184 -.1574325287689675 141 392 199 392 392 204 15 311 451 0 326 307 0 17 1
12 0 311 326 116 110 285 290 314 333 -17 257 0 311 116 326 67 74 275 0 378 +17 3
26 0 311 257 112 72 333 319 0 0 +17 74 0 227 374 250 72 257 275 0 367 -15 227 60
 0 250 222 0 17 374 0 227 86 74 80 367 277 0 0 -17 86 0 227 393 374 64 90 45 0 3
54 +17 393 0 227 394 86 71 354 352 0 0 -17 90 0 395 373 396 80 86 45 0 363 -17 3
54 0 235 63 356 64 393 352 0 396 +15 235 114 0 354 230 0 17 63 0 235 397 354 56
 396 364 0 349 +17 356 0 235 354 397 71 398 270 0 393 +17 396 0 395 90 372 64 63
 364 0 0 -15 395 376 0 372 36 0 17 372 0 395 396 373 56 44 29 0 0 -17 373 0 395
 372 90 87 363 361 0 0 -17 363 0 231 367 368 80 373 361 0 374 +14 36 375 399 ?30
7 222 395 24 25 -0 0 307 222 43 81 1 399 1028 244 36 400 0 401 402 403 80 255 1
 244 404 405 9000 1 1 1 1 1 1 1 1 0 FFFFTFTFFFFFFF1 81 1 400 955 406 36 0 399 40
7 408 409 81 1 401 1027 244 310 410 0 411 399 412 81 1 402 1029 244 413 414 0 39
9 415 416 82 255 1 403 366608524 14 413 666 402 ?417 418 419 24 420 +0 0 417 418
 43 81 1 414 964 406 413 0 402 421 422 423 81 1 415 1030 244 417 422 0 402 424 4
25 82 1 416 2017329301 14 417 857 415 ?426 413 57 24 427 -0 0 426 413 43 81 1 42
2 965 406 417 0 415 414 428 429 81 1 424 1031 244 426 428 0 415 430 431 82 1 425
 1981087896 14 426 861 424 ?144 417 432 24 433 -0 0 144 417 43 81 1 428 966 406
 426 0 424 422 434 435 81 1 430 1032 244 144 434 0 424 436 437 82 1 431 19805636
08 14 144 865 430 ?157 426 142 24 438 -0 0 157 426 43 81 1 434 967 406 144 0 430
 428 439 440 81 1 436 1033 244 157 439 0 430 0 441 82 1 437 1979711640 14 157 86
9 436 ?0 144 49 24 442 -0 0 0 144 43 81 1 439 968 406 157 0 436 434 0 443 82 1 4
41 1978859672 80 1 406 0 444 8001 0 0 0 0 3 5 0 0 0 FFFFTFTFFFFFFF2 83 255 3 443
 .647058823529412 .619607843137255 .584313725490196 79 255 15 444 SDL/TYSA_COLOU
R50 442 898 0 157 438 427 0 +.004525 .1291 -.0016251 0 1 0 0 0 1 50 438 899 0 14
4 433 442 0 +.004525 .1191 -.0016251 -1 0 0 0 0 1 50 427 897 0 417 442 420 0 +.0
14525 .1191 -.0016251 1 0 0 0 0 -1 50 420 679 0 413 427 445 0 +0 .1366 0 0 1 0 0
 0 1 50 445 677 0 418 420 305 446 +.021025 .1366 .033375 -1 0 0 0 0 1 14 418 662
 447 ?413 160 448 24 445 -0 0 413 160 43 50 305 676 0 160 445 40 449 +-.001975 .
1366 .033375 3016910393003145e-31 0 -1 -1 0 -3016910393003145e-31 141 446 450 44
6 446 445 137 450 725 0 12 451 452 453 +445 454 0 ?133 451 724 0 334 295 450 0 +
450 .021025 .1116 .033375 .021025 .1116 -.001625 0 1 133 452 731 0 455 450 456 0
 +456 .021025 .1366 .033375 .021025 .1116 .033375 0 .025 141 453 451 453 453 450
 134 454 0 0 0 0 0 0 +457 458 136 457 1 2 2 2 5 FFF1 459 460 461 135 458 1 0 45
 4 459 0 -.025 -.035 -.025 127 2 460 2 2 128 2 461 0 1 16 455 629 0 ?462 282 190
 452 0 0 12 30 456 732 0 12 452 463 464 +.021025 .1366 .033375 0 -1 0 133 463 73
6 0 196 456 465 0 +465 -.001975 .1116 .033375 .021025 .1116 .033375 0 1 141 464
 452 464 464 456 17 196 0 161 466 467 107 191 197 463 462 +137 465 737 0 12 463
 468 469 +305 470 0 ?133 468 741 0 282 465 471 0 +471 -.001975 .1366 .033375 -.0
01975 .1116 .033375 0 .025 141 469 463 469 469 465 134 470 0 0 0 0 0 0 +472 473
 136 472 1 2 2 2 5 FFF1 474 475 476 135 473 1 0 45 4 474 0 -.025 -.023 -.025 127
 2 475 2 2 128 2 476 0 1 16 282 625 0 ?467 278 455 468 0 0 12 30 471 742 0 12 46
8 38 477 +-.001975 .1366 .033375 0 -1 0 133 38 746 0 198 471 26 0 +26 -.001975 .
1116 -.001625 -.001975 .1116 .033375 0 1 141 477 468 477 477 471 17 198 0 478 47
9 280 76 377 281 38 467 +15 478 657 0 198 303 0 17 479 0 478 128 198 124 467 282
 0 480 -17 280 0 478 198 128 114 288 278 0 285 +16 281 409 0 2e-8 198 290 278 0
 0 0 12 17 467 0 161 196 480 76 479 282 0 0 +15 161 661 0 196 160 0 17 480 0 161
 467 466 124 123 186 0 0 -17 466 0 161 480 196 121 462 455 0 481 -17 123 0 419 1
20 126 121 480 186 0 466 +15 419 668 0 183 413 0 17 120 0 419 183 123 113 481 18
8 0 482 +17 126 0 419 123 183 124 128 184 0 479 +17 183 0 419 126 120 117 483 18
1 0 288 +17 128 0 478 280 479 117 126 184 0 183 -17 483 0 287 289 288 113 183 18
1 0 0 -17 288 0 287 483 285 117 280 278 0 0 -15 287 653 0 285 215 0 17 289 0 287
 285 483 110 482 190 0 0 +17 482 0 448 481 334 113 289 190 0 483 -16 190 617 0 ?
289 455 188 291 0 0 12 15 448 665 0 334 418 0 17 481 0 448 462 482 121 120 188 0
 0 -17 334 0 448 482 462 110 109 335 451 289 +17 462 0 448 334 481 107 466 455 0
 0 +16 335 413 0 2e-8 334 197 290 0 0 0 12 16 197 411 0 2e-8 196 319 335 0 0 0 1
2 16 290 415 0 2e-8 285 335 281 0 0 0 12 14 160 658 484 ?418 303 158 24 305 -0 0
 418 303 43 81 1 484 1024 244 160 485 0 447 486 487 14 303 654 486 ?160 215 478
 24 40 -0 0 160 215 43 81 1 486 1025 244 303 488 0 484 411 489 81 1 488 961 406
 303 0 486 490 485 491 81 1 411 1026 244 216 492 0 486 401 493 82 1 489 20244071
89 14 216 455 411 ?205 310 331 24 206 +0 0 205 310 43 81 1 492 958 406 216 0 411
 410 494 495 82 1 493 1520763029 81 1 410 957 406 310 0 401 408 492 496 81 1 494
 959 406 205 0 214 492 490 497 83 3 495 .647058823529412 .619607843137255 .58431
3725490196 81 1 214 1013 244 205 494 0 0 221 498 81 1 490 960 406 215 0 246 494
 488 499 83 3 497 .647058823529412 .619607843137255 .584313725490196 81 1 246 10
21 244 215 490 0 242 309 500 83 3 499 .647058823529412 .619607843137255 .5843137
25490196 81 1 309 1022 244 307 408 0 246 447 501 82 1 500 2024669336 81 1 408 95
6 406 307 0 309 400 410 502 81 1 447 1023 244 418 421 0 309 484 503 82 1 501 151
6175509 81 1 421 963 406 418 0 447 485 414 504 82 1 503 2023882901 81 1 485 962
 406 160 0 484 488 421 505 83 3 504 .647058823529412 .619607843137255 .584313725
490196 83 3 505 .647058823529412 .619607843137255 .584313725490196 83 3 502 .647
058823529412 .619607843137255 .584313725490196 81 1 221 1014 244 219 506 0 214 2
26 507 82 1 498 1525350549 81 1 506 263 406 219 0 221 508 407 509 81 1 226 1015
 244 222 407 0 221 229 510 82 1 507 359923858 81 1 407 264 406 222 0 226 506 400
 511 81 1 229 1016 244 223 508 0 226 233 512 82 1 510 362152082 81 1 508 261 406
 223 0 229 513 506 514 81 1 233 1017 244 230 513 0 229 237 515 82 1 512 35998939
4 81 1 513 260 406 230 0 233 516 508 517 81 1 237 1018 244 234 516 0 233 240 518
 82 1 515 360775820 81 1 516 259 406 234 0 237 519 513 520 81 1 240 1019 244 238
 519 0 237 242 521 82 1 518 147980481 81 1 519 258 406 238 0 240 245 516 522 82
 1 521 148242625 81 1 245 257 406 34 0 242 0 519 523 83 3 522 .647058823529412 .
619607843137255 .584313725490196 83 3 523 .647058823529412 .619607843137255 .584
313725490196 83 3 520 .647058823529412 .619607843137255 .584313725490196 83 3 51
7 .647058823529412 .619607843137255 .584313725490196 83 3 514 .647058823529412 .
619607843137255 .584313725490196 83 3 511 .647058823529412 .619607843137255 .584
313725490196 83 3 509 .647058823529412 .619607843137255 .584313725490196 14 310
 452 401 ?216 307 376 24 217 +0 0 216 307 43 83 3 496 .647058823529412 .61960784
3137255 .584313725490196 83 3 491 .647058823529412 .619607843137255 .58431372549
0196 82 1 487 2024145048 30 295 720 0 12 291 451 524 +.021025 .1366 -.001625 0 -
1 0 141 524 291 524 524 295 141 449 465 449 449 305 50 433 900 0 426 0 438 0 +.0
04525 .1191 -.0016251 0 -1 0 0 0 -1 83 3 440 .647058823529412 .619607843137255 .
584313725490196 83 3 435 .647058823529412 .619607843137255 .584313725490196 15 4
32 864 0 140 426 0 17 140 0 432 162 133 138 145 152 0 143 +17 162 0 432 525 140
 136 148 163 0 60 +17 133 0 432 140 525 131 177 175 0 145 -17 145 0 142 54 143 1
31 140 152 0 149 -17 149 0 304 177 151 131 54 150 0 0 +15 304 793 0 177 215 287
 17 177 0 304 180 149 118 133 175 0 0 +17 151 0 304 149 180 30 50 170 0 0 +17 18
0 0 304 151 177 134 130 178 0 0 +17 50 0 49 62 47 134 151 170 0 58 -17 58 0 57 1
30 55 134 62 153 0 180 -15 57 860 0 59 417 0 17 130 0 57 59 58 118 180 178 0 525
 -17 59 0 57 55 130 136 525 168 0 162 +17 525 0 432 133 162 118 59 168 0 177 -17
 60 0 158 148 155 136 55 61 0 0 -16 61 833 0 ?55 156 0 166 0 0 12 30 166 914 0 6
1 0 159 0 +.014525 .1191 .033375 0 1 0 83 3 429 .647058823529412 .61960784313725
5 .584313725490196 83 3 423 .647058823529412 .619607843137255 .584313725490196 8
2 1 412 1529938069 83 3 409 .647058823529412 .619607843137255 .584313725490196 7
9 14 405 SWEntUnchanged17 397 0 235 356 63 83 349 348 0 0 -17 398 0 239 526 92 8
3 356 270 0 397 -15 239 116 0 92 234 0 17 526 0 239 359 398 100 99 346 0 0 -17 9
2 0 239 398 359 71 394 260 0 356 +17 359 0 239 92 526 93 527 357 0 394 +17 394 0
 227 97 393 93 92 260 0 0 -17 97 0 227 250 394 75 95 258 0 253 -17 95 0 241 527
 253 93 97 258 0 359 +17 253 0 241 95 104 75 249 254 0 248 +15 241 118 0 95 238
 0 17 104 0 241 253 527 70 102 339 0 370 -17 527 0 241 104 95 100 359 357 0 526
 -17 102 0 224 99 370 100 104 339 0 527 +17 370 0 224 102 79 70 252 265 0 249 +1
7 252 0 243 69 249 77 370 265 0 255 -16 265 4 0 ?370 339 275 263 0 0 12 17 99 0
 224 349 102 83 526 346 0 398 +17 349 0 224 44 99 56 397 348 0 372 +17 333 0 331
 109 269 110 326 319 0 334 -141 312 381 312 312 217 141 306 26 306 306 40 82 1 2
47 360186002 141 218 330 218 218 206 19 35 135 0 12 0 28 24 S0 141 39 38 39 39 2
6 134 41 0 0 0 0 0 0 +528 529 136 528 1 2 2 2 5 FFF1 530 531 532 135 529 1 0 45
 4 530 0 -.025 -.035 -.025 127 2 531 2 2 128 2 532 0 1 74 4 CI16 index_map_offse
t0 0 1 dCCZ20 33 4 0 0 436 439 32 21 0 0 0 0 0 0 0 0 0 0 0 0 0 0 0 0 81 2 32 954
 533 12 0 21 0 0 534 0 80 2 533 535 536 8004 0 0 0 0 3 5 0 0 0 FFTFFFFFFFFFFF2 3
 83 1 534 1e3 79 16 536 SDL/TYSA_DENSITY80 1 31 537 538 8017 0 0 0 0 0 0 0 0 0 T
TTTTTTTTTTTTF3 79 13 538 SDL/TYSA_NAME81 1 10 165 31 7 539 0 0 0 0 70 11 0 4 T7
 0 0 4 20 1 540 540 13 13 94 0 7 0 541 0 0 542 0 50 14 89 0 541 543 0 0 +.014525
 .1291 .065875 0 -1 0 0 0 -1 30 15 93 0 18 544 0 0 +.004525 .1291 .065875 0 0 -1
 29 16 70 0 545 546 0 .014525 .1291 -.034125 19 17 28 0 7 542 0 547 V0 16 18 77
 0 ?548 0 549 15 0 0 7 18 19 25 0 550 0 551 552 ?7 17 550 0 553 554 555 19 556 5
57 0 558 +18 551 22 0 555 19 559 560 ?7 29 552 27 0 19 560 561 .014525 .1291 .06
5875 29 560 24 0 551 562 552 .014525 .1191 .065875 29 561 73 0 563 552 564 .0045
25 .1291 -.034125 18 563 64 0 565 566 0 561 ?7 29 564 72 0 566 561 546 .004525 .
1191 -.034125 18 566 63 0 567 568 563 564 ?7 29 546 71 0 568 564 16 .014525 .119
1 -.034125 18 568 62 0 569 545 566 546 ?7 17 569 0 570 571 572 568 573 574 0 575
 +18 545 61 0 576 577 568 16 ?7 17 576 0 578 558 575 545 579 580 0 581 +18 577 1
6 0 582 559 545 583 ?7 17 582 0 584 548 585 577 586 587 0 554 -18 559 19 0 586 5
51 577 562 ?7 29 583 18 0 577 0 562 .004525 .1291 .065875 29 562 21 0 559 583 56
0 .004525 .1191 .065875 17 586 0 553 555 554 559 582 587 0 585 +15 553 3 0 554 5
88 0 17 555 0 553 550 586 551 589 590 0 571 +17 554 0 553 586 550 577 591 592 0
 593 +16 587 7 0 ?586 590 592 594 0 0 7 17 585 0 584 582 567 559 572 549 0 589 -
15 584 82 0 567 595 0 17 567 0 584 585 548 566 565 596 0 572 +17 572 0 570 569 5
89 566 585 549 0 573 +16 549 76 0 ?572 18 597 544 0 0 7 17 589 0 570 572 571 559
 555 590 0 0 -15 570 80 0 569 598 0 17 571 0 570 589 569 551 575 597 0 556 -16 5
90 10 0 ?555 557 587 599 0 0 7 16 557 13 0 ?550 600 590 601 0 0 7 30 599 11 0 59
0 594 601 0 +.004525 .1191 .065875 1 0 0 30 594 8 0 587 602 599 0 +.004525 .1291
 .065875 0 -1 0 30 601 14 0 557 599 603 0 +.014525 .1191 .065875 -34694469519536
15e-31 1 0 30 603 69 0 604 601 605 0 +.014525 .1291 -.034125 -1 0 0 16 604 57 0
 ?606 596 0 603 0 0 7 30 605 68 0 596 603 607 0 +.004525 .1291 -.034125 0 -1 0 1
6 596 53 0 ?567 574 604 605 0 0 7 30 607 67 0 574 605 608 0 +.004525 .1191 -.034
125 1 0 0 16 574 49 0 ?569 580 596 607 0 0 7 30 608 66 0 580 607 609 0 +.014525
 .1191 -.034125 -3469446951953615e-31 1 0 16 580 45 0 ?576 592 574 608 0 0 7 30
 609 90 0 600 608 610 0 +.014525 .1291 .065875 0 0 -1 16 600 74 0 ?581 597 557 6
09 0 0 7 30 610 91 0 597 609 544 0 +.014525 .1191 .065875 0 0 -1 16 597 75 0 ?57
5 549 600 610 0 0 7 30 544 92 0 549 610 15 0 +.004525 .1191 .065875 0 0 -1 17 57
5 0 578 576 556 568 571 597 0 579 +15 578 78 0 576 611 0 17 556 0 578 575 558 55
1 550 557 0 0 -17 579 0 612 573 613 568 576 580 0 0 -15 612 44 0 613 614 0 17 57
3 0 612 565 579 566 569 574 0 0 -17 613 0 612 579 565 545 606 604 0 0 -17 565 0
 612 613 573 563 567 596 0 548 -17 606 0 615 593 581 563 613 604 0 0 +15 615 84
 0 606 541 0 17 593 0 615 591 606 577 548 18 0 0 -17 581 0 615 606 591 545 558 6
00 0 613 +17 591 0 615 581 593 19 554 592 0 0 -17 558 0 578 556 576 19 581 600 0
 591 -16 592 4 0 ?554 587 580 602 0 0 7 30 602 5 0 592 0 594 0 +.014525 .1291 .0
65875 -1 0 0 17 548 0 584 567 582 563 593 18 0 606 +14 541 85 616 ?595 0 615 13
 14 -0 0 595 0 547 81 1 616 159 244 541 617 0 0 618 619 14 595 83 618 ?598 541 5
84 13 543 -0 0 598 541 547 13 547 29 0 0 0 0 0 0 17 541 81 1 618 160 244 595 620
 0 616 621 622 14 598 81 621 ?611 595 570 13 623 -0 0 611 595 547 50 543 88 0 59
5 623 14 0 +.004525 .1291 .065875 1 0 0 0 0 -1 50 623 87 0 598 624 543 0 +.00452
5 .1191 .065875 0 1 0 0 0 1 50 624 86 0 611 625 623 0 +.014525 .1191 .065875 -1
 -3469446951953615e-31 0 3469446951953615e-31 -1 0 14 611 79 626 ?588 598 578 13
 624 -0 0 588 598 547 50 625 65 0 614 627 624 0 +0 0 -.034125 0 0 1 1 0 0 14 614
 43 628 ?0 588 612 13 625 -0 0 0 588 547 50 627 2 0 588 0 625 0 +0 0 .065875 0 0
 1 1 0 0 14 588 1 629 ?614 611 553 13 627 +0 0 614 611 547 81 1 629 164 244 588
 630 0 628 0 631 81 1 630 143 406 588 0 629 632 633 634 81 1 628 163 244 614 633
 0 626 629 635 82 1 631 -613023586 81 1 633 144 406 614 0 628 630 0 636 81 1 626
 162 244 611 632 0 621 628 637 82 1 635 -607387490 81 1 632 142 406 611 0 626 63
8 630 639 81 1 621 161 244 598 638 0 618 626 640 82 1 637 -606469986 81 1 638 14
1 406 598 0 621 620 632 641 82 1 640 -606207842 81 1 620 140 406 595 0 618 617 6
38 642 83 3 641 .647058823529412 .619607843137255 .584313725490196 81 1 617 139
 406 541 0 616 0 620 643 83 3 642 .647058823529412 .619607843137255 .58431372549
0196 83 3 643 .647058823529412 .619607843137255 .584313725490196 83 3 639 .64705
8823529412 .619607843137255 .584313725490196 83 3 636 .647058823529412 .61960784
3137255 .584313725490196 83 3 634 .647058823529412 .619607843137255 .58431372549
0196 82 1 622 -605945698 82 1 619 -605683554 19 542 95 0 7 0 17 13 S0 74 20 540
 4 0 0 629 539 633 10 0 0 0 0 0 0 0 0 0 0 0 0 0 0 0 0 81 2 539 138 533 7 0 10 0
 0 644 0 83 1 644 1e3 74 20 6 1 0 0 2 0 0 0 0 0 0 0 0 0 0 0 0 0 0 0 0 0 0 0 80 2
 5 645 646 9000 0 0 0 0 3 5 0 0 0 TFFFFFFFFFFFFF9 1 79 18 646 MULTI_BODY_ID_2001
1 0 
