**ABCDEFGHIJKLMNOPQRSTUVWXYZabcdefghijklmnopqrstuvwxyz**************************
**PARASOLID !"#$%&'()*+,-./:;<=>?@[\]^_`{|}~0123456789**************************
**PART1;
MC=AMD64;
MC_MODEL=Intel64 Family 6 Model 60 Stepping 3, GenuineIntel;
MC_ID=unknown;
OS=Windows_NT;
OS_RELEASE=unknown;
FRU=Parasolid Version 30.0, build 310,  6- 8-2018;
APPL=SOLIDWORKS 2018-2018211;
SITE=;
USER=unknown;
FORMAT=text;
GUISE=transmit;
KEY=带孔矩形板圣维南原理;
FILE=带孔矩形板圣维南原理.x_t;
DATE=Tue Sep 18 21:27:30 2018;
**PART2;
SCH=SCH_3000310_30000;
USFLD_SIZE=0;
**PART3;
**END_OF_HEADER*****************************************************************
T51 : TRANSMIT FILE created by modeller version 300031023 SCH_3000310_30000_1300
6205 0 10 19 CCCCCCCI4 mesh1006 0 I8 polyline1008 0 CCCCCCCCCCZ1 7 2 3 0 0 0 0 0
 0 0 1e3 1e-8 0 0 0 1 0 1 4 81 255 2 2 7 5 1 0 0 0 0 0 0 70 11 CI9 list_type0 0
 1 uI10 notransmit0 0 1 lCCCDCCDI12 finger_index0 0 1 dI12 finger_block1012 0 CZ
3 0 4 T1 0 0 1 20 1 6 6 11 255 4 5 0 1 7 8 1 9 0 0 0 12 33 CCCCCCI4 mesh1006 0 I
8 polyline1008 0 CCCCCCCDI5 owner1040 0 CCCCCCI13 boundary_mesh1006 0 I17 bounda
ry_polyline1008 0 CCCA16 index_map_offset0 0 1 dA9 index_map82 0 A17 node_id_ind
ex_map82 0 A20 schema_embedding_map82 0 A5 child12 0 A14 lowest_node_id0 0 1 dZ7
 329 10 11 0 0 0 0 0 0 1e3 1e-8 4 12 0 1 0 1 1 13 14 15 16 0 0 17 18 19 0 0 0 0
 0 0 100 255 8 6 4 0 0 1 0 0 0 1 0 0 0 1 0 0 0 1 0 ?11 9 3 0 1 12 20 1 21 4 0 0
 12 12 333 22 23 0 0 0 0 0 0 1e3 1e-8 9 24 7 1 0 1 1 25 26 27 28 0 0 29 30 31 0
 0 0 0 0 0 100 20 4 9 0 0 1 0 0 0 1 0 0 0 1 0 0 0 1 0 ?11 21 1 0 1 24 32 1 0 9 0
 0 12 24 330 33 34 0 0 0 0 0 0 1e3 1e-8 21 35 12 1 0 1 1 36 37 38 39 0 0 40 41 4
2 0 0 0 0 0 0 100 32 2 21 0 0 1 0 0 0 1 0 0 0 1 0 0 0 1 0 ?81 1 33 330 43 24 44
 0 0 0 0 70 34 0 4 T24 0 0 4 20 1 45 45 13 255 36 94 0 24 0 46 0 0 47 0 50 255 3
7 89 0 48 49 0 0 +.1 .01 .05 -1 0 0 0 0 1 30 255 38 229 0 41 50 0 0 +.1 .01 -.02
5 0 -1 0 29 255 39 220 0 42 51 0 .1 0 -.025 19 8 CCCCCCCA5 owner12 0 Z40 28 0 24
 47 0 52 V0 16 255 41 221 0 ?53 0 54 38 0 0 24 18 255 42 218 0 53 0 55 39 ?24 17
 255 53 0 56 57 58 42 59 41 0 60 +18 55 215 0 59 42 61 51 ?24 17 59 0 62 63 64 5
5 53 41 0 58 -18 61 197 0 65 55 66 67 ?24 29 51 217 0 55 67 39 .1 .01 -.025 29 6
7 199 0 61 68 51 .1 0 .025 29 68 196 0 66 69 67 .1 .01 .025 18 66 194 0 70 61 71
 68 ?24 29 69 180 0 71 72 68 .1 .01 0 18 71 178 0 73 66 74 69 ?24 29 72 177 0 74
 75 69 .1 0 0 18 74 175 0 76 71 77 72 ?24 29 75 70 0 78 79 72 .1 0 .05 18 78 61
 0 80 81 82 75 ?24 29 79 71 0 82 83 75 -.1 0 .05 18 82 62 0 84 78 85 79 ?24 29 8
3 72 0 85 86 79 -.1 0 -.05 18 85 63 0 87 82 88 83 ?24 29 86 73 0 88 89 83 .1 0 -
.05 18 88 64 0 57 85 0 86 ?24 29 89 27 0 77 90 86 .1 .01 .05 18 77 25 0 91 74 92
 89 ?24 29 90 24 0 92 93 89 -.1 .01 .05 18 92 22 0 94 77 95 90 ?24 29 93 21 0 95
 96 90 -.1 .01 -.05 18 95 19 0 97 92 81 93 ?24 29 96 18 0 81 0 93 .1 .01 -.05 18
 81 16 0 98 95 78 96 ?24 17 98 0 99 97 100 81 58 101 0 102 +15 255 99 3 0 103 10
4 105 17 97 0 99 94 98 95 102 106 0 107 +17 100 0 99 98 73 55 63 108 0 0 +17 58
 0 56 53 109 55 98 101 0 100 -16 101 216 0 ?98 108 110 111 112 113 24 17 102 0 1
14 115 107 81 97 106 0 109 -15 114 82 0 87 116 0 17 115 0 114 87 102 88 109 117
 0 0 +17 107 0 114 102 87 95 118 119 0 120 -16 106 7 0 ?97 121 113 122 0 0 24 17
 109 0 56 58 57 81 115 117 0 0 -15 56 84 0 58 48 0 17 57 0 56 109 53 88 60 123 0
 124 +16 117 77 0 ?115 125 119 126 0 0 24 16 125 181 0 ?127 54 117 128 0 0 24 16
 119 76 0 ?118 117 129 130 0 0 24 30 126 93 0 117 130 128 0 +.1 .01 -.05 0 -1 0
 30 130 92 0 119 131 126 0 +-.1 .01 -.05 0 -1 0 30 128 188 0 125 126 50 0 +.1 .0
1 0 0 -1 0 30 50 208 0 54 128 38 0 +.1 .01 .025 0 -1 0 16 54 200 0 ?65 41 125 50
 0 0 24 17 65 0 132 76 133 61 70 54 0 134 +15 132 182 0 133 135 0 17 76 0 132 13
6 65 74 134 137 0 127 +17 133 0 132 65 136 66 73 112 0 103 -17 70 0 138 139 140
 66 65 54 0 133 -17 134 0 141 142 143 61 76 137 0 140 -15 141 44 0 142 144 145 1
7 142 0 141 146 134 78 140 147 0 0 -17 143 0 141 134 60 74 64 148 0 0 -16 137 19
8 0 ?76 147 148 149 148 123 24 17 140 0 138 70 150 61 142 147 0 0 +15 138 201 0
 70 151 0 17 150 0 138 140 139 78 152 153 0 142 +16 147 57 0 ?140 154 137 149 12
3 148 24 16 154 53 0 ?87 155 147 156 0 0 24 30 149 69 0 147 157 156 0 +.1 0 .05
 0 0 -1 16 123 219 0 ?57 148 158 149 137 147 24 16 148 176 0 ?64 137 123 149 147
 137 24 17 64 0 62 59 127 42 143 148 0 0 +15 62 222 0 59 46 0 17 127 0 62 64 63
 74 136 125 0 143 +17 63 0 62 127 59 71 100 108 0 0 -17 136 0 132 133 76 71 127
 125 0 63 -16 108 179 0 ?100 112 101 111 113 112 24 16 112 195 0 ?73 113 108 111
 108 101 24 30 111 5 0 113 159 122 0 +.1 .01 .05 0 0 -1 16 113 4 0 ?103 106 112
 111 101 108 24 17 103 0 99 73 91 66 139 113 0 0 +17 73 0 99 100 103 71 133 112
 0 136 +17 91 0 99 103 94 77 160 161 0 152 +17 139 0 138 150 70 77 103 113 0 0 -
17 94 0 99 91 97 92 120 121 0 162 +17 160 0 163 164 152 92 91 161 0 0 -16 161 13
 0 ?91 153 121 157 0 0 24 17 152 0 163 160 80 77 150 153 0 139 -15 163 78 0 80 1
65 0 17 80 0 163 152 164 78 146 110 0 150 +16 153 74 0 ?150 129 161 166 0 0 24 1
6 129 75 0 ?164 119 153 131 0 0 24 30 166 90 0 153 167 131 0 +.1 .01 .05 0 -1 0
 30 167 66 0 110 168 166 0 +-.1 0 .05 1 0 0 30 131 91 0 129 166 130 0 +-.1 .01 .
05 0 -1 0 16 110 45 0 ?80 101 155 167 0 0 24 30 168 67 0 155 156 167 0 +-.1 0 .0
5 0 0 1 16 155 49 0 ?84 110 154 168 0 0 24 30 156 68 0 154 149 168 0 +-.1 0 -.05
 -1 0 0 17 84 0 169 162 118 82 170 155 0 164 +15 169 80 0 84 171 0 17 162 0 169
 120 84 92 164 129 0 160 -17 118 0 169 84 120 85 107 119 0 170 +17 170 0 141 124
 146 85 84 155 0 0 -17 164 0 163 80 160 82 162 129 0 146 +17 146 0 141 170 142 8
2 80 110 0 0 -17 124 0 141 60 170 88 87 154 0 115 -17 60 0 141 143 124 42 57 123
 0 64 -17 87 0 114 107 115 85 124 154 0 118 +17 120 0 169 118 162 95 94 121 0 0
 -16 121 10 0 ?94 161 106 172 0 0 24 30 172 11 0 121 122 157 0 +-.1 .01 .05 0 0
 1 30 122 8 0 106 111 172 0 +-.1 .01 -.05 -1 0 0 30 157 14 0 161 172 149 0 +-.1
 .01 .05 1 0 0 14 255 171 81 173 ?165 116 169 36 174 -0 0 165 116 52 81 1 173 32
0 175 171 176 0 0 177 178 14 165 79 177 ?179 171 163 36 180 -0 0 179 171 52 14 1
16 83 181 ?171 48 114 36 49 -0 0 171 48 52 50 174 87 0 171 180 49 0 +-.1 .01 .05
 1 0 0 0 0 -1 13 52 29 0 0 0 0 0 0 40 46 14 46 224 182 ?151 0 62 36 37 -151 48 1
51 0 52 81 1 182 323 175 46 183 0 181 184 185 14 151 203 184 ?135 46 138 36 37 -
135 46 135 46 52 14 48 85 186 ?116 144 56 36 37 -46 135 116 144 52 81 1 186 325
 175 48 187 0 184 188 189 14 144 111 188 ?48 104 141 36 190 +0 0 48 104 52 14 13
5 184 191 ?104 151 132 36 37 -48 151 104 151 52 81 1 191 327 175 135 192 0 188 1
93 194 14 104 117 193 ?144 135 99 36 195 -0 0 144 135 52 81 1 193 328 175 104 19
6 0 191 197 198 50 195 2 0 104 199 190 0 +0 .01 0 0 -1 0 0 0 -1 51 255 199 139 0
 179 0 195 0 --277555756156289e-31 .01 208166817117217e-31 0 -1 0 .02 0 0 -1 50
 190 65 0 144 195 180 0 +0 0 0 0 -1 0 0 0 -1 50 180 86 0 165 190 174 0 +-.1 .01
 .05 0 0 -1 -1 0 0 14 179 126 197 ?0 165 200 36 199 +0 0 0 165 52 81 1 197 329 1
75 179 201 0 193 0 202 15 200 129 0 203 179 204 17 203 0 200 203 203 0 205 158 0
 0 +15 204 130 0 206 179 0 17 206 0 204 206 206 0 207 208 0 0 -17 207 0 145 207
 207 0 206 208 0 0 +16 208 120 0 ?207 158 0 159 0 0 24 16 158 123 0 ?203 123 208
 209 0 0 24 31 255 159 142 0 208 209 111 0 +-277555756156289e-31 0 2081668171172
17e-31 0 1 0 0 0 1 .02 31 209 143 0 158 0 159 0 +-277555756156289e-31 .01 208166
817117217e-31 0 1 0 0 0 1 .02 15 145 108 0 207 144 0 17 205 0 105 205 205 0 203
 158 0 0 -15 105 115 0 205 104 0 80 255 1 175 210 211 9000 1 1 1 1 1 1 1 1 0 FFF
FTFTFFFFFFF1 81 1 201 290 212 179 0 197 213 0 214 82 255 1 202 -166395759 80 1 2
12 0 215 8001 0 0 0 0 3 5 0 0 0 FFFFTFTFFFFFFF2 81 1 213 289 212 165 0 177 176 2
01 216 83 255 3 214 1 1 1 81 1 177 321 175 165 213 0 173 181 217 81 1 176 288 21
2 171 0 173 218 213 219 83 3 216 1 1 1 81 1 218 287 212 116 0 181 187 176 220 83
 3 219 1 1 1 81 1 181 322 175 116 218 0 177 182 221 81 1 187 286 212 48 0 186 22
2 218 223 83 3 220 1 1 1 81 1 222 285 212 144 0 188 196 187 224 83 3 223 1 1 1 8
1 1 188 326 175 144 222 0 186 191 225 81 1 196 284 212 104 0 193 192 222 226 83
 3 224 1 1 1 81 1 192 283 212 135 0 191 227 196 228 83 3 226 1 1 1 81 1 227 282
 212 151 0 184 183 192 229 83 3 228 1 1 1 81 1 184 324 175 151 227 0 182 186 230
 81 1 183 281 212 46 0 182 0 227 231 83 3 229 1 1 1 83 3 231 1 1 1 82 1 230 1086
980244 82 1 225 -133234540 82 1 221 -171507567 82 1 217 -172031855 79 255 15 215
 SDL/TYSA_COLOUR79 14 211 SWEntUnchanged82 1 198 -132710252 82 1 194 1071710356
 82 1 189 -171245420 82 1 185 1092550804 50 49 88 0 116 174 37 0 +-.1 .01 -.05 0
 0 1 1 0 0 82 1 178 -171769711 19 47 95 0 24 0 40 36 S0 74 4 CI16 index_map_offs
et0 0 1 dCCZ20 45 4 0 0 197 44 201 33 0 0 0 0 0 0 0 0 0 0 0 0 0 0 0 0 81 2 44 26
5 232 24 0 33 0 0 233 0 80 2 232 234 235 8004 0 0 0 0 3 5 0 0 0 FFTFFFFFFFFFFF2
 3 83 1 233 1e3 79 16 235 SDL/TYSA_DENSITY80 1 43 236 237 8017 0 0 0 0 0 0 0 0 0
 TTTTTTTTTTTTTF3 79 13 237 SDL/TYSA_NAME81 1 22 333 43 12 238 0 0 0 0 70 23 0 4
 T12 0 0 4 20 1 239 239 13 25 94 0 12 0 240 0 0 241 0 50 26 89 0 242 243 0 0 +.1
5 .01 -.25 -1 0 0 0 0 1 30 27 232 0 30 244 0 0 +.15 .01 -.175 0 -1 0 29 28 223 0
 31 245 0 .15 0 -.175 19 29 28 0 12 241 0 246 V0 16 30 224 0 ?247 0 248 27 0 0 1
2 18 31 221 0 247 0 249 28 ?12 17 247 0 250 251 252 31 253 30 0 254 +18 249 218
 0 253 31 255 245 ?12 17 253 0 256 257 258 249 247 30 0 252 -18 255 200 0 259 24
9 260 261 ?12 29 245 220 0 249 261 28 .15 .01 -.175 29 261 202 0 255 262 245 .15
 0 -.225 29 262 199 0 260 263 261 .15 .01 -.225 18 260 197 0 264 255 265 262 ?12
 29 263 183 0 265 266 262 .15 .01 -.2 18 265 181 0 267 260 268 263 ?12 29 266 18
0 0 268 269 263 .15 0 -.2 18 268 178 0 251 265 270 266 ?12 29 269 70 0 271 272 2
66 .15 0 -.15 18 271 61 0 273 274 275 269 ?12 29 272 71 0 275 276 269 -.1 0 -.15
 18 275 62 0 277 271 278 272 ?12 29 276 72 0 278 279 272 -.1 0 -.25 18 278 63 0
 280 275 281 276 ?12 29 279 73 0 281 282 276 .15 0 -.25 18 281 64 0 283 278 0 27
9 ?12 29 282 27 0 270 284 279 .15 .01 -.15 18 270 25 0 285 268 286 282 ?12 29 28
4 24 0 286 287 282 -.1 .01 -.15 18 286 22 0 288 270 289 284 ?12 29 287 21 0 289
 290 284 -.1 .01 -.25 18 289 19 0 291 286 274 287 ?12 29 290 18 0 274 0 287 .15
 .01 -.25 18 274 16 0 292 289 271 290 ?12 17 292 0 293 291 294 274 295 296 0 297
 +15 293 3 0 298 299 300 17 291 0 293 288 292 289 297 301 0 302 +17 294 0 293 29
2 267 260 303 304 0 0 +17 295 0 305 259 306 260 292 296 0 294 -16 296 198 0 ?292
 304 307 308 304 309 12 17 297 0 310 311 302 274 291 301 0 306 -15 310 82 0 280
 312 0 17 311 0 310 280 297 281 306 313 0 0 +17 302 0 310 297 280 289 314 315 0
 316 -16 301 7 0 ?291 317 318 319 0 0 12 17 306 0 305 295 283 274 311 313 0 0 -1
5 305 84 0 295 242 0 17 283 0 305 306 259 281 320 321 0 322 +16 313 77 0 ?311 32
3 315 324 0 0 12 16 323 184 0 ?325 248 313 326 0 0 12 16 315 76 0 ?314 313 327 3
28 0 0 12 30 324 93 0 313 328 326 0 +.15 .01 -.25 0 -1 0 30 328 92 0 315 329 324
 0 +-.1 .01 -.25 0 -1 0 30 326 191 0 323 324 244 0 +.15 .01 -.2 0 -1 0 30 244 21
1 0 248 326 27 0 +.15 .01 -.225 0 -1 0 16 248 203 0 ?259 30 323 244 0 0 12 17 25
9 0 305 283 295 255 264 248 0 320 +17 264 0 330 303 331 260 259 248 0 295 -17 32
0 0 332 333 322 255 283 321 0 331 -15 332 44 0 334 335 336 17 333 0 332 254 320
 268 331 337 0 0 -17 322 0 332 320 338 281 280 339 0 311 -16 321 201 0 ?283 337
 340 341 337 342 12 17 331 0 330 264 325 255 333 337 0 0 +15 330 204 0 264 343 0
 17 325 0 330 331 303 268 344 323 0 333 +16 337 179 0 ?331 342 321 341 345 321 1
2 16 342 222 0 ?251 345 337 341 321 345 12 30 341 69 0 345 346 347 0 +.15 0 -.25
 0 0 -1 16 345 57 0 ?258 339 342 341 342 337 12 17 258 0 256 253 348 31 334 345
 0 0 +16 339 53 0 ?280 349 345 347 0 0 12 17 280 0 310 302 311 278 322 339 0 314
 +16 349 49 0 ?277 307 339 350 0 0 12 30 347 68 0 339 341 350 0 +-.1 0 -.25 -1 0
 0 30 350 67 0 349 347 351 0 +-.1 0 -.25 1387778780781446e-31 0 1 30 351 66 0 30
7 350 352 0 +-.1 0 -.15 1 0 0 16 307 45 0 ?273 296 349 351 0 0 12 30 352 90 0 35
3 351 329 0 +.15 .01 -.15 0 -1 0 16 353 74 0 ?348 327 354 352 0 0 12 30 329 91 0
 327 352 328 0 +-.1 .01 -.15 0 -1 0 16 327 75 0 ?355 315 353 329 0 0 12 17 355 0
 356 273 357 275 358 327 0 359 +15 356 78 0 273 360 0 17 273 0 356 361 355 271 3
59 307 0 348 +17 357 0 356 355 361 286 285 354 0 0 -17 358 0 362 316 277 286 355
 327 0 357 -17 359 0 332 338 334 275 273 307 0 0 -17 338 0 332 322 359 278 277 3
49 0 0 -17 334 0 332 359 254 271 258 345 0 0 -17 254 0 332 334 333 31 251 342 0
 258 -17 251 0 250 344 247 268 254 342 0 325 +15 250 185 0 252 363 0 17 344 0 25
0 252 251 265 325 323 0 303 -17 252 0 250 247 344 249 267 309 0 298 -17 303 0 33
0 325 264 265 294 304 0 0 -16 304 182 0 ?294 309 296 308 318 296 12 16 309 219 0
 ?267 318 304 308 296 318 12 30 308 5 0 318 364 319 0 +.15 .01 -.25 0 0 -1 16 31
8 4 0 ?298 301 309 308 309 304 12 17 298 0 293 267 285 249 257 318 0 0 +17 267 0
 293 294 298 265 252 309 0 344 +17 285 0 293 298 288 270 357 354 0 361 +17 257 0
 256 348 253 270 298 318 0 0 -15 256 225 0 253 240 0 17 348 0 256 258 257 271 36
1 353 0 334 +17 361 0 356 357 273 270 348 353 0 257 -14 240 227 365 ?343 0 256 2
5 26 -343 242 343 0 246 81 1 365 323 175 240 366 0 0 367 368 14 343 206 367 ?363
 240 330 25 26 -363 240 363 240 246 14 242 85 369 ?312 335 305 25 26 -240 363 31
2 335 246 13 246 29 0 0 0 0 0 0 29 240 81 1 369 325 175 242 370 0 367 371 372 14
 312 83 371 ?373 242 310 25 243 -0 0 373 242 246 14 335 111 374 ?242 299 332 25
 375 -0 0 242 299 246 14 363 187 376 ?299 343 250 25 26 -242 343 299 343 246 81
 1 376 328 175 363 377 0 374 378 379 14 299 117 378 ?335 363 293 25 380 +0 0 335
 363 246 81 1 378 329 175 299 381 0 376 382 383 50 380 2 0 299 384 375 0 +0 .01
 0 0 1 0 0 0 1 51 384 139 0 385 0 380 0 -.025 .01 -.2 0 -1 0 .02 0 0 -1 50 375 6
5 0 335 380 386 0 +0 0 0 0 1 0 0 0 1 50 386 86 0 360 375 387 0 +-.1 .01 -.15 0 0
 -1 -1 0 0 14 360 79 382 ?385 373 356 25 386 -0 0 385 373 246 50 387 87 0 373 38
6 243 0 +-.1 .01 -.25 1 0 -1387778780781446e-31 -1387778780781446e-31 0 -1 14 37
3 81 388 ?360 312 362 25 387 -0 0 360 312 246 50 243 88 0 312 387 26 0 +-.1 .01
 -.25 0 0 1 1 0 0 81 1 388 331 175 373 389 0 382 390 391 15 362 80 0 277 373 0 1
7 277 0 362 358 314 275 338 349 0 355 +17 314 0 362 277 316 278 302 315 0 338 +1
7 316 0 362 314 358 289 288 317 0 0 -17 288 0 293 285 291 286 316 317 0 358 +16
 317 10 0 ?288 354 301 392 0 0 12 16 354 13 0 ?285 353 317 346 0 0 12 30 392 11
 0 317 319 346 0 +-.1 .01 -.25 1387778780781446e-31 0 1 30 319 8 0 301 308 392 0
 +-.1 .01 -.25 -1 0 0 30 346 14 0 354 392 341 0 +-.1 .01 -.15 1 0 0 81 1 389 291
 212 373 0 388 393 394 395 81 1 382 330 175 360 394 0 378 388 396 81 1 390 332 1
75 385 397 0 388 0 398 82 1 391 -155975535 14 385 126 390 ?0 360 399 25 384 +0 0
 0 360 246 81 1 397 293 212 385 0 390 394 0 400 82 1 398 -150667119 81 1 394 292
 212 360 0 382 389 397 401 83 3 400 1 1 1 83 3 401 1 1 1 15 399 129 0 402 385 40
3 17 402 0 399 402 402 0 404 340 0 0 +15 403 130 0 405 385 0 17 405 0 403 405 40
5 0 406 407 0 0 -17 406 0 336 406 406 0 405 407 0 0 +16 407 120 0 ?406 340 0 364
 0 0 12 16 340 123 0 ?402 321 407 408 0 0 12 31 364 142 0 407 408 308 0 +.025 0
 -.2 0 1 0 0 0 1 .02 31 408 143 0 340 0 364 0 +.025 .01 -.2 0 1 0 0 0 1 .02 15 3
36 109 0 406 335 0 17 404 0 300 404 404 0 402 340 0 0 -15 300 114 0 404 299 0 82
 1 396 -156237679 81 1 393 290 212 312 0 371 370 389 409 83 3 395 1 1 1 81 1 371
 326 175 312 393 0 369 374 410 81 1 370 289 212 242 0 369 411 393 412 83 3 409 1
 1 1 81 1 411 288 212 335 0 374 381 370 413 83 3 412 1 1 1 81 1 374 327 175 335
 411 0 371 376 414 81 1 381 287 212 299 0 378 377 411 415 83 3 413 1 1 1 81 1 37
7 286 212 363 0 376 416 381 417 83 3 415 1 1 1 81 1 416 285 212 343 0 367 366 37
7 418 83 3 417 1 1 1 81 1 367 324 175 343 416 0 365 369 419 81 1 366 284 212 240
 0 365 0 416 420 83 3 418 1 1 1 83 3 420 1 1 1 82 1 419 1117192340 82 1 414 -131
858284 82 1 410 -155713391 82 1 383 -131333996 82 1 379 1111687316 82 1 372 -155
451244 82 1 368 1122828436 19 241 95 0 12 0 29 25 S0 74 20 239 4 0 0 390 238 397
 22 0 0 0 0 0 0 0 0 0 0 0 0 0 0 0 0 81 2 238 268 232 12 0 22 0 0 421 0 83 1 421
 1e3 81 1 10 329 43 7 422 0 0 0 0 70 11 0 4 T7 0 0 4 20 1 423 423 13 13 94 0 7 0
 424 0 0 425 0 50 14 89 0 426 427 0 0 +.05 .01 .15 -1 0 693889390390723e-31 6938
89390390723e-31 0 1 30 15 228 0 18 428 0 0 +.05 .01 .175 0 -1 0 29 16 219 0 19 4
29 0 .05 0 .175 19 17 28 0 7 425 0 430 V0 16 18 220 0 ?431 0 432 15 0 0 7 18 19
 217 0 431 0 433 16 ?7 17 431 0 434 435 436 19 437 18 0 438 +18 433 214 0 437 19
 439 429 ?7 17 437 0 440 441 442 433 431 18 0 436 -18 439 196 0 443 433 444 445
 ?7 29 429 216 0 433 445 16 .05 .01 .175 29 445 198 0 439 446 429 .05 0 .225 29
 446 195 0 444 447 445 .05 .01 .225 18 444 193 0 448 439 449 446 ?7 29 447 179 0
 449 450 446 .05 .01 .2 18 449 177 0 451 444 452 447 ?7 29 450 176 0 452 453 447
 .05 0 .2 18 452 174 0 454 449 455 450 ?7 29 453 70 0 456 457 450 .05 0 .25 18 4
56 61 0 458 459 460 453 ?7 29 457 71 0 460 461 453 -.1 0 .25 18 460 62 0 462 456
 463 457 ?7 29 461 72 0 463 464 457 -.1 0 .15 18 463 63 0 465 460 466 461 ?7 29
 464 73 0 466 467 461 .05 0 .15 18 466 64 0 435 463 0 464 ?7 29 467 27 0 455 468
 464 .05 .01 .25 18 455 25 0 469 452 470 467 ?7 29 468 24 0 470 471 467 -.1 .01
 .25 18 470 22 0 472 455 473 468 ?7 29 471 21 0 473 474 468 -.1 .01 .15 18 473 1
9 0 475 470 459 471 ?7 29 474 18 0 459 0 471 .05 .01 .15 18 459 16 0 476 473 456
 474 ?7 17 476 0 477 475 478 459 436 479 0 480 +15 477 3 0 481 482 483 17 475 0
 477 472 476 473 480 484 0 485 +17 478 0 477 476 451 433 441 486 0 0 +17 436 0 4
34 431 487 433 476 479 0 478 -16 479 215 0 ?476 486 488 489 490 491 7 17 480 0 4
92 493 485 459 475 484 0 487 -15 492 82 0 465 494 0 17 493 0 492 465 480 466 487
 495 0 0 +17 485 0 492 480 465 473 496 497 0 498 -16 484 7 0 ?475 499 491 500 0
 0 7 17 487 0 434 436 435 459 493 495 0 0 -15 434 84 0 436 426 0 17 435 0 434 48
7 431 466 438 501 0 502 +16 495 77 0 ?493 503 497 504 0 0 7 16 503 180 0 ?505 43
2 495 506 0 0 7 16 497 76 0 ?496 495 507 508 0 0 7 30 504 93 0 495 508 506 0 +.0
5 .01 .15 0 -1 0 30 508 92 0 497 509 504 0 +-.1 .01 .15 0 -1 0 30 506 187 0 503
 504 428 0 +.05 .01 .2 0 -1 0 30 428 207 0 432 506 15 0 +.05 .01 .225 0 -1 0 16
 432 199 0 ?443 18 503 428 0 0 7 17 443 0 510 454 511 439 448 432 0 512 +15 510
 181 0 511 513 0 17 454 0 510 514 443 452 512 515 0 505 +17 511 0 510 443 514 44
4 451 490 0 481 -17 448 0 516 517 518 444 443 432 0 511 -17 512 0 519 520 521 43
9 454 515 0 518 -15 519 44 0 520 522 523 17 520 0 519 524 512 456 518 525 0 0 -1
7 521 0 519 512 438 452 442 526 0 0 -16 515 197 0 ?454 525 526 527 526 501 7 17
 518 0 516 448 528 439 520 525 0 0 +15 516 200 0 448 529 0 17 528 0 516 518 517
 456 530 531 0 520 +16 525 57 0 ?518 532 515 527 501 526 7 16 532 53 0 ?465 533
 525 534 0 0 7 30 527 69 0 525 535 534 0 +.05 0 .15 -693889390390723e-31 0 -1 16
 501 218 0 ?435 526 536 527 515 525 7 16 526 175 0 ?442 515 501 527 525 515 7 17
 442 0 440 437 505 19 521 526 0 0 +15 440 221 0 437 424 0 17 505 0 440 442 441 4
52 514 503 0 521 +17 441 0 440 505 437 449 478 486 0 0 -17 514 0 510 511 454 449
 505 503 0 441 -16 486 178 0 ?478 490 479 489 491 490 7 16 490 194 0 ?451 491 48
6 489 486 479 7 30 489 5 0 491 537 500 0 +.05 .01 .15 -693889390390723e-31 0 -1
 16 491 4 0 ?481 484 490 489 479 486 7 17 481 0 477 451 469 444 517 491 0 0 +17
 451 0 477 478 481 449 511 490 0 514 +17 469 0 477 481 472 455 538 539 0 530 +17
 517 0 516 528 448 455 481 491 0 0 -17 472 0 477 469 475 470 498 499 0 540 +17 5
38 0 541 542 530 470 469 539 0 0 -16 539 13 0 ?469 531 499 535 0 0 7 17 530 0 54
1 538 458 455 528 531 0 517 -15 541 78 0 458 543 0 17 458 0 541 530 542 456 524
 488 0 528 +16 531 74 0 ?528 507 539 544 0 0 7 16 507 75 0 ?542 497 531 509 0 0
 7 30 544 90 0 531 545 509 0 +.05 .01 .25 0 -1 0 30 545 66 0 488 546 544 0 +-.1
 0 .25 1 0 0 30 509 91 0 507 544 508 0 +-.1 .01 .25 0 -1 0 16 488 45 0 ?458 479
 533 545 0 0 7 30 546 67 0 533 534 545 0 +-.1 0 .15 1387778780781446e-31 0 1 16
 533 49 0 ?462 488 532 546 0 0 7 30 534 68 0 532 527 546 0 +-.1 0 .15 -1 0 0 17
 462 0 547 540 496 460 548 533 0 542 +15 547 80 0 462 549 0 17 540 0 547 498 462
 470 542 507 0 538 -17 496 0 547 462 498 463 485 497 0 548 +17 548 0 519 502 524
 463 462 533 0 0 -17 542 0 541 458 538 460 540 507 0 524 +17 524 0 519 548 520 4
60 458 488 0 0 -17 502 0 519 438 548 466 465 532 0 493 -17 438 0 519 521 502 19
 435 501 0 442 -17 465 0 492 485 493 463 502 532 0 496 +17 498 0 547 496 540 473
 472 499 0 0 -16 499 10 0 ?472 539 484 550 0 0 7 30 550 11 0 499 500 535 0 +-.1
 .01 .15 1387778780781446e-31 0 1 30 500 8 0 484 489 550 0 +-.1 .01 .15 -1 0 0 3
0 535 14 0 539 550 527 0 +-.1 .01 .25 1 0 0 14 549 81 551 ?543 494 547 13 552 -0
 0 543 494 430 81 1 551 319 175 549 553 0 0 554 555 14 543 79 554 ?556 549 541 1
3 557 -0 0 556 549 430 14 494 83 558 ?549 426 492 13 427 -0 0 549 426 430 50 552
 87 0 549 557 427 0 +-.1 .01 .15 1 0 -1387778780781446e-31 -1387778780781446e-31
 0 -1 13 430 29 0 0 0 0 0 0 17 424 14 424 223 559 ?529 0 440 13 14 -529 426 529
 0 430 81 1 559 322 175 424 560 0 558 561 562 14 529 202 561 ?513 424 516 13 14
 -513 424 513 424 430 14 426 85 563 ?494 522 434 13 14 -424 513 494 522 430 81 1
 563 324 175 426 564 0 561 565 566 14 522 111 565 ?426 482 519 13 567 -0 0 426 4
82 430 14 513 183 568 ?482 529 510 13 14 -426 529 482 529 430 81 1 568 326 175 5
13 569 0 565 570 571 14 482 117 570 ?522 513 477 13 572 +0 0 522 513 430 81 1 57
0 327 175 482 573 0 568 574 575 50 572 2 0 482 576 567 0 +0 .01 0 0 1 0 0 0 1 51
 576 139 0 556 0 572 0 --.025 .01 .2 0 -1 0 .02 0 0 -1 50 567 65 0 522 572 557 0
 +0 0 0 0 1 0 0 0 1 50 557 86 0 543 567 552 0 +-.1 .01 .25 0 0 -1 -1 0 0 14 556
 126 574 ?0 543 577 13 576 +0 0 0 543 430 81 1 574 328 175 556 578 0 570 0 579 1
5 577 129 0 580 556 581 17 580 0 577 580 580 0 582 536 0 0 +15 581 130 0 583 556
 0 17 583 0 581 583 583 0 584 585 0 0 -17 584 0 523 584 584 0 583 585 0 0 +16 58
5 120 0 ?584 536 0 537 0 0 7 16 536 123 0 ?580 501 585 586 0 0 7 31 537 142 0 58
5 586 489 0 +-.025 0 .2 0 1 0 0 0 1 .02 31 586 143 0 536 0 537 0 +-.025 .01 .2 0
 1 0 0 0 1 .02 15 523 109 0 584 522 0 17 582 0 483 582 582 0 580 536 0 0 -15 483
 114 0 582 482 0 81 1 578 289 212 556 0 574 587 0 588 82 1 579 -134938479 81 1 5
87 288 212 543 0 554 553 578 589 83 3 588 1 1 1 81 1 554 320 175 543 587 0 551 5
58 590 81 1 553 287 212 549 0 551 591 587 592 83 3 589 1 1 1 81 1 591 286 212 49
4 0 558 564 553 593 83 3 592 1 1 1 81 1 558 321 175 494 591 0 554 559 594 81 1 5
64 285 212 426 0 563 595 591 596 83 3 593 1 1 1 81 1 595 284 212 522 0 565 573 5
64 597 83 3 596 1 1 1 81 1 565 325 175 522 595 0 563 568 598 81 1 573 283 212 48
2 0 570 569 595 599 83 3 597 1 1 1 81 1 569 282 212 513 0 568 600 573 601 83 3 5
99 1 1 1 81 1 600 281 212 529 0 561 560 569 602 83 3 601 1 1 1 81 1 561 323 175
 529 600 0 559 563 603 81 1 560 280 212 424 0 559 0 600 604 83 3 602 1 1 1 83 3
 604 1 1 1 82 1 603 1167523988 82 1 598 -130482028 82 1 594 -139984751 82 1 590
 -140509039 82 1 575 -129957740 82 1 571 1142423700 82 1 566 -139722604 82 1 562
 1173094548 50 427 88 0 494 552 14 0 +-.1 .01 .15 0 0 1 1 0 0 82 1 555 -14024689
5 19 425 95 0 7 0 17 13 S0 74 20 423 4 0 0 574 422 578 10 0 0 0 0 0 0 0 0 0 0 0
 0 0 0 0 0 81 2 422 264 232 7 0 10 0 0 605 0 83 1 605 1e3 74 20 6 1 0 0 2 0 0 0
 0 0 0 0 0 0 0 0 0 0 0 0 0 0 0 0 80 2 5 606 607 9000 0 0 0 0 3 5 0 0 0 TFFFFFFFF
FFFFF9 1 79 18 607 MULTI_BODY_ID_20011 0 
