**ABCDEFGHIJKLMNOPQRSTUVWXYZabcdefghijklmnopqrstuvwxyz**************************
**PARASOLID !"#$%&'()*+,-./:;<=>?@[\]^_`{|}~0123456789**************************
**PART1;
MC=AMD64;
MC_MODEL=Intel64 Family 6 Model 60 Stepping 3, GenuineIntel;
MC_ID=unknown;
OS=Windows_NT;
OS_RELEASE=unknown;
FRU=Parasolid Version 30.0, build 310,  6- 8-2018;
APPL=SOLIDWORKS 2018-2018211;
SITE=;
USER=unknown;
FORMAT=text;
GUISE=transmit;
KEY=梁完整.SLDPRT;
FILE=梁完整.SLDPRT.x_t;
DATE=Mon Dec 31 11:01:06 2018;
**PART2;
SCH=SCH_3000310_30000;
USFLD_SIZE=0;
**PART3;
**END_OF_HEADER*****************************************************************
T51 : TRANSMIT FILE created by modeller version 300031023 SCH_3000310_30000_1300
6205 0 10 19 CCCCCCCI4 mesh1006 0 I8 polyline1008 0 CCCCCCCCCCZ1 9 2 3 0 0 0 0 0
 0 0 1e3 1e-8 0 0 0 1 0 1 4 81 255 2 2 9 5 1 0 0 0 0 0 0 70 11 CI9 list_type0 0
 1 uI10 notransmit0 0 1 lCCCDCCDI12 finger_index0 0 1 dI12 finger_block1012 0 CZ
3 0 4 T1 0 0 1 20 1 6 6 11 255 4 7 0 1 7 8 1 9 0 0 0 12 33 CCCCCCI4 mesh1006 0 I
8 polyline1008 0 CCCCCCCDI5 owner1040 0 CCCCCCI13 boundary_mesh1006 0 I17 bounda
ry_polyline1008 0 CCCA16 index_map_offset0 0 1 dA9 index_map82 0 A17 node_id_ind
ex_map82 0 A20 schema_embedding_map82 0 A5 child12 0 A14 lowest_node_id0 0 1 dZ7
 217 10 11 0 0 0 0 0 0 1e3 1e-8 4 12 0 1 0 1 1 13 14 15 16 0 0 17 18 19 0 0 0 0
 0 0 100 255 8 8 4 0 0 1 0 0 0 1 0 0 0 1 0 0 0 1 0 ?11 9 5 0 1 12 20 1 21 4 0 0
 12 12 178 22 23 0 0 0 0 0 0 1e3 1e-8 9 24 7 1 0 1 1 25 26 27 28 0 0 29 30 31 0
 0 0 0 0 0 100 20 6 9 0 0 1 0 0 0 1 0 0 0 1 0 0 0 1 0 ?11 21 3 0 1 24 32 1 33 9
 0 0 12 24 208 34 35 0 0 0 0 0 0 1e3 1e-8 21 36 12 1 0 1 1 37 38 39 40 0 0 41 42
 43 0 0 0 0 0 0 100 32 4 21 0 0 1 0 0 0 1 0 0 0 1 0 0 0 1 0 ?11 33 1 0 1 36 44 1
 0 21 0 0 12 36 187 45 46 0 0 0 0 0 0 1e3 1e-8 33 47 24 1 0 1 1 48 49 50 51 0 0
 52 53 54 0 0 0 0 0 0 100 44 2 33 0 0 1 0 0 0 1 0 0 0 1 0 0 0 1 0 ?81 1 45 187 5
5 36 56 0 0 0 0 70 46 0 4 T36 0 0 4 20 1 57 57 13 255 48 94 0 36 0 58 0 0 59 0 5
0 255 49 89 0 58 60 0 0 +0 0 .1 1 0 0 0 0 -1 30 255 50 93 0 53 61 0 0 +0 0 .1 0
 0 -1 29 255 51 70 0 62 63 0 0 .02 -.1 19 8 CCCCCCCA5 owner12 0 Z52 28 0 36 59 0
 64 V0 16 255 53 77 0 ?65 0 66 50 0 0 36 18 255 54 25 0 67 0 68 69 ?36 17 255 67
 0 70 71 72 54 73 74 0 75 +18 68 22 0 72 54 76 77 ?36 29 69 27 0 54 77 78 0 .02
 .1 29 77 24 0 68 79 69 .005 .02 .1 29 78 73 0 80 69 81 0 0 -.1 18 80 64 0 82 83
 0 78 ?36 29 81 72 0 83 78 63 .005 0 -.1 18 83 63 0 84 85 80 81 ?36 29 63 71 0 8
5 81 51 .005 .02 -.1 18 85 62 0 86 62 83 63 ?36 17 86 0 87 88 89 85 90 91 0 92 +
18 62 61 0 93 94 85 51 ?36 17 93 0 95 75 92 62 96 97 0 98 +18 94 16 0 99 76 62 1
00 ?36 17 99 0 101 65 102 94 103 104 0 71 -18 76 19 0 103 68 94 79 ?36 29 100 18
 0 94 0 79 0 0 .1 29 79 21 0 76 100 77 .005 0 .1 17 103 0 70 72 71 76 99 104 0 1
02 +15 255 70 3 0 71 105 0 17 72 0 70 67 103 68 106 107 0 88 +17 71 0 70 103 67
 94 108 109 0 110 +16 104 7 0 ?103 107 109 111 0 0 36 17 102 0 101 99 84 76 89 6
6 0 106 -15 101 82 0 84 112 0 17 84 0 101 102 65 83 82 113 0 89 +17 89 0 87 86 1
06 83 102 66 0 90 +16 66 76 0 ?89 53 114 61 0 0 36 17 106 0 87 89 88 76 72 107 0
 0 -15 87 80 0 86 115 0 17 88 0 87 106 86 68 92 114 0 73 -16 107 10 0 ?72 74 104
 116 0 0 36 16 74 13 0 ?67 117 107 118 0 0 36 30 116 11 0 107 111 118 0 +.005 0
 .1 0 1 0 30 111 8 0 104 119 116 0 +0 0 .1 1 0 0 30 118 14 0 74 116 120 0 +0 .02
 .1 -1 0 0 30 120 69 0 121 118 122 0 +0 0 -.1 0 -1 0 16 121 57 0 ?123 113 0 120
 0 0 36 30 122 68 0 113 120 124 0 +0 0 -.1 1 0 0 16 113 53 0 ?84 91 121 122 0 0
 36 30 124 67 0 91 122 125 0 +.005 0 -.1 0 1 0 16 91 49 0 ?86 97 113 124 0 0 36
 30 125 66 0 97 124 126 0 +0 .02 -.1 -1 0 0 16 97 45 0 ?93 109 91 125 0 0 36 30
 126 90 0 117 125 127 0 +0 .02 .1 0 0 -1 16 117 74 0 ?98 114 74 126 0 0 36 30 12
7 91 0 114 126 61 0 +.005 .02 .1 0 0 -1 16 114 75 0 ?92 66 117 127 0 0 36 30 61
 92 0 66 127 50 0 +.005 0 .1 0 0 -1 17 92 0 95 93 73 85 88 114 0 96 +15 95 78 0
 93 128 0 17 73 0 95 92 75 68 67 74 0 0 -17 96 0 129 90 130 85 93 97 0 0 -15 129
 44 0 130 131 0 17 90 0 129 82 96 83 86 91 0 0 -17 130 0 129 96 82 62 123 121 0
 0 -17 82 0 129 130 90 80 84 113 0 65 -17 123 0 132 110 98 80 130 121 0 0 +15 13
2 84 0 123 58 0 17 110 0 132 108 123 94 65 53 0 0 -17 98 0 132 123 108 62 75 117
 0 130 +17 108 0 132 98 110 54 71 109 0 0 -17 75 0 95 73 93 54 98 117 0 108 -16
 109 4 0 ?71 104 97 119 0 0 36 30 119 5 0 109 0 111 0 +0 0 .1 0 -1 0 17 65 0 101
 84 99 80 110 53 0 123 +14 255 58 85 133 ?112 0 132 48 49 -0 0 112 0 64 81 1 133
 181 134 58 135 0 0 136 137 14 112 83 136 ?115 58 101 48 60 -0 0 115 58 64 13 64
 29 0 0 0 0 0 0 52 58 81 1 136 182 134 112 138 0 133 139 140 14 115 81 139 ?128
 112 87 48 141 -0 0 128 112 64 50 60 88 0 112 141 49 0 +0 0 .1 0 1 0 0 0 1 50 14
1 87 0 115 142 60 0 +.005 0 .1 -1 0 0 0 0 1 50 142 86 0 128 143 141 0 +0 .02 .1
 0 -1 0 0 0 -1 14 128 79 144 ?105 115 95 48 142 -0 0 105 115 64 50 143 65 0 131
 145 142 0 +0 0 -.1 0 0 -1 -1 0 0 14 131 43 146 ?0 105 129 48 143 +0 0 0 105 64
 50 145 2 0 105 0 143 0 +0 0 .1 0 0 -1 -1 0 0 14 105 1 147 ?131 128 70 48 145 -0
 0 131 128 64 81 1 147 186 134 105 148 0 146 0 149 80 255 1 134 150 151 9000 1 1
 1 1 1 1 1 1 0 FFFFTFTFFFFFFF1 81 1 148 165 152 105 0 147 153 154 155 81 1 146 1
85 134 131 154 0 144 147 156 82 255 1 149 597754013 81 1 154 166 152 131 0 146 1
48 0 157 81 1 144 184 134 128 153 0 139 146 158 82 1 156 603390109 81 1 153 164
 152 128 0 144 159 148 160 81 1 139 183 134 115 159 0 136 144 161 82 1 158 60430
7613 81 1 159 163 152 115 0 139 138 153 162 82 1 161 604569757 80 1 152 0 163 80
01 0 0 0 0 3 5 0 0 0 FFFFTFTFFFFFFF2 81 1 138 162 152 112 0 136 135 159 164 83 2
55 3 162 1 1 1 81 1 135 161 152 58 0 133 0 138 165 83 3 164 1 1 1 83 3 165 1 1 1
 79 255 15 163 SDL/TYSA_COLOUR83 3 160 1 1 1 83 3 157 1 1 1 83 3 155 1 1 1 79 14
 151 SWEntUnchanged82 1 140 604831901 82 1 137 605094045 19 59 95 0 36 0 52 48 S
0 74 4 CI16 index_map_offset0 0 1 dCCZ20 57 4 0 0 147 56 154 45 0 0 0 0 0 0 0 0
 0 0 0 0 0 0 0 0 81 2 56 142 166 36 0 45 0 0 167 0 80 2 166 168 169 8004 0 0 0 0
 3 5 0 0 0 FFTFFFFFFFFFFF2 3 83 1 167 1e3 79 16 169 SDL/TYSA_DENSITY80 1 55 170
 171 8017 0 0 0 0 0 0 0 0 0 TTTTTTTTTTTTTF3 79 13 171 SDL/TYSA_NAME81 1 34 208 5
5 24 172 0 0 0 0 70 35 0 4 T24 0 0 4 20 1 173 173 13 37 94 0 24 0 174 0 0 175 0
 50 38 89 0 174 176 0 0 +.005 0 -.5 0 1 0 0 0 1 30 39 93 0 42 177 0 0 +0 0 -.5 0
 0 1 29 40 70 0 178 179 0 .005 0 -.1 19 41 28 0 24 175 0 180 V0 16 42 77 0 ?181
 0 182 39 0 0 24 18 43 25 0 183 0 184 185 ?24 17 183 0 186 187 188 43 189 190 0
 191 +18 184 22 0 188 43 192 193 ?24 29 185 27 0 43 193 194 .005 0 -.5 29 193 24
 0 184 195 185 .005 .02 -.5 29 194 73 0 196 185 197 0 0 -.1 18 196 64 0 198 199
 0 194 ?24 29 197 72 0 199 194 179 0 .02 -.1 18 199 63 0 200 201 196 197 ?24 29
 179 71 0 201 197 40 .005 .02 -.1 18 201 62 0 202 178 199 179 ?24 17 202 0 203 2
04 205 201 206 207 0 208 +18 178 61 0 209 210 201 40 ?24 17 209 0 211 191 208 17
8 212 213 0 214 +18 210 16 0 215 192 178 216 ?24 17 215 0 217 181 218 210 219 22
0 0 187 -18 192 19 0 219 184 210 195 ?24 29 216 18 0 210 0 195 0 0 -.5 29 195 21
 0 192 216 193 0 .02 -.5 17 219 0 186 188 187 192 215 220 0 218 +15 186 3 0 187
 221 0 17 188 0 186 183 219 184 222 223 0 204 +17 187 0 186 219 183 210 224 225
 0 226 +16 220 7 0 ?219 223 225 227 0 0 24 17 218 0 217 215 200 192 205 182 0 22
2 -15 217 82 0 200 228 0 17 200 0 217 218 181 199 198 229 0 205 +17 205 0 203 20
2 222 199 218 182 0 206 +16 182 76 0 ?205 42 230 177 0 0 24 17 222 0 203 205 204
 192 188 223 0 0 -15 203 80 0 202 231 0 17 204 0 203 222 202 184 208 230 0 189 -
16 223 10 0 ?188 190 220 232 0 0 24 16 190 13 0 ?183 233 223 234 0 0 24 30 232 1
1 0 223 227 234 0 +0 .02 -.5 1 0 0 30 227 8 0 220 235 232 0 +0 0 -.5 0 1 0 30 23
4 14 0 190 232 236 0 +.005 .02 -.5 0 -1 0 30 236 69 0 237 234 238 0 +.005 0 -.1
 -1 0 0 16 237 57 0 ?239 229 0 236 0 0 24 30 238 68 0 229 236 240 0 +0 0 -.1 0 1
 0 16 229 53 0 ?200 207 237 238 0 0 24 30 240 67 0 207 238 241 0 +0 .02 -.1 1 0
 0 16 207 49 0 ?202 213 229 240 0 0 24 30 241 66 0 213 240 242 0 +.005 .02 -.1 0
 -1 0 16 213 45 0 ?209 225 207 241 0 0 24 30 242 90 0 233 241 243 0 +.005 0 -.5
 0 0 1 16 233 74 0 ?214 230 190 242 0 0 24 30 243 91 0 230 242 177 0 +.005 .02 -
.5 0 0 1 16 230 75 0 ?208 182 233 243 0 0 24 30 177 92 0 182 243 39 0 +0 .02 -.5
 0 0 1 17 208 0 211 209 189 201 204 230 0 212 +15 211 78 0 209 244 0 17 189 0 21
1 208 191 184 183 190 0 0 -17 212 0 245 206 246 201 209 213 0 0 -15 245 44 0 246
 247 0 17 206 0 245 198 212 199 202 207 0 0 -17 246 0 245 212 198 178 239 237 0
 0 -17 198 0 245 246 206 196 200 229 0 181 -17 239 0 248 226 214 196 246 237 0 0
 +15 248 84 0 239 174 0 17 226 0 248 224 239 210 181 42 0 0 -17 214 0 248 239 22
4 178 191 233 0 246 +17 224 0 248 214 226 43 187 225 0 0 -17 191 0 211 189 209 4
3 214 233 0 224 -16 225 4 0 ?187 220 213 235 0 0 24 30 235 5 0 225 0 227 0 +.005
 0 -.5 -1 0 0 17 181 0 217 200 215 196 226 42 0 239 +14 174 85 249 ?228 0 248 37
 38 -0 0 228 0 180 81 1 249 202 134 174 250 0 0 251 252 14 228 83 251 ?231 174 2
17 37 176 -0 0 231 174 180 13 180 29 0 0 0 0 0 0 41 174 81 1 251 203 134 228 253
 0 249 254 255 14 231 81 254 ?244 228 203 37 256 -0 0 244 228 180 50 176 88 0 22
8 256 38 0 +0 0 -.5 1 0 0 0 0 -1 50 256 87 0 231 257 176 0 +0 .02 -.5 0 -1 0 0 0
 -1 50 257 86 0 244 258 256 0 +.005 .02 -.5 -1 0 0 0 0 1 14 244 79 259 ?221 231
 211 37 257 -0 0 221 231 180 50 258 65 0 247 260 257 0 +0 0 -.1 0 0 -1 -1 0 0 14
 247 43 261 ?0 221 245 37 258 -0 0 0 221 180 50 260 2 0 221 0 258 0 +0 0 -.5 0 0
 -1 -1 0 0 14 221 1 262 ?247 244 186 37 260 +0 0 247 244 180 81 1 262 207 134 22
1 263 0 261 0 264 81 1 263 186 152 221 0 262 265 266 267 81 1 261 206 134 247 26
6 0 259 262 268 82 1 264 1675624653 81 1 266 187 152 247 0 261 263 0 269 81 1 25
9 205 134 244 265 0 254 261 270 82 1 268 1681260749 81 1 265 185 152 244 0 259 2
71 263 272 81 1 254 204 134 231 271 0 251 259 273 82 1 270 1682178253 81 1 271 1
84 152 231 0 254 253 265 274 82 1 273 1682440397 81 1 253 183 152 228 0 251 250
 271 275 83 3 274 1 1 1 81 1 250 182 152 174 0 249 0 253 276 83 3 275 1 1 1 83 3
 276 1 1 1 83 3 272 1 1 1 83 3 269 1 1 1 83 3 267 1 1 1 82 1 255 1682702541 82 1
 252 1682964685 19 175 95 0 24 0 41 37 S0 74 20 173 4 0 0 262 172 266 34 0 0 0 0
 0 0 0 0 0 0 0 0 0 0 0 0 81 2 172 140 166 24 0 34 0 0 277 0 83 1 277 1 81 1 22 1
78 55 12 278 0 0 0 0 70 23 0 4 T12 0 0 4 20 1 279 279 13 25 94 0 12 0 280 0 0 28
1 0 50 26 89 0 280 282 0 0 +.005 .02 .5 0 -1 0 0 0 -1 30 27 93 0 30 283 0 0 +0 .
02 .5 0 0 -1 29 28 70 0 284 285 0 .005 .02 .1 19 29 28 0 12 281 0 286 V0 16 30 7
7 0 ?287 0 288 27 0 0 12 18 31 25 0 289 0 290 291 ?12 17 289 0 292 293 294 31 29
5 296 0 297 +18 290 22 0 294 31 298 299 ?12 29 291 27 0 31 299 300 .005 .02 .5 2
9 299 24 0 290 301 291 .005 0 .5 29 300 73 0 302 291 303 0 .02 .1 18 302 64 0 30
4 305 0 300 ?12 29 303 72 0 305 300 285 0 0 .1 18 305 63 0 306 307 302 303 ?12 2
9 285 71 0 307 303 28 .005 0 .1 18 307 62 0 308 284 305 285 ?12 17 308 0 309 310
 311 307 312 313 0 314 +18 284 61 0 315 316 307 28 ?12 17 315 0 317 297 314 284
 318 319 0 320 +18 316 16 0 321 298 284 322 ?12 17 321 0 323 287 324 316 325 326
 0 293 -18 298 19 0 325 290 316 301 ?12 29 322 18 0 316 0 301 0 .02 .5 29 301 21
 0 298 322 299 0 0 .5 17 325 0 292 294 293 298 321 326 0 324 +15 292 3 0 293 327
 0 17 294 0 292 289 325 290 328 329 0 310 +17 293 0 292 325 289 316 330 331 0 33
2 +16 326 7 0 ?325 329 331 333 0 0 12 17 324 0 323 321 306 298 311 288 0 328 -15
 323 82 0 306 334 0 17 306 0 323 324 287 305 304 335 0 311 +17 311 0 309 308 328
 305 324 288 0 312 +16 288 76 0 ?311 30 336 283 0 0 12 17 328 0 309 311 310 298
 294 329 0 0 -15 309 80 0 308 337 0 17 310 0 309 328 308 290 314 336 0 295 -16 3
29 10 0 ?294 296 326 338 0 0 12 16 296 13 0 ?289 339 329 340 0 0 12 30 338 11 0
 329 333 340 0 +0 0 .5 1 0 0 30 333 8 0 326 341 338 0 +0 .02 .5 0 -1 0 30 340 14
 0 296 338 342 0 +.005 0 .5 0 1 0 30 342 69 0 343 340 344 0 +.005 .02 .1 -1 0 0
 16 343 57 0 ?345 335 0 342 0 0 12 30 344 68 0 335 342 346 0 +0 .02 .1 0 -1 0 16
 335 53 0 ?306 313 343 344 0 0 12 30 346 67 0 313 344 347 0 +0 0 .1 1 0 0 16 313
 49 0 ?308 319 335 346 0 0 12 30 347 66 0 319 346 348 0 +.005 0 .1 0 1 0 16 319
 45 0 ?315 331 313 347 0 0 12 30 348 90 0 339 347 349 0 +.005 .02 .5 0 0 -1 16 3
39 74 0 ?320 336 296 348 0 0 12 30 349 91 0 336 348 283 0 +.005 0 .5 0 0 -1 16 3
36 75 0 ?314 288 339 349 0 0 12 30 283 92 0 288 349 27 0 +0 0 .5 0 0 -1 17 314 0
 317 315 295 307 310 336 0 318 +15 317 78 0 315 350 0 17 295 0 317 314 297 290 2
89 296 0 0 -17 318 0 351 312 352 307 315 319 0 0 -15 351 44 0 352 353 0 17 312 0
 351 304 318 305 308 313 0 0 -17 352 0 351 318 304 284 345 343 0 0 -17 304 0 351
 352 312 302 306 335 0 287 -17 345 0 354 332 320 302 352 343 0 0 +15 354 84 0 34
5 280 0 17 332 0 354 330 345 316 287 30 0 0 -17 320 0 354 345 330 284 297 339 0
 352 +17 330 0 354 320 332 31 293 331 0 0 -17 297 0 317 295 315 31 320 339 0 330
 -16 331 4 0 ?293 326 319 341 0 0 12 30 341 5 0 331 0 333 0 +.005 .02 .5 -1 0 0
 17 287 0 323 306 321 302 332 30 0 345 +14 280 85 355 ?334 0 354 25 26 -0 0 334
 0 286 81 1 355 172 134 280 356 0 0 357 358 14 334 83 357 ?337 280 323 25 282 -0
 0 337 280 286 13 286 29 0 0 0 0 0 0 29 280 81 1 357 173 134 334 359 0 355 360 3
61 14 337 81 360 ?350 334 309 25 362 -0 0 350 334 286 50 282 88 0 334 362 26 0 +
0 .02 .5 1 0 0 0 0 -1 50 362 87 0 337 363 282 0 +0 0 .5 0 1 0 0 0 1 50 363 86 0
 350 364 362 0 +.005 0 .5 -1 0 0 0 0 1 14 350 79 365 ?327 337 317 25 363 -0 0 32
7 337 286 50 364 65 0 353 366 363 0 +0 0 .1 0 0 1 1 0 0 14 353 43 367 ?0 327 351
 25 364 -0 0 0 327 286 50 366 2 0 327 0 364 0 +0 0 .5 0 0 1 1 0 0 14 327 1 368 ?
353 350 292 25 366 +0 0 353 350 286 81 1 368 177 134 327 369 0 367 0 370 81 1 36
9 156 152 327 0 368 371 372 373 81 1 367 176 134 353 372 0 365 368 374 82 1 370
 1699021006 81 1 372 157 152 353 0 367 369 0 375 81 1 365 175 134 350 371 0 360
 367 376 82 1 374 1704657102 81 1 371 155 152 350 0 365 377 369 378 81 1 360 174
 134 337 377 0 357 365 379 82 1 376 1705574606 81 1 377 154 152 337 0 360 359 37
1 380 82 1 379 1705836750 81 1 359 153 152 334 0 357 356 377 381 83 3 380 1 1 1
 81 1 356 152 152 280 0 355 0 359 382 83 3 381 1 1 1 83 3 382 1 1 1 83 3 378 1 1
 1 83 3 375 1 1 1 83 3 373 1 1 1 82 1 361 1706098894 82 1 358 1706361038 19 281
 95 0 12 0 29 25 S0 74 20 279 4 0 0 368 278 372 22 0 0 0 0 0 0 0 0 0 0 0 0 0 0 0
 0 81 2 278 139 166 12 0 22 0 0 383 0 83 1 383 1e3 81 1 10 217 55 7 384 0 0 0 0
 70 11 0 4 T7 0 0 4 20 1 385 385 13 13 94 0 7 0 386 0 0 387 0 50 14 89 0 386 388
 0 0 +.015 .02 .1 0 0 -1 -1 0 0 30 15 93 0 18 389 0 0 +.015 0 .1 -1 0 0 29 16 70
 0 390 391 0 .005 .02 .1 19 17 28 0 7 387 0 392 V0 16 18 77 0 ?393 0 394 15 0 0
 7 18 19 25 0 395 0 396 397 ?7 17 395 0 398 399 400 19 401 402 0 403 +18 396 22
 0 400 19 404 405 ?7 29 397 27 0 19 405 406 .015 .02 .1 29 405 24 0 396 407 397
 .015 .02 -.1 29 406 73 0 408 397 409 .005 0 .1 18 408 64 0 410 411 0 406 ?7 29
 409 72 0 411 406 391 .005 0 -.1 18 411 63 0 412 413 408 409 ?7 29 391 71 0 413
 409 16 .005 .02 -.1 18 413 62 0 414 390 411 391 ?7 17 414 0 415 416 417 413 418
 419 0 420 +18 390 61 0 421 422 413 16 ?7 17 421 0 423 403 420 390 424 425 0 426
 +18 422 16 0 427 404 390 428 ?7 17 427 0 429 393 430 422 431 432 0 399 -18 404
 19 0 431 396 422 407 ?7 29 428 18 0 422 0 407 .015 0 .1 29 407 21 0 404 428 405
 .015 0 -.1 17 431 0 398 400 399 404 427 432 0 430 +15 398 3 0 399 433 0 17 400
 0 398 395 431 396 434 435 0 416 +17 399 0 398 431 395 422 436 437 0 438 +16 432
 7 0 ?431 435 437 439 0 0 7 17 430 0 429 427 412 404 417 394 0 434 -15 429 82 0
 412 440 0 17 412 0 429 430 393 411 410 441 0 417 +17 417 0 415 414 434 411 430
 394 0 418 +16 394 76 0 ?417 18 442 389 0 0 7 17 434 0 415 417 416 404 400 435 0
 0 -15 415 80 0 414 443 0 17 416 0 415 434 414 396 420 442 0 401 -16 435 10 0 ?4
00 402 432 444 0 0 7 16 402 13 0 ?395 445 435 446 0 0 7 30 444 11 0 435 439 446
 0 +.015 .02 -.1 0 1 0 30 439 8 0 432 447 444 0 +.015 0 .1 0 0 -1 30 446 14 0 40
2 444 448 0 +.015 .02 .1 0 0 1 30 448 69 0 449 446 450 0 +.005 .02 .1 0 -1 0 16
 449 57 0 ?451 441 0 448 0 0 7 30 450 68 0 441 448 452 0 +.005 0 .1 0 0 -1 16 44
1 53 0 ?412 419 449 450 0 0 7 30 452 67 0 419 450 453 0 +.005 .02 -.1 0 1 0 16 4
19 49 0 ?414 425 441 452 0 0 7 30 453 66 0 425 452 454 0 +.005 .02 .1 0 0 1 16 4
25 45 0 ?421 437 419 453 0 0 7 30 454 90 0 445 453 455 0 +.015 .02 .1 -1 0 0 16
 445 74 0 ?426 442 402 454 0 0 7 30 455 91 0 442 454 389 0 +.015 .02 -.1 -1 0 0
 16 442 75 0 ?420 394 445 455 0 0 7 30 389 92 0 394 455 15 0 +.015 0 -.1 -1 0 0
 17 420 0 423 421 401 413 416 442 0 424 +15 423 78 0 421 456 0 17 401 0 423 420
 403 396 395 402 0 0 -17 424 0 457 418 458 413 421 425 0 0 -15 457 44 0 458 459
 0 17 418 0 457 410 424 411 414 419 0 0 -17 458 0 457 424 410 390 451 449 0 0 -1
7 410 0 457 458 418 408 412 441 0 393 -17 451 0 460 438 426 408 458 449 0 0 +15
 460 84 0 451 386 0 17 438 0 460 436 451 422 393 18 0 0 -17 426 0 460 451 436 39
0 403 445 0 458 +17 436 0 460 426 438 19 399 437 0 0 -17 403 0 423 401 421 19 42
6 445 0 436 -16 437 4 0 ?399 432 425 447 0 0 7 30 447 5 0 437 0 439 0 +.015 .02
 .1 0 -1 0 17 393 0 429 412 427 408 438 18 0 451 +14 386 85 461 ?440 0 460 13 14
 -0 0 440 0 392 81 1 461 211 134 386 462 0 0 463 464 14 440 83 463 ?443 386 429
 13 388 -0 0 443 386 392 13 392 29 0 0 0 0 0 0 17 386 81 1 463 212 134 440 465 0
 461 466 467 14 443 81 466 ?456 440 415 13 468 -0 0 456 440 392 50 388 88 0 440
 468 14 0 +.015 0 .1 0 1 0 0 0 1 50 468 87 0 443 469 388 0 +.015 .02 -.1 0 0 1 1
 0 0 50 469 86 0 456 470 468 0 +.015 .02 .1 0 -1 0 0 0 -1 14 456 79 471 ?433 443
 423 13 469 -0 0 433 443 392 50 470 65 0 459 472 469 0 +.005 0 0 1 0 0 0 0 -1 14
 459 43 473 ?0 433 457 13 470 -0 0 0 433 392 50 472 2 0 433 0 470 0 +.015 0 0 1
 0 0 0 0 -1 14 433 1 474 ?459 456 398 13 472 +0 0 459 456 392 81 1 474 216 134 4
33 475 0 473 0 476 81 1 475 195 152 433 0 474 477 478 479 81 1 473 215 134 459 4
78 0 471 474 480 82 1 476 1722548431 81 1 478 196 152 459 0 473 475 0 481 81 1 4
71 214 134 456 477 0 466 473 482 82 1 480 1728184527 81 1 477 194 152 456 0 471
 483 475 484 81 1 466 213 134 443 483 0 463 471 485 82 1 482 1729102031 81 1 483
 193 152 443 0 466 465 477 486 82 1 485 1729364175 81 1 465 192 152 440 0 463 46
2 483 487 83 3 486 1 1 1 81 1 462 191 152 386 0 461 0 465 488 83 3 487 1 1 1 83
 3 488 1 1 1 83 3 484 1 1 1 83 3 481 1 1 1 83 3 479 1 1 1 82 1 467 1729626319 82
 1 464 1729888463 19 387 95 0 7 0 17 13 S0 74 20 385 4 0 0 474 384 478 10 0 0 0
 0 0 0 0 0 0 0 0 0 0 0 0 0 81 2 384 153 166 7 0 10 0 0 489 0 83 1 489 1e3 74 20
 6 1 0 0 2 0 0 0 0 0 0 0 0 0 0 0 0 0 0 0 0 0 0 0 80 2 5 490 491 9000 0 0 0 0 3 5
 0 0 0 TFFFFFFFFFFFFF9 1 79 18 491 MULTI_BODY_ID_20011 0 
